<?xml version="1.0" standalone="no"?>
<!DOCTYPE svg PUBLIC "-//W3C//DTD SVG 1.1//EN" "http://www.w3.org/Graphics/SVG/1.1/DTD/svg11.dtd" >
<svg xmlns="http://www.w3.org/2000/svg">
<metadata></metadata>
<defs>
<font id="ExoMedium" horiz-adv-x="1380" >
<font-face units-per-em="2048" ascent="1638" descent="-410" />
<missing-glyph horiz-adv-x="512" />
<glyph unicode="&#xfb01;" horiz-adv-x="1255" d="M39 918v135l192 34v101q0 184 113 303q115 119 303 119q76 0 207 -21.5t203 -46.5v-119l-359 21h-36q-76 0 -150 -45q-92 -57 -92 -213v-99l731 -20v-1067h-190v918h-541v-918h-189v918h-192z" />
<glyph unicode="&#xfb02;" horiz-adv-x="1470" d="M39 918v135l194 34v105q0 193 87.5 305.5t265.5 112.5h567v-1211q0 -156 45 -196q20 -18 66 -33q156 -43 170 -43v-127h-197q-145 0 -208.5 87t-63.5 300v1057h-338q-70 0 -111 -21q-94 -41 -94 -231v-105h283v-169h-287v-918h-189v918h-190z" />
<glyph horiz-adv-x="0" />
<glyph unicode="&#xd;" horiz-adv-x="1912" />
<glyph unicode=" "  horiz-adv-x="512" />
<glyph unicode="&#x09;" horiz-adv-x="512" />
<glyph unicode="&#xa0;" horiz-adv-x="512" />
<glyph unicode="!" horiz-adv-x="552" d="M160 47v135q0 51 49 51h131q47 0 47 -51v-135q0 -47 -47 -47h-131q-23 0 -36 13.5t-13 33.5zM168 1497h211l-19 -1096h-176z" />
<glyph unicode="&#x22;" horiz-adv-x="813" d="M162 1362v137h188v-137l-20 -275h-144zM465 1362v137h186v-137l-20 -275h-144z" />
<glyph unicode="#" horiz-adv-x="1425" d="M39 463l18 131h324l49 313h-321l20 131h324l75 461h131l-75 -461h315l74 461h131l-74 -461h361l-23 -131h-360l-50 -315h361l-21 -131h-362l-76 -461h-131l76 461l-318 2l-75 -463h-131l75 463h-317zM512 594l315 -2l50 315h-316z" />
<glyph unicode="$" horiz-adv-x="1173" d="M104 1008v133q4 211 110.5 289t281.5 81v177h135v-183q137 -8 383 -45v-147l-482 18h-42q-74 0 -136 -33.5t-61 -162.5v-119q0 -184 201 -185h245q227 0 297 -165q33 -82 33 -199v-129q0 -213 -139 -293q-111 -61 -262 -61h-37v-168h-135v176q-205 18 -344 45v143 q12 0 193 -7t294 -7q242 0 242 170v123q0 88 -35 136t-125 48h-246q-248 0 -330 170q-41 84 -41 195z" />
<glyph unicode="%" horiz-adv-x="1957" d="M80 975v266q0 135 59.5 196.5t208.5 61.5h207q145 0 203.5 -61.5t58.5 -196.5v-266q0 -137 -58.5 -198.5t-207.5 -61.5h-207q-147 0 -205.5 61.5t-58.5 198.5zM231 983q0 -70 26 -93.5t95 -23.5h191q80 0 101.5 24.5t21.5 92.5v248q0 70 -25 93.5t-94 23.5h-191 q-80 0 -102.5 -24t-22.5 -93v-248zM455 0l901 1499h162l-900 -1499h-163zM1143 264v266q0 133 57 195.5t209 62.5h207q147 0 205.5 -61t58.5 -197v-266q0 -137 -58.5 -198.5t-209.5 -61.5h-207q-145 0 -203.5 62.5t-58.5 197.5zM1294 272q0 -68 24.5 -92t94.5 -24h191 q80 0 102.5 24.5t22.5 91.5v248q0 70 -26 93.5t-95 23.5h-191q-78 0 -100.5 -23.5t-22.5 -93.5v-248z" />
<glyph unicode="&#x26;" horiz-adv-x="1327" d="M63 418q0 190 168 334l166 141l-123 168q-66 92 -65.5 200.5t106.5 188.5q51 39 114.5 47t139.5 8q186 0 406 -51v-131h-393q-170 0 -170 -86q0 -55 69 -152l443 -602l239 242l62 -70l-111 -219l-82 -92l250 -344h-221l-162 219l-145 -133q-104 -96 -258 -96 q-80 0 -176.5 38t-176.5 150.5t-80 239.5zM245.5 445.5q0.5 -89.5 51.5 -156t103.5 -93t83.5 -26.5q102 0 157 53l147 139l-288 386l-146 -123q-109 -90 -108.5 -179.5z" />
<glyph unicode="'" horiz-adv-x="399" d="M104 1362v137h191v-137l-21 -275h-147z" />
<glyph unicode="(" horiz-adv-x="708" d="M143 656.5q0 177.5 35 350.5t109.5 371.5t156.5 327.5l35 55h193q-47 -74 -111.5 -209t-109.5 -258t-82 -296t-37 -315t18.5 -271t49.5 -234q66 -227 140.5 -375t112.5 -204l19 -29h-193q-47 59 -111.5 181t-108.5 241t-80 303t-36 361.5z" />
<glyph unicode=")" horiz-adv-x="708" d="M39 -430q47 66 111.5 195t109.5 249.5t82 300t37 391.5t-85 485t-171 423l-84 147h192q47 -70 111 -202t108 -253.5t80.5 -296.5t36.5 -352.5t-34.5 -359.5t-83.5 -307q-102 -260 -183 -373l-35 -47h-192z" />
<glyph unicode="*" horiz-adv-x="892" d="M96 1159v90l285 58l10 -158zM229 850l50 276l153 -36l-119 -269zM354 1470l88 35l150 -245l-146 -64zM416 969l88 133l225 -187l-49 -71zM508 1169l246 158l45 -80l-189 -198z" />
<glyph unicode="+" horiz-adv-x="1038" d="M94 641v176h336v338h176v-338h340v-176h-340v-338h-176v338h-336z" />
<glyph unicode="," horiz-adv-x="546" d="M162 51v129q0 55 51 56h123q49 0 49 -56v-203q0 -162 -168 -161h-22l-23 4v74q62 0 64 61v45h-23q-23 0 -37 13.5t-14 37.5z" />
<glyph unicode="-" horiz-adv-x="724" d="M41 506v176h643v-176h-643z" />
<glyph unicode="." horiz-adv-x="550" d="M162 47v135q0 51 49 51h127q51 0 51 -51v-135q0 -47 -51 -47h-127q-20 0 -34.5 13.5t-14.5 33.5z" />
<glyph unicode="/" horiz-adv-x="849" d="M39 -147l575 1724h199l-575 -1724h-199z" />
<glyph unicode="0" horiz-adv-x="1308" d="M133 340v815q0 166 100.5 255t260.5 89h335q262 0 328 -211q18 -59 19 -129v-819q0 -174 -91.5 -257t-257.5 -83h-335q-160 0 -259.5 83t-99.5 257zM322 354q0 -92 54 -132t134 -40h299q178 0 178 170v795q0 170 -176 170h-303q-96 0 -141 -49t-45 -121v-793z" />
<glyph unicode="1" horiz-adv-x="745" d="M76 1196v131l330 172h188v-1499h-188v1296z" />
<glyph unicode="2" horiz-adv-x="1216" d="M76 1335v140q317 45 622 45q250 0 361 -191q63 -106 63 -231t-59 -249t-138 -220.5t-209.5 -218t-279.5 -228.5h686v-182h-1032v170q356 238 610 500q95 98 163.5 211.5t68.5 215t-63.5 170t-196.5 68.5h-596z" />
<glyph unicode="3" horiz-adv-x="1210" d="M57 1321v125q166 59 441 59q100 0 215 -2q164 -2 259 -97t95 -247v-133q0 -225 -139 -281q139 -80 139 -299v-110q0 -350 -369 -350h-158q-306 0 -470 57l2 127h585q166 0 201 82q18 37 19 94v107q0 193 -207 198l-473 17v147l473 21q211 10 211 188v123q0 61 -33 102 q-55 72 -178 72h-613z" />
<glyph unicode="4" horiz-adv-x="1243" d="M39 459l623 1040h217l-560 -942h525v404l71 153h117v-557h174v-147l-174 -41v-365h-188v365h-735z" />
<glyph unicode="5" horiz-adv-x="1230" d="M145 41v143h611q94 0 134 52.5t40 125.5v201q0 68 -10 91q-23 51 -59 70.5t-101 18.5h-283q-66 0 -110.5 -35.5t-44.5 -107.5h-172l45 899h876v-182h-700l-23 -453q61 63 252 64q55 0 111.5 -2t107.5 -3t117 -28q182 -75 182 -322v-227q0 -100 -33.5 -173t-89.5 -110 q-104 -72 -223 -71q-209 0 -320.5 8t-306.5 41z" />
<glyph unicode="6" horiz-adv-x="1267" d="M125 800.5q0 384.5 113 551.5q100 156 239 157q43 2 84 2q270 0 543 -41v-141h-569q-90 0 -139.5 -89t-64.5 -195.5t-18 -200.5q295 41 493.5 41t285.5 -94q61 -70 61 -222v-258q0 -313 -338 -313h-303q-231 0 -318 232q-69 186 -69 570.5zM313 707q0 -421 133 -502 q39 -25 91 -25h264q78 0 110 21q55 37 56 135v223q0 84 -44 116t-120 32h-490z" />
<glyph unicode="7" horiz-adv-x="1122" d="M57 1317v182h947l61 -106l-530 -1393h-218l510 1317h-770z" />
<glyph unicode="8" horiz-adv-x="1292" d="M143 324v186q0 172 170 223q-63 23 -102 72q-68 84 -68 217v133q0 195 96.5 274.5t270.5 79.5h303q170 0 254 -84t84 -270v-127q2 -53 -16 -108q-37 -109 -138 -129q39 -8 71 -39t50 -72q33 -84 33 -162v-192q0 -219 -160 -291q-80 -35 -180 -35h-301q-102 0 -175 26.5 t-109 60.5q-83 78 -83 237zM332 328q0 -147 192 -148h269q72 0 121 38t49 110v194q0 76 -47.5 116t-116.5 40h-295q-76 0 -124 -37t-48 -119v-194zM332 1012q0 -59 30 -99q49 -61 142 -61h293q166 0 166 160v127q0 104 -41 148t-127 44h-271q-102 0 -147 -37t-45 -155v-127z " />
<glyph unicode="9" horiz-adv-x="1267" d="M115 940v256q0 313 340 313h301q72 0 128 -19.5t106 -72.5q155 -164 155 -699.5t-225 -678.5q-59 -39 -125 -41t-125 -2q-309 0 -506 41v141h571q53 0 93 36q120 108 128 452q-295 -43 -450.5 -43t-225.5 25q-165 58 -165 292zM301 948q0 -82 44 -114.5t122 -32.5h489 q0 383 -110 483q-47 43 -113 43h-266q-78 0 -111 -20q-55 -37 -55 -136v-223z" />
<glyph unicode=":" horiz-adv-x="550" d="M162 47v135q0 51 49 51h127q51 0 51 -51v-135q0 -47 -51 -47h-127q-20 0 -34.5 13.5t-14.5 33.5zM162 903v135q0 51 49 52h127q51 0 51 -52v-135q0 -47 -51 -47h-127q-29 0 -39 16.5t-10 30.5z" />
<glyph unicode=";" horiz-adv-x="555" d="M162 51v129q0 33 18.5 44.5t32.5 11.5h123q49 0 49 -56v-203q0 -162 -168 -161h-22l-23 4v74q62 0 64 61v45h-23q-20 0 -35.5 15.5t-15.5 35.5zM166 905v135q0 51 49 52h127q51 0 51 -52v-135q0 -47 -51 -47h-127q-29 0 -39 16.5t-10 30.5z" />
<glyph unicode="&#x3c;" horiz-adv-x="958" d="M96 629v190l768 324v-193l-538 -225l538 -246v-196z" />
<glyph unicode="=" horiz-adv-x="956" d="M41 418v176h874v-176h-874zM41 850v176h874v-176h-874z" />
<glyph unicode="&#x3e;" horiz-adv-x="958" d="M96 283v196l537 246l-537 225v193l768 -324v-190z" />
<glyph unicode="?" horiz-adv-x="1107" d="M39 1329v139q270 45 369 45l116 3q31 0 118 -1.5t170 -33t130 -86.5q90 -106 90 -267v-192q0 -199 -131 -283q-98 -61 -246 -61q-51 0 -110 8v-201h-176v351h276q117 4 170 81q31 43 31 107v180q0 113 -62.5 162t-201.5 49h-543zM344 47v135q0 51 49 51h129q49 0 49 -51 v-135q0 -47 -49 -47h-129q-23 0 -36 13.5t-13 33.5z" />
<glyph unicode="@" horiz-adv-x="1740" d="M125 6v688q0 168 88 260q37 39 108.5 67t167.5 28h429q127 0 226 -62t99 -233v-754h-133l-33 127l-19 -15q-54 -39 -141 -84.5t-190 -45.5h-8q-111 0 -183.5 70.5t-70.5 176.5v103q0 129 70.5 202.5t201.5 73.5h336q2 68 2 102.5t-2 34.5q0 76 -38 104t-122 28h-424 q-141 0 -176 -89q-16 -39 -16 -96v-680q0 -213 192 -213h707q156 0 193 95q18 45 18 118v1018q0 115 -57.5 175.5t-153.5 60.5h-827v116q266 55 571 56h256q174 -2 278.5 -104.5t104.5 -303.5v-1018q0 -389 -381 -389h-709q-166 0 -265 97.5t-99 285.5zM639 290q0 -40 2 -40 q0 -35 34 -65.5t79 -30.5h8q125 0 311 104v229l-319 -30q-55 -6 -85 -40t-28 -85q-2 -2 -2 -42z" />
<glyph unicode="A" horiz-adv-x="1384" d="M86 0l539 1499h198l516 -1499h-215l-123 395h-567l-129 -395h-219zM494 573h450l-221 656z" />
<glyph unicode="B" horiz-adv-x="1224" d="M154 0v1499h587q109 0 190 -34.5t124 -94.5q86 -115 86 -264q0 -274 -195 -328q84 -18 145.5 -109t61.5 -259t-90 -289t-320 -121h-589zM344 180h395q225 0 226 250q0 115 -56.5 190.5t-169.5 75.5h-395v-516zM344 872h393q104 0 159.5 57.5t55.5 170.5q0 219 -215 219 h-393v-447z" />
<glyph unicode="C" horiz-adv-x="1179" d="M104 741q0 479 150 645q121 129 354 130q102 0 249 -16.5t257 -39.5v-149q-22 2 -40.5 3t-44 3t-56.5 3t-65 3q-45 3 -132.5 6.5t-166.5 3.5t-138 -22.5t-101 -87t-59.5 -178t-17.5 -241.5t5 -191.5t16.5 -124t27.5 -108.5q33 -98 104 -155q72 -55 175 -55q197 0 419 10 l74 4v-149q-102 -20 -246.5 -33.5t-199.5 -13.5h-60q-279 0 -395 215q-109 200 -109 538z" />
<glyph unicode="D" horiz-adv-x="1347" d="M154 0v1499h577q131 0 229.5 -49t153.5 -123t101 -213t47 -371q0 -381 -177 -587q-59 -72 -150 -114t-204 -42h-577zM342 184h383q121 0 201 78q147 141 147 467t-88 458t-260 132h-383v-1135z" />
<glyph unicode="E" horiz-adv-x="1161" d="M152 264v957q0 152 76.5 215t185.5 63q6 0 317 -14.5t348 -18.5v-151h-633q-76 0 -91 -33t-15 -82v-360l653 -23v-151l-653 -21v-360q2 -78 39 -92.5t88 -14.5h612v-149l-630 -35h-33q-264 0 -264 270z" />
<glyph unicode="F" horiz-adv-x="1161" d="M152 0v1219q0 150 76.5 215t185.5 65q6 0 317 -14.5t348 -18.5v-151h-633q-76 0 -91 -33t-15 -82v-360l653 -23v-151l-653 -21v-645h-188z" />
<glyph unicode="G" horiz-adv-x="1257" d="M115 510q-13 136 -13 257q0 251 56 437q93 311 430 312q106 0 259.5 -16.5t274.5 -41.5v-149q-2 0 -36 3q-288 25 -423 25t-189 -23q-111 -49 -144 -184q-37 -129 -37 -417.5t68.5 -414.5t250.5 -126q66 0 154 22.5t143 47.5l56 24v371h-308v125q160 51 357 51 q66 0 139 -6v-807h-139l-45 100q-171 -111 -392 -111q-1 0 -2 1q-222 0 -337 141q-98 123 -123 379z" />
<glyph unicode="H" horiz-adv-x="1304" d="M154 0v1499h188v-684h662v684h188v-1499h-188v635h-662v-635h-188z" />
<glyph unicode="I" horiz-adv-x="454" d="M154 0v1499h188v-1499h-188z" />
<glyph unicode="J" horiz-adv-x="733" d="M68 45l6 141q6 -2 29.5 -6t42 -8t51 -8t52 -3t48.5 4t44 12q49 30 69 75q20 43 20 114v7v1126h188v-1161q0 -66 -4 -110t-29.5 -102t-72.5 -89q-78 -49 -218 -49t-226 57z" />
<glyph unicode="K" horiz-adv-x="1230" d="M154 0v1499h184v-659h156l446 659h225l-501 -747l501 -752h-225l-446 659h-154v-659h-186z" />
<glyph unicode="L" horiz-adv-x="1130" d="M154 266v1233h188v-1210q0 -78 43 -94q31 -12 84 -13h596v-182h-625q-209 0 -264 129q-22 55 -22 137z" />
<glyph unicode="M" horiz-adv-x="1665" d="M104 0l109 1499h260l358 -1186l351 1186h258l123 -1499h-189l-94 1163l-346 -1163h-201l-356 1163l-84 -1163h-189z" />
<glyph unicode="N" horiz-adv-x="1390" d="M154 0v1499h192l744 -1149v1149h188v-1499h-188l-746 1147v-1147h-190z" />
<glyph unicode="O" d="M125 704.5q0 239.5 29.5 384t75.5 225.5t128 126t159 57t178.5 12t162 -6t125 -24.5t108.5 -50.5q108 -80 156.5 -243t48.5 -470.5t-71 -462.5q-35 -82 -81 -134q-111 -126 -411.5 -126t-408 80t-153.5 236.5t-46 396zM313 728q0 -97 6.5 -176t18.5 -140.5t36 -102.5 q49 -86 127.5 -110.5t184 -24.5t159.5 8t101 32q87 45 124.5 162.5t37.5 331t-13.5 290.5t-22.5 120t-27.5 75t-35 54.5t-45.5 37.5q-58 31 -112.5 36.5t-120 5.5t-93.5 -1t-67 -5t-60.5 -12.5t-50 -22.5t-45 -36.5t-36 -54.5t-29.5 -75t-20.5 -98t-13.5 -126t-3 -168z" />
<glyph unicode="P" horiz-adv-x="1200" d="M119 0v1499h622q375 0 375 -442q0 -387 -231 -447q-57 -16 -96 -16t-72 1t-217.5 18.5t-192.5 21.5v-635h-188zM307 774h428q84 0 137 52t53 224q0 178 -69 230q-53 39 -121 39h-428v-545z" />
<glyph unicode="Q" d="M125 749.5q0 137.5 14.5 253t39 196.5t66.5 138.5t86 90t129 57.5q82 25 204 25h4q125 -1 185 -7t125.5 -24.5t109.5 -50.5q111 -81 159.5 -243.5t48.5 -470t-71 -462.5q-37 -82 -83 -134q-111 -126 -433 -126q-248 0 -350.5 58t-147.5 153q-59 131 -72.5 270 t-13.5 276.5zM313 728q0 -97 6.5 -176t18.5 -140.5t34 -102.5q47 -86 125.5 -110.5t192 -24.5t176.5 14q143 31 187 146q55 131 55 353t-18.5 334t-44 173t-84 91t-107.5 36t-120.5 6t-99.5 -1t-66 -5t-59.5 -12.5t-50 -22.5t-45 -36.5t-36 -54.5t-28.5 -75t-19.5 -98 t-13.5 -126t-3 -168zM639 -68h123q85 -75 191 -75h3q59 0 146 30v-182q-47 -18 -84 -18t-83 3t-114.5 26.5t-120 81t-61.5 134.5z" />
<glyph unicode="R" horiz-adv-x="1220" d="M119 0v1499h643q362 0 362 -455q0 -145 -23.5 -207.5t-40 -95t-40.5 -53.5q-49 -46 -84 -58.5t-66 -19.5l308 -610h-207l-297 600l-367 29v-629h-188zM307 788h447q113 0 146.5 61.5t33.5 170.5q0 197 -52 248t-128 51h-447v-531z" />
<glyph unicode="S" horiz-adv-x="1198" d="M125 1008v133q0 215 117 297q57 39 126.5 56t117.5 17h98q49 0 223 -18t254 -33v-151q-86 6 -294 13t-248 7q-89 0 -138 -24q-68 -35 -68 -170v-119q0 -117 46.5 -151t150.5 -34h274q330 0 330 -364v-129q0 -354 -392 -354h-4q-122 0 -292 17t-256 36v151 q220 -23 380 -23q3 1 7 1q162 0 187 2q79 6 130 43t52 125v123q0 88 -35 136t-125 48h-270q-266 0 -338 168q-33 80 -33 197z" />
<glyph unicode="T" horiz-adv-x="1191" d="M84 1317v182h1059v-182h-441v-1317h-188v1317h-430z" />
<glyph unicode="U" horiz-adv-x="1378" d="M154 655v844h188v-844q0 -152 13.5 -215t22.5 -99t27.5 -61.5t34 -44t42.5 -30.5q54 -23 105.5 -28t114 -5t96 2t74.5 13.5t68 30.5q73 50 98 140q37 115 37 297v844h191v-844q0 -401 -142 -538q-49 -49 -88 -74q-83 -53 -321 -53h-29q-242 0 -319 51q-115 78 -156 190 q-57 172 -57 424z" />
<glyph unicode="V" d="M86 1499h203l411 -1220l430 1220h203l-534 -1499h-201z" />
<glyph unicode="W" horiz-adv-x="1986" d="M86 1499h203l409 -1202l342 1202h209l-129 -455l262 -757l355 1212h202l-452 -1499h-201l-260 725l-227 -725h-201z" />
<glyph unicode="X" horiz-adv-x="1245" d="M86 1499h207l346 -596l352 596h207l-444 -741l434 -758h-207l-342 596l-340 -596h-207l432 758z" />
<glyph unicode="Y" horiz-adv-x="1304" d="M86 1499h205l362 -768l400 768h204l-512 -985v-514h-188v514z" />
<glyph unicode="Z" horiz-adv-x="1148" d="M68 0v182l776 1135h-776v182h1015v-182l-768 -1135h768v-182h-1015z" />
<glyph unicode="[" horiz-adv-x="663" d="M162 -61v1425q0 150 55 233q80 127 242 127h168v-176h-150q-90 0 -117 -112q-10 -37 -10 -82v-1413q0 -92 35 -143.5t92 -51.5h150v-176h-168q-74 0 -130.5 25.5t-86.5 63.5q-80 99 -80 280z" />
<glyph unicode="\" horiz-adv-x="849" d="M39 1577h199l575 -1724h-199z" />
<glyph unicode="]" horiz-adv-x="663" d="M39 -254h147q59 0 93 51t34 144v1413q0 92 -33.5 143t-93.5 51h-147v176h166q123 0 189.5 -61t82.5 -123q25 -98 25 -176v-1425q0 -268 -165 -343q-56 -26 -132 -26h-166v176z" />
<glyph unicode="^" horiz-adv-x="796" d="M96 1087l234 269h164l208 -269h-157l-137 140l-152 -140h-160z" />
<glyph unicode="_" d="M41 -2v176h1298v-176h-1298z" />
<glyph unicode="`" horiz-adv-x="495" d="M39 1364h209l211 -277h-154z" />
<glyph unicode="a" horiz-adv-x="1062" d="M76 264v119q0 125 74.5 202t209.5 77h418q2 59 2 88.5t-1 48t-8 45.5q-15 52 -53 74q-36 21 -140 22h-14q-116 -2 -453 -25v127q209 66 528 66q201 0 283 -135q45 -76 45 -191v-782h-144l-45 127q-6 -6 -67.5 -38t-166 -66.5t-184.5 -34.5q-127 0 -205.5 75.5 t-78.5 200.5zM264 283q0 -123 117 -123q68 0 167 25.5t165 50.5l65 24v266l-401 -28q-113 -10 -113 -127v-88z" />
<glyph unicode="b" horiz-adv-x="1134" d="M115 0v1608h184v-584q88 37 198.5 58.5t180.5 21.5t122 -16.5t89 -44t65 -69.5q51 -79 68.5 -187.5t17.5 -247.5q0 -551 -356 -551q-92 0 -211 45t-172 86l-43 -119h-143zM301 252q195 -88 363 -88q188 0 188 377q0 233 -48 312t-140 79q-184 0 -363 -49v-631z" />
<glyph unicode="c" horiz-adv-x="1019" d="M96 545q0 137 18 237q32 185 124 256q82 60 211 60h6q126 0 263 -20q140 -20 212 -38v-127q-271 13 -402 13q-87 0 -112 -6q-70 -15 -97 -86q-35 -95 -35 -268q0 -179 22 -262q20 -81 62 -110.5t124 -29.5q164 0 380 14l72 6v-133q-144 -49 -338 -58q-73 -3 -127 -3 q-91 0 -129 9q-62 15 -109.5 51t-77.5 96.5t-48.5 161t-18.5 237.5z" />
<glyph unicode="d" horiz-adv-x="1134" d="M96 539q0 324 92.5 444.5t264.5 120.5q106 0 214.5 -27.5t168.5 -52.5v584h186v-1608h-143l-43 119q-53 -41 -172 -86t-211 -45q-357 0 -357 551zM285 541q0 -377 188 -377q168 0 363 88v631q-178 49 -363 49q-63 0 -102 -29q-86 -67 -86 -362z" />
<glyph unicode="e" horiz-adv-x="1075" d="M96 511.5q0 280.5 47 391.5q27 61 62 99t112.5 66t270 28t269.5 -41t110 -122q32 -79 32 -218v-8q0 -256 -286 -256h-428q0 -174 45 -231.5t168 -57.5q338 0 481 22v-137q-188 -57 -524 -57q-207 0 -283 120.5t-76 401zM285 616h407q119 1 119 95q0 78 -8 116.5t-36 62 t-69 30t-105.5 6.5t-89 -1t-60 -5.5t-52 -11.5t-39 -22.5t-32 -38t-22.5 -65t-13 -166.5z" />
<glyph unicode="f" horiz-adv-x="821" d="M39 918v135l190 34v203q0 102 14.5 143.5t28.5 66.5q23 43 79 76.5t170 33.5t261 -49v-119l-235 2h-6q-97 0 -115 -68q-8 -35 -8 -104v-185h287v-169h-287v-918h-189v918h-190z" />
<glyph unicode="g" horiz-adv-x="1136" d="M90 -74l84 125q-82 55 -82 178q0 59 31 110.5t90 66.5q-119 76 -119 283.5t94.5 305t266.5 97.5h645v-129l-154 -37q2 -4 14 -26q43 -76 44 -164v-10q0 -80 -8 -123q-7 -46 -29.5 -101.5t-59.5 -97.5t-101.5 -70.5t-148.5 -28.5h-301q-84 0 -84 -57q0 -66 84 -66h408 q133 0 206.5 -77.5t73.5 -215.5v-127q0 -231 -182 -294q-57 -20 -135 -21h-307q-205 0 -287 139q-43 72 -43 176v164zM279 23v-250q0 -100 50 -127t113 -27h269q82 0 113.5 40t31.5 112v108q0 70 -26.5 99.5t-104.5 29.5h-356q-51 0 -90 15zM283 697.5q0 -220.5 174 -220.5 h176q143 0 176 152q6 31 6 49q0 131 -41 185.5t-143 54.5h-164q-184 0 -184 -220.5z" />
<glyph unicode="h" horiz-adv-x="1116" d="M115 0v1606h188v-643q6 4 34 21t35 21.5t32.5 19.5t37 19.5t36 15.5t38.5 16q54 19 94.5 24.5t79.5 5.5q160 0 246 -103.5t86 -252.5v-750h-188v750q0 184 -181 184q-90 0 -159.5 -24.5t-190.5 -86.5v-823h-188z" />
<glyph unicode="i" horiz-adv-x="419" d="M96 1260v129q0 53 49 53h134q23 0 35 -15.5t12 -37.5v-129q0 -47 -47 -48h-134q-23 0 -36 14t-13 34zM113 0v1087h188v-1087h-188z" />
<glyph unicode="j" horiz-adv-x="458" d="M115 1260v129q0 53 49 53h133q23 0 35 -15.5t12 -37.5v-129q0 -47 -47 -48h-133q-23 0 -36 14t-13 34zM135 -553v1640h189v-1140q0 -330 -60 -500h-129z" />
<glyph unicode="k" horiz-adv-x="1054" d="M115 0v1602h188v-895h76l387 380h252l-463 -464l463 -623h-230l-409 537h-76v-537h-188z" />
<glyph unicode="l" horiz-adv-x="620" d="M115 387v1217h188v-1205q0 -121 27.5 -168t83.5 -61q156 -43 170 -43v-127h-195q-274 0 -274 387z" />
<glyph unicode="m" horiz-adv-x="1824" d="M115 0v1087h141l47 -126q21 10 50.5 29.5t51 31.5t35 18.5t34 16.5t36.5 15t36.5 11.5t54.5 11.5t88 5t114 -17q123 -39 170 -137q193 154 426 154q150 0 241 -99.5t91 -259.5v-741h-189v743q0 115 -80 162q-37 23 -119 23q-175 -1 -331 -107v-821h-189v743 q0 84 -47 134.5t-118.5 50.5t-131 -14.5t-99.5 -32t-124 -62.5v-819h-188z" />
<glyph unicode="n" horiz-adv-x="1116" d="M115 0v1087h141l47 -124q30 20 54 33.5t49.5 28.5t36 19.5t35 16.5t38.5 16t38 11q56 18 136 18q160 0 246 -103.5t86 -252.5v-750h-188v750q0 135 -101 172q-29 12 -99.5 12t-140 -24.5t-190.5 -86.5v-823h-188z" />
<glyph unicode="o" horiz-adv-x="1157" d="M96 528q0 223 47 346t149.5 173.5t287.5 50.5q276 0 379.5 -123t103.5 -437.5t-103.5 -431t-378 -116.5t-380 120.5t-105.5 417.5zM285 532.5q0 -88.5 7 -149.5t25.5 -101t40.5 -64q21 -24 70 -40q46 -16 125 -15h10q86 1 127 6q106 13 145 93t39 267t-22.5 248 t-41.5 86.5t-66 44t-135.5 18.5t-125.5 -4t-74.5 -17.5t-57 -39t-37 -70.5t-23.5 -109.5t-6 -153z" />
<glyph unicode="p" horiz-adv-x="1134" d="M115 -553v1640h143l43 -116q78 59 199 94t194.5 35t137.5 -32q117 -59 162.5 -198t45.5 -278t-7 -214q-17 -181 -97 -288q-79 -106 -249 -106h-3q-76 0 -186.5 21.5t-198.5 55.5v-614h-184zM301 205q177 -49 363 -49q63 0 102 28q86 68 86 361q0 379 -188 379 q-170 0 -363 -88v-631z" />
<glyph unicode="q" horiz-adv-x="1136" d="M96 575.5q0 241.5 96.5 383t279.5 141.5t550 -51v-1602h-188v612q-170 -79 -364 -79q-249 0 -331 225q-43 129 -43 370.5zM285 530q0 -166 11 -207.5t26.5 -75.5t37.5 -51q53 -44 146 -44q155 0 328 49v729h-340q-100 0 -146.5 -73t-54.5 -150.5t-8 -155.5v-21z" />
<glyph unicode="r" horiz-adv-x="866" d="M115 0v1087h143l45 -137q82 55 126 79t113.5 47.5t160 23.5t124.5 -17v-184q-53 10 -157.5 10t-181 -25.5t-185.5 -92.5v-791h-188z" />
<glyph unicode="s" horiz-adv-x="1036" d="M76 727v94q0 133 65.5 205t224 72t325.5 -14.5t214 -24.5v-135h-522q-78 0 -98.5 -25t-20.5 -82v-82q0 -74 32 -89t87 -15h305q90 0 154 -37q119 -68 119 -234v-102q0 -268 -267 -268q-104 0 -311 15t-262 30v131h549q102 0 102 98v86q0 68 -32 85t-70 18h-305 q-150 0 -219.5 60t-69.5 214z" />
<glyph unicode="t" horiz-adv-x="776" d="M39 920v127l194 43l41 303h148v-303h297v-170h-297v-519q0 -121 27.5 -168t82.5 -61q156 -43 170 -43v-127h-198q-270 0 -271 387v531h-194z" />
<glyph unicode="u" horiz-adv-x="1116" d="M96 340v747h189v-749q0 -182 180 -182q90 0 159.5 23.5t190.5 86.5v821h189v-1087h-142l-47 123q-12 -6 -49 -28.5t-52.5 -30t-47.5 -24.5q-111 -58 -238 -58q-162 0 -247 103t-85 255z" />
<glyph unicode="v" horiz-adv-x="1112" d="M39 1087h203l313 -833l317 833h203l-424 -1087h-198z" />
<glyph unicode="w" horiz-adv-x="1652" d="M39 1087h203l295 -833l258 833h196l-100 -333l221 -500l301 833h203l-397 -1087h-199l-219 496l-164 -496h-207z" />
<glyph unicode="x" horiz-adv-x="1099" d="M45 0l389 545l-389 542h231l271 -393l276 393h232l-393 -548l376 -539h-215l-272 389l-272 -389h-234z" />
<glyph unicode="y" horiz-adv-x="1146" d="M41 1087h203l241 -825q26 -85 98 -85q13 0 27 3l4 2l287 905h205l-453 -1431l-151 -209h-125l182 553q-197 0 -266 240z" />
<glyph unicode="z" horiz-adv-x="942" d="M57 911v176h830v-176l-551 -733h551v-176h-799v176l563 733h-594z" />
<glyph unicode="{" horiz-adv-x="655" d="M39 604v158q4 0 20.5 2t28.5 3t34 5q35 6 63 28.5t28 69.5v473q0 225 176 328q94 53 229 53v-176q-104 0 -160.5 -50t-56.5 -179v-453q0 -76 -49 -122t-131 -60q80 -12 129 -60.5t49 -115.5v-565q0 -98 55.5 -149.5t145.5 -51.5h18v-172q-311 0 -387 223q-20 59 -20 129 v574q0 57 -48 82.5t-81 25.5h-43z" />
<glyph unicode="|" horiz-adv-x="501" d="M164 -147v1724h176v-1724h-176z" />
<glyph unicode="}" horiz-adv-x="655" d="M39 -258h16q90 0 145.5 51t55.5 150v565q0 92 86 143q41 25 92 33q-82 14 -131 60.5t-49 121.5v453q0 135 -59 182t-156 47v176q199 0 301 -108.5t102 -272.5v-473q0 -68 58 -86q59 -22 118 -22v-158h-32q-72 0 -107 -34.5t-35 -73.5v-574q0 -141 -90 -246.5t-315 -105.5 v172z" />
<glyph unicode="~" horiz-adv-x="884" d="M96 1180q12 10 43 38.5t45.5 41t41 30t53 24.5t65.5 7t104.5 -36t95 -36t50 4t33 8.5t34 15.5t28.5 15t29.5 20.5t26.5 18.5l46 -96q-6 -6 -20.5 -21.5t-24 -24.5t-24.5 -23.5t-28 -25.5q-19 -16 -63 -38q-37 -14 -79 -14.5t-112.5 35.5t-107.5 36t-65.5 -9t-66.5 -31.5 t-59 -31.5z" />
<glyph unicode="&#xa1;" horiz-adv-x="552" d="M162 770v127q0 43 49 47h121q27 -2 38 -20.5t11 -32.5v-119q-4 -55 -47 -55h-123q-49 0 -49 53zM168 -553l16 1090h176l19 -1090h-211z" />
<glyph unicode="&#xa2;" horiz-adv-x="1001" d="M76 559q0 259 69 391q77 152 268 152h50v196h137v-206q172 -18 311 -52v-127q-443 24 -513 10q-25 -5 -54 -27q-80 -61 -80 -334q0 -177 21.5 -259t63.5 -112.5t122 -30.5q164 0 381 16l74 4v-131q-141 -49 -326 -57v-189h-139v183h-35q-89 0 -150 28.5t-92.5 68.5 t-57.5 101q-50 116 -50 375z" />
<glyph unicode="&#xa3;" horiz-adv-x="1212" d="M96 0v147l144 35v484h-144v108l144 37v211q0 272 102 373q68 68 141 84q106 20 224 20t337 -24l74 -9v-147h-395q-143 0 -170 -9.5t-47.5 -18.5t-30.5 -25q-32 -49 -39.5 -103.5t-7.5 -134.5v-217l528 -33v-110h-528v-486h688v-182h-1020z" />
<glyph unicode="&#xa4;" horiz-adv-x="931" d="M98 913l86 80l86 -86q84 59 190.5 59.5t194.5 -65.5l99 96l77 -86l-96 -98q47 -78 47 -178t-57 -186l106 -105l-90 -84l-102 102q-82 -59 -180.5 -59t-179.5 57l-97 -96l-82 90l95 92q-59 86 -59.5 190.5t52.5 184.5zM260 623.5q0 -68.5 57.5 -130t140.5 -61.5t141 61.5 t58 145.5t-58 141.5t-125 57.5q-130 0 -188 -100q-26 -46 -26 -114.5z" />
<glyph unicode="&#xa5;" horiz-adv-x="1247" d="M39 1499h205l362 -688l393 688h211l-489 -831h330v-136h-353v-94h353v-133h-353v-305h-188v305h-334v133h334v94h-334v136h313z" />
<glyph unicode="&#xa6;" horiz-adv-x="503" d="M164 -147v671h176v-671h-176zM164 879v698h176v-698h-176z" />
<glyph unicode="&#xa7;" horiz-adv-x="1124" d="M104 1208v131q0 264 287 267q70 0 275.5 -14.5t275.5 -24.5v-137h-543q-70 0 -92 -37q-12 -20 -14 -58v-123q0 -90 106 -90h336q164 0 225.5 -65.5t59.5 -194.5v-110q0 -176 -96 -195q94 -14 94 -176v-139q0 -184 -127 -234q-63 -25 -152.5 -24.5t-290 14.5t-268.5 25 v137h531q57 0 86.5 16.5t31.5 67.5v129q0 55 -23.5 72.5t-84.5 17.5h-338q-139 0 -208 52t-69 198v112q0 84 20.5 134.5t80.5 68.5q-103 35 -103 180zM293 731q0 -61 24.5 -78.5t83.5 -17.5h316q82 0 97 26t15 72v113q0 53 -12 74q-23 31 -100 30h-316q-66 0 -87 -20.5 t-21 -87.5v-111z" />
<glyph unicode="&#xa8;" horiz-adv-x="927" d="M96 1192q0 45 32 75.5t77 30.5t75.5 -30.5t30.5 -75.5t-30.5 -77t-75.5 -32t-77 32t-32 77zM618 1192q0 45 32 75.5t77 30.5t76 -30.5t31 -75.5t-31 -77t-76 -32t-77 32t-32 77z" />
<glyph unicode="&#xa9;" horiz-adv-x="1654" d="M104 754q0 745 482 745h530q238 0 340 -205q59 -117 76.5 -254t17.5 -291.5t-24.5 -288.5t-75.5 -238.5t-136 -163t-198 -58.5h-530q-109 0 -196 50t-138 128q-148 226 -148 576zM252 756q0 -242 78 -418q39 -88 105.5 -141.5t150.5 -53.5h528q129 2 209 156t80 442.5 t-46 417.5t-126 170q-49 27 -115 27h-530q-160 0 -236 -119q-98 -151 -98 -481zM469 748q0 233 79 339.5t214 106.5t368 -49v-119q-172 25 -354 25q-162 0 -162 -277q0 -127 12.5 -188.5t50.5 -101.5t101 -40q150 0 365 33v-119q-182 -57 -377 -57q-217 0 -274 225 q-23 91 -23 222z" />
<glyph unicode="&#xaa;" horiz-adv-x="745" d="M57 545v127h633v-127h-633zM57 950v88q0 84 55.5 135.5t171.5 51.5h248q2 55 0 57q0 53 -29.5 75.5t-101 22.5t-319.5 -16v100q16 2 76.5 15.5t123 23.5t165 10t171 -52t68.5 -165v-522h-104l-47 98q-39 -37 -127.5 -71.5t-159 -34.5t-131 51t-60.5 133zM207 979 q0 -76 93 -76t198 47l34 15v161l-243 -18q-82 -8 -82 -80v-49z" />
<glyph unicode="&#xab;" horiz-adv-x="1140" d="M96 725l422 416l119 -119l-303 -297l313 -305l-119 -121zM496 725l422 416l120 -119l-305 -297l314 -305l-119 -121z" />
<glyph unicode="&#xac;" horiz-adv-x="1060" d="M94 516v172h873v-362h-172v190h-701z" />
<glyph unicode="&#xad;" horiz-adv-x="724" d="M41 506v176h643v-176h-643z" />
<glyph unicode="&#xae;" horiz-adv-x="1654" d="M104 754q0 745 482 745h530q238 0 340 -205q59 -117 76.5 -254t17.5 -291.5t-24.5 -288.5t-75.5 -238.5t-136 -163t-198 -58.5h-530q-109 0 -196 50t-138 128q-148 226 -148 576zM252 756q0 -242 78 -418q39 -88 105.5 -141.5t150.5 -53.5h528q129 2 209 156t80 442.5 t-46 417.5t-126 170q-49 27 -115 27h-530q-160 0 -236 -119q-98 -151 -98 -481zM526 313v875h367q274 0 274 -266q0 -174 -90 -230q-39 -25 -96 -37l184 -342h-164l-182 342l-145 25v-367h-148zM674 782h219q80 0 103.5 27t23.5 91q0 108 -43 128q-33 16 -84 16h-219v-262z " />
<glyph unicode="&#xaf;" horiz-adv-x="788" d="M96 1087v138h598v-138h-598z" />
<glyph unicode="&#xb0;" horiz-adv-x="606" d="M96 1294.5q0 57.5 28 105.5t76 76.5t104 28.5t104.5 -28.5t76 -76.5t27.5 -105.5t-27.5 -105.5t-76 -76t-104.5 -28t-104 28t-76 76t-28 105.5zM199 1301.5q0 -35.5 14 -60.5q31 -51 83 -51t83 30.5t31 66.5t-15 61q-31 53 -83 53t-82.5 -32t-30.5 -67.5z" />
<glyph unicode="&#xb1;" horiz-adv-x="1062" d="M106 168v176h852v-176h-852zM106 791v176h336v336h176v-336h340v-176h-340v-340h-176v340h-336z" />
<glyph unicode="&#xb2;" horiz-adv-x="798" d="M61 1659v115q242 33 383 32q274 0 275 -282q0 -70 -35 -148t-74 -133q-82 -116 -280 -278h389v-150h-651v141q100 71 202.5 156.5t140.5 126.5t74 88q76 96 76 180t-34.5 118t-120.5 34h-345z" />
<glyph unicode="&#xb3;" horiz-adv-x="831" d="M57 1651v108q109 37 324 37h86q125 0 188.5 -68.5t63.5 -173.5v-69q0 -94 -51 -148q-23 -23 -54 -34q104 -57 105 -195v-55q0 -119 -60.5 -182.5t-201.5 -63.5h-78q-207 0 -313 39l2 108l352 2q106 0 133 45q12 25 12 68v41q0 123 -137 127l-281 10v119l281 14 q139 6 139 119v39q0 113 -139 113h-371z" />
<glyph unicode="&#xb4;" horiz-adv-x="495" d="M39 1087l209 277h211l-266 -277h-154z" />
<glyph unicode="&#xb5;" horiz-adv-x="1212" d="M172 -553v1640h188v-749q0 -182 182 -182q89 0 159.5 23.5t189.5 86.5v821h188v-1087h-139l-49 123q-8 -4 -41 -23.5t-44 -25.5t-40 -21.5t-44 -21.5q-64 -26 -109 -35.5t-114 -9.5t-139 41v-580h-188z" />
<glyph unicode="&#xb6;" horiz-adv-x="1185" d="M76 1022v190q0 137 94 212t225 75h754v-172h-131v-1327h-168v1331h-176v-1884h-168v1315l-19 -10q-43 -27 -92 -25q-154 0 -236.5 84t-82.5 211zM244 1032q0 -111 106 -133q23 -6 49 -6h107v438h-107q-86 0 -120.5 -39t-34.5 -94v-166z" />
<glyph unicode="&#xb7;" horiz-adv-x="550" d="M162 717v135q0 51 49 51h127q51 0 51 -51v-135q0 -47 -51 -47h-127q-29 0 -39 16.5t-10 30.5z" />
<glyph unicode="&#xb8;" horiz-adv-x="509" d="M96 -268l103 30q41 16 53 55t12 107h152q0 -160 -44 -220t-169 -60h-107v88z" />
<glyph unicode="&#xb9;" horiz-adv-x="552" d="M31 1571v110l248 113h151v-979h-151v821z" />
<glyph unicode="&#xba;" horiz-adv-x="800" d="M57 1137q0 209 74 290.5t270.5 81.5t269 -81.5t72.5 -291.5t-72.5 -291t-268 -81t-270.5 82t-75 291zM82 551v125h637v-125h-637zM211 1117.5q0 -68.5 11 -115t41 -67t57.5 -25.5t71.5 -5t61.5 1t41 5t35.5 13q60 45 62 192q1 159 -34 204q-26 34 -61.5 41t-85 7 t-69.5 -2t-47 -8t-39 -21.5t-24.5 -42t-16.5 -67.5t-4 -109.5z" />
<glyph unicode="&#xbb;" horiz-adv-x="1140" d="M96 420l312 305l-304 297l121 119l422 -416l-432 -426zM496 420l313 305l-305 297l121 119l422 -416l-433 -426z" />
<glyph unicode="&#xbc;" horiz-adv-x="1863" d="M31 1280v109l248 114h151v-979h-151v822zM426 0l750 1511h151l-747 -1511h-154zM1020 293l407 682h170l-348 -590h307v238l56 100h98v-338h115v-123l-115 -31v-233h-154v233h-489z" />
<glyph unicode="&#xbd;" horiz-adv-x="2002" d="M31 1280v109l248 114h151v-979h-151v822zM414 0l749 1511h154l-750 -1511h-153zM1264 876v54l2 28q244 33 385 33q274 0 274 -284q0 -143 -114.5 -284.5t-274.5 -275.5h389v-147h-653v139q8 8 79.5 62.5t110.5 85t106 91.5q199 185 199 313q0 85 -34.5 118t-120.5 33 h-346q-2 0 -2 34z" />
<glyph unicode="&#xbe;" horiz-adv-x="2101" d="M57 1358v108q106 39 318 39h94q125 0 188.5 -69.5t63.5 -171.5v-70q0 -70 -29.5 -118t-75.5 -64q104 -57 105 -197v-53q0 -119 -60.5 -182.5t-201.5 -63.5h-180.5t-212.5 37l2 109l354 2q82 0 113.5 24.5t31.5 87.5v41q0 125 -137 129l-283 10v117l283 14q139 6 139 119 v41q0 111 -139 111h-373zM631 0l747 1511h154l-748 -1511h-153zM1198 295l406 680h161l-346 -594h322v244l49 100h98v-344h115v-119l-115 -29v-233h-147v233h-498z" />
<glyph unicode="&#xbf;" horiz-adv-x="1112" d="M76 35q-2 182 133 270q100 68 250 68q49 0 102 -8v200h178l2 -350q-92 2 -161.5 2t-129 -2t-108.5 -57.5t-55 -134.5q-2 -145 -2 -181q0 -88 58 -148.5t171 -60.5h14l545 2q-2 0 -1 -61.5t-1 -77.5q-14 -2 -65.5 -10t-64.5 -9t-57 -7.5t-61.5 -8.5t-56.5 -5t-64 -4 q-77 -3 -118 -3l-95 2q-270 0 -364 176q-49 92 -49 215v193zM541 788v125q0 20 14 35t35 17h119q49 -2 49 -47v-130q-2 -49 -43 -51h-133q-39 8 -41 51z" />
<glyph unicode="&#xc0;" horiz-adv-x="1384" d="M86 0l539 1499h198l516 -1499h-215l-123 395h-567l-129 -395h-219zM381 1909h211l209 -277h-154zM494 573h450l-221 656z" />
<glyph unicode="&#xc1;" horiz-adv-x="1384" d="M86 0l539 1499h198l516 -1499h-215l-123 395h-567l-129 -395h-219zM494 573h450l-221 656zM647 1632l211 277h209l-266 -277h-154z" />
<glyph unicode="&#xc2;" horiz-adv-x="1384" d="M86 0l539 1499h198l516 -1499h-215l-123 395h-567l-129 -395h-219zM420 1632l235 269h164l209 -269h-158l-139 140l-151 -140h-160zM494 573h450l-221 656z" />
<glyph unicode="&#xc3;" horiz-adv-x="1384" d="M86 0l539 1499h198l516 -1499h-215l-123 395h-567l-129 -395h-219zM377 1724q117 102 188.5 126t159.5 -19q92 -45 117 -45q55 0 184 76l45 -97q-33 -33 -82 -68.5t-67 -41.5q-94 -43 -207 16q-63 33 -112.5 33t-104 -31t-76.5 -41zM494 573h450l-221 656z" />
<glyph unicode="&#xc4;" horiz-adv-x="1384" d="M86 0l539 1499h198l516 -1499h-215l-123 395h-567l-129 -395h-219zM354 1741q0 45 33 75.5t78 30.5t75.5 -30.5t30.5 -75.5t-31.5 -77t-75.5 -32t-77 32t-33 77zM494 573h450l-221 656zM877 1741q0 45 32.5 75.5t77.5 30.5t76 -30.5t31 -75.5t-32 -77t-76 -32t-76.5 32 t-32.5 77z" />
<glyph unicode="&#xc5;" horiz-adv-x="1384" d="M86 0l539 1499h198l516 -1499h-215l-123 395h-567l-129 -395h-219zM494 573h450l-221 656zM516 1719.5q0 -72.5 28.5 -121t77 -76t104.5 -27.5t103.5 27.5t75 76t27.5 121t-60.5 134t-146.5 61.5t-147.5 -61.5t-61.5 -134zM618 1704q0 43 32 74.5t84 31.5t81 -53 q14 -25 14 -60.5t-30.5 -66.5t-73.5 -31t-75 31t-32 74z" />
<glyph unicode="&#xc6;" horiz-adv-x="1904" d="M57 0l602 1221q86 172 184.5 226t198.5 54l82 -2q20 0 339 -14.5t356 -18.5v-153h-633q-72 0 -86 -31t-17 -78v-375l650 -20v-152l-650 -20v-356q0 -39 7.5 -52.5t11.5 -21.5t14 -12.5t15.5 -7.5t19.5 -4t19 -1h40l607 -2v-155l-625 -35h-35q-262 0 -262 258v198h-412 l-219 -446h-207zM571 625h324v657z" />
<glyph unicode="&#xc7;" horiz-adv-x="1179" d="M104 741q0 479 150 645q121 129 362.5 129.5t497.5 -55.5v-149q-22 2 -40.5 3t-44 3t-56.5 3t-65 3q-45 3 -132.5 6.5t-166.5 3.5t-138 -22.5t-101 -87t-59.5 -178t-17.5 -241.5t5 -191.5t16.5 -124t27.5 -108.5q33 -98 104 -155q72 -55 175 -55q197 0 419 10l74 4v-147 q-102 -23 -246.5 -36t-199.5 -13h-60q-279 0 -395 215q-109 200 -109 538zM389 -266l103 30q39 16 52 55t13 107h152q0 -160 -45.5 -221t-167.5 -61h-107v90z" />
<glyph unicode="&#xc8;" horiz-adv-x="1161" d="M152 264v957q0 152 77.5 215t184.5 63q8 0 318 -14.5t347 -18.5v-151h-633q-76 0 -91 -33t-15 -82v-360l653 -21v-153l-653 -21v-360q2 -78 39 -92.5t88 -14.5h612v-149l-630 -35h-33q-264 0 -264 270zM354 1898h209l211 -274h-153z" />
<glyph unicode="&#xc9;" horiz-adv-x="1161" d="M152 264v957q0 152 77.5 215t184.5 63q8 0 318 -14.5t347 -18.5v-151h-633q-76 0 -91 -33t-15 -82v-360l653 -21v-153l-653 -21v-360q2 -78 39 -92.5t88 -14.5h612v-149l-630 -35h-33q-264 0 -264 270zM582 1624l209 274h210l-266 -274h-153z" />
<glyph unicode="&#xca;" horiz-adv-x="1161" d="M152 264v957q0 152 77.5 215t184.5 63q8 0 318 -14.5t347 -18.5v-151h-633q-76 0 -91 -33t-15 -82v-360l653 -21v-153l-653 -21v-360q2 -78 39 -92.5t88 -14.5h612v-149l-630 -35h-33q-264 0 -264 270zM344 1632l236 269h163l209 -269h-157l-140 140l-151 -140h-160z" />
<glyph unicode="&#xcb;" horiz-adv-x="1161" d="M152 264v957q0 152 77.5 215t184.5 63q8 0 318 -14.5t347 -18.5v-151h-633q-76 0 -91 -33t-15 -82v-360l653 -21v-153l-653 -21v-360q2 -78 39 -92.5t88 -14.5h612v-149l-630 -35h-33q-264 0 -264 270zM279 1733q0 45 31.5 75.5t76.5 30.5t76 -30.5t31 -75.5t-31 -77 t-76 -32t-76.5 32t-31.5 77zM801 1733q0 45 31.5 75.5t76.5 30.5t76 -30.5t31 -75.5t-31 -77t-76 -32t-76.5 32t-31.5 77z" />
<glyph unicode="&#xcc;" horiz-adv-x="454" d="M-96 1909h211l209 -277h-154zM154 0v1499h188v-1499h-188z" />
<glyph unicode="&#xcd;" horiz-adv-x="454" d="M154 0v1499h188v-1499h-188zM170 1632l211 277h209l-266 -277h-154z" />
<glyph unicode="&#xce;" horiz-adv-x="454" d="M-57 1632l235 269h164l209 -269h-158l-139 140l-152 -140h-159zM154 0v1499h188v-1499h-188z" />
<glyph unicode="&#xcf;" horiz-adv-x="454" d="M-123 1741q0 45 33 75.5t78 30.5t75.5 -30.5t30.5 -75.5t-30.5 -77t-75.5 -32t-78 32t-33 77zM154 0v1499h188v-1499h-188zM401 1741q0 45 32 75.5t77 30.5t75.5 -30.5t30.5 -75.5t-30.5 -77t-75.5 -32t-77 32t-32 77z" />
<glyph unicode="&#xd0;" horiz-adv-x="1347" d="M20 705v118h134v674q0 2 579 2q266 0 397 -194.5t131.5 -568.5t-174.5 -580q-59 -72 -150 -114t-204 -42h-579v705h-134zM342 184h385q119 0 197 78q143 141 143 483q0 565 -340 566l-385 -2v-486h268v-118h-268v-521z" />
<glyph unicode="&#xd1;" horiz-adv-x="1390" d="M154 0v1499h192l744 -1149v1149h188v-1499h-188l-746 1147v-1147h-190zM367 1724q117 102 188.5 126t159.5 -19q92 -45 119 -45q55 0 182 76l47 -97q-20 -15 -41 -34t-38 -31t-30 -22q-21 -16 -61 -33q-82 -29 -188 26q-61 33 -107.5 33t-78.5 -16.5t-58.5 -32 t-48.5 -23.5z" />
<glyph unicode="&#xd2;" d="M125 741q0 432 123 597q43 57 88 89.5t129.5 57.5t208 24.5t184 -6.5t125 -24.5t108.5 -50.5q108 -80 156.5 -243t48.5 -470.5t-71 -462.5q-35 -82 -81 -134q-111 -126 -411.5 -126t-408 80t-153.5 236.5t-46 432.5zM313 782q0 -127 4.5 -192.5t11.5 -120.5t20 -96 t29.5 -73t41.5 -54q47 -41 118 -56.5t170 -15.5t160 14q140 30 190 152.5t50 351.5t-13.5 306t-22.5 120t-27.5 75t-35 54.5t-45.5 37.5q-58 31 -112.5 36.5t-145 5.5t-138.5 -6t-106.5 -36t-85 -90t-45 -173t-18.5 -240zM369 1909h211l208 -277h-153z" />
<glyph unicode="&#xd3;" d="M125 741q0 432 123 597q43 57 88 89.5t129.5 57.5t208 24.5t184 -6.5t125 -24.5t108.5 -50.5q108 -80 156.5 -243t48.5 -470.5t-71 -462.5q-35 -82 -81 -134q-111 -126 -411.5 -126t-408 80t-153.5 236.5t-46 432.5zM313 782q0 -127 4.5 -192.5t11.5 -120.5t20 -96 t29.5 -73t41.5 -54q47 -41 118 -56.5t170 -15.5t160 14q140 30 190 152.5t50 351.5t-13.5 306t-22.5 120t-27.5 75t-35 54.5t-45.5 37.5q-58 31 -112.5 36.5t-145 5.5t-138.5 -6t-106.5 -36t-85 -90t-45 -173t-18.5 -240zM635 1632l211 277h209l-267 -277h-153z" />
<glyph unicode="&#xd4;" d="M125 741q0 432 123 597q43 57 88 89.5t129.5 57.5t208 24.5t184 -6.5t125 -24.5t108.5 -50.5q108 -80 156.5 -243t48.5 -470.5t-71 -462.5q-35 -82 -81 -134q-111 -126 -411.5 -126t-408 80t-153.5 236.5t-46 432.5zM313 782q0 -127 4.5 -192.5t11.5 -120.5t20 -96 t29.5 -73t41.5 -54q47 -41 118 -56.5t170 -15.5t160 14q140 30 190 152.5t50 351.5t-13.5 306t-22.5 120t-27.5 75t-35 54.5t-45.5 37.5q-58 31 -112.5 36.5t-145 5.5t-138.5 -6t-106.5 -36t-85 -90t-45 -173t-18.5 -240zM408 1632l235 269h164l209 -269h-158l-139 140 l-152 -140h-159z" />
<glyph unicode="&#xd5;" d="M125 741q0 432 123 597q43 57 88 89.5t129.5 57.5t208 24.5t184 -6.5t125 -24.5t108.5 -50.5q108 -80 156.5 -243t48.5 -470.5t-71 -462.5q-35 -82 -81 -134q-111 -126 -411.5 -126t-408 80t-153.5 236.5t-46 432.5zM313 782q0 -127 4.5 -192.5t11.5 -120.5t20 -96 t29.5 -73t41.5 -54q47 -41 118 -56.5t170 -15.5t160 14q140 30 190 152.5t50 351.5t-13.5 306t-22.5 120t-27.5 75t-35 54.5t-45.5 37.5q-58 31 -112.5 36.5t-145 5.5t-138.5 -6t-106.5 -36t-85 -90t-45 -173t-18.5 -240zM365 1724q117 102 188.5 126t159.5 -19 q92 -45 116 -45q55 0 185 76l45 -97q-33 -33 -82 -68.5t-68 -41.5q-94 -43 -207 16q-63 33 -110 33t-104.5 -32t-77.5 -40z" />
<glyph unicode="&#xd6;" d="M125 741q0 432 123 597q43 57 88 89.5t129.5 57.5t208 24.5t184 -6.5t125 -24.5t108.5 -50.5q108 -80 156.5 -243t48.5 -470.5t-71 -462.5q-35 -82 -81 -134q-111 -126 -411.5 -126t-408 80t-153.5 236.5t-46 432.5zM313 782q0 -127 4.5 -192.5t11.5 -120.5t20 -96 t29.5 -73t41.5 -54q47 -41 118 -56.5t170 -15.5t160 14q140 30 190 152.5t50 351.5t-13.5 306t-22.5 120t-27.5 75t-35 54.5t-45.5 37.5q-58 31 -112.5 36.5t-145 5.5t-138.5 -6t-106.5 -36t-85 -90t-45 -173t-18.5 -240zM342 1741q0 45 33 75.5t78 30.5t75.5 -30.5 t30.5 -75.5t-31.5 -77t-75.5 -32t-77 32t-33 77zM864 1741q0 45 33 75.5t78 30.5t75.5 -30.5t30.5 -75.5t-31.5 -77t-75.5 -32t-77 32t-33 77z" />
<glyph unicode="&#xd7;" horiz-adv-x="940" d="M106 489l240 238l-240 240l125 125l240 -240l240 240l125 -123l-242 -242l240 -238l-125 -124l-238 237l-238 -235z" />
<glyph unicode="&#xd8;" horiz-adv-x="1384" d="M127 745.5q0 427.5 121 591.5q43 57 87 90t128.5 58t230.5 24.5t234 -15.5t155 -60l43 65h134l-95 -143q133 -172 133 -631t-155 -608q-82 -78 -183.5 -101.5t-240.5 -23.5t-231.5 16.5t-159.5 63.5l-47 -72h-134l99 152q-119 166 -119 593.5zM316 687.5 q0 -236.5 55 -349.5l608 940q-55 41 -158 47q-39 2 -97 2t-86 -1t-65.5 -5t-59 -12.5t-51.5 -22.5t-45.5 -36.5t-34.5 -54.5q-26 -42 -46 -156.5t-20 -351zM436 236q78 -61 267.5 -61.5t277.5 58.5q129 90 129 506q0 317 -61 443z" />
<glyph unicode="&#xd9;" horiz-adv-x="1378" d="M154 655v844h188v-844q0 -152 13.5 -215t22.5 -99t27.5 -61.5t34 -44t42.5 -30.5q54 -23 105.5 -28t114 -5t96 2t74.5 13.5t68 30.5q73 50 98 140q37 115 37 297v844h191v-844q0 -401 -142 -538q-49 -49 -88 -74q-83 -53 -321 -53h-29q-242 0 -319 51q-115 78 -156 190 q-57 172 -57 424zM367 1909h208l211 -277h-153z" />
<glyph unicode="&#xda;" horiz-adv-x="1378" d="M154 655v844h188v-844q0 -152 13.5 -215t22.5 -99t27.5 -61.5t34 -44t42.5 -30.5q54 -23 105.5 -28t114 -5t96 2t74.5 13.5t68 30.5q73 50 98 140q37 115 37 297v844h191v-844q0 -401 -142 -538q-49 -49 -88 -74q-83 -53 -321 -53h-29q-242 0 -319 51q-115 78 -156 190 q-57 172 -57 424zM633 1632l209 277h211l-267 -277h-153z" />
<glyph unicode="&#xdb;" horiz-adv-x="1378" d="M154 655v844h188v-844q0 -152 13.5 -215t22.5 -99t27.5 -61.5t34 -44t42.5 -30.5q54 -23 105.5 -28t114 -5t96 2t74.5 13.5t68 30.5q73 50 98 140q37 115 37 297v844h191v-844q0 -401 -142 -538q-49 -49 -88 -74q-83 -53 -321 -53h-29q-242 0 -319 51q-115 78 -156 190 q-57 172 -57 424zM406 1632l233 269h164l209 -269h-156l-139 140l-152 -140h-159z" />
<glyph unicode="&#xdc;" horiz-adv-x="1378" d="M154 655v844h188v-844q0 -152 13.5 -215t22.5 -99t27.5 -61.5t34 -44t42.5 -30.5q54 -23 105.5 -28t114 -5t96 2t74.5 13.5t68 30.5q73 50 98 140q37 115 37 297v844h191v-844q0 -401 -142 -538q-49 -49 -88 -74q-83 -53 -321 -53h-29q-242 0 -319 51q-115 78 -156 190 q-57 172 -57 424zM340 1741q0 45 31.5 75.5t77 30.5t77 -30.5t31.5 -75.5t-31.5 -77t-77 -32t-77 32t-31.5 77zM862 1741q0 45 32 75.5t77 30.5t75.5 -30.5t30.5 -75.5t-30.5 -77t-75.5 -32t-77 32t-32 77z" />
<glyph unicode="&#xdd;" horiz-adv-x="1304" d="M86 1499h205l362 -768l400 768h204l-512 -985v-514h-188v514zM594 1632l211 277h211l-266 -277h-156z" />
<glyph unicode="&#xde;" horiz-adv-x="1134" d="M115 0v1493h188v-289h377q360 -4 360 -436q0 -328 -170 -420q-80 -43 -190 -43q-12 0 -48 -1t-47.5 0t-44 2t-90 10t-147.5 28v-344h-188zM303 483h375q62 0 117 54t53 238.5t-94 228.5q-41 20 -99 20h-352v-541z" />
<glyph unicode="&#xdf;" horiz-adv-x="1167" d="M115 0v1159q0 186 123.5 310t343.5 124q143 0 246.5 -36.5t152.5 -98.5q80 -94 80 -205.5t-49 -197.5t-105 -129q-20 -18 -57 -50q-67 -58 -93 -87t-26 -70t41 -62.5t99.5 -38t118 -41t100 -78t40.5 -134.5v-89q0 -82 -30.5 -142t-81.5 -91q-98 -59 -212 -59t-223.5 18 t-121.5 21v145l327 -10q59 0 105.5 34.5t48.5 94.5v84q0 57 -78 84q-37 12 -79 23q-103 27 -160 69q-80 51 -80 156.5t44 166t185 168.5q98 76 98 195q0 180 -288 180q-127 0 -204 -67.5t-77 -215.5v-1130h-188z" />
<glyph unicode="&#xe0;" horiz-adv-x="1062" d="M76 264v119q0 125 74.5 202t209.5 77h418q2 59 2 88.5t-1 48t-8 45.5q-14 52 -52.5 74.5t-154.5 21t-453 -24.5v129q209 63 528 64q201 0 283 -135q45 -76 45 -191v-782h-144l-45 127q-6 -6 -67.5 -38t-166 -66.5t-184.5 -34.5q-127 0 -205.5 75.5t-78.5 200.5zM203 1507 h211l209 -276h-154zM264 283q0 -123 117 -123q68 0 167 25.5t165 50.5l65 24v266l-401 -28q-113 -10 -113 -127v-88z" />
<glyph unicode="&#xe1;" horiz-adv-x="1062" d="M76 264v119q0 125 74.5 202t209.5 77h418q2 59 2 88.5t-1 48t-8 45.5q-14 52 -52.5 74.5t-154.5 21t-453 -24.5v129q209 63 528 64q201 0 283 -135q45 -76 45 -191v-782h-144l-45 127q-6 -6 -67.5 -38t-166 -66.5t-184.5 -34.5q-127 0 -205.5 75.5t-78.5 200.5zM264 283 q0 -123 117 -123q68 0 167 25.5t165 50.5l65 24v266l-401 -28q-113 -10 -113 -127v-88zM461 1231l209 276h211l-267 -276h-153z" />
<glyph unicode="&#xe2;" horiz-adv-x="1062" d="M76 264v119q0 125 74.5 202t209.5 77h418q2 59 2 88.5t-1 48t-8 45.5q-14 52 -52.5 74.5t-154.5 21t-453 -24.5v129q209 63 528 64q201 0 283 -135q45 -76 45 -191v-782h-144l-45 127q-6 -6 -67.5 -38t-166 -66.5t-184.5 -34.5q-127 0 -205.5 75.5t-78.5 200.5zM238 1231 l233 268h164l209 -268h-158l-139 139l-150 -139h-159zM264 283q0 -123 117 -123q68 0 167 25.5t165 50.5l65 24v266l-401 -28q-113 -10 -113 -127v-88z" />
<glyph unicode="&#xe3;" horiz-adv-x="1062" d="M76 264v119q0 125 74.5 202t209.5 77h418q2 59 2 88.5t-1 48t-8 45.5q-14 52 -52.5 74.5t-154.5 21t-453 -24.5v129q209 63 528 64q201 0 283 -135q45 -76 45 -191v-782h-144l-45 127q-6 -6 -67.5 -38t-166 -66.5t-184.5 -34.5q-127 0 -205.5 75.5t-78.5 200.5zM184 1323 q115 102 188 126t161 -19q92 -46 116 -46q55 0 185 76l45 -96q-37 -36 -85.5 -70t-64.5 -41q-86 -39 -172 0q-39 16 -70.5 33t-46.5 17h-36q-39 0 -96.5 -31t-78.5 -41zM264 283q0 -123 117 -123q68 0 167 25.5t165 50.5l65 24v266l-401 -28q-113 -10 -113 -127v-88z" />
<glyph unicode="&#xe4;" horiz-adv-x="1062" d="M76 264v119q0 125 74.5 202t209.5 77h418q2 59 2 88.5t-1 48t-8 45.5q-14 52 -52.5 74.5t-154.5 21t-453 -24.5v129q209 63 528 64q201 0 283 -135q45 -76 45 -191v-782h-144l-45 127q-6 -6 -67.5 -38t-166 -66.5t-184.5 -34.5q-127 0 -205.5 75.5t-78.5 200.5zM168 1339 q0 45 31.5 77t77 32t77 -32t31.5 -77t-31.5 -76.5t-77 -31.5t-77 31.5t-31.5 76.5zM264 283q0 -123 117 -123q68 0 167 25.5t165 50.5l65 24v266l-401 -28q-113 -10 -113 -127v-88zM690 1339q0 45 32 77t77 32t76.5 -32t31.5 -77t-31.5 -76.5t-76.5 -31.5t-77 31.5t-32 76.5 z" />
<glyph unicode="&#xe5;" horiz-adv-x="1062" d="M76 264v119q0 125 74.5 202t209.5 77h418q2 59 2 88.5t-1 48t-8 45.5q-14 52 -52.5 74.5t-154.5 21t-453 -24.5v129q209 63 528 64q201 0 283 -135q45 -76 45 -191v-782h-144l-45 127q-6 -6 -67.5 -38t-166 -66.5t-184.5 -34.5q-127 0 -205.5 75.5t-78.5 200.5zM264 283 q0 -123 117 -123q68 0 167 25.5t165 50.5l65 24v266l-401 -28q-113 -10 -113 -127v-88zM332 1373q0 73 28.5 121t76.5 75.5t104.5 27.5t103.5 -27.5t75 -75.5t28 -106.5t-28 -105.5t-75 -74.5t-118.5 -27.5t-133 60t-61.5 133zM434 1387.5q0 -44.5 32 -74t75 -29.5 t73.5 29.5t30.5 74t-30.5 75t-73.5 30.5t-75 -30.5t-32 -75z" />
<glyph unicode="&#xe6;" horiz-adv-x="1767" d="M76 274v78q0 125 73.5 203t210.5 78q209 -2 313.5 -2t104.5 2q2 78 2 118t-1 58t-8 45q-13 52 -52 74t-103 22q-154 0 -505 -24v129q182 63 528 63q178 0 260 -110q72 76 211 92q61 6 145 6t134.5 -4t104.5 -16.5t86 -38t60 -68.5q51 -78 52 -258q0 -252 -287 -252h-428 q0 -176 46 -236.5t167 -60.5q340 0 481 23v-138q-186 -57 -524 -57q-119 0 -184.5 35t-126.5 108q-6 -8 -84 -42.5t-195 -68.5t-197 -34q-127 0 -205.5 77t-78.5 199zM264 291q0 -68 31 -93.5t92.5 -25.5t160.5 24.5t165 49.5l65 24v238l-401 -29q-113 -10 -113 -127v-61z M977 631h407q119 0 119 94q0 76 -7 116t-35.5 62.5t-68.5 27.5t-102 5h-80q-71 0 -90.5 -6t-43 -13.5t-33 -18.5t-23.5 -28q-43 -50 -43 -239z" />
<glyph unicode="&#xe7;" horiz-adv-x="1019" d="M96 533.5q0 125.5 11.5 215t34.5 148.5q49 121 126 164q78 41 187 41q215 0 475 -62v-127q-440 24 -512 10q-27 -5 -56 -27q-78 -61 -78 -334q1 -177 21.5 -259t62.5 -112.5t124 -30.5q164 0 380 16l72 4v-131q-143 -49 -337.5 -59t-256 6t-109.5 52t-78 97.5t-48.5 162 t-18.5 226zM348 -268l105 30q39 16 51 55t12 107h154q0 -160 -45 -221t-168 -61h-109v90z" />
<glyph unicode="&#xe8;" horiz-adv-x="1075" d="M96 511.5q0 280.5 47 391.5q27 61 62 99t112.5 66t270 28t269.5 -41t110 -122t32 -224q0 -258 -286 -258h-428q0 -174 45 -231.5t168 -57.5q338 0 481 22v-137q-188 -57 -524 -57q-207 0 -283 120.5t-76 401zM229 1495h211l209 -274h-153zM285 616h407q119 0 119 95 q0 78 -8 116.5t-36 62t-69 30t-102 6.5t-85 -1t-55.5 -3t-48 -8.5t-39 -16.5t-32.5 -27q-34 -56 -42.5 -112t-8.5 -142z" />
<glyph unicode="&#xe9;" horiz-adv-x="1075" d="M96 511.5q0 280.5 47 391.5q27 61 62 99t112.5 66t270 28t269.5 -41t110 -122t32 -224q0 -258 -286 -258h-428q0 -174 45 -231.5t168 -57.5q338 0 481 22v-137q-188 -57 -524 -57q-207 0 -283 120.5t-76 401zM285 616h407q119 0 119 95q0 78 -8 116.5t-36 62t-69 30 t-102 6.5t-85 -1t-55.5 -3t-48 -8.5t-39 -16.5t-32.5 -27q-34 -56 -42.5 -112t-8.5 -142zM479 1221l209 274h211l-266 -274h-154z" />
<glyph unicode="&#xea;" horiz-adv-x="1075" d="M96 511.5q0 280.5 47 391.5q27 61 62 99t112.5 66t270 28t269.5 -41t110 -122t32 -224q0 -258 -286 -258h-428q0 -174 45 -231.5t168 -57.5q338 0 481 22v-137q-188 -57 -524 -57q-207 0 -283 120.5t-76 401zM254 1221l233 270h164l209 -270h-158l-139 139l-149 -139 h-160zM285 616h407q119 0 119 95q0 78 -8 116.5t-36 62t-69 30t-102 6.5t-85 -1t-55.5 -3t-48 -8.5t-39 -16.5t-32.5 -27q-34 -56 -42.5 -112t-8.5 -142z" />
<glyph unicode="&#xeb;" horiz-adv-x="1075" d="M96 511.5q0 280.5 47 391.5q27 61 62 99t112.5 66t270 28t269.5 -41t110 -122t32 -224q0 -258 -286 -258h-428q0 -174 45 -231.5t168 -57.5q338 0 481 22v-137q-188 -57 -524 -57q-207 0 -283 120.5t-76 401zM182 1329q0 45 32 77t77 32t76.5 -32t31.5 -77t-31.5 -76.5 t-76.5 -31.5t-77 31.5t-32 76.5zM285 616h407q119 0 119 95q0 78 -8 116.5t-36 62t-69 30t-102 6.5t-85 -1t-55.5 -3t-48 -8.5t-39 -16.5t-32.5 -27q-34 -56 -42.5 -112t-8.5 -142zM705 1329q0 45 31.5 77t76.5 32t77 -32t32 -77t-32 -76.5t-77 -31.5t-76.5 31.5t-31.5 76.5 z" />
<glyph unicode="&#xec;" horiz-adv-x="417" d="M-133 1495h209l211 -274h-154zM115 0v1087h188v-1087h-188z" />
<glyph unicode="&#xed;" horiz-adv-x="417" d="M115 0v1087h188v-1087h-188zM133 1221l209 274h211l-266 -274h-154z" />
<glyph unicode="&#xee;" horiz-adv-x="417" d="M-94 1221l233 270h164l209 -270h-158l-137 139l-151 -139h-160zM115 0v1087h188v-1087h-188z" />
<glyph unicode="&#xef;" horiz-adv-x="417" d="M-160 1329q0 45 32 77t77 32t75.5 -32t30.5 -77t-30.5 -76.5t-75.5 -31.5t-77 31.5t-32 76.5zM115 0v1087h188v-1087h-188zM362 1318q0 56 32 88t77 32t76 -32t31 -77t-31 -76.5t-76 -31.5t-77 31.5t-32 65.5z" />
<glyph unicode="&#xf0;" horiz-adv-x="1101" d="M76 534.5q0 278.5 85 415.5t285 137h181q115 0 145 -26q-47 158 -141 250l-281 -117l-51 121l203 86q-90 43 -223 43q-20 0 -41 -2v162q291 0 454 -121l228 94l53 -123l-172 -70q225 -274 225 -843q0 -289 -97.5 -415t-275.5 -126h-207q-204 0 -287 128t-83 406.5z M264 537.5q0 -95.5 10.5 -162t25.5 -103t42 -56.5q42 -30 117 -30h182q115 0 156 85t41 286t-39 274.5t-158 73.5h-182q-80 0 -114 -30.5t-48 -71.5t-23.5 -105.5t-9.5 -160z" />
<glyph unicode="&#xf1;" horiz-adv-x="1116" d="M115 0v1087h141l47 -124q69 52 172.5 97.5t214.5 45.5q160 0 246 -103.5t86 -252.5v-750h-188v750q0 184 -181 184q-90 0 -159.5 -24.5t-190.5 -86.5v-823h-188zM221 1321q117 102 188.5 126t159.5 -19q92 -46 117 -46q55 0 184 76l45 -96q-41 -41 -86 -73t-63 -38 q-94 -43 -207 17q-63 33 -112 32.5t-103.5 -31t-77.5 -40.5z" />
<glyph unicode="&#xf2;" horiz-adv-x="1157" d="M96 528q0 223 47 346t149.5 173.5t287.5 50.5q276 0 379.5 -123t103.5 -437.5t-103.5 -431t-378 -116.5t-380 120.5t-105.5 417.5zM254 1495h209l211 -274h-154zM285 532.5q0 -88.5 7 -149.5t25.5 -101t40 -63.5t70.5 -40t135 -15.5t127 6q106 13 145 93t39 267 t-22.5 248t-41.5 86.5t-66 44t-135.5 18.5t-125.5 -4t-74.5 -17.5t-57 -39t-37 -70.5t-23.5 -109.5t-6 -153z" />
<glyph unicode="&#xf3;" horiz-adv-x="1157" d="M96 528q0 223 47 346t149.5 173.5t287.5 50.5q276 0 379.5 -123t103.5 -437.5t-103.5 -431t-378 -116.5t-380 120.5t-105.5 417.5zM285 532.5q0 -88.5 7 -149.5t25.5 -101t40 -63.5t70.5 -40t135 -15.5t127 6q106 13 145 93t39 267t-22.5 248t-41.5 86.5t-66 44 t-135.5 18.5t-125.5 -4t-74.5 -17.5t-57 -39t-37 -70.5t-23.5 -109.5t-6 -153zM502 1221l211 274h209l-267 -274h-153z" />
<glyph unicode="&#xf4;" horiz-adv-x="1157" d="M96 528q0 223 47 346t149.5 173.5t287.5 50.5q276 0 379.5 -123t103.5 -437.5t-103.5 -431t-378 -116.5t-380 120.5t-105.5 417.5zM285 532.5q0 -88.5 7 -149.5t25.5 -101t40 -63.5t70.5 -40t135 -15.5t127 6q106 13 145 93t39 267t-22.5 248t-41.5 86.5t-66 44 t-135.5 18.5t-125.5 -4t-74.5 -17.5t-57 -39t-37 -70.5t-23.5 -109.5t-6 -153zM285 1221l233 270h164l209 -270h-158l-137 139l-152 -139h-159z" />
<glyph unicode="&#xf5;" horiz-adv-x="1157" d="M96 528q0 223 47 346t149.5 173.5t287.5 50.5q276 0 379.5 -123t103.5 -437.5t-103.5 -431t-378 -116.5t-380 120.5t-105.5 417.5zM248 1313q49 43 80 67q86 66 146.5 65t101 -18.5t75.5 -35t62 -17.5q55 0 184 76l45 -96q-36 -36 -83.5 -70.5t-65.5 -40.5 q-94 -43 -207 17q-63 33 -112.5 32.5t-104 -31t-76.5 -40.5zM285 532.5q0 -88.5 7 -149.5t25.5 -101t40 -63.5t70.5 -40t135 -15.5t127 6q106 13 145 93t39 267t-22.5 248t-41.5 86.5t-66 44t-135.5 18.5t-125.5 -4t-74.5 -17.5t-57 -39t-37 -70.5t-23.5 -109.5t-6 -153z " />
<glyph unicode="&#xf6;" horiz-adv-x="1157" d="M96 528q0 223 47 346t149.5 173.5t287.5 50.5q276 0 379.5 -123t103.5 -437.5t-103.5 -431t-378 -116.5t-380 120.5t-105.5 417.5zM213 1329q0 45 31.5 77t77 32t76 -32t30.5 -77t-30.5 -76.5t-76 -31.5t-77 31.5t-31.5 76.5zM285 532.5q0 -88.5 7 -149.5t25.5 -101 t40 -63.5t70.5 -40t135 -15.5t127 6q106 13 145 93t39 267t-22.5 248t-41.5 86.5t-66 44t-135.5 18.5t-125.5 -4t-74.5 -17.5t-57 -39t-37 -70.5t-23.5 -109.5t-6 -153zM735 1329q0 45 32 77t77 32t75.5 -32t30.5 -77t-30.5 -76.5t-75.5 -31.5t-77 31.5t-32 76.5z" />
<glyph unicode="&#xf7;" horiz-adv-x="1046" d="M96 635v176h854v-176h-854zM420 344v119q0 49 49 49h115q49 0 49 -49v-119q0 -47 -49 -47h-115q-23 0 -36 13.5t-13 33.5zM420 971v116q0 51 49 52h115q49 0 49 -52v-116q0 -47 -49 -47h-115q-49 0 -49 47z" />
<glyph unicode="&#xf8;" horiz-adv-x="1169" d="M98 0l95 129q-90 117 -90.5 370t47 375.5t149.5 173t290.5 50.5t291.5 -54l32 43h142l-86 -114q100 -121 100 -435.5t-103.5 -431t-379.5 -116.5q-205 0 -314 65l-43 -55h-131zM291 498q0 -123 35 -199l442 598q-53 29 -147.5 29t-131 -4t-74.5 -17.5t-57.5 -39 t-37 -70.5t-23.5 -109.5t-6 -187.5zM385 203q53 -39 191.5 -39t189.5 24.5t72 65.5q43 88 43 282.5t-41 272.5z" />
<glyph unicode="&#xf9;" horiz-adv-x="1116" d="M96 340v747h189v-749q0 -182 180 -182q90 0 159.5 23.5t190.5 86.5v821h189v-1087h-142l-47 123q-12 -6 -49 -28.5t-52.5 -30t-47.5 -24.5q-111 -58 -238 -58q-162 0 -247 103t-85 255zM223 1495h211l209 -274h-154z" />
<glyph unicode="&#xfa;" horiz-adv-x="1116" d="M96 340v747h189v-749q0 -182 180 -182q90 0 159.5 23.5t190.5 86.5v821h189v-1087h-142l-47 123q-12 -6 -49 -28.5t-52.5 -30t-47.5 -24.5q-111 -58 -238 -58q-162 0 -247 103t-85 255zM473 1221l209 274h211l-266 -274h-154z" />
<glyph unicode="&#xfb;" horiz-adv-x="1116" d="M96 340v747h189v-749q0 -182 180 -182q90 0 159.5 23.5t190.5 86.5v821h189v-1087h-142l-47 123q-12 -6 -49 -28.5t-52.5 -30t-47.5 -24.5q-111 -58 -238 -58q-162 0 -247 103t-85 255zM246 1221l233 270h164l209 -270h-158l-137 139l-151 -139h-160z" />
<glyph unicode="&#xfc;" horiz-adv-x="1116" d="M96 340v747h189v-749q0 -182 180 -182q90 0 159.5 23.5t190.5 86.5v821h189v-1087h-142l-47 123q-12 -6 -49 -28.5t-52.5 -30t-47.5 -24.5q-111 -58 -238 -58q-162 0 -247 103t-85 255zM180 1329q0 45 32 77t77 32t75.5 -32t30.5 -77t-30.5 -76.5t-75.5 -31.5t-77 31.5 t-32 76.5zM702 1329q0 45 32 77t77 32t76 -32t31 -77t-31 -76.5t-76 -31.5t-77 31.5t-32 76.5z" />
<glyph unicode="&#xfd;" horiz-adv-x="1146" d="M41 1087h203l241 -825q31 -100 125 -82l4 2l287 905h205l-453 -1431l-151 -209h-125l182 553q-197 0 -266 240zM496 1221l211 274h208l-266 -274h-153z" />
<glyph unicode="&#xfe;" horiz-adv-x="1134" d="M133 -553v2155h189v-635q84 63 200.5 99t188 36t133.5 -30q112 -55 163.5 -196t51.5 -331q0 -322 -91 -445t-266 -123q-78 0 -186 21.5t-194 58.5v-610h-189zM322 197q161 -47 360 -47q61 0 100 30.5t63.5 119.5t24.5 260t-50 268.5t-138 97.5q-160 -8 -360 -95v-634z " />
<glyph unicode="&#xff;" horiz-adv-x="1146" d="M41 1087h203l241 -825q31 -100 125 -82l4 2l287 905h205l-453 -1431l-151 -209h-125l182 553q-197 0 -266 240zM203 1329q0 45 32.5 77t77.5 32t76 -32t31 -77t-32 -76.5t-76 -31.5t-76.5 31.5t-32.5 76.5zM725 1329q0 45 33 77t78 32t75.5 -32t30.5 -77t-31.5 -76.5 t-75.5 -31.5t-77 31.5t-33 76.5z" />
<glyph unicode="&#x152;" horiz-adv-x="2134" d="M125 735q0 270 46 429t126 231t178.5 93.5t218 21t191.5 -8.5q170 -23 260 -129q57 127 219 127q10 0 320.5 -14.5t345.5 -18.5v-151h-627q-78 0 -92 -33t-15 -82v-360l650 -23v-151l-650 -21v-360q0 -86 58 -101q25 -6 69 -6h607v-149l-625 -35h-31q-182 0 -235 129 q-88 -100 -254 -121q-74 -10 -168 -10t-155.5 5t-127 23.5t-109.5 51.5q-108 80 -154 236.5t-46 426.5zM313 719.5q0 -105.5 7.5 -193.5t28 -152.5t48 -102.5t91 -67.5t190.5 -29.5t188 14q142 31 192 153t50 351t-13.5 306t-22.5 120t-28.5 75t-35 54.5t-44.5 37.5 q-57 30 -112 36t-121.5 6t-94.5 -1t-66 -5t-60.5 -12.5t-51 -22.5t-45 -36.5t-36 -54.5t-28.5 -75t-19.5 -98t-13.5 -126t-3 -176.5z" />
<glyph unicode="&#x153;" horiz-adv-x="1849" d="M96 528q0 223 47 346t149.5 173.5t287.5 50.5q281 0 381 -131q66 98 215 118q113 17 219 12t155 -14.5t80 -26.5q79 -42 112.5 -123t33.5 -226q0 -256 -287 -256h-428v-67q0 -52 18 -110q35 -113 195 -112q338 0 481 20v-135q-188 -57 -524 -57q-201 0 -277 121 q-100 -121 -373.5 -121t-379 120.5t-105.5 417.5zM285 532.5q0 -88.5 7 -149.5t25.5 -101t40 -63.5t70.5 -40t134 -16.5t129 7t78 25.5t53.5 43t34.5 86t15 223.5t-26.5 240.5t-86 107.5t-149.5 29t-127 -3t-74.5 -16.5t-57 -39t-37 -70.5t-23.5 -109.5t-6 -153zM1061 616 h407q119 1 119 95q0 78 -8 116.5t-37 62t-68.5 30t-110.5 6.5t-107 -3q-96 -8 -134 -44q-61 -61 -61 -215v-48z" />
<glyph unicode="&#x178;" horiz-adv-x="1304" d="M86 1499h205l362 -768l400 768h204l-512 -985v-514h-188v514zM303 1741q0 45 32 75.5t77 30.5t75.5 -30.5t30.5 -75.5t-30.5 -77t-75.5 -32t-77 32t-32 77zM825 1741q0 45 32 75.5t77 30.5t75.5 -30.5t30.5 -75.5t-30.5 -77t-75.5 -32t-77 32t-32 77z" />
<glyph unicode="&#x2c6;" horiz-adv-x="796" d="M96 1087l234 269h164l208 -269h-157l-139 140l-150 -140h-160z" />
<glyph unicode="&#x2dc;" horiz-adv-x="884" d="M96 1180q115 102 187.5 126t160.5 -20q92 -45 117 -45q55 0 184 76l46 -96q-33 -33 -83.5 -69t-66.5 -42q-94 -43 -207 16q-63 33 -112 33t-104.5 -30.5t-76.5 -41.5z" />
<glyph unicode="&#x2000;" horiz-adv-x="957" />
<glyph unicode="&#x2001;" horiz-adv-x="1915" />
<glyph unicode="&#x2002;" horiz-adv-x="957" />
<glyph unicode="&#x2003;" horiz-adv-x="1915" />
<glyph unicode="&#x2004;" horiz-adv-x="638" />
<glyph unicode="&#x2005;" horiz-adv-x="478" />
<glyph unicode="&#x2006;" horiz-adv-x="319" />
<glyph unicode="&#x2007;" horiz-adv-x="319" />
<glyph unicode="&#x2008;" horiz-adv-x="239" />
<glyph unicode="&#x2009;" horiz-adv-x="383" />
<glyph unicode="&#x200a;" horiz-adv-x="106" />
<glyph unicode="&#x2010;" horiz-adv-x="724" d="M41 506v176h643v-176h-643z" />
<glyph unicode="&#x2011;" horiz-adv-x="724" d="M41 506v176h643v-176h-643z" />
<glyph unicode="&#x2012;" horiz-adv-x="724" d="M41 506v176h643v-176h-643z" />
<glyph unicode="&#x2013;" horiz-adv-x="1050" d="M41 500v178h969v-178h-969z" />
<glyph unicode="&#x2014;" horiz-adv-x="1507" d="M41 504v178h1425v-178h-1425z" />
<glyph unicode="&#x2018;" horiz-adv-x="546" d="M154 1118v221q0 61 23.5 102.5t66 60t73.5 18.5h41l23 -4v-84h-2q-66 0 -66 -68v-53h25q55 0 55 -56v-137q0 -61 -55 -61h-133q-51 0 -51 61z" />
<glyph unicode="&#x2019;" horiz-adv-x="546" d="M154 1323v137q0 59 55 60h133q51 0 51 -60v-221q0 -63 -23.5 -104t-67.5 -60t-74.5 -18.5t-39.5 0.5l-22 4v82h2q66 0 65 71v52h-24q-55 0 -55 57z" />
<glyph unicode="&#x201a;" horiz-adv-x="546" d="M154 55v138q0 61 55 61h133q51 0 51 -61v-222q0 -63 -23.5 -104t-67.5 -59.5t-74 -18.5h-40l-22 4v84h2q66 0 65 70v51h-24q-55 0 -55 57z" />
<glyph unicode="&#x201c;" horiz-adv-x="860" d="M139 1118v221q0 61 23.5 102.5t67.5 60t75 18.5t39 -2l25 -2v-84h-4q-66 0 -66 -68v-53h25q57 0 57 -56v-137q0 -61 -57 -61h-131q-54 0 -54 61zM481 1118v221q0 61 23.5 102.5t67.5 60t75 18.5t39 -2l25 -2v-84h-4q-66 0 -66 -68v-53h25q25 0 40 -14.5t15 -41.5v-137 q0 -61 -55 -61h-131q-54 0 -54 61z" />
<glyph unicode="&#x201d;" horiz-adv-x="860" d="M139 1321v137q0 61 56 62h131q55 0 55 -62v-221q0 -180 -193 -180q-16 0 -38 4v82h4q66 0 65 69v54h-24q-56 0 -56 55zM481 1321v137q0 61 56 62h131q53 0 53 -62v-221q-1 -180 -191 -180q-16 0 -38 4v82h4q66 0 65 69v54h-24q-55 0 -56 55z" />
<glyph unicode="&#x201e;" horiz-adv-x="860" d="M139 55v138q0 61 56 61h131q55 0 55 -61v-222q-1 -182 -191 -182q-16 0 -40 4v84h4q66 0 65 70v51h-24q-25 0 -40.5 14.5t-15.5 42.5zM481 55v138q0 61 56 61h131q53 0 53 -61v-222q-1 -182 -189 -182q-16 0 -40 4v84h4q66 0 65 70v51h-24q-25 0 -40.5 14.5t-15.5 42.5z " />
<glyph unicode="&#x2022;" horiz-adv-x="636" d="M162 688v184q0 72 67 72h174q72 0 72 -72v-184q0 -66 -72 -65h-174q-31 0 -49 17t-18 48z" />
<glyph unicode="&#x2026;" horiz-adv-x="1665" d="M322 47v135q0 51 49 51h127q51 0 51 -51v-135q0 -47 -51 -47h-127q-20 0 -34.5 13.5t-14.5 33.5zM713 47v135q0 51 49 51h127q51 0 51 -51v-135q0 -47 -51 -47h-127q-23 0 -36 13.5t-13 33.5zM1102 47v135q0 51 49 51h127q51 0 51 -51v-135q0 -47 -51 -47h-127 q-20 0 -34.5 13.5t-14.5 33.5z" />
<glyph unicode="&#x202f;" horiz-adv-x="383" />
<glyph unicode="&#x2039;" horiz-adv-x="729" d="M96 725l422 416l119 -119l-303 -297l313 -305l-119 -121z" />
<glyph unicode="&#x203a;" horiz-adv-x="729" d="M96 420l312 305l-304 297l121 119l422 -416l-432 -426z" />
<glyph unicode="&#x205f;" horiz-adv-x="478" />
<glyph unicode="&#x20ac;" horiz-adv-x="1253" d="M39 520v107l174 16v188l-174 17v98l174 21v71q0 87 12.5 134t28.5 93t39.5 77.5t61.5 67.5t85 56.5t112.5 35t145.5 14.5t240 -20.5t270 -45.5v-143q-326 29 -452.5 28.5t-186 -18t-92.5 -46t-54.5 -93t-21.5 -211.5l480 -17v-106l-480 -13v-188l480 -16v-107 q-285 -6 -414 -12l-66 -4q0 -340 316 -340q172 0 418 29l82 8v-140q-231 -74 -519 -73q-215 0 -350 124.5t-135 391.5z" />
<glyph unicode="&#x2122;" horiz-adv-x="1423" d="M39 1360v139h543v-139h-199v-576h-145v576h-199zM649 784l62 715h145l172 -467l148 467h151l70 -715h-148l-35 404l-120 -404h-125l-144 406l-30 -406h-146z" />
<glyph unicode="&#xe000;" horiz-adv-x="1085" d="M0 0v1085h1085v-1085h-1085z" />
<glyph unicode="&#xfb03;" horiz-adv-x="2009" d="M39 918v135l203 34v183q0 319 264 319q135 0 287 -49v-119l-234 2q-102 0 -119 -67q-10 -35 -10 -103l-4 -166h553v101q0 186 114 304t302 118q74 0 204 -21.5t203 -46.5v-119l-356 21h-32q-120 0 -185 -72q-61 -63 -62 -186v-99l729 -20v-1067h-190v918h-541v-918h-188 v918h-551v-918h-188v918h-199z" />
<glyph unicode="&#xfb04;" horiz-adv-x="2217" d="M39 918v135l203 34v183q0 319 264 319q135 0 287 -49v-119l-234 2q-102 0 -119 -67q-10 -35 -10 -103l-4 -166h555v105q0 260 154 360q80 53 198 54h568v-1207q0 -125 22.5 -167t87.5 -62q156 -43 170 -43v-127h-194q-147 0 -211 87t-64 300v1057h-338q-68 0 -110 -21 q-94 -41 -95 -231v-105h285v-169h-289v-918h-188v918h-551v-918h-188v918h-199z" />
</font>
</defs>
</svg>
