<?xml version="1.0" standalone="no"?>
<!DOCTYPE svg PUBLIC "-//W3C//DTD SVG 1.1//EN" "http://www.w3.org/Graphics/SVG/1.1/DTD/svg11.dtd" >
<svg xmlns="http://www.w3.org/2000/svg">
<metadata></metadata>
<defs>
<font id="AldrichRegular" horiz-adv-x="1270" >
<font-face units-per-em="2048" ascent="1638" descent="-410" />
<missing-glyph horiz-adv-x="614" />
<glyph horiz-adv-x="0" />
<glyph horiz-adv-x="2048" />
<glyph unicode="&#xd;" horiz-adv-x="614" />
<glyph unicode=" "  horiz-adv-x="614" />
<glyph unicode="&#x09;" horiz-adv-x="614" />
<glyph unicode="&#xa0;" horiz-adv-x="614" />
<glyph unicode="!" horiz-adv-x="586" d="M143 0v299h299v-299h-299zM154 1434h278l-82 -902h-114z" />
<glyph unicode="&#x22;" horiz-adv-x="1004" d="M164 1217v217h266v-217l-65 -455h-136zM573 1217v217h267v-217l-66 -455h-135z" />
<glyph unicode="#" horiz-adv-x="1577" d="M184 350v176h217l58 381h-275v176h301l54 351h176l-53 -351h360l53 351h176l-53 -351h195v-176h-222l-57 -381h279v-176h-306l-51 -350h-176l51 350h-360l-51 -350h-176l51 350h-191zM578 526h360l57 381h-360z" />
<glyph unicode="$" horiz-adv-x="1413" d="M143 205v184h199v-184h283v409h-256q-83 0 -145 60q-60 59 -60 145v410q0 86 60 145q62 60 145 60h256v204h184v-204h256q83 0 145 -60q60 -59 60 -145v-185h-199v185h-262v-410h256q85 0 145 -60t60 -145v-409q0 -85 -60 -145t-145 -60h-256v-205h-184v205h-277 q-86 0 -144 60q-61 62 -61 145zM362 819h263v410h-263v-410zM809 205h262v409h-262v-409z" />
<glyph unicode="%" horiz-adv-x="1964" d="M143 899v330q0 84 60.5 144.5t144.5 60.5h230q82 0 144 -60q60 -59 60 -145v-330q0 -85 -60 -145t-144 -60h-230q-86 0 -144 60q-61 62 -61 145zM319 870h287v387h-287v-387zM377 0l1022 1434h188l-1022 -1434h-188zM1182 205v330q0 84 60 144t144 60h230q85 0 145 -60 t60 -144v-330q0 -85 -60 -145t-145 -60h-230q-84 0 -144 60t-60 145zM1358 176h287v387h-287v-387z" />
<glyph unicode="&#x26;" horiz-adv-x="1538" d="M143 348v72q0 268 187 323q-166 78 -166 316v26q0 349 348 349h303q177 0 262.5 -86t85.5 -263v-86h-200v76q0 82 -36 120t-118 38h-291q-81 0 -117 -38t-36 -120v-94q0 -78 32.5 -115.5t106.5 -40.5h932v-200h-252v-267q0 -81 36 -119t117 -38h99v-201h-64 q-206 0 -289 119q-85 -119 -288 -119h-303q-349 0 -349 348zM344 358q0 -81 36 -119t118 -38h331q82 0 118 38t36 119v267h-485q-82 0 -118 -37t-36 -119v-111z" />
<glyph unicode="'" horiz-adv-x="594" d="M164 1217v217h266v-217l-65 -455h-136z" />
<glyph unicode="(" horiz-adv-x="797" d="M143 72v962q0 229 136.5 365.5t365.5 136.5h29v-195h-29q-212 0 -277 -172q-20 -55 -20 -125v-983q0 -142 77.5 -219.5t219.5 -77.5h29v-194h-29q-229 0 -365.5 136.5t-136.5 365.5z" />
<glyph unicode=")" horiz-adv-x="797" d="M123 -236h29q142 0 219.5 77.5t77.5 219.5v983q0 140 -78.5 218.5t-218.5 78.5h-29v195h29q230 0 365 -136q136 -138 136 -366v-962q0 -228 -136 -366q-135 -136 -365 -136h-29v194z" />
<glyph unicode="*" horiz-adv-x="1124" d="M123 1053l53 161l313 -114l-12 334h170l-12 -334l313 114l53 -161l-321 -92l205 -263l-137 -100l-187 279l-184 -279l-137 100l204 263z" />
<glyph unicode="+" horiz-adv-x="1446" d="M164 479v197h461v461h196v-461h461v-197h-461v-461h-196v461h-461z" />
<glyph unicode="," horiz-adv-x="627" d="M164 0v299h299v-299l-154 -305h-145l147 305h-147z" />
<glyph unicode="-" horiz-adv-x="807" d="M164 479v197h479v-197h-479z" />
<glyph unicode="." horiz-adv-x="627" d="M164 0v299h299v-299h-299z" />
<glyph unicode="/" horiz-adv-x="905" d="M82 -102l543 1638h198l-553 -1638h-188z" />
<glyph unicode="0" horiz-adv-x="1495" d="M184 205v1024q0 86 60 145q62 60 145 60h717q83 0 145 -60q60 -59 60 -145v-1024q0 -85 -60 -145t-145 -60h-717q-85 0 -145 60t-60 145zM389 205h717v1024h-717v-1024z" />
<glyph unicode="1" horiz-adv-x="717" d="M61 1229v205h451v-1434h-205v1229h-246z" />
<glyph unicode="2" horiz-adv-x="1413" d="M164 0v377q0 82 26 121q41 63 117 100l711 334v297h-649v-185h-205v185q0 86 60 145q62 60 145 60h649q84 0 144.5 -60.5t60.5 -144.5v-262q0 -84 -25 -122q-41 -62 -119 -100l-710 -333v-207h675v184h205v-389h-1085z" />
<glyph unicode="3" horiz-adv-x="1348" d="M102 348v86h201v-76q0 -81 36 -119t118 -38h413q82 0 118 38t36 119v111q0 82 -36 119t-118 37h-424v200h418q75 3 107.5 40.5t32.5 115.5v94q0 82 -36.5 120t-117.5 38h-373q-81 0 -117 -38t-36 -120v-76h-201v86q0 349 348 349h385q177 0 262.5 -86t85.5 -263v-26 q0 -238 -166 -316q187 -55 187 -323v-72q0 -348 -348 -348h-426q-349 0 -349 348z" />
<glyph unicode="4" horiz-adv-x="1243" d="M41 297v197l707 940h241v-940h193v-197h-193v-297h-205v297h-743zM264 494h520v692z" />
<glyph unicode="5" horiz-adv-x="1307" d="M102 348v86h201v-76q0 -81 36 -119t118 -38h372q82 0 118 38t36 119v193q0 81 -36 118.5t-118 37.5h-686v727h1004v-205h-799v-322h488q176 0 262 -85.5t86 -262.5v-211q-3 -175 -88 -261.5t-260 -86.5h-385q-349 0 -349 348z" />
<glyph unicode="6" horiz-adv-x="1434" d="M184 205v1024q0 86 60 145q62 60 145 60h655q83 0 145 -60q60 -59 60 -145v-185h-205v185h-655v-410h655q85 0 145 -60t60 -145v-409q0 -85 -60 -145t-145 -60h-655q-85 0 -145 60t-60 145zM389 205h655v409h-655v-409z" />
<glyph unicode="7" horiz-adv-x="1208" d="M82 1229v205h1106v-62l-711 -1372h-237l643 1229h-801z" />
<glyph unicode="8" horiz-adv-x="1409" d="M143 348v72q0 268 187 323q-166 78 -166 316v26q0 349 348 349h385q348 0 348 -349v-26q0 -238 -166 -316q187 -55 187 -323v-72q0 -348 -348 -348h-426q-349 0 -349 348zM344 358q0 -81 36 -119t118 -38h413q82 0 118 38t36 119v111q0 82 -36 119t-118 37h-413 q-82 0 -118 -37t-36 -119v-111zM365 981q0 -78 32.5 -115.5t106.5 -40.5h401q75 3 107 40.5t32 115.5v94q0 82 -36 120t-117 38h-373q-81 0 -117 -38t-36 -120v-94z" />
<glyph unicode="9" horiz-adv-x="1434" d="M184 205v184h205v-184h655v409h-655q-83 0 -145 60q-60 59 -60 145v410q0 86 60 145q62 60 145 60h655q83 0 145 -60q60 -59 60 -145v-1024q0 -85 -60 -145t-145 -60h-655q-85 0 -145 60t-60 145zM389 819h655v410h-655v-410z" />
<glyph unicode=":" horiz-adv-x="627" d="M164 0v299h299v-299h-299zM164 766v299h299v-299h-299z" />
<glyph unicode=";" horiz-adv-x="627" d="M164 0v299h299v-299l-154 -305h-145l147 305h-147zM164 766v299h299v-299h-299z" />
<glyph unicode="&#x3c;" horiz-adv-x="1364" d="M82 479v211l1118 479v-208l-897 -377l897 -375v-209z" />
<glyph unicode="=" horiz-adv-x="1446" d="M164 242v196h1118v-196h-1118zM164 717v196h1118v-196h-1118z" />
<glyph unicode="&#x3e;" horiz-adv-x="1364" d="M164 0v209l895 375l-895 377v208l1118 -479v-211z" />
<glyph unicode="?" horiz-adv-x="1147" d="M123 1044v185q0 86 60 145q62 60 145 60h491q83 0 145 -60q60 -59 60 -145v-176q0 -83 -25 -122t-52.5 -60t-65.5 -40l-265 -126v-173h-204v136q0 82 26 121q41 63 117 100l264 127v213h-491v-185h-205zM371 0v299h299v-299h-299z" />
<glyph unicode="@" horiz-adv-x="2171" d="M184 72v860q0 229 136.5 365.5t365.5 136.5h799q229 0 365.5 -136.5t136.5 -365.5v-735q0 -83 -58 -139q-59 -58 -139 -58h-285q-78 0 -134 52q-56 53 -62 128q-6 -73 -65 -128q-56 -52 -132 -52h-270q-82 0 -139.5 57.5t-57.5 139.5v610q0 80 57 139q57 58 140 58h270 q79 0 136 -56q59 -56 61 -133v189h196v-807h285v743q0 140 -78.5 218.5t-218.5 78.5h-815q-212 0 -276 -172q-21 -55 -21 -125v-868q0 -142 78 -224q78 -81 219 -81h1065q0 -79 -59 -138t-138 -59h-860q-229 0 -365.5 136.5t-136.5 365.5zM842 197h467v610h-467v-610z" />
<glyph unicode="A" horiz-adv-x="1434" d="M61 0l553 1434h205l553 -1434h-205l-127 330h-647l-127 -330h-205zM471 535h490l-244 632z" />
<glyph unicode="B" horiz-adv-x="1440" d="M184 0v1434h744q348 0 348 -349v-26q0 -239 -158 -311q199 -62 199 -328v-72q0 -348 -348 -348h-785zM385 201h578q81 0 117 38t36 119v111q0 82 -36 119t-117 37h-578v-424zM385 825h551q74 3 106.5 40.5t32.5 115.5v94q0 82 -36 120t-117 38h-537v-408z" />
<glyph unicode="C" horiz-adv-x="1516" d="M184 205v1024q0 86 60 145q62 60 145 60h778q83 0 145 -60q60 -59 60 -145v-185h-205v185h-778v-1024h778v184h205v-184q0 -85 -60 -145t-145 -60h-778q-85 0 -145 60t-60 145z" />
<glyph unicode="D" horiz-adv-x="1559" d="M184 0v1434h729q229 0 365.5 -136.5t136.5 -365.5v-430q0 -229 -136.5 -365.5t-365.5 -136.5h-729zM389 205h524q143 0 220 77t77 220v430q0 140 -78.5 218.5t-218.5 78.5h-524v-1024z" />
<glyph unicode="E" horiz-adv-x="1352" d="M184 0v1434h1045v-205h-840v-410h717v-205h-717v-409h840v-205h-1045z" />
<glyph unicode="F" horiz-adv-x="1331" d="M184 0v1434h1045v-205h-840v-410h717v-205h-717v-614h-205z" />
<glyph unicode="G" horiz-adv-x="1556" d="M184 205v1024q0 86 60 145q62 60 145 60h778q83 0 145 -60q60 -59 60 -145v-185h-205v185h-778v-1024h778v348h-389v205h594v-553q0 -85 -60 -145t-145 -60h-778q-85 0 -145 60t-60 145z" />
<glyph unicode="H" horiz-adv-x="1599" d="M184 0v1434h205v-615h821v615h205v-1434h-205v614h-821v-614h-205z" />
<glyph unicode="I" horiz-adv-x="573" d="M184 0v1434h205v-1434h-205z" />
<glyph unicode="J" horiz-adv-x="1317" d="M143 205v246h205v-246h580v1229h205v-1229q0 -83 -61 -145q-58 -60 -144 -60h-580q-86 0 -144 60q-61 62 -61 145z" />
<glyph unicode="K" horiz-adv-x="1395" d="M184 0v1434h205v-619l684 619h289l-776 -703l807 -731h-289l-715 645v-645h-205z" />
<glyph unicode="L" horiz-adv-x="1188" d="M184 0v1434h205v-1229h737v-205h-942z" />
<glyph unicode="M" horiz-adv-x="1909" d="M184 0v1434h224l546 -1080l547 1080h223v-1434h-204v1051l-535 -1051h-61l-535 1051v-1051h-205z" />
<glyph unicode="N" horiz-adv-x="1640" d="M184 0v1434h205l862 -1112v1112h205v-1434h-205l-862 1112v-1112h-205z" />
<glyph unicode="O" horiz-adv-x="1597" d="M184 205v1024q0 86 60 145q62 60 145 60h819q83 0 145 -60q60 -59 60 -145v-1024q0 -85 -60 -145t-145 -60h-819q-85 0 -145 60t-60 145zM389 205h819v1024h-819v-1024z" />
<glyph unicode="P" horiz-adv-x="1419" d="M184 0v1434h785q348 0 348 -349v-204q0 -349 -348 -349h-580v-532h-205zM389 737h569q82 0 118 36t36 118v184q0 82 -36 118t-118 36h-569v-492z" />
<glyph unicode="Q" horiz-adv-x="1597" d="M184 205v1024q0 86 60 145q62 60 145 60h819q83 0 145 -60q60 -59 60 -145v-1024q0 -85 -60 -145t-145 -60h-307v-266h-205v266h-307q-85 0 -145 60t-60 145zM389 205h307v166h205v-166h307v1024h-819v-1024z" />
<glyph unicode="R" horiz-adv-x="1475" d="M184 0v1434h785q348 0 348 -349v-163q0 -300 -256 -342l270 -580h-227l-266 573h-449v-573h-205zM389 778h569q82 0 118 36t36 118v143q0 82 -36 118t-118 36h-569v-451z" />
<glyph unicode="S" horiz-adv-x="1475" d="M164 205v184h205v-184h716v409h-696q-83 0 -145 60q-60 59 -60 145v410q0 86 60 145q62 60 145 60h696q83 0 145 -60q60 -59 60 -145v-185h-205v185h-696v-410h696q85 0 145 -60t60 -145v-409q0 -85 -60 -145t-145 -60h-716q-85 0 -145 60t-60 145z" />
<glyph unicode="T" d="M61 1229v205h1147v-205h-471v-1229h-205v1229h-471z" />
<glyph unicode="U" horiz-adv-x="1597" d="M184 205v1229h205v-1229h819v1229h205v-1229q0 -85 -60 -145t-145 -60h-819q-85 0 -145 60t-60 145z" />
<glyph unicode="V" horiz-adv-x="1454" d="M61 1434h220l446 -1180l447 1180h219l-553 -1434h-226z" />
<glyph unicode="W" horiz-adv-x="2007" d="M61 1434h205l318 -1141l317 1141h205l317 -1141l318 1141h205l-410 -1434h-225l-307 1075l-308 -1075h-225z" />
<glyph unicode="X" horiz-adv-x="1407" d="M61 0l519 723l-508 711h247l383 -537l385 537h248l-508 -711l519 -723h-248l-396 551l-393 -551h-248z" />
<glyph unicode="Y" horiz-adv-x="1393" d="M41 1434h238l417 -670l418 670h238l-553 -865v-569h-205v569z" />
<glyph unicode="Z" horiz-adv-x="1401" d="M123 0v61l813 1168h-784v205h1126v-62l-813 -1167h813v-205h-1155z" />
<glyph unicode="[" horiz-adv-x="838" d="M184 -430v1966h531v-195h-326v-1577h326v-194h-531z" />
<glyph unicode="\" horiz-adv-x="905" d="M82 1536h199l542 -1638h-188z" />
<glyph unicode="]" horiz-adv-x="838" d="M123 -236h326v1577h-326v195h530v-1966h-530v194z" />
<glyph unicode="^" horiz-adv-x="1143" d="M82 823l387 611h205l387 -611h-205l-285 461l-284 -461h-205z" />
<glyph unicode="_" d="M-2 -430h1274v-156h-1274v156z" />
<glyph unicode="`" horiz-adv-x="772" d="M123 1475h299l227 -226h-188z" />
<glyph unicode="a" horiz-adv-x="1229" d="M164 197v268q0 80 58 139q56 58 138 58h508v206h-643v197h643q82 0 139.5 -57.5t57.5 -139.5v-868h-197v180q-6 -74 -64 -128q-56 -52 -132 -52h-312q-81 0 -138.5 57.5t-57.5 139.5zM360 197h508v268h-508v-268z" />
<glyph unicode="b" d="M164 197v1278h196v-598q4 79 60.5 133.5t136.5 54.5h352q82 0 139.5 -57.5t57.5 -139.5v-671q0 -82 -57.5 -139.5t-139.5 -57.5h-549q-81 0 -138.5 57.5t-57.5 139.5zM360 197h549v671h-549v-671z" />
<glyph unicode="c" horiz-adv-x="1229" d="M164 197v671q0 82 57.5 139.5t138.5 57.5h508q82 0 139.5 -57.5t57.5 -139.5v-180h-197v180h-508v-671h508v180h197v-180q0 -82 -57.5 -139.5t-139.5 -57.5h-508q-81 0 -138.5 57.5t-57.5 139.5z" />
<glyph unicode="d" d="M164 197v671q0 82 57.5 139.5t138.5 57.5h549v410h197v-1475h-197v180q-6 -74 -63 -128q-57 -52 -133 -52h-353q-81 0 -138.5 57.5t-57.5 139.5zM360 197h549v671h-549v-671z" />
<glyph unicode="e" horiz-adv-x="1229" d="M164 197v671q0 82 57.5 139.5t138.5 57.5h508q82 0 139.5 -57.5t57.5 -139.5v-436h-705v-235h705v-197h-705q-81 0 -138.5 57.5t-57.5 139.5zM360 629h508v239h-508v-239z" />
<glyph unicode="f" horiz-adv-x="1012" d="M102 868v197h260v213q0 81 58 139t139 58h350v-197h-350v-213h350v-197h-350v-868h-197v868h-260z" />
<glyph unicode="g" d="M164 238v630q0 82 57.5 139.5t138.5 57.5h353q79 0 135 -55q59 -56 61 -133v188h197v-1298q0 -82 -57.5 -139.5t-139.5 -57.5h-622v197h622v274h-549q-81 0 -138.5 57.5t-57.5 139.5zM360 238h549v630h-549v-630z" />
<glyph unicode="h" d="M164 0v1475h196v-598q4 79 60.5 133.5t136.5 54.5h352q82 0 139.5 -57.5t57.5 -139.5v-868h-197v868h-549v-868h-196z" />
<glyph unicode="i" horiz-adv-x="545" d="M164 1270v205h217v-205h-217zM174 0v1065h197v-1065h-197z" />
<glyph unicode="j" horiz-adv-x="545" d="M20 -233h154v1298h197v-1298q0 -82 -57.5 -139.5t-139.5 -57.5h-154v197zM164 1270v205h217v-205h-217z" />
<glyph unicode="k" horiz-adv-x="1124" d="M164 0v1475h196v-830l467 420h277l-572 -514l613 -551h-277l-508 455v-455h-196z" />
<glyph unicode="l" horiz-adv-x="524" d="M164 0v1475h196v-1475h-196z" />
<glyph unicode="m" horiz-adv-x="1819" d="M164 0v1065h196v-188q4 79 60.5 133.5t136.5 54.5h254q78 0 136 -55q59 -55 61 -133q4 80 60 133q56 55 136 55h254q82 0 139.5 -57.5t57.5 -139.5v-868h-197v868h-450v-868h-197v868h-451v-868h-196z" />
<glyph unicode="n" d="M164 0v1065h196v-188q4 79 60.5 133.5t136.5 54.5h352q82 0 139.5 -57.5t57.5 -139.5v-868h-197v868h-549v-868h-196z" />
<glyph unicode="o" horiz-adv-x="1249" d="M164 197v671q0 82 57.5 139.5t138.5 57.5h529q81 0 138.5 -57.5t57.5 -139.5v-671q0 -82 -57.5 -139.5t-138.5 -57.5h-529q-81 0 -138.5 57.5t-57.5 139.5zM360 197h529v671h-529v-671z" />
<glyph unicode="p" d="M164 -430v1495h196v-180q6 74 63 127q56 53 134 53h352q82 0 139.5 -57.5t57.5 -139.5v-671q0 -82 -57.5 -139.5t-139.5 -57.5h-549v-430h-196zM360 197h549v671h-549v-671z" />
<glyph unicode="q" d="M164 197v671q0 82 57.5 139.5t138.5 57.5h549q82 0 139.5 -57.5t57.5 -139.5v-1298h-197v618q-2 -76 -61 -132q-57 -56 -135 -56h-353q-81 0 -138.5 57.5t-57.5 139.5zM360 197h549v671h-549v-671z" />
<glyph unicode="r" horiz-adv-x="1044" d="M164 0v1065h196v-188q4 79 60.5 133.5t136.5 54.5h209q80 0 139 -57q58 -57 58 -140v-180h-197v180h-406v-868h-196z" />
<glyph unicode="s" horiz-adv-x="1147" d="M143 0v197h664v247h-467q-82 0 -139.5 57.5t-57.5 139.5v227q0 82 57.5 139.5t139.5 57.5h623v-197h-623v-227h467q80 0 139 -57q58 -57 58 -140v-247q0 -83 -58 -139q-59 -58 -139 -58h-664z" />
<glyph unicode="t" horiz-adv-x="1073" d="M102 868v197h260v328h197v-328h350v-197h-350v-671h350v-197h-350q-80 0 -139 58q-58 56 -58 139v671h-260z" />
<glyph unicode="u" d="M164 197v868h196v-868h549v868h197v-1065h-197v180q-6 -74 -63 -128q-57 -52 -133 -52h-353q-81 0 -138.5 57.5t-57.5 139.5z" />
<glyph unicode="v" horiz-adv-x="1139" d="M41 1065h205l323 -829l324 829h205l-426 -1065h-205z" />
<glyph unicode="w" horiz-adv-x="1655" d="M41 1065h199l252 -803l235 803h201l235 -803l252 803h199l-344 -1065h-205l-238 782l-237 -782h-205z" />
<glyph unicode="x" horiz-adv-x="1171" d="M61 0l406 545l-387 520h237l269 -360l268 360h238l-387 -520l405 -545h-238l-286 385l-287 -385h-238z" />
<glyph unicode="y" horiz-adv-x="1118" d="M41 1065h207l311 -733l311 733h207l-645 -1495h-196l223 526z" />
<glyph unicode="z" horiz-adv-x="1147" d="M123 0v53l567 815h-547v197h881v-53l-567 -815h567v-197h-901z" />
<glyph unicode="{" horiz-adv-x="795" d="M41 455v196h8q107 0 148 39q45 42 45 152q0 26 -3.5 62t-6.5 76q-11 122 -11 187.5t30 139t85 124.5q115 105 307 105h29v-195h-29q-217 0 -217 -206l20 -285q0 -218 -137 -297q137 -81 137 -297l-20 -285q0 -207 217 -207h29v-194h-29q-192 0 -307 105 q-115 106 -115 292l21 297q0 110 -45 152q-41 39 -148 39h-8z" />
<glyph unicode="|" horiz-adv-x="573" d="M184 -430v1966h205v-1966h-205z" />
<glyph unicode="}" horiz-adv-x="795" d="M123 -236h29q217 0 217 207l-21 285q0 215 137 297q-137 80 -137 297l21 285q0 206 -217 206h-29v195h29q193 0 306 -105q115 -107 115 -292q0 -57 -7 -128q-13 -132 -13 -179t10.5 -84t34.5 -58q42 -39 147 -39h9v-196h-9q-105 0 -147 -39q-45 -40 -45 -152 q0 -38 7 -109q13 -132 13 -207t-30 -148.5t-85 -124.5q-113 -105 -306 -105h-29v194z" />
<glyph unicode="~" horiz-adv-x="1210" d="M123 487q2 133 85 221q86 89 216 89q100 0 206 -61q40 -24 79 -43t77 -19t59.5 10t36.5 27q32 34 36 86h169q-2 -133 -85 -220q-86 -90 -216 -90q-100 0 -206 61q-40 24 -78.5 43t-76.5 19t-59.5 -10t-37.5 -27q-31 -33 -35 -86h-170z" />
<glyph unicode="&#xa1;" horiz-adv-x="586" d="M143 705v299h299v-299h-299zM154 -430l82 901h114l82 -901h-278z" />
<glyph unicode="&#xa2;" horiz-adv-x="1229" d="M164 197v671q0 82 57.5 139.5t138.5 57.5h156v223h197v-223h155q82 0 139.5 -57.5t57.5 -139.5v-180h-197v180h-508v-671h508v180h197v-180q0 -82 -57.5 -139.5t-139.5 -57.5h-155v-223h-197v223h-156q-81 0 -138.5 57.5t-57.5 139.5z" />
<glyph unicode="&#xa3;" horiz-adv-x="1466" d="M82 625v166h217v438q0 86 60 145q62 60 145 60h545q82 0 144 -60q60 -59 60 -145v-185h-204v185h-545v-438h434v-166h-434v-420h635v213h204v-213q0 -85 -60 -145t-144 -60h-430q-83 0 -143 58q-58 56 -62 139q-2 -82 -63 -139q-61 -58 -142 -58h-213v205h213v420h-217z " />
<glyph unicode="&#xa4;" horiz-adv-x="1319" d="M143 326l158 157q-70 109 -70 234t68 229l-156 158l127 127l158 -158q109 70 231.5 70t231.5 -70l158 158l127 -127l-158 -158q69 -106 69 -230.5t-69 -232.5l158 -157l-127 -127l-158 155q-107 -67 -231 -67t-232 69l-158 -157zM420 715q0 -101 70 -172q70 -72 169 -72 q100 0 171 72q69 71 69 172q0 100 -69 171q-71 72 -171 72q-99 0 -169 -72q-70 -71 -70 -171z" />
<glyph unicode="&#xa5;" horiz-adv-x="1393" d="M41 1434h238l417 -670l418 670h238l-465 -727h342v-166h-430v-135h430v-166h-430v-240h-205v240h-430v166h430v135h-430v166h342z" />
<glyph unicode="&#xa6;" horiz-adv-x="573" d="M184 -430v885h205v-885h-205zM184 651v885h205v-885h-205z" />
<glyph unicode="&#xa7;" horiz-adv-x="1413" d="M184 -164h205v-184h635v389h-614q-85 0 -145 60t-60 145v389h196q-82 4 -139 63t-57 142v389q0 86 60 145q62 60 145 60h614q83 0 145 -60q60 -59 60 -145v-185h-205v185h-614v-389h614q85 0 145 -60t60 -145v-389h-197q82 -2 140 -63q57 -61 57 -142v-389 q0 -85 -60 -145t-145 -60h-635q-85 0 -145 60t-60 145v184zM410 246h614v389h-614v-389z" />
<glyph unicode="&#xa8;" horiz-adv-x="879" d="M123 1249v217h217v-217h-217zM539 1249v217h217v-217h-217z" />
<glyph unicode="&#xa9;" horiz-adv-x="1679" d="M102 718q0 160 55 295t153 233q210 208 530 208q321 0 529 -208t208 -529t-208 -529t-529 -208q-320 0 -530 208q-208 207 -208 530zM250 717q0 -262 164 -429q163 -167 426 -167q131 0 239.5 44t186.5 123q164 166 164 429t-164 429q-165 167 -426 167q-263 0 -426 -167 q-164 -167 -164 -429zM518 434v565q0 46 24 71q43 42 89 42h409q46 0 70 -24q43 -43 43 -89v-129h-139v103h-357v-512h357v102h139v-129q0 -47 -25 -70q-43 -42 -88 -42h-409q-45 0 -70 24q-43 41 -43 88z" />
<glyph unicode="&#xaa;" horiz-adv-x="926" d="M143 352v133h639v-133h-639zM143 819v166q0 66 46 112t112 46h324v137h-432v154h432q65 0 111 -46t46 -112v-612h-151v139q-6 -61 -51 -101q-44 -38 -107 -38h-172q-104 0 -145 94q-13 29 -13 61zM295 815h336v176h-336v-176z" />
<glyph unicode="&#xab;" horiz-adv-x="1130" d="M102 438v62l447 438v-205l-250 -264l250 -264v-205zM541 438v62l446 438v-205l-250 -264l250 -264v-205z" />
<glyph unicode="&#xac;" horiz-adv-x="1446" d="M164 643v197h1118v-598h-197v401h-921z" />
<glyph unicode="&#xad;" horiz-adv-x="807" d="M164 479v197h479v-197h-479z" />
<glyph unicode="&#xae;" horiz-adv-x="1679" d="M102 718q0 160 55 295t153 233q210 208 530 208q321 0 529 -208t208 -529t-208 -529t-529 -208q-320 0 -530 208q-208 207 -208 530zM250 717q0 -262 164 -429q163 -167 426 -167q131 0 239.5 44t186.5 123q164 166 164 429t-164 429q-165 167 -426 167q-263 0 -426 -167 q-164 -167 -164 -429zM543 322v790h432q190 0 190 -192v-91q0 -167 -141 -188l150 -319h-152l-148 315h-192v-315h-139zM682 778h266q45 0 61.5 17t16.5 61v37q0 45 -16.5 62.5t-61.5 17.5h-266v-195z" />
<glyph unicode="&#xaf;" horiz-adv-x="967" d="M123 1268v166h721v-166h-721z" />
<glyph unicode="&#xb0;" horiz-adv-x="897" d="M123 1128q0 134 96 230t230 96q132 0 229 -96q96 -94 96 -230q0 -135 -96 -229q-97 -96 -229 -96q-134 0 -230 96t-96 229zM283 1128q0 -35 12.5 -66.5t34.5 -55.5q49 -50 119 -50q71 0 118 50q47 51 47 122t-47 122q-47 50 -118 50q-70 0 -119 -50q-47 -50 -47 -122z " />
<glyph unicode="&#xb1;" horiz-adv-x="1446" d="M164 18v197h461v346h-461v197h461v379h196v-379h461v-197h-461v-346h461v-197h-1118z" />
<glyph unicode="&#xb2;" horiz-adv-x="831" d="M123 676v209q0 86 84 129l344 162v114h-285v-92h-143v133q0 46 39 75q35 28 80 28h333q45 0 72 -21q47 -38 47 -82v-151q0 -48 -19.5 -78t-64.5 -51l-344 -162v-70h299v92h144v-235h-586z" />
<glyph unicode="&#xb3;" horiz-adv-x="848" d="M123 870v64h141v-60q0 -57 55 -57h209q56 0 56 57v56q0 57 -56 57h-192v143h188q49 4 49 58v47q0 57 -55 57h-188q-56 0 -56 -57v-59h-141v63q0 195 195 195h192q195 0 195 -195v-12q0 -108 -62 -156q72 -47 72 -166v-35q0 -99 -47.5 -146.5t-147.5 -47.5h-213 q-194 0 -194 194z" />
<glyph unicode="&#xb4;" horiz-adv-x="772" d="M123 1249l227 226h299l-338 -226h-188z" />
<glyph unicode="&#xb5;" horiz-adv-x="1249" d="M164 -430v1495h196v-868h549v868h197v-1065h-197v188q-2 -76 -61 -132q-57 -56 -135 -56h-353v-430h-196z" />
<glyph unicode="&#xb6;" horiz-adv-x="1419" d="M102 881v204q0 349 349 349h784v-1864h-205v1659h-223v-1659h-205v962h-151q-349 0 -349 349z" />
<glyph unicode="&#xb7;" horiz-adv-x="627" d="M164 557v299h299v-299h-299z" />
<glyph unicode="&#xb8;" horiz-adv-x="1024" d="M266 -387h264v156h-247l213 297h145l-111 -158q58 0 99 -41t41 -98v-156q0 -57 -41 -98t-99 -41h-264v139z" />
<glyph unicode="&#xb9;" horiz-adv-x="492" d="M82 1290v144h266v-758h-143v614h-123z" />
<glyph unicode="&#xba;" horiz-adv-x="926" d="M143 352v133h639v-133h-639zM143 819v457q0 64 46 112q45 46 112 46h324q65 0 111 -46t46 -112v-457q0 -66 -46 -110q-46 -45 -111 -45h-324q-104 0 -145 94q-13 29 -13 61zM295 815h336v465h-336v-465z" />
<glyph unicode="&#xbb;" horiz-adv-x="1130" d="M143 0v205l250 264l-250 264v205l447 -438v-62zM582 0v205l249 264l-249 264v205l446 -438v-62z" />
<glyph unicode="&#xbc;" horiz-adv-x="1610" d="M123 1290v144h266v-758h-143v614h-123zM174 0l950 1434h170l-960 -1434h-160zM854 147v127l365 484h151v-471h96v-140h-96v-147h-143v147h-373zM1014 287h213v280z" />
<glyph unicode="&#xbd;" horiz-adv-x="1743" d="M123 1290v144h266v-758h-143v614h-123zM174 0l950 1434h170l-960 -1434h-160zM1014 0v209q0 91 84 129l344 162v114h-285v-92h-143v133q0 46 38 75q36 28 81 28h333q45 0 72 -21q47 -38 47 -82v-151q0 -48 -19.5 -78t-64.5 -51l-344 -162v-70h299v93h143v-236h-585z" />
<glyph unicode="&#xbe;" horiz-adv-x="1898" d="M143 870v64h142v-60q0 -57 55 -57h209q55 0 55 57v56q0 31 -13 44t-42 13h-193v143h189q49 4 49 58v47q0 57 -55 57h-189q-55 0 -55 -57v-59h-141v63q0 195 194 195h193q194 0 194 -195v-12q0 -108 -61 -156q71 -47 71 -166v-35q0 -194 -194 -194h-213q-195 0 -195 194z M463 0l950 1434h170l-960 -1434h-160zM1143 147v127l364 484h152v-471h96v-140h-96v-147h-143v147h-373zM1303 287h213v280z" />
<glyph unicode="&#xbf;" horiz-adv-x="1147" d="M123 -49q0 84 25 122q43 64 118 99l264 127v172h205v-135q0 -82 -25 -121q-41 -64 -118 -100l-264 -127v-213h491v184h205v-184q0 -85 -60 -145t-145 -60h-491q-85 0 -145 60t-60 145v176zM477 705v299h299v-299h-299z" />
<glyph unicode="&#xc0;" horiz-adv-x="1434" d="M61 0l553 1434h205l553 -1434h-205l-127 330h-647l-127 -330h-205zM371 1843h299l227 -225h-188zM471 535h490l-244 632z" />
<glyph unicode="&#xc1;" horiz-adv-x="1434" d="M61 0l553 1434h205l553 -1434h-205l-127 330h-647l-127 -330h-205zM471 535h490l-244 632zM535 1618l227 225h299l-338 -225h-188z" />
<glyph unicode="&#xc2;" horiz-adv-x="1434" d="M61 0l553 1434h205l553 -1434h-205l-127 330h-647l-127 -330h-205zM356 1618l238 246h246l237 -246h-209l-151 135l-152 -135h-209zM471 535h490l-244 632z" />
<glyph unicode="&#xc3;" horiz-adv-x="1434" d="M61 0l553 1434h205l553 -1434h-205l-127 330h-647l-127 -330h-205zM326 1620q0 107 68 179q69 73 175 73q80 0 167 -50q33 -19 64.5 -34.5t73.5 -15.5t68 30t29 70h137q-2 -108 -69 -179q-69 -73 -175 -73q-80 0 -167 50q-33 19 -64.5 34.5t-73 15.5t-67.5 -30t-29 -70 h-137zM471 535h490l-244 632z" />
<glyph unicode="&#xc4;" horiz-adv-x="1434" d="M61 0l553 1434h205l553 -1434h-205l-127 330h-647l-127 -330h-205zM399 1618v217h217v-217h-217zM471 535h490l-244 632zM815 1618v217h217v-217h-217z" />
<glyph unicode="&#xc5;" horiz-adv-x="1434" d="M61 0l512 1329q-60 35 -96.5 98t-36.5 131.5t21.5 119t58.5 87.5q80 80 197 80q116 0 196 -80t80 -196q0 -79 -36.5 -142t-98.5 -98l514 -1329h-205l-127 330h-647l-127 -330h-205zM471 535h490l-244 632zM586 1582q0 -69 37.5 -108.5t93.5 -39.5q87 0 121 82 q10 25 10 52.5t-10 52t-28 43.5q-38 40 -93 40t-93 -40t-38 -82z" />
<glyph unicode="&#xc6;" horiz-adv-x="2355" d="M2 0l1114 1434h1116v-205h-839v-410h716v-205h-716v-409h839v-205h-1044v330h-674l-256 -330h-256zM672 535h516v661z" />
<glyph unicode="&#xc7;" horiz-adv-x="1516" d="M184 205v1024q0 86 60 145q62 60 145 60h778q83 0 145 -60q60 -59 60 -145v-185h-205v185h-778v-1024h778v184h205v-184q0 -85 -60 -145t-145 -60h-284l-64 -92q58 0 99 -41q40 -40 40 -98v-156q0 -58 -40 -98q-41 -41 -99 -41h-264v139h264v156h-248l166 231h-348 q-85 0 -145 60t-60 145z" />
<glyph unicode="&#xc8;" horiz-adv-x="1352" d="M184 0v1434h1045v-205h-840v-410h717v-205h-717v-409h840v-205h-1045zM371 1843h299l227 -225h-188z" />
<glyph unicode="&#xc9;" horiz-adv-x="1352" d="M184 0v1434h1045v-205h-840v-410h717v-205h-717v-409h840v-205h-1045zM494 1618l227 225h299l-338 -225h-188z" />
<glyph unicode="&#xca;" horiz-adv-x="1352" d="M184 0v1434h1045v-205h-840v-410h717v-205h-717v-409h840v-205h-1045zM356 1618l238 246h246l237 -246h-209l-151 135l-152 -135h-209z" />
<glyph unicode="&#xcb;" horiz-adv-x="1352" d="M184 0v1434h1045v-205h-840v-410h717v-205h-717v-409h840v-205h-1045zM399 1618v217h217v-217h-217zM815 1618v217h217v-217h-217z" />
<glyph unicode="&#xcc;" horiz-adv-x="573" d="M-57 1843h299l227 -225h-188zM184 0v1434h205v-1434h-205z" />
<glyph unicode="&#xcd;" horiz-adv-x="573" d="M106 1618l228 225h299l-338 -225h-189zM184 0v1434h205v-1434h-205z" />
<glyph unicode="&#xce;" horiz-adv-x="573" d="M-74 1618l238 246h246l237 -246h-209l-151 135l-152 -135h-209zM184 0v1434h205v-1434h-205z" />
<glyph unicode="&#xcf;" horiz-adv-x="573" d="M-29 1618v217h217v-217h-217zM184 0v1434h205v-1434h-205zM387 1618v217h217v-217h-217z" />
<glyph unicode="&#xd0;" horiz-adv-x="1599" d="M41 580v165h184v689h729q229 0 365.5 -136.5t136.5 -365.5v-430q0 -229 -136.5 -365.5t-365.5 -136.5h-729v580h-184zM430 205h524q143 0 220 77t77 220v430q0 140 -78.5 218.5t-218.5 78.5h-524v-484h356v-165h-356v-375z" />
<glyph unicode="&#xd1;" horiz-adv-x="1640" d="M184 0v1434h205l862 -1112v1112h205v-1434h-205l-862 1112v-1112h-205zM428 1620q0 107 68 179q69 73 176 73q80 0 167 -50q33 -19 64.5 -34.5t73 -15.5t67.5 30t29 70h137q-2 -108 -69 -179q-69 -73 -174 -73q-81 0 -168 50q-33 19 -64 34.5t-73 15.5t-68 -30t-29 -70 h-137z" />
<glyph unicode="&#xd2;" horiz-adv-x="1597" d="M184 205v1024q0 86 60 145q62 60 145 60h819q83 0 145 -60q60 -59 60 -145v-1024q0 -85 -60 -145t-145 -60h-819q-85 0 -145 60t-60 145zM389 205h819v1024h-819v-1024zM453 1843h299l227 -225h-188z" />
<glyph unicode="&#xd3;" horiz-adv-x="1597" d="M184 205v1024q0 86 60 145q62 60 145 60h819q83 0 145 -60q60 -59 60 -145v-1024q0 -85 -60 -145t-145 -60h-819q-85 0 -145 60t-60 145zM389 205h819v1024h-819v-1024zM616 1618l228 225h299l-338 -225h-189z" />
<glyph unicode="&#xd4;" horiz-adv-x="1597" d="M184 205v1024q0 86 60 145q62 60 145 60h819q83 0 145 -60q60 -59 60 -145v-1024q0 -85 -60 -145t-145 -60h-819q-85 0 -145 60t-60 145zM389 205h819v1024h-819v-1024zM438 1618l238 246h246l237 -246h-209l-151 135l-152 -135h-209z" />
<glyph unicode="&#xd5;" horiz-adv-x="1597" d="M184 205v1024q0 86 60 145q62 60 145 60h819q83 0 145 -60q60 -59 60 -145v-1024q0 -85 -60 -145t-145 -60h-819q-85 0 -145 60t-60 145zM389 205h819v1024h-819v-1024zM408 1620q0 107 68 179q69 73 175 73q80 0 167 -50q33 -19 64.5 -34.5t73.5 -15.5t68 30t29 70h137 q-2 -108 -69 -179q-69 -73 -175 -73q-80 0 -167 50q-33 19 -64.5 34.5t-73 15.5t-67.5 -30t-29 -70h-137z" />
<glyph unicode="&#xd6;" horiz-adv-x="1597" d="M184 205v1024q0 86 60 145q62 60 145 60h819q83 0 145 -60q60 -59 60 -145v-1024q0 -85 -60 -145t-145 -60h-819q-85 0 -145 60t-60 145zM389 205h819v1024h-819v-1024zM481 1618v217h217v-217h-217zM897 1618v217h217v-217h-217z" />
<glyph unicode="&#xd7;" horiz-adv-x="1348" d="M123 164l414 414l-414 413l137 137l414 -413l413 413l138 -137l-414 -413l414 -414l-138 -137l-413 413l-414 -413z" />
<glyph unicode="&#xd8;" horiz-adv-x="1597" d="M184 -205l125 219q-86 38 -115 130q-10 29 -10 61v1024q0 86 60 145q62 60 145 60h735l117 204h172l-127 -221q88 -37 118 -127q9 -29 9 -61v-1024q0 -85 -60 -145t-145 -60h-743l-119 -205h-162zM389 205h29l588 1024h-617v-1024zM584 205h624v1024h-32z" />
<glyph unicode="&#xd9;" horiz-adv-x="1597" d="M184 205v1229h205v-1229h819v1229h205v-1229q0 -85 -60 -145t-145 -60h-819q-85 0 -145 60t-60 145zM432 1843h299l227 -225h-188z" />
<glyph unicode="&#xda;" horiz-adv-x="1597" d="M184 205v1229h205v-1229h819v1229h205v-1229q0 -85 -60 -145t-145 -60h-819q-85 0 -145 60t-60 145zM637 1618l227 225h299l-338 -225h-188z" />
<glyph unicode="&#xdb;" horiz-adv-x="1597" d="M184 205v1229h205v-1229h819v1229h205v-1229q0 -85 -60 -145t-145 -60h-819q-85 0 -145 60t-60 145zM438 1618l238 246h246l237 -246h-209l-151 135l-152 -135h-209z" />
<glyph unicode="&#xdc;" horiz-adv-x="1597" d="M184 205v1229h205v-1229h819v1229h205v-1229q0 -85 -60 -145t-145 -60h-819q-85 0 -145 60t-60 145zM481 1618v217h217v-217h-217zM897 1618v217h217v-217h-217z" />
<glyph unicode="&#xdd;" horiz-adv-x="1393" d="M41 1434h238l417 -670l418 670h238l-553 -865v-569h-205v569zM555 1618l227 225h299l-338 -225h-188z" />
<glyph unicode="&#xde;" horiz-adv-x="1419" d="M184 0v1475h205v-287h580q348 0 348 -348v-164q0 -177 -86 -262.5t-262 -85.5h-580v-328h-205zM389 532h569q82 0 118 36.5t36 117.5v143q0 82 -36 118t-118 36h-569v-451z" />
<glyph unicode="&#xdf;" horiz-adv-x="1346" d="M184 0v1278q0 80 58 139q56 58 139 58h582q82 0 139 -58q57 -59 57 -139v-133q0 -83 -25 -122q-40 -62 -118 -99l-273 -131v-152h283q82 0 139.5 -57.5t57.5 -139.5v-247q0 -82 -57.5 -139.5t-139.5 -57.5h-479v197h479v247h-283q-81 0 -138.5 57.5t-57.5 139.5v119 q0 82 25 121q42 63 118 100l273 131v166h-582v-1278h-197z" />
<glyph unicode="&#xe0;" horiz-adv-x="1229" d="M164 197v268q0 80 58 139q56 58 138 58h508v206h-643v197h643q82 0 139.5 -57.5t57.5 -139.5v-868h-197v180q-6 -74 -64 -128q-56 -52 -132 -52h-312q-81 0 -138.5 57.5t-57.5 139.5zM268 1475h299l228 -226h-189zM360 197h508v268h-508v-268z" />
<glyph unicode="&#xe1;" horiz-adv-x="1229" d="M164 197v268q0 80 58 139q56 58 138 58h508v206h-643v197h643q82 0 139.5 -57.5t57.5 -139.5v-868h-197v180q-6 -74 -64 -128q-56 -52 -132 -52h-312q-81 0 -138.5 57.5t-57.5 139.5zM360 197h508v268h-508v-268zM453 1249l227 226h299l-338 -226h-188z" />
<glyph unicode="&#xe2;" horiz-adv-x="1229" d="M164 197v268q0 80 58 139q56 58 138 58h508v206h-643v197h643q82 0 139.5 -57.5t57.5 -139.5v-868h-197v180q-6 -74 -64 -128q-56 -52 -132 -52h-312q-81 0 -138.5 57.5t-57.5 139.5zM295 1249l237 246h246l238 -246h-209l-152 135l-151 -135h-209zM360 197h508v268h-508 v-268z" />
<glyph unicode="&#xe3;" horiz-adv-x="1229" d="M164 197v268q0 80 58 139q56 58 138 58h508v206h-643v197h643q82 0 139.5 -57.5t57.5 -139.5v-868h-197v180q-6 -74 -64 -128q-56 -52 -132 -52h-312q-81 0 -138.5 57.5t-57.5 139.5zM244 1251q0 107 68 179q69 73 175 73q80 0 167 -50q33 -19 65 -34.5t73.5 -15.5 t67.5 30t29 70h137q-2 -108 -69 -179q-69 -73 -175 -73q-87 0 -167.5 50.5t-129.5 50.5t-75 -30t-29 -71h-137zM360 197h508v268h-508v-268z" />
<glyph unicode="&#xe4;" horiz-adv-x="1229" d="M164 197v268q0 80 58 139q56 58 138 58h508v206h-643v197h643q82 0 139.5 -57.5t57.5 -139.5v-868h-197v180q-6 -74 -64 -128q-56 -52 -132 -52h-312q-81 0 -138.5 57.5t-57.5 139.5zM317 1249v217h218v-217h-218zM360 197h508v268h-508v-268zM733 1249v217h217v-217 h-217z" />
<glyph unicode="&#xe5;" horiz-adv-x="1229" d="M164 197v268q0 80 58 139q56 58 138 58h508v206h-643v197h643q82 0 139.5 -57.5t57.5 -139.5v-868h-197v180q-6 -74 -64 -128q-56 -52 -132 -52h-312q-81 0 -138.5 57.5t-57.5 139.5zM358 1475q0 116 80 196t197 80q115 0 197 -80q79 -78 79 -196q0 -119 -79 -197 q-82 -80 -197 -80q-117 0 -197 80t-80 197zM360 197h508v268h-508v-268zM504 1488q0 -69 38 -109t93 -40t93 41q38 39 38 80.5t-10 66t-28 43.5q-38 40 -93 40t-93 -40t-38 -82z" />
<glyph unicode="&#xe6;" horiz-adv-x="1933" d="M164 197v268q0 80 58 139q56 58 138 58h508v206h-643v197h555q101 0 160 -82q18 -25 27 -55q18 59 69 98q50 39 117 39h420q81 0 138.5 -57.5t57.5 -139.5v-436h-704v-235h704v-197h-704q-80 0 -137 56q-56 53 -60 132q-2 -76 -60 -132t-136 -56h-312q-81 0 -138.5 57.5 t-57.5 139.5zM360 197h508v268h-508v-268zM1065 629h508v239h-508v-239z" />
<glyph unicode="&#xe7;" horiz-adv-x="1229" d="M164 197v671q0 82 57.5 139.5t138.5 57.5h508q82 0 139.5 -57.5t57.5 -139.5v-180h-197v180h-508v-671h508v180h197v-180q0 -82 -57.5 -139.5t-139.5 -57.5h-149l-64 -92q58 0 99 -41t41 -98v-156q0 -57 -41 -98t-99 -41h-264v139h264v156h-247l165 231h-213 q-81 0 -138.5 57.5t-57.5 139.5z" />
<glyph unicode="&#xe8;" horiz-adv-x="1229" d="M164 197v671q0 82 57.5 139.5t138.5 57.5h508q82 0 139.5 -57.5t57.5 -139.5v-436h-705v-235h705v-197h-705q-81 0 -138.5 57.5t-57.5 139.5zM268 1475h299l228 -226h-189zM360 629h508v239h-508v-239z" />
<glyph unicode="&#xe9;" horiz-adv-x="1229" d="M164 197v671q0 82 57.5 139.5t138.5 57.5h508q82 0 139.5 -57.5t57.5 -139.5v-436h-705v-235h705v-197h-705q-81 0 -138.5 57.5t-57.5 139.5zM360 629h508v239h-508v-239zM432 1249l227 226h299l-337 -226h-189z" />
<glyph unicode="&#xea;" horiz-adv-x="1229" d="M164 197v671q0 82 57.5 139.5t138.5 57.5h508q82 0 139.5 -57.5t57.5 -139.5v-436h-705v-235h705v-197h-705q-81 0 -138.5 57.5t-57.5 139.5zM254 1249l238 246h245l238 -246h-209l-152 135l-151 -135h-209zM360 629h508v239h-508v-239z" />
<glyph unicode="&#xeb;" horiz-adv-x="1229" d="M164 197v671q0 82 57.5 139.5t138.5 57.5h508q82 0 139.5 -57.5t57.5 -139.5v-436h-705v-235h705v-197h-705q-81 0 -138.5 57.5t-57.5 139.5zM297 1249v217h217v-217h-217zM360 629h508v239h-508v-239zM713 1249v217h217v-217h-217z" />
<glyph unicode="&#xec;" horiz-adv-x="545" d="M-72 1475h299l228 -226h-189zM174 0v1065h197v-1065h-197z" />
<glyph unicode="&#xed;" horiz-adv-x="545" d="M92 1249l227 226h299l-337 -226h-189zM174 0v1065h197v-1065h-197z" />
<glyph unicode="&#xee;" horiz-adv-x="545" d="M-88 1249l238 246h245l238 -246h-209l-152 135l-151 -135h-209zM174 0v1065h197v-1065h-197z" />
<glyph unicode="&#xef;" horiz-adv-x="545" d="M-43 1249v217h217v-217h-217zM174 0v1065h197v-1065h-197zM373 1249v217h217v-217h-217z" />
<glyph unicode="&#xf0;" horiz-adv-x="1249" d="M164 197v671q0 82 57.5 139.5t138.5 57.5h486q-36 90 -92 158l-170 -101l-62 111l144 84q-73 64 -170 108l65 140q143 -53 258 -156l174 102l62 -108l-148 -88q162 -195 178 -447v-671q0 -82 -57.5 -139.5t-138.5 -57.5h-529q-81 0 -138.5 57.5t-57.5 139.5zM360 197h529 v671h-529v-671z" />
<glyph unicode="&#xf1;" d="M164 0v1065h196v-188q4 79 60.5 133.5t136.5 54.5h352q82 0 139.5 -57.5t57.5 -139.5v-868h-197v868h-549v-868h-196zM244 1251q0 107 68 179q69 73 175 73q80 0 167 -50q33 -19 65 -34.5t73.5 -15.5t67.5 30t29 70h137q-2 -108 -69 -179q-69 -73 -175 -73 q-87 0 -167.5 50.5t-129.5 50.5t-75 -30t-29 -71h-137z" />
<glyph unicode="&#xf2;" horiz-adv-x="1249" d="M164 197v671q0 82 57.5 139.5t138.5 57.5h529q81 0 138.5 -57.5t57.5 -139.5v-671q0 -82 -57.5 -139.5t-138.5 -57.5h-529q-81 0 -138.5 57.5t-57.5 139.5zM279 1475h299l227 -226h-189zM360 197h529v671h-529v-671z" />
<glyph unicode="&#xf3;" horiz-adv-x="1249" d="M164 197v671q0 82 57.5 139.5t138.5 57.5h529q81 0 138.5 -57.5t57.5 -139.5v-671q0 -82 -57.5 -139.5t-138.5 -57.5h-529q-81 0 -138.5 57.5t-57.5 139.5zM360 197h529v671h-529v-671zM442 1249l228 226h299l-338 -226h-189z" />
<glyph unicode="&#xf4;" horiz-adv-x="1249" d="M164 197v671q0 82 57.5 139.5t138.5 57.5h529q81 0 138.5 -57.5t57.5 -139.5v-671q0 -82 -57.5 -139.5t-138.5 -57.5h-529q-81 0 -138.5 57.5t-57.5 139.5zM264 1249l238 246h246l237 -246h-209l-151 135l-152 -135h-209zM360 197h529v671h-529v-671z" />
<glyph unicode="&#xf5;" horiz-adv-x="1249" d="M164 197v671q0 82 57.5 139.5t138.5 57.5h529q81 0 138.5 -57.5t57.5 -139.5v-671q0 -82 -57.5 -139.5t-138.5 -57.5h-529q-81 0 -138.5 57.5t-57.5 139.5zM233 1251q0 107 69 179q69 73 175 73q80 0 167 -50q33 -19 64.5 -34.5t73.5 -15.5t67.5 30t29.5 70h137 q-2 -108 -69 -179q-69 -73 -175 -73q-87 0 -167.5 50.5t-129.5 50.5t-75 -30t-29 -71h-138zM360 197h529v671h-529v-671z" />
<glyph unicode="&#xf6;" horiz-adv-x="1249" d="M164 197v671q0 82 57.5 139.5t138.5 57.5h529q81 0 138.5 -57.5t57.5 -139.5v-671q0 -82 -57.5 -139.5t-138.5 -57.5h-529q-81 0 -138.5 57.5t-57.5 139.5zM307 1249v217h217v-217h-217zM360 197h529v671h-529v-671zM723 1249v217h217v-217h-217z" />
<glyph unicode="&#xf7;" horiz-adv-x="1446" d="M164 479v197h1118v-197h-1118zM588 33v270h270v-270h-270zM588 852v270h270v-270h-270z" />
<glyph unicode="&#xf8;" horiz-adv-x="1249" d="M164 197v671q0 82 57.5 139.5t138.5 57.5h471l97 184h157l-108 -205q48 -24 78 -71.5t30 -104.5v-671q0 -82 -57.5 -139.5t-138.5 -57.5h-469l-109 -205h-147l117 221q-53 23 -85 72t-32 109zM360 197h15l352 671h-367v-671zM524 197h365v671h-6z" />
<glyph unicode="&#xf9;" d="M164 197v868h196v-868h549v868h197v-1065h-197v180q-6 -74 -63 -128q-57 -52 -133 -52h-353q-81 0 -138.5 57.5t-57.5 139.5zM258 1475h299l227 -226h-188z" />
<glyph unicode="&#xfa;" d="M164 197v868h196v-868h549v868h197v-1065h-197v180q-6 -74 -63 -128q-57 -52 -133 -52h-353q-81 0 -138.5 57.5t-57.5 139.5zM463 1249l227 226h299l-338 -226h-188z" />
<glyph unicode="&#xfb;" d="M164 197v868h196v-868h549v868h197v-1065h-197v180q-6 -74 -63 -128q-57 -52 -133 -52h-353q-81 0 -138.5 57.5t-57.5 139.5zM264 1249l238 246h246l237 -246h-209l-151 135l-152 -135h-209z" />
<glyph unicode="&#xfc;" d="M164 197v868h196v-868h549v868h197v-1065h-197v180q-6 -74 -63 -128q-57 -52 -133 -52h-353q-81 0 -138.5 57.5t-57.5 139.5zM307 1249v217h217v-217h-217zM723 1249v217h217v-217h-217z" />
<glyph unicode="&#xfd;" horiz-adv-x="1118" d="M41 1065h207l311 -733l311 733h207l-645 -1495h-196l223 526zM418 1249l227 226h299l-338 -226h-188z" />
<glyph unicode="&#xfe;" d="M164 -430v1905h196v-590q6 74 63 127q56 53 134 53h352q82 0 139.5 -57.5t57.5 -139.5v-671q0 -82 -57.5 -139.5t-139.5 -57.5h-549v-430h-196zM360 197h549v671h-549v-671z" />
<glyph unicode="&#xff;" horiz-adv-x="1118" d="M41 1065h207l311 -733l311 733h207l-645 -1495h-196l223 526zM242 1249v217h217v-217h-217zM657 1249v217h217v-217h-217z" />
<glyph unicode="&#x152;" horiz-adv-x="2273" d="M184 205v1024q0 86 60 145q62 60 145 60h1761v-205h-839v-410h717v-205h-717v-409h839v-205h-1761q-85 0 -145 60t-60 145zM389 205h717v1024h-717v-1024z" />
<glyph unicode="&#x153;" horiz-adv-x="1954" d="M164 197v671q0 82 57.5 139.5t138.5 57.5h447q60 0 108.5 -33t71.5 -86q23 53 70.5 86t109.5 33h426q82 0 139.5 -57.5t57.5 -139.5v-436h-705v-235h705v-197h-623q-62 0 -109.5 32t-70.5 85q-23 -53 -71.5 -85t-108.5 -32h-447q-81 0 -138.5 57.5t-57.5 139.5zM360 197 h529v671h-529v-671zM1085 629h508v239h-508v-239z" />
<glyph unicode="&#x178;" horiz-adv-x="1393" d="M41 1434h238l417 -670l418 670h238l-553 -865v-569h-205v569zM379 1618v217h217v-217h-217zM795 1618v217h217v-217h-217z" />
<glyph unicode="&#x2c6;" horiz-adv-x="967" d="M123 1249l237 246h246l238 -246h-209l-152 135l-151 -135h-209z" />
<glyph unicode="&#x2dc;" horiz-adv-x="1028" d="M123 1251q0 107 68 179q69 73 176 73q80 0 167 -50q33 -19 64.5 -34.5t73 -15.5t67.5 30t29 70h137q-2 -108 -69 -179q-69 -73 -174 -73q-78 0 -168 51q-33 18 -64.5 34t-73 16t-67.5 -30t-29 -71h-137z" />
<glyph unicode="&#x2000;" horiz-adv-x="936" />
<glyph unicode="&#x2001;" horiz-adv-x="1872" />
<glyph unicode="&#x2002;" horiz-adv-x="936" />
<glyph unicode="&#x2003;" horiz-adv-x="1872" />
<glyph unicode="&#x2004;" horiz-adv-x="624" />
<glyph unicode="&#x2005;" horiz-adv-x="468" />
<glyph unicode="&#x2006;" horiz-adv-x="312" />
<glyph unicode="&#x2007;" horiz-adv-x="312" />
<glyph unicode="&#x2008;" horiz-adv-x="234" />
<glyph unicode="&#x2009;" horiz-adv-x="374" />
<glyph unicode="&#x200a;" horiz-adv-x="104" />
<glyph unicode="&#x2010;" horiz-adv-x="807" d="M164 479v197h479v-197h-479z" />
<glyph unicode="&#x2011;" horiz-adv-x="807" d="M164 479v197h479v-197h-479z" />
<glyph unicode="&#x2012;" horiz-adv-x="807" d="M164 479v197h479v-197h-479z" />
<glyph unicode="&#x2013;" horiz-adv-x="1642" d="M184 479v197h1274v-197h-1274z" />
<glyph unicode="&#x2014;" horiz-adv-x="2048" d="M184 479v197h1680v-197h-1680z" />
<glyph unicode="&#x2018;" horiz-adv-x="627" d="M164 829v299l153 306h146l-148 -306h148v-299h-299z" />
<glyph unicode="&#x2019;" horiz-adv-x="586" d="M164 829l147 306h-147v299h299v-299l-154 -306h-145z" />
<glyph unicode="&#x201a;" horiz-adv-x="627" d="M164 0v299h299v-299l-154 -305h-145l147 305h-147z" />
<glyph unicode="&#x201c;" horiz-adv-x="1028" d="M164 829v299l153 306h146l-148 -306h148v-299h-299zM565 829v299l154 306h145l-147 -306h147v-299h-299z" />
<glyph unicode="&#x201d;" horiz-adv-x="1028" d="M164 829l147 306h-147v299h299v-299l-154 -306h-145zM565 829l148 306h-148v299h299v-299l-153 -306h-146z" />
<glyph unicode="&#x201e;" horiz-adv-x="1028" d="M164 0v299h299v-299l-154 -305h-145l147 305h-147zM565 0v299h299v-299l-153 -305h-146l148 305h-148z" />
<glyph unicode="&#x2022;" horiz-adv-x="958" d="M123 709q0 147 104.5 251.5t251.5 104.5q148 0 252.5 -104.5t104.5 -251.5q0 -148 -104.5 -252.5t-252.5 -104.5q-147 0 -251.5 104.5t-104.5 252.5z" />
<glyph unicode="&#x2026;" horiz-adv-x="1634" d="M164 0v299h299v-299h-299zM668 0v299h299v-299h-299zM1171 0v299h299v-299h-299z" />
<glyph unicode="&#x202f;" horiz-adv-x="374" />
<glyph unicode="&#x2039;" horiz-adv-x="692" d="M102 438v62l447 438v-205l-250 -264l250 -264v-205z" />
<glyph unicode="&#x203a;" horiz-adv-x="692" d="M143 0v205l250 264l-250 264v205l447 -438v-62z" />
<glyph unicode="&#x205f;" horiz-adv-x="468" />
<glyph unicode="&#x20ac;" horiz-adv-x="1608" d="M61 483v166h215v135h-215v166h215v279q0 84 60.5 144.5t144.5 60.5h779q82 0 144 -60q60 -59 60 -145v-144h-204v144h-779v-279h711l-119 -166h-592v-135h490l-119 -166h-371v-278h779v143h204v-143q0 -85 -60 -145t-144 -60h-779q-86 0 -145 60q-60 62 -60 145v278h-215 z" />
<glyph unicode="&#x2122;" horiz-adv-x="1839" d="M102 1300v134h615v-134h-236v-555h-143v555h-236zM842 745v689h145l260 -463l262 463h146v-689h-144v414l-235 -414h-55l-236 414v-414h-143z" />
<glyph unicode="&#xe000;" horiz-adv-x="1065" d="M0 0v1065h1065v-1065h-1065z" />
</font>
</defs>
</svg>
