<?xml version="1.0" standalone="no"?>
<!DOCTYPE svg PUBLIC "-//W3C//DTD SVG 1.1//EN" "http://www.w3.org/Graphics/SVG/1.1/DTD/svg11.dtd" >
<svg xmlns="http://www.w3.org/2000/svg">
<metadata></metadata>
<defs>
<font id="JosefinSansSemiBold" horiz-adv-x="960" >
<font-face units-per-em="2048" ascent="1536" descent="-512" />
<missing-glyph horiz-adv-x="614" />
<glyph horiz-adv-x="0" />
<glyph horiz-adv-x="2048" />
<glyph unicode="&#xd;" horiz-adv-x="614" />
<glyph unicode=" "  horiz-adv-x="614" />
<glyph unicode="&#x09;" horiz-adv-x="614" />
<glyph unicode="&#xa0;" horiz-adv-x="614" />
<glyph unicode="!" horiz-adv-x="411" d="M119 111q0 39 26.5 62.5t59.5 23.5t59.5 -23.5t26.5 -62.5t-26.5 -63.5t-59.5 -24.5t-59.5 24.5t-26.5 63.5zM139 340v1196h129v-1196h-129z" />
<glyph unicode="&#x22;" horiz-adv-x="659" d="M129 967v508h129l-8 -508h-121zM401 967v508h129l-8 -508h-121z" />
<glyph unicode="#" horiz-adv-x="1169" d="M53 408l15 124h204q8 63 15.5 125t15.5 125h-203l13 125h204q10 90 50 410h129q-12 -104 -24.5 -204.5t-25.5 -205.5h248l49 410h129q-24 -209 -49 -410h230l-13 -125h-231q-8 -63 -15.5 -124.5t-15.5 -125.5h230l-15 -124h-229l-49 -408h-129q12 104 24.5 203.5 t24.5 204.5h-248l-49 -408h-129q12 104 24.5 203.5t24.5 204.5h-205zM401 532h248q8 63 15.5 125t15.5 125h-248q-8 -63 -15 -124.5t-16 -125.5z" />
<glyph unicode="$" horiz-adv-x="1161" d="M115 201l82 82q139 -150 299 -172v591q-10 4 -21.5 8.5t-36 14.5t-74 34.5t-92.5 63.5q-100 91 -104 236q-5 139 70 241q84 117 258 138v127h129v-129q150 -24 276 -133l-72 -95q-88 82 -204 103v-518q166 -68 232.5 -126.5t100 -125t33.5 -154.5t-28.5 -156.5 t-77.5 -120.5q-100 -105 -260 -122v-127h-129v129q-125 14 -238 82q-98 60 -143 129zM295 1039.5q0 -118.5 156 -181.5q14 -9 45 -18v473q-97 -15 -152 -89q-49 -66 -49 -184.5zM625 115q100 16 167 87q72 75 72 182q0 58 -20.5 101t-53.5 76q-49 47 -165 94v-540z" />
<glyph unicode="%" horiz-adv-x="1486" d="M195 797q0 99 75 175q70 72 176 72q103 0 176 -72q76 -74 76 -175q0 -104 -76 -177q-74 -73 -176 -73q-104 0 -176 73q-75 74 -75 177zM324 796q0 -52 34.5 -88t87.5 -36t88 35.5t35 88t-34.5 88.5t-88.5 36q-53 0 -87.5 -36t-34.5 -88zM377 0q423 708 610 1024h141 l-610 -1024h-141zM817 229q0 103 75 174.5t177 71.5q99 0 176 -71q76 -71 76 -175q0 -103 -76 -177q-74 -72 -176 -72q-105 0 -177 72q-75 75 -75 177zM946 227q0 -53 35 -88t88 -35t88 35t35 88t-35 88t-88 35t-88 -35t-35 -88z" />
<glyph unicode="&#x26;" horiz-adv-x="1433" d="M215 385q0 145 95 257t237 136q-35 59 -72 118.5t-74 120t-52 126t-5 127.5q22 137 154 217q181 111 432 -43l-51 -101q-88 49 -134 59q-100 23 -161 -18q-98 -61 -108.5 -153t42.5 -182q92 -152 183.5 -299.5t183.5 -298.5q16 60 26 131v43q24 143 156 143h166v-125h-98 q-62 0 -85 -41q-20 -39 -20 -172v-47q0 -63 -26 -123l145 -233q-9 -5 -100 -66q-29 43 -54.5 87t-52.5 87q-120 -151 -321 -151q-168 0 -287 118q-119 117 -119 283zM344 385q0 -118 78 -197q80 -82 183 -82q187 0 263 148l-247 405q-123 -4 -200 -78.5t-77 -195.5z" />
<glyph unicode="'" horiz-adv-x="323" d="M100 967v508h133l-8 -508h-125z" />
<glyph unicode="(" horiz-adv-x="849" d="M256 596q0 424 212 767q60 97 126 165q27 -12 52.5 -23.5t53.5 -23.5q-216 -249 -288 -609q-27 -131 -27 -276q0 -400 199 -725q57 -92 116 -160q-4 -1 -106 -47q-138 142 -234 381q-104 262 -104 551z" />
<glyph unicode=")" horiz-adv-x="819" d="M174 -295q216 249 288 608q27 131 27 277q0 400 -199 725q-57 92 -116 160q68 30 107 49q228 -246 309 -639q28 -139 28 -293q0 -288 -104 -551q-89 -226 -233 -381q-35 13 -107 45z" />
<glyph unicode="*" horiz-adv-x="686" d="M59 1092q41 23 79 44t79 44l-156 94q33 57 60 106q41 -23 80 -47t80 -47v189h131q0 -47 -1 -94.5t-1 -94.5l161 92q39 -72 62 -106q-41 -23 -81 -47t-81 -47q82 -49 158 -91q-32 -58 -66 -114q-41 23 -79 47t-78 47l-3 -178h-122v178l-156 -88q-33 59 -66 113z" />
<glyph unicode="+" horiz-adv-x="1112" d="M176 410v125h303v307h129v-307h305v-125h-305v-306h-129v306h-303z" />
<glyph unicode="," horiz-adv-x="409" d="M20 -246q141 383 156 422h135l-176 -422h-115z" />
<glyph unicode="-" horiz-adv-x="614" d="M109 324v125h376v-125h-376z" />
<glyph unicode="." horiz-adv-x="333" d="M88 86q0 39 26.5 63.5t59.5 24.5t59.5 -24.5t26.5 -63.5t-26.5 -62.5t-59.5 -23.5t-59.5 23.5t-26.5 62.5z" />
<glyph unicode="/" horiz-adv-x="743" d="M35 -39l569 1546h129l-569 -1546h-129z" />
<glyph unicode="0" horiz-adv-x="1261" d="M76 663.5q0 145.5 39 269.5t111 216q157 199 403 199q245 0 400 -205q145 -192 145 -481q0 -291 -172 -491q-76 -89 -176.5 -138t-207.5 -49q-106 0 -204.5 51t-174 141t-119.5 216t-44 271.5zM205 657.5q0 -108.5 32.5 -211t90.5 -176.5q123 -161 293 -161 q171 0 293 155q130 164 130 400q0 218 -101 375q-118 184 -314 184q-106 0 -186.5 -49.5t-132.5 -129t-78.5 -179t-26.5 -208z" />
<glyph unicode="1" horiz-adv-x="544" d="M70 1206v125h295v-1331h-129v1206h-166z" />
<glyph unicode="2" horiz-adv-x="1048" d="M94 961.5q0 60.5 26.5 134t77.5 130.5q112 122 304 122q178 0 292 -124q111 -118 111 -294q0 -265 -311 -610q-88 -97 -176 -195h569v-125h-878q129 127 248.5 248t212.5 234q206 250 206 423q0 160 -94 247q-77 71 -170.5 71t-148 -30t-85.5 -73q-55 -78 -55 -195.5 t80 -203.5l-78 -78q-89 66 -121 215q-10 43 -10 103.5z" />
<glyph unicode="3" horiz-adv-x="1054" d="M141 125l95 90q92 -106 225 -106q129 0 221 92t92 219q0 129 -92 217q-94 90 -221 90q-70 0 -131 -39q241 376 329 516h-448v127h668q-82 -125 -163 -249t-165 -246q152 -33 250 -145q100 -115 100 -271q0 -177 -129 -308q-127 -128 -309 -128q-194 0 -322 141z" />
<glyph unicode="4" horiz-adv-x="1069" d="M76 375q188 244 374.5 486.5t374.5 486.5v-848h199v-125h-199v-375h-129v375h-620zM336 500h360v471q-92 -119 -181 -236t-179 -235z" />
<glyph unicode="5" horiz-adv-x="1112" d="M219 104l94 89q80 -84 205 -84q129 0 221 92t92 219t-92 215q-94 90 -235.5 90t-210.5 -96v702h588v-125h-459v-372q49 16 117.5 16t148.5 -34t140 -92q130 -124 130 -304t-130 -308t-308 -128q-175 0 -301 120z" />
<glyph unicode="6" horiz-adv-x="1064" d="M102 389q-2 159 60.5 287.5t161 239t219.5 207t235 180.5l80 -101q-307 -206 -452 -403q55 51 138 51t162.5 -34t139.5 -92q129 -126 129 -306q0 -179 -129.5 -306.5t-308.5 -127.5t-305 122q-128 124 -130 283zM231 418q0 -126 89 -218q87 -91 215 -91t221 91 q92 90 92 218q0 129 -92 217q-94 90 -221 90t-215 -90q-89 -90 -89 -217z" />
<glyph unicode="7" d="M29 1204v127h837l-598 -1331h-147q137 303 272 602t273 602h-637z" />
<glyph unicode="8" horiz-adv-x="1044" d="M84 420q0 127 66.5 227.5t173.5 151.5q-121 86 -121 233q0 131 92 223q93 93 223 93q128 0 223 -95t95 -231.5t-121 -222.5q109 -51 176 -151.5t67 -209t-34.5 -187.5t-95.5 -139q-130 -128 -308 -128q-180 0 -307 128q-129 131 -129 308zM215 420q0 -127 88 -219 t215 -92q129 0 221 92t92 219q0 123 -90 213q-88 88 -217 92q-128 0 -220 -90q-89 -87 -89 -215zM334 1029q0 -38 14 -70.5t40 -56.5q56 -50 135 -50t132.5 50t53.5 126q0 80 -53 138q-54 57 -134 57q-78 0 -134 -57q-54 -56 -54 -137z" />
<glyph unicode="9" horiz-adv-x="1075" d="M72 866q0 180 128 306q130 128 310 128q178 0 308 -128q128 -126 128 -306q0 -352 -448 -710q-119 -95 -230 -174l-80 100q316 212 453 403q-51 -51 -136 -51t-165 34t-140 92q-128 125 -128 306zM199 866q0 -129 92 -217q94 -90 219 -90q124 0 216 90q89 87 89 217 q0 129 -89 218q-92 92 -216 92q-125 0 -219 -92q-92 -90 -92 -218z" />
<glyph unicode=":" horiz-adv-x="358" d="M88 86q0 39 25.5 63.5t59.5 24.5t60.5 -24.5t26.5 -63.5t-26.5 -62.5t-60.5 -23.5t-59.5 23.5t-25.5 62.5zM88 598q0 39 25.5 63.5t59.5 24.5t60.5 -24.5t26.5 -63.5t-26.5 -62.5t-60.5 -23.5t-59.5 23.5t-25.5 62.5z" />
<glyph unicode=";" horiz-adv-x="411" d="M-10 -246l157 422h136l-177 -422h-116zM145 598q0 39 27 63.5t59.5 24.5t59 -24.5t26.5 -63.5t-26.5 -62.5t-59.5 -23.5t-59.5 23.5t-26.5 62.5z" />
<glyph unicode="&#x3c;" horiz-adv-x="1392" d="M238 487q225 129 447 258t448 259v-173q-300 -172 -598 -344l598 -344v-172q-225 129 -447.5 258t-447.5 258z" />
<glyph unicode="=" horiz-adv-x="1449" d="M205 252v125h1036v-125h-1036zM205 649v125h1036v-125h-1036z" />
<glyph unicode="&#x3e;" horiz-adv-x="1331" d="M238 -29v172q150 86 299 172t299 172q-300 172 -598 344v173q225 -129 447 -258.5t448 -258.5q-225 -129 -447.5 -258t-447.5 -258z" />
<glyph unicode="?" horiz-adv-x="925" d="M78 1198q65 201 238 272q69 29 157 29t162 -31.5t128 -85.5q116 -118 116 -282q0 -204 -201 -350q-31 -25 -64.5 -45.5t-61.5 -46.5q-63 -60 -63 -162v-160h-129v199q0 109 79 175q36 31 81 59t92 69q138 105 138 262q0 118 -77 196q-76 78 -196 78q-218 0 -287 -217z M338 101q0 38 26.5 63.5t59.5 25.5t59.5 -25.5t26.5 -63.5t-26.5 -61.5t-59.5 -23.5t-59.5 23.5t-26.5 61.5z" />
<glyph unicode="@" horiz-adv-x="2027" d="M152 387q0 176 66.5 329.5t182 268.5t270 181.5t330.5 66.5t330 -66.5t268.5 -181.5t181 -269.5t66.5 -330.5q-11 -202 -132 -304q-96 -81 -226 -81h-199v129q-21 -51 -95 -93q-91 -52 -188.5 -52t-171 31.5t-127.5 86.5q-118 117 -118 281t117.5 281.5t287.5 117.5 q101 0 195 -54q73 -42 100 -97l8 137h105v-643h90q152 0 205 139q18 49 20 121q0 150 -56 282t-153.5 230t-228.5 155.5t-280 57.5t-279.5 -57.5t-229 -155.5t-154.5 -230t-56 -282t56 -281t154.5 -229t229.5 -154.5t280 -56.5q236 0 435 139q35 -43 77 -92 q-102 -84 -239 -128t-293 -44t-310.5 66.5t-270 181.5t-182 269.5t-66.5 330.5zM719 384q0 -58 20.5 -108.5t57.5 -87.5q81 -79 198 -79q120 0 201 79q80 79 80 197t-80 197q-82 80 -201 80q-116 0 -198 -80q-78 -77 -78 -198z" />
<glyph unicode="A" horiz-adv-x="1515" d="M125 0q160 377 317.5 749.5t317.5 749.5q160 -377 317.5 -749.5t317.5 -749.5h-129l-250 592h-514q-113 -273 -250 -592h-127zM555 713h408l-185 440q-4 16 -9 31.5t-9 32.5q-41 -129 -96.5 -254t-108.5 -250z" />
<glyph unicode="B" horiz-adv-x="1095" d="M135 0v1434h350q318 0 409 -196q32 -69 32 -179.5t-61.5 -206.5t-188.5 -131q127 -26 210 -115q91 -98 91 -237q0 -175 -139 -276q-129 -93 -316 -93h-387zM262 121h250q146 0 239 65q99 70 99 199q0 135 -114 210q-98 64 -255 64h-219v-538zM262 782h246q133 0 211 77 t78 206t-82 187.5t-213 58.5h-240v-529z" />
<glyph unicode="C" horiz-adv-x="1372" d="M127 715q0 152 57.5 286t156.5 233t232.5 157.5t260.5 58.5q224 0 399 -102q-10 -17 -72 -105q-137 84 -282.5 84t-255 -48t-191.5 -132t-130 -195.5t-48 -237.5t47 -236.5t129 -193.5t191.5 -131.5t253 -48.5t286.5 84l70 -102q-178 -102 -351.5 -102t-306.5 57 t-232 156.5t-156.5 232.5t-57.5 285z" />
<glyph unicode="D" horiz-adv-x="1335" d="M139 0v1434h318q303 0 507 -195q214 -204 214 -524q0 -121 -42 -248t-136.5 -230.5t-245 -170t-367.5 -66.5h-248zM266 123h160q282 0 458 174q167 165 167 420q0 266 -177 433q-170 161 -428 161h-180v-1188z" />
<glyph unicode="E" horiz-adv-x="1230" d="M158 0v1434h866v-123h-739v-529h659v-120h-659v-541h768v-121h-895z" />
<glyph unicode="F" horiz-adv-x="1202" d="M158 0v1434h866v-123h-739v-529h659v-120h-659v-662h-127z" />
<glyph unicode="G" horiz-adv-x="1406" d="M127 715q0 152 57.5 286t156.5 233t232.5 157.5t260.5 58.5q224 0 399 -102q-10 -17 -72 -105q-137 84 -282.5 84t-255 -48t-191.5 -132t-130 -195.5t-48 -237.5t47 -236.5t129 -193.5q178 -180 426 -180q133 0 248 56v276q0 29 -9.5 42.5t-41.5 13.5h-203v122h276 q59 0 82 -25.5t23 -88.5v-414q-178 -102 -351.5 -102t-306.5 57t-232 156.5t-156.5 232.5t-57.5 285z" />
<glyph unicode="H" horiz-adv-x="1433" d="M176 0v1434h127v-652h827v652h130l-3 -1434h-127v662h-827v-662h-127z" />
<glyph unicode="I" horiz-adv-x="538" d="M207 0v1434h129v-1434h-129z" />
<glyph unicode="J" horiz-adv-x="669" d="M35 -172q149 8 238 101q94 98 94 261v1244h127v-1250q0 -220 -134 -350q-127 -123 -325 -127v121z" />
<glyph unicode="K" horiz-adv-x="1228" d="M121 0v1434h127v-603q-4 -32 -4 -63q10 12 18 22.5t19 22.5l651 621h160l-607 -578q172 -215 340 -427t340 -429h-155l-611 774q-146 -139 -151 -143v-631h-127z" />
<glyph unicode="L" horiz-adv-x="1214" d="M158 0v1434h127v-1313h768v-121h-895z" />
<glyph unicode="M" horiz-adv-x="1918" d="M205 0v1499q188 -244 374.5 -486.5t374.5 -486.5q188 244 375 486.5t375 486.5v-1499h-127v1069q0 36 4 74q-147 -211 -308 -414t-319 -410q-139 182 -276 361.5t-277 361.5l-43 56q-8 10 -15 22.5t-15 22.5q4 -36 4 -74v-1069h-127z" />
<glyph unicode="N" horiz-adv-x="1665" d="M205 0v1499q274 -309 545.5 -614t545.5 -615q10 -14 19.5 -26.5t19.5 -26.5l-6 66v1151h127v-1500q-274 305 -545.5 605.5t-545.5 605.5q-10 14 -19.5 26.5t-19.5 26.5l6 -65v-1133h-127z" />
<glyph unicode="O" horiz-adv-x="1720" d="M127 715q0 152 57.5 286t156.5 233t232.5 157.5t284.5 58.5q152 0 286 -58.5t233.5 -157.5t157.5 -233.5t58 -285.5q0 -152 -58 -285t-157.5 -232.5t-233.5 -156.5t-286 -57t-285 57t-232 156.5t-156.5 232.5t-57.5 285zM254 714q0 -126 47 -236.5t129 -193.5 t192.5 -131.5t235.5 -48.5t235.5 48.5t193.5 131.5q179 179 179 431q0 125 -48 236.5t-131 195.5q-178 180 -427 180q-125 0 -235.5 -48t-192.5 -132t-130 -195.5t-48 -237.5z" />
<glyph unicode="P" horiz-adv-x="974" d="M135 0v1434h322q162 0 297 -90q166 -109 166 -290t-111 -289t-322 -108h-225v-657h-127zM262 780h195q181 0 267 91q69 73 69 182q0 102 -96 181q-97 79 -238 79h-197v-533z" />
<glyph unicode="Q" horiz-adv-x="1724" d="M127 715q0 152 57.5 286t156.5 233t232.5 157.5t284.5 58.5q152 0 286 -58.5t233.5 -157.5t157.5 -233.5t58 -304t-89 -325.5t-234 -250h368v-121h-628q-78 -16 -152 -16q-152 0 -285 57t-232 156.5t-156.5 232.5t-57.5 285zM254 714q0 -126 47 -236.5t129 -193.5 q178 -180 426 -180q125 0 236.5 48.5t194.5 131.5q179 179 179 431q0 125 -48 236.5t-131 195.5q-178 180 -429 180q-250 0 -426 -180q-178 -182 -178 -433z" />
<glyph unicode="R" horiz-adv-x="1048" d="M135 0v1434h322q162 0 297 -90q166 -109 166 -291q0 -152 -78 -252.5t-226 -132.5q156 -332 316 -668h-139l-312 659q-12 -2 -25 -2h-194v-657h-127zM262 780h195q181 0 267 91q69 73 69 182q0 102 -96 181q-97 79 -238 79h-197v-533z" />
<glyph unicode="S" horiz-adv-x="1140" d="M115 201l82 82q167 -179 354 -179q129 0 217 72q96 78 96 205q0 150 -141 235q-59 35 -127 56.5t-114 39t-98 40t-99 61.5q-114 94 -117 246v16q0 236 204 332q74 35 168.5 35t178.5 -27.5t182 -111.5l-72 -95q-125 111 -274 111q-125 0 -195 -78q-65 -72 -65 -178 q0 -140 148 -203q44 -18 102 -38t137.5 -51.5t147.5 -81.5q161 -117 161 -306q0 -180 -125 -292q-121 -107 -303 -107q-139 0 -277 74q-116 63 -171 143z" />
<glyph unicode="T" horiz-adv-x="1132" d="M0 1311v123h1133v-123h-502v-1311h-127v1311h-504z" />
<glyph unicode="U" horiz-adv-x="1335" d="M172 463v971h127v-965q0 -172 105 -269q103 -96 268 -96q163 0 267 96q105 97 105 269v965h127v-971q0 -230 -143 -357q-135 -122 -358 -122q-107 0 -198 30.5t-158 91.5q-142 129 -142 357z" />
<glyph unicode="V" horiz-adv-x="1478" d="M111 1434h129q123 -291 243.5 -577t243.5 -576q4 -16 9 -32t9 -32q4 16 9.5 31.5t9.5 32.5q123 291 243.5 576.5t243.5 576.5h129q-160 -377 -317.5 -750t-317.5 -750q-220 518 -634 1500z" />
<glyph unicode="W" horiz-adv-x="2269" d="M111 1434h129q123 -291 242.5 -577t244.5 -576q4 -16 9 -32t9 -32q58 197 235 581q44 95 83 189q-47 113 -94 223.5t-95 223.5h127q353 -836 490 -1153q4 -16 9 -32t9 -32q4 16 9.5 31.5t9.5 32.5q123 291 243.5 576.5t243.5 576.5h129q-160 -377 -317.5 -750 t-317.5 -750l-362 854q-4 16 -10.5 32t-10.5 32q-57 -186 -143 -382t-138 -310.5t-100 -225.5q-220 518 -634 1500z" />
<glyph unicode="X" horiz-adv-x="1433" d="M190 0l476 733l-455 701h156q92 -141 181 -278.5t181 -276.5q8 -23 23 -48q8 13 24 48q90 139 179 276t180 279h155l-461 -713q319 -483 471 -721h-157l-355 541q-12 20 -22 41.5t-25 42.5q-4 -12 -10 -24.5t-12 -25.5q-94 -145 -186.5 -287.5t-184.5 -287.5h-158z" />
<glyph unicode="Y" horiz-adv-x="1306" d="M47 1434h156q106 -180 212.5 -355.5t211.5 -355.5q6 -14 11 -29.5t11 -29.5h2q6 14 12.5 29.5t12.5 29.5q106 180 210.5 355t211.5 356h155l-524 -887v-547h-156v549q-133 221 -263 441t-263 444z" />
<glyph unicode="Z" horiz-adv-x="1433" d="M166 0v123q233 299 462.5 594t465.5 594h-752q-63 0 -103 30.5t-40 90.5v73h129v-24q0 -29 13 -38t48 -9h862v-123q-233 -299 -463.5 -594t-463.5 -594h987v-123h-1145z" />
<glyph unicode="[" horiz-adv-x="692" d="M170 -305v1833h375v-125h-246v-1583h246v-125h-375z" />
<glyph unicode="\" horiz-adv-x="747" d="M10 1507h144q143 -389 284.5 -773t284.5 -773h-143q-329 894 -570 1546z" />
<glyph unicode="]" horiz-adv-x="700" d="M139 -180h246v1583h-246v125h375v-1833h-375v125z" />
<glyph unicode="^" horiz-adv-x="962" d="M229 981q61 92 123 185.5t123 185.5q61 -92 122.5 -185.5t123.5 -185.5h-94q-98 123 -152 199l-151 -199h-95z" />
<glyph unicode="_" horiz-adv-x="1228" d="M205 0v125h819v-125h-819z" />
<glyph unicode="`" horiz-adv-x="409" d="M-82 1253h131q47 -68 92 -136t92 -136h-94q-153 189 -221 272z" />
<glyph unicode="a" horiz-adv-x="1036" d="M100 383q0 161 118 283q117 120 290 120q157 0 261 -108q26 -27 32 -47l8 137h104v-768h-112v131q-15 -49 -91 -95q-89 -52 -188.5 -52t-174.5 31.5t-129 86.5q-118 119 -118 281zM229 384q0 -58 21.5 -108.5t58.5 -87.5q81 -79 199 -79q119 0 198.5 79.5t79.5 196.5 t-80 197t-198 80q-117 0 -199 -80q-80 -79 -80 -198z" />
<glyph unicode="b" horiz-adv-x="1087" d="M168 0v1536h127v-823q-4 -23 -7 -41.5t-7 -38.5q15 48 96 97q92 56 187 56t170 -31.5t130 -86.5q117 -120 117 -283t-117 -283q-117 -118 -291 -118q-112 0 -201 52q-76 46 -91 95v-131h-113zM295 385q0 -118 80 -197q81 -79 198 -79q120 0 201 79q78 77 78 196 q0 58 -20.5 109.5t-57.5 88.5q-82 80 -201 80q-116 0 -198 -80q-80 -79 -80 -197z" />
<glyph unicode="c" horiz-adv-x="800" d="M74 385q0 167 118 283q120 118 287 118q144 0 258 -88l-80 -96q-77 60 -178 60q-118 0 -199 -80q-79 -80 -79 -197t79.5 -196.5t190.5 -79.5t186 59q37 -47 78 -96q-114 -88 -256 -88q-167 0 -287 118q-118 116 -118 283z" />
<glyph unicode="d" horiz-adv-x="1077" d="M104 385q0 161 118 283q115 118 290 118q105 0 197 -56q81 -49 96 -97q-1 3 -14 80v823h127v-1536h-113v131q-15 -49 -91 -95q-89 -52 -188.5 -52t-174.5 31.5t-129 86.5q-118 122 -118 283zM233 384q0 -58 20.5 -108.5t57.5 -87.5q81 -79 201 -79q118 0 199 79 q80 79 80 197t-80 197q-82 80 -199 80q-119 0 -201 -80q-78 -77 -78 -198z" />
<glyph unicode="e" horiz-adv-x="923" d="M74 385q0 167 118 283q120 118 287 118q124 0 223 -89q98 -89 134 -226l-596 -227q35 -61 97 -98t157 -37t172 75q27 -34 77 -92q-112 -108 -264 -108q-167 0 -287 118q-118 116 -118 283zM205 365q117 45 233.5 89t233.5 89q-31 53 -81.5 86t-111.5 33q-102 0 -177 -62 q-90 -73 -96 -194q-1 -21 -1 -41z" />
<glyph unicode="f" horiz-adv-x="636" d="M45 653v125h131v281q0 221 134 351q122 120 325 128v-123q-144 -4 -235 -99q-95 -99 -95 -259v-279h246v-125h-246v-653h-129v653h-131z" />
<glyph unicode="g" horiz-adv-x="1060" d="M100 383q0 161 118 283q117 120 290 120q157 0 261 -108q26 -27 32 -47l8 137h104v-864q0 -182 -115 -300q-115 -116 -282 -116q-92 2 -177 37t-144 86q70 82 86 102q99 -94 231 -94q117 0 194 85q80 87 80 214v143q4 16 7.5 33t7.5 33q-21 -49 -99 -93 q-83 -48 -181.5 -48t-173.5 31.5t-129 86.5q-118 119 -118 279zM229 384q0 -58 21.5 -108.5t58.5 -87.5q81 -79 199 -79q119 0 198.5 79.5t79.5 196.5t-80 197t-198 80q-117 0 -199 -80q-80 -79 -80 -198z" />
<glyph unicode="h" horiz-adv-x="1048" d="M188 0v1536h129v-874l-6 -93q43 98 130 154.5t204 58.5h7q112 0 178 -62q68 -64 71 -165v-555h-127v506q-4 59 -44 104t-110 47h-12q-62 -1 -110 -19q-54 -20 -94 -54q-87 -77 -87 -189v-395h-129z" />
<glyph unicode="i" horiz-adv-x="397" d="M115 1052q0 38 26.5 63.5t59.5 25.5t59.5 -25.5t26.5 -63.5t-27 -61.5t-59.5 -23.5t-59 23.5t-26.5 61.5zM135 0v768h129v-768h-129z" />
<glyph unicode="j" horiz-adv-x="460" d="M66 -276q110 101 110 274v772l127 -2v-772q0 -241 -149 -367q-72 79 -88 95zM158 1052q0 38 26.5 63.5t59.5 25.5t59.5 -25.5t26.5 -63.5t-27 -61.5t-59 -23.5q-33 0 -59.5 23.5t-26.5 61.5z" />
<glyph unicode="k" horiz-adv-x="919" d="M139 0v1536h127v-1126l404 376l75 -75l-272 -260q82 -113 164 -225.5t164 -225.5h-148q-68 92 -136 183t-136 184q-87 -81 -115 -109v-258h-127z" />
<glyph unicode="l" horiz-adv-x="391" d="M135 0v1536h129v-1536h-129z" />
<glyph unicode="m" horiz-adv-x="1630" d="M188 0v768h115v-45q2 -41 4 -77t4 -77q41 98 129 155.5t202 58.5h4q110 0 176 -55q66 -56 77 -148q45 94 132 148t202 55h4q113 -1 179 -63q68 -64 71 -165v-555h-127v506q-4 59 -44 104t-110 47h-13q-61 0 -109 -17q-52 -19 -92 -54q-87 -76 -91 -187v-399h-127v506 q-4 59 -44 104t-110 47h-12q-62 -1 -110 -19q-54 -20 -94 -54q-87 -77 -87 -189v-395h-129z" />
<glyph unicode="n" horiz-adv-x="1013" d="M188 0v768h115v-45q2 -41 4 -77t4 -77q41 98 131 156.5t205 58.5t182.5 -63.5t71.5 -165.5v-555h-127v506q-4 59 -44 104t-110 47h-12q-62 -1 -110 -19q-54 -20 -94 -54q-87 -77 -87 -189v-395h-129z" />
<glyph unicode="o" horiz-adv-x="968" d="M74 384q0 83 31.5 156.5t86.5 127.5q120 118 287 118q172 0 291 -118q119 -117 119 -283t-119 -283q-119 -118 -291 -118q-167 0 -287 118q-118 116 -118 282zM201 383q0 -116 81 -195t195 -79q113 0 196 79q81 78 81 195q0 118 -81 197q-83 82 -196 82q-114 0 -195 -82 q-81 -80 -81 -197z" />
<glyph unicode="p" horiz-adv-x="1075" d="M137 -512v1280h107q0 -35 2 -69.5t4 -69.5q14 45 96 98q89 57 186 57t171.5 -31.5t128.5 -86.5q118 -117 118 -281q0 -165 -118 -285q-116 -118 -289 -118q-110 0 -202 54q-77 46 -91 93l16 -63v-578h-129zM264 385q0 -116 80 -197q80 -82 199 -82q121 0 201 82 q77 79 77 196q0 58 -20.5 108.5t-56.5 87.5q-80 79 -201 79q-118 0 -199 -79q-80 -79 -80 -195z" />
<glyph unicode="q" horiz-adv-x="1048" d="M102 385q0 164 119 281q119 118 289 118q155 0 261 -108q26 -27 34 -47l4 139h109v-1280h-130v578q4 16 7.5 31.5t7.5 31.5q-14 -47 -91 -93q-92 -54 -190 -54t-172 31.5t-129 86.5q-119 121 -119 285zM231 384q0 -58 21.5 -108.5t58.5 -87.5q80 -82 199 -82t198.5 81.5 t79.5 197.5q0 115 -79.5 194.5t-198.5 79.5q-118 0 -199 -79q-80 -79 -80 -196z" />
<glyph unicode="r" horiz-adv-x="677" d="M188 0v768h115v-45q2 -41 4 -77t4 -77q47 97 141 159q84 56 166 56l-8 -125q-126 0 -211 -75q-82 -73 -82 -189v-395h-129z" />
<glyph unicode="s" horiz-adv-x="722" d="M117 80l78 92q83 -63 174 -63q64 0 107 53q17 21 17 63q0 39 -24 61q-25 24 -63.5 39t-85 28.5t-86.5 36.5q-93 53 -93 171q0 110 80 171q67 50 152 50q138 0 217 -86q-30 -43 -72 -94q-16 18 -54 37.5t-85 19.5q-47 -1 -80 -25q-30 -22 -30 -60v-7q3 -43 31 -63.5 t67 -36.5t83 -32.5t82 -42.5q89 -61 89 -173q0 -81 -53 -149q-67 -86 -203 -86q-68 0 -137.5 24.5t-110.5 71.5z" />
<glyph unicode="t" horiz-adv-x="600" d="M63 651v125h175v492h127v-492h219v-125h-219v-651h-127v651h-175z" />
<glyph unicode="u" horiz-adv-x="1083" d="M188 213v555h129v-506q4 -61 44 -105q39 -44 109 -46h14q62 0 110 17q54 19 93 55q87 78 87 190v395h127v-780h-127v118l6 93q-41 -98 -132 -156.5t-205 -58.5t-182 63.5t-73 165.5z" />
<glyph unicode="v" horiz-adv-x="1024" d="M111 768h129q76 -143 159.5 -293.5t143.5 -298.5q57 147 141 298t162 294h127q-109 -205 -215 -407.5t-215 -407.5q-111 205 -217.5 407.5t-214.5 407.5z" />
<glyph unicode="w" horiz-adv-x="1581" d="M113 768h127q72 -147 147.5 -294.5t134.5 -297.5q47 117 103.5 230.5t109.5 226.5q-16 35 -32.5 67.5t-32.5 67.5h127q72 -147 147.5 -294.5t134.5 -297.5q59 150 135 297.5t146 294.5h129q-104 -205 -204.5 -407.5t-205.5 -407.5q-70 139 -139.5 276.5t-138.5 276.5 q-70 -139 -139.5 -276.5t-139.5 -276.5q-104 205 -204.5 407.5t-204.5 407.5z" />
<glyph unicode="x" horiz-adv-x="917" d="M57 0l295 403q-66 92 -133 182.5t-133 182.5h158q55 -76 110.5 -150.5t110.5 -148.5l215 299h158q-263 -363 -293 -406q66 -92 133 -181t135 -181h-162q-99 134 -219 299l-217 -299h-158z" />
<glyph unicode="y" horiz-adv-x="1015" d="M66 768h129q82 -160 170 -323.5t153 -329.5q66 166 154 329.5t168 323.5h129l-641 -1280h-131l256 510q-98 193 -193.5 385t-193.5 385z" />
<glyph unicode="z" horiz-adv-x="923" d="M86 0v125q141 131 261 259t261 261h-348q-63 0 -103 31t-40 90v74h129v-25q0 -29 13 -38t48 -9h479v-125q-141 -133 -260.5 -260t-261.5 -258h565v-125h-743z" />
<glyph unicode="{" horiz-adv-x="626" d="M61 543v131q89 4 131 98q31 68 31 178v336q0 233 139 240q39 2 82 2h115v-125h-98q-63 0 -84 -43q-23 -47 -23 -174v-277q0 -186 -88 -263q-24 -21 -47 -36q135 -70 135 -297v-276q0 -128 17.5 -163.5t38 -44.5t51.5 -9h98v-125h-115q-45 0 -85 2t-71 25q-65 51 -65 237 v307q0 176 -81 247q-32 28 -81 30z" />
<glyph unicode="|" horiz-adv-x="522" d="M190 -475v1909h129v-1909h-129z" />
<glyph unicode="}" horiz-adv-x="655" d="M96 -180h99q62 0 83 42q23 45 23 175v299q0 112 49 190q29 46 86 84q-135 82 -135 299v277q0 129 -17.5 163.5t-38 44t-50.5 9.5h-99v125h115q43 0 83 -2t70 -24q68 -47 68 -216v-313q0 -293 162 -299v-131q-162 -6 -162 -299v-307q0 -233 -138 -240q-40 -2 -83 -2h-115 v125z" />
<glyph unicode="~" horiz-adv-x="1001" d="M254 956q4 75 62 124q52 44 108.5 44t92.5 -19.5t71 -51.5q50 -56 108 -56q65 0 100 51q13 19 17 50l72 -6q-4 -75 -63 -124q-49 -42 -106.5 -42t-93.5 19t-71 50q-31 35 -54.5 45.5t-45 10.5t-41 -4.5t-36.5 -15.5q-42 -26 -46 -81z" />
<glyph unicode="&#xa1;" horiz-adv-x="409" d="M119 995q0 -39 26.5 -62.5t59.5 -23.5t59.5 23.5t26.5 62.5t-26.5 63.5t-59.5 24.5t-59.5 -24.5t-26.5 -63.5zM139 -430h129v1196h-129v-1196z" />
<glyph unicode="&#xa2;" horiz-adv-x="788" d="M74 385q0 141 89 251q88 109 226 138v123h129v-115q122 -8 219 -84l-80 -96q-64 47 -139 55v-546q78 10 139 57q37 -47 78 -96q-96 -76 -217 -86v-125h-129v135q-136 28 -226 137q-89 108 -89 252zM201 385q0 -92 52 -162.5t136 -95.5v514q-84 -25 -136 -94.5t-52 -161.5 z" />
<glyph unicode="&#xa3;" horiz-adv-x="1175" d="M57 0v125h90q68 0 87 45q20 46 20 190v222h-133v125h133v317q0 141 110.5 207.5t275.5 66.5t244 -58t120 -140l-97 -56q-41 65 -72 86q-63 44 -190 44t-194.5 -41t-67.5 -138v-288h248v-125h-248v-281q0 -59 -6 -103t-39 -73h399q128 0 162.5 17.5t44.5 38t10 50.5v99 h129v-156q0 -87 -31 -117q-60 -57 -210 -57h-785z" />
<glyph unicode="&#xa4;" horiz-adv-x="1024" d="M188 506l60 59q-53 78 -53 168t51 172l-58 58l91 90l59 -58q84 52 172 52t166 -52l57 58l90 -90l-53 -56q51 -82 51 -172t-55 -168l59 -59l-90 -90l-63 61q-72 -49 -166 -49t-166 47l-61 -61zM324 738q0 -77 54 -130t130 -53t130 53.5t54 130t-54 131t-130 54.5 t-130 -54.5t-54 -131.5z" />
<glyph unicode="&#xa5;" horiz-adv-x="1306" d="M47 1434h156q106 -180 211.5 -355.5t212.5 -355.5q6 -14 11 -29.5t11 -29.5h2q6 14 12.5 29.5t12.5 29.5q106 180 210.5 355t211.5 356h155q-175 -296 -456 -770h192v-125h-260v-209h260v-125h-260v-205h-156v205h-266v125h266v209h-266v125h199q-180 297 -459 770z" />
<glyph unicode="&#xa6;" horiz-adv-x="440" d="M162 240h129v-717h-129v717zM162 717v717h129v-717h-129z" />
<glyph unicode="&#xa7;" horiz-adv-x="1024" d="M262 688q-8 51 1 102q20 110 104 171q74 49 170 36q-27 41 -49.5 82t-53.5 93t-43 97.5t-8 78.5q7 60 68 100q31 27 72.5 48.5t76.5 43.5q33 -57 66 -106q-29 -15 -83 -48t-55.5 -74.5t49 -125.5t94.5 -160t81 -137.5t45 -112.5t-3 -100q-22 -104 -103 -161.5t-175 -45.5 q27 -41 51.5 -84t55 -94t44 -97.5t9.5 -79.5q-7 -57 -68 -100q-33 -27 -72.5 -48t-76.5 -44q-10 16 -64 109l86 49q53 27 49 76.5t-59 137t-84 136.5t-46 80t-27.5 49.5t-27 48t-24.5 80.5zM383 771.5q-6 -31.5 3 -75.5t51 -78t102.5 -32t101.5 49t39 94t-16.5 73.5 t-35.5 47.5q-46 43 -95.5 40t-78 -19.5t-47 -42t-24.5 -57z" />
<glyph unicode="&#xa8;" horiz-adv-x="757" d="M121 1052q0 38 26.5 63.5t59.5 25.5t59.5 -25.5t26.5 -63.5t-26.5 -61.5t-59.5 -23.5t-59.5 23.5t-26.5 61.5zM461 1052q0 38 25.5 63.5t59.5 25.5t60.5 -25.5t26.5 -63.5t-26.5 -61.5t-60.5 -23.5t-59.5 23.5t-25.5 61.5z" />
<glyph unicode="&#xa9;" horiz-adv-x="1624" d="M285 762q0 229 157 382q154 150 377 150q222 0 378 -150q157 -152 157 -382q0 -224 -157 -379q-154 -152 -378 -152t-377 152q-157 155 -157 379zM352 762q0 -203 136 -335q137 -134 331 -134t331 134q136 132 136 335q0 202 -136 338q-133 133 -331 133t-331 -133 q-136 -136 -136 -338zM502 768q0 138 96 236q95 96 233 96q92 0 170 -45q-30 -45 -32 -47q-61 37 -127 36.5t-116 -22t-87 -58.5q-80 -82 -80 -196t80 -196q79 -80 192 -80q72 -1 138 38l32 -47q-76 -47 -157 -47t-141 26.5t-105 71.5q-96 98 -96 234z" />
<glyph unicode="&#xaa;" horiz-adv-x="1198" d="M158 728q0 116 85 204q85 87 209 87q114 0 189 -78q18 -19 23 -34l6 99h75v-554h-81v94q-11 -35 -66 -68q-64 -38 -136 -38t-126 23t-93 63q-85 85 -85 202zM251 729q0 -42 15.5 -78.5t42.5 -62.5q58 -57 143 -57q86 0 143.5 57t57.5 141.5t-58 142.5q-57 57 -143 57 q-84 0 -143 -57q-58 -57 -58 -143z" />
<glyph unicode="&#xab;" horiz-adv-x="1230" d="M240 489q88 84 175 165t175 165v-147q-82 -79 -180 -183q135 -141 180 -186v-145zM590 489q88 84 175 165t175 165v-145q-105 -105 -180 -185q135 -141 180 -186v-145z" />
<glyph unicode="&#xac;" horiz-adv-x="1144" d="M205 410v94h737v-201h-129v107h-608z" />
<glyph unicode="&#xad;" horiz-adv-x="614" d="M109 324v125h376v-125h-376z" />
<glyph unicode="&#xae;" horiz-adv-x="1640" d="M285 762q0 229 157 382q154 150 377 150q222 0 378 -150q157 -152 157 -382q0 -224 -157 -379q-154 -152 -378 -152t-377 152q-157 155 -157 379zM352 762q0 -203 136 -335q137 -134 331 -134t331 134q136 132 136 335q0 202 -136 338q-133 133 -331 133t-331 -133 q-136 -136 -136 -338zM664 430v678h153q77 0 125.5 -32t71 -65.5t22.5 -82.5q0 -149 -145 -183q73 -145 149 -315h-65q-20 45 -148 311h-102v-311h-61zM725 799h92q124 0 151 85q7 23 7 44q0 49 -45 86t-113 37h-92v-252z" />
<glyph unicode="&#xaf;" horiz-adv-x="817" d="M174 987v84h471v-84h-471z" />
<glyph unicode="&#xb0;" horiz-adv-x="577" d="M88 1147q0 80 56.5 135t138.5 55q122 0 175 -117q15 -34 15 -74t-15.5 -74t-41.5 -60q-53 -56 -134 -56t-137.5 55.5t-56.5 135.5zM174 1146q0 -46 32 -77t77 -31t76.5 31t31.5 77t-31.5 76.5t-76.5 30.5t-77 -30.5t-32 -76.5z" />
<glyph unicode="&#xb1;" horiz-adv-x="1073" d="M176 227v125h737v-125h-737zM176 737v125h303v307h129v-307h305v-125h-305v-305h-129v305h-303z" />
<glyph unicode="&#xb2;" horiz-adv-x="815" d="M124 854q0 30 13.5 66t38.5 65q55 60 150 60q88 0 144 -61q55 -59 55 -146q0 -131 -154 -301q-43 -48 -87 -96h282v-62h-434q64 63 123 122.5t105 115.5q101 124 101 209q0 79 -46 122q-38 35 -84.5 35t-73 -15t-42.5 -36q-27 -38 -27 -96t40 -101l-39 -38 q-44 32 -60 106q-5 21 -5 51z" />
<glyph unicode="&#xb3;" horiz-adv-x="858" d="M120 445l46 44q46 -52 111 -52q64 0 109.5 45t45.5 108t-46 107t-109 44q-34 0 -64 -19q119 185 162 254h-221v62h330q-41 -61 -81 -122t-81 -121q75 -17 123 -72q49 -56 49 -133q0 -87 -63 -152q-63 -63 -153 -63q-95 0 -158 70z" />
<glyph unicode="&#xb4;" horiz-adv-x="526" d="M205 981l184 272h131l-221 -272h-94z" />
<glyph unicode="&#xb5;" horiz-adv-x="1116" d="M188 -412v1180h129v-506q4 -61 44 -105t109.5 -46t123 17t93.5 55q87 78 87 190v395h127v-780h-127v118l6 93q-43 -98 -131 -155.5t-187.5 -58.5t-144.5 42v-439h-129z" />
<glyph unicode="&#xb6;" horiz-adv-x="1085" d="M78 1200q0 142 96 238q98 98 238 98h460v-1536h-127v1411h-206v-1411h-127v866q-141 0 -238 97q-96 96 -96 237z" />
<glyph unicode="&#xb7;" horiz-adv-x="339" d="M88 575q0 39 26.5 63.5t59.5 24.5t59.5 -24.5t26.5 -63.5t-26.5 -62.5t-59.5 -23.5t-59.5 23.5t-26.5 62.5z" />
<glyph unicode="&#xb8;" horiz-adv-x="925" d="M229 -352l74 37q12 -35 42 -58.5t78 -23.5t78.5 34.5t30.5 84t-23.5 76t-51 46t-51 40t-23.5 57.5v59h82v-14q0 -50 20.5 -68t36 -26.5t44 -29t46 -60.5t17.5 -85q0 -92 -53.5 -152.5t-133.5 -60.5q-167 0 -213 144z" />
<glyph unicode="&#xb9;" horiz-adv-x="544" d="M75 933v57h136v-612h-60v555h-76z" />
<glyph unicode="&#xba;" d="M149 729q0 60 23 113t62 92q87 85 207 85q125 0 210 -85q86 -85 86 -204.5t-86 -203.5q-85 -86 -210 -86q-120 0 -207 86q-85 83 -85 203zM241 728q0 -83 58 -140q59 -57 141 -57t141 57q59 56 59 140q0 85 -59 142q-59 59 -141 59t-141 -59q-58 -57 -58 -142z" />
<glyph unicode="&#xbb;" horiz-adv-x="1230" d="M240 158l350 331q-88 84 -175 165t-175 165v-145q105 -105 180 -185q-135 -141 -180 -186v-145zM590 158l350 331q-88 84 -175 165t-175 165v-147q82 -79 180 -183q-135 -141 -180 -186v-145z" />
<glyph unicode="&#xbc;" horiz-adv-x="1982" d="M198 1196v88h209v-944h-92v856h-117zM549 -39l569 1545h129l-569 -1545h-129zM777 279q140 182 278.5 362.5t278.5 362.5v-632h148v-93h-148v-279h-96v279h-461zM971 372h267v351q-68 -89 -134 -176t-133 -175z" />
<glyph unicode="&#xbd;" horiz-adv-x="2189" d="M191 1196v89h209v-945h-91v856h-118zM549 -39l569 1545h129l-569 -1545h-129zM825 681.5q0 42.5 18.5 95t54.5 92.5q79 86 215 86q126 0 207 -87q79 -84 79 -209q0 -188 -221 -432l-124 -138h403v-89h-622q91 90 176 176t150 166q146 177 146 299q0 114 -66 176 q-55 50 -121 50t-104.5 -21.5t-60.5 -51.5q-39 -55 -39 -138.5t56 -144.5l-55 -55q-63 47 -85 152q-7 31 -7 73.5z" />
<glyph unicode="&#xbe;" horiz-adv-x="2613" d="M251 422l73 69q71 -82 174 -82q100 0 171 71.5t71 169.5q0 99 -71 167q-73 70 -171 70q-54 0 -101 -30q186 291 254 399h-346v98h516q-63 -97 -126 -192.5t-127 -190.5q117 -25 193 -112q77 -89 77 -209q0 -137 -100 -238q-98 -99 -238 -99q-150 0 -249 109zM922 -39 l569 1546h129l-569 -1546h-129zM1082 279q139 182 278 362.5t279 362.5v-632h147v-93h-147v-279h-96v279h-461zM1275 372h268v351q-69 -89 -135 -176t-133 -175z" />
<glyph unicode="&#xbf;" horiz-adv-x="899" d="M67 4q0 204 201 350q31 25 64.5 45.5t61.5 46.5q63 60 63 162v160h129v-199q0 -109 -79 -175q-36 -31 -81 -59t-92 -69q-138 -105 -138 -262q0 -118 77 -196q76 -78 196 -78q218 0 287 217l112 -41q-65 -201 -238 -272q-69 -29 -157 -29t-162 31.5t-128 85.5 q-116 118 -116 282zM436 1003q0 38 26.5 61.5t59.5 23.5t59.5 -23.5t26.5 -61.5t-26.5 -63.5t-59.5 -25.5t-59.5 25.5t-26.5 63.5z" />
<glyph unicode="&#xc0;" horiz-adv-x="1515" d="M125 0q160 377 317.5 749.5t317.5 749.5q160 -377 317.5 -749.5t317.5 -749.5h-129l-250 592h-514q-113 -273 -250 -592h-127zM481 1808h131q47 -68 92 -136t92 -136h-94q-153 189 -221 272zM555 713h408l-185 440q-4 16 -9 31.5t-9 32.5q-41 -129 -96.5 -254 t-108.5 -250z" />
<glyph unicode="&#xc1;" horiz-adv-x="1515" d="M125 0q160 377 317.5 749.5t317.5 749.5q160 -377 317.5 -749.5t317.5 -749.5h-129l-250 592h-514q-113 -273 -250 -592h-127zM555 713h408l-185 440q-4 16 -9 31.5t-9 32.5q-41 -129 -96.5 -254t-108.5 -250zM709 1536l184 272h131l-221 -272h-94z" />
<glyph unicode="&#xc2;" horiz-adv-x="1515" d="M125 0q160 377 317.5 749.5t317.5 749.5q160 -377 317.5 -749.5t317.5 -749.5h-129l-250 592h-514q-113 -273 -250 -592h-127zM514 1536q61 92 123 185.5t123 185.5q61 -92 122.5 -185.5t123.5 -185.5h-94q-98 123 -152 199l-151 -199h-95zM555 713h408l-185 440 q-4 16 -9 31.5t-9 32.5q-41 -129 -96.5 -254t-108.5 -250z" />
<glyph unicode="&#xc3;" horiz-adv-x="1515" d="M125 0q160 377 317.5 749.5t317.5 749.5q160 -377 317.5 -749.5t317.5 -749.5h-129l-250 592h-514q-113 -273 -250 -592h-127zM440 1568q4 75 62 124q52 44 108.5 44t92.5 -19.5t71 -51.5q50 -56 108 -56q65 0 100 51q13 19 17 50l72 -6q-4 -75 -63 -124 q-49 -42 -106.5 -42t-93.5 19t-71 50q-31 35 -54.5 45.5t-45 10.5t-41 -4.5t-36.5 -15.5q-42 -26 -46 -81zM555 713h408l-185 440q-4 16 -9 31.5t-9 32.5q-41 -129 -96.5 -254t-108.5 -250z" />
<glyph unicode="&#xc4;" horiz-adv-x="1515" d="M125 0q160 377 317.5 749.5t317.5 749.5q160 -377 317.5 -749.5t317.5 -749.5h-129l-250 592h-514q-113 -273 -250 -592h-127zM506 1646q0 38 26.5 63.5t59.5 25.5t59.5 -25.5t26.5 -63.5t-26.5 -61.5t-59.5 -23.5t-59.5 23.5t-26.5 61.5zM555 713h408l-185 440 q-4 16 -9 31.5t-9 32.5q-41 -129 -96.5 -254t-108.5 -250zM846 1646q0 38 25.5 63.5t59.5 25.5t60.5 -25.5t26.5 -63.5t-26.5 -61.5t-60.5 -23.5t-59.5 23.5t-25.5 61.5z" />
<glyph unicode="&#xc5;" horiz-adv-x="1515" d="M125 0q160 377 317.5 749.5t317.5 749.5q160 -377 317.5 -749.5t317.5 -749.5h-129l-250 592h-514q-113 -273 -250 -592h-127zM555 713h408l-185 440q-4 16 -9 31.5t-9 32.5q-41 -129 -96.5 -254t-108.5 -250zM596 1712q0 66 48 116t116 50q104 0 150 -102q14 -29 14 -62 q0 -68 -48.5 -116t-115.5 -48q-68 0 -116 48t-48 114zM684 1713q0 -32 22.5 -54.5t54.5 -22.5t54.5 22.5t22.5 54.5t-22.5 54.5t-54.5 22.5t-54.5 -22.5t-22.5 -54.5z" />
<glyph unicode="&#xc6;" horiz-adv-x="1630" d="M123 0l606 1434h701v-123h-553v-529h473v-120h-473v-541h581v-121h-708v573h-256l-242 -573h-129zM545 694h205v500q-41 -127 -96.5 -251t-108.5 -249z" />
<glyph unicode="&#xc7;" horiz-adv-x="1372" d="M127 719q0 148 57.5 282t156.5 233t232.5 157.5t260.5 58.5q224 0 399 -102q-10 -17 -72 -105q-137 84 -282.5 84t-255 -48t-191.5 -132t-130 -195.5t-48 -237.5t47 -236.5t129 -193.5t191.5 -131.5t253 -48.5t286.5 84l70 -102q-156 -94 -352 -102q0 -52 29 -74 q14 -10 28 -18.5t43 -29t47 -60.5t18 -85q0 -92 -54 -152.5t-134 -60.5q-163 0 -213 144q18 10 37.5 18t38.5 19q10 -35 39.5 -58.5t77.5 -23.5t79 34.5t31 84t-23.5 76t-51 46t-51 40t-23.5 57.5v47q-141 10 -263 71.5t-212.5 158.5t-142.5 225t-52 276z" />
<glyph unicode="&#xc8;" horiz-adv-x="1230" d="M158 0v1434h866v-123h-739v-529h659v-120h-659v-541h768v-121h-895zM330 1808h131q47 -68 92 -136t92 -136h-94q-153 189 -221 272z" />
<glyph unicode="&#xc9;" horiz-adv-x="1230" d="M158 0v1434h866v-123h-739v-529h659v-120h-659v-541h768v-121h-895zM547 1536l184 272h131l-221 -272h-94z" />
<glyph unicode="&#xca;" horiz-adv-x="1230" d="M158 0v1434h866v-123h-739v-529h659v-120h-659v-541h768v-121h-895zM368 1536q61 92 123 185.5t123 185.5q61 -92 122.5 -185.5t123.5 -185.5h-94q-98 123 -152 199l-151 -199h-95z" />
<glyph unicode="&#xcb;" horiz-adv-x="1230" d="M158 0v1434h866v-123h-739v-529h659v-120h-659v-541h768v-121h-895zM342 1646q0 38 26.5 63.5t59.5 25.5t59.5 -25.5t26.5 -63.5t-26.5 -61.5t-59.5 -23.5t-59.5 23.5t-26.5 61.5zM682 1646q0 38 25.5 63.5t59.5 25.5t60.5 -25.5t26.5 -63.5t-26.5 -61.5t-60.5 -23.5 t-59.5 23.5t-25.5 61.5z" />
<glyph unicode="&#xcc;" horiz-adv-x="483" d="M-8 1808h131q47 -68 92 -136t92 -136h-94q-153 189 -221 272zM207 0v1434h129v-1434h-129z" />
<glyph unicode="&#xcd;" horiz-adv-x="483" d="M207 0v1434h129v-1434h-129zM236 1536l184 272h131l-221 -272h-94z" />
<glyph unicode="&#xce;" horiz-adv-x="555" d="M26 1536q61 92 123 185.5t123 185.5q61 -92 122.5 -185.5t123.5 -185.5h-94q-98 123 -152 199l-151 -199h-95zM207 0v1434h129v-1434h-129z" />
<glyph unicode="&#xcf;" horiz-adv-x="483" d="M12 1646q0 38 26.5 63.5t59.5 25.5t59.5 -25.5t26.5 -63.5t-26.5 -61.5t-59.5 -23.5t-59.5 23.5t-26.5 61.5zM207 0v1434h129v-1434h-129zM352 1646q0 38 25.5 63.5t59.5 25.5t60.5 -25.5t26.5 -63.5t-26.5 -61.5t-60.5 -23.5t-59.5 23.5t-25.5 61.5z" />
<glyph unicode="&#xd0;" horiz-adv-x="1323" d="M45 655v125h94v654h301q325 0 548 -194q106 -93 168.5 -226t62.5 -275.5t-46.5 -269.5t-147.5 -231.5t-264 -171t-396 -66.5h-226v655h-94zM266 121h170q284 0 467 161q189 167 189 435q0 265 -188 434q-181 162 -468 162h-170v-533h398v-125h-398v-534z" />
<glyph unicode="&#xd1;" horiz-adv-x="1665" d="M205 0v1499q274 -309 545.5 -614t545.5 -615q10 -14 19.5 -26.5t19.5 -26.5l-6 66v1151h127v-1500q-274 305 -545.5 605.5t-545.5 605.5q-10 14 -19.5 26.5t-19.5 26.5l6 -65v-1133h-127zM526 1554q4 75 62 124q52 44 108.5 44t92.5 -19.5t71 -51.5q50 -56 108 -56 q65 0 100 51q13 19 17 50l72 -6q-4 -75 -63 -124q-49 -42 -106.5 -42t-93.5 19t-71 50q-31 35 -54.5 45.5t-45 10.5t-41 -4.5t-36.5 -15.5q-42 -26 -46 -81z" />
<glyph unicode="&#xd2;" horiz-adv-x="1718" d="M125 715q0 152 57.5 286t156.5 233t232.5 157.5t284.5 58.5q152 0 286 -58.5t233.5 -157.5t157.5 -233.5t58 -285.5q0 -152 -58 -285t-157.5 -232.5t-233.5 -156.5t-286 -57t-285 57t-232 156.5t-156.5 232.5t-57.5 285zM252 714q0 -126 47 -236.5t129 -193.5 t192.5 -131.5t235.5 -48.5t235.5 48.5t193.5 131.5q179 179 179 431q0 125 -48 236.5t-131 195.5q-178 180 -427 180q-125 0 -235.5 -48t-192.5 -132t-130 -195.5t-48 -237.5zM573 1808h131q47 -68 92 -136t92 -136h-94q-153 189 -221 272z" />
<glyph unicode="&#xd3;" horiz-adv-x="1720" d="M125 715q0 152 57.5 286t156.5 233t232.5 157.5t284.5 58.5q152 0 286 -58.5t233.5 -157.5t157.5 -233.5t58 -285.5q0 -152 -58 -285t-157.5 -232.5t-233.5 -156.5t-286 -57t-285 57t-232 156.5t-156.5 232.5t-57.5 285zM252 714q0 -126 47 -236.5t129 -193.5 t192.5 -131.5t235.5 -48.5t235.5 48.5t193.5 131.5q179 179 179 431q0 125 -48 236.5t-131 195.5q-178 180 -427 180q-125 0 -235.5 -48t-192.5 -132t-130 -195.5t-48 -237.5zM819 1536l184 272h131l-221 -272h-94z" />
<glyph unicode="&#xd4;" horiz-adv-x="1718" d="M125 715q0 152 57.5 286t156.5 233t232.5 157.5t284.5 58.5q152 0 286 -58.5t233.5 -157.5t157.5 -233.5t58 -285.5q0 -152 -58 -285t-157.5 -232.5t-233.5 -156.5t-286 -57t-285 57t-232 156.5t-156.5 232.5t-57.5 285zM252 714q0 -126 47 -236.5t129 -193.5 t192.5 -131.5t235.5 -48.5t235.5 48.5t193.5 131.5q179 179 179 431q0 125 -48 236.5t-131 195.5q-178 180 -427 180q-125 0 -235.5 -48t-192.5 -132t-130 -195.5t-48 -237.5zM608 1536q61 92 123 185.5t123 185.5q61 -92 122.5 -185.5t123.5 -185.5h-94q-98 123 -152 199 l-151 -199h-95z" />
<glyph unicode="&#xd5;" horiz-adv-x="1718" d="M125 715q0 152 57.5 286t156.5 233t232.5 157.5t284.5 58.5q152 0 286 -58.5t233.5 -157.5t157.5 -233.5t58 -285.5q0 -152 -58 -285t-157.5 -232.5t-233.5 -156.5t-286 -57t-285 57t-232 156.5t-156.5 232.5t-57.5 285zM252 714q0 -126 47 -236.5t129 -193.5 t192.5 -131.5t235.5 -48.5t235.5 48.5t193.5 131.5q179 179 179 431q0 125 -48 236.5t-131 195.5q-178 180 -427 180q-125 0 -235.5 -48t-192.5 -132t-130 -195.5t-48 -237.5zM543 1626q4 75 62 124q52 44 108.5 44t92.5 -19.5t71 -51.5q50 -56 108 -56q65 0 100 51 q13 19 17 50l72 -6q-4 -75 -63 -124q-49 -42 -106.5 -42t-93.5 19t-71 50q-31 35 -54.5 45.5t-45 10.5t-41 -4.5t-36.5 -15.5q-42 -26 -46 -81z" />
<glyph unicode="&#xd6;" horiz-adv-x="1718" d="M125 715q0 152 57.5 286t156.5 233t232.5 157.5t284.5 58.5q152 0 286 -58.5t233.5 -157.5t157.5 -233.5t58 -285.5q0 -152 -58 -285t-157.5 -232.5t-233.5 -156.5t-286 -57t-285 57t-232 156.5t-156.5 232.5t-57.5 285zM252 714q0 -126 47 -236.5t129 -193.5 t192.5 -131.5t235.5 -48.5t235.5 48.5t193.5 131.5q179 179 179 431q0 125 -48 236.5t-131 195.5q-178 180 -427 180q-125 0 -235.5 -48t-192.5 -132t-130 -195.5t-48 -237.5zM602 1646q0 38 26.5 63.5t59.5 25.5t59.5 -25.5t26.5 -63.5t-26.5 -61.5t-59.5 -23.5t-59.5 23.5 t-26.5 61.5zM942 1646q0 38 25.5 63.5t59.5 25.5t60.5 -25.5t26.5 -63.5t-26.5 -61.5t-60.5 -23.5t-59.5 23.5t-25.5 61.5z" />
<glyph unicode="&#xd7;" horiz-adv-x="1024" d="M238 90l215 215l-215 217l90 90l215 -217l217 217l88 -90l-215 -215l217 -217l-92 -90l-217 215l-213 -213z" />
<glyph unicode="&#xd8;" horiz-adv-x="1720" d="M127 715q0 152 57.5 286t156.5 233t232.5 157.5t284.5 58.5q236 0 426 -137l131 153l88 -77l-129 -152q102 -100 160.5 -234.5t58.5 -287t-58 -285.5t-157.5 -232.5t-233.5 -156.5t-286 -57q-240 0 -430 139l-129 -152q-30 24 -90 78q35 37 65.5 75t63.5 77 q-98 98 -154.5 230t-56.5 284zM254 716q0 -244 166 -419q246 286 782 920q-154 110 -344 110q-250 0 -426 -180q-82 -84 -130 -195.5t-48 -235.5zM508 219q165 -115 348 -115q125 0 236.5 48.5t194.5 131.5q179 179 179 431q0 123 -48 232.5t-128 191.5z" />
<glyph unicode="&#xd9;" horiz-adv-x="1335" d="M174 463v971h127v-965q0 -172 105 -269q103 -96 268 -96q163 0 267 96q105 97 105 269v965h127v-971q0 -230 -143 -357q-135 -122 -358 -122q-107 0 -198 30.5t-158 91.5q-142 129 -142 357zM410 1808h131q47 -68 92 -136t92 -136h-94q-153 189 -221 272z" />
<glyph unicode="&#xda;" horiz-adv-x="1335" d="M174 463v971h127v-965q0 -172 105 -269q103 -96 268 -96q163 0 267 96q105 97 105 269v965h127v-971q0 -230 -143 -357q-135 -122 -358 -122q-107 0 -198 30.5t-158 91.5q-142 129 -142 357zM615 1536l184 272h131l-221 -272h-94z" />
<glyph unicode="&#xdb;" horiz-adv-x="1335" d="M174 463v971h127v-965q0 -172 105 -269q103 -96 268 -96q163 0 267 96q105 97 105 269v965h127v-971q0 -230 -143 -357q-135 -122 -358 -122q-107 0 -198 30.5t-158 91.5q-142 129 -142 357zM422 1569q61 92 123 185.5t123 185.5q61 -92 122.5 -185.5t123.5 -185.5h-94 q-98 123 -152 199l-151 -199h-95z" />
<glyph unicode="&#xdc;" horiz-adv-x="1335" d="M174 463v971h127v-965q0 -172 105 -269q103 -96 268 -96q163 0 267 96q105 97 105 269v965h127v-971q0 -230 -143 -357q-135 -122 -358 -122q-107 0 -198 30.5t-158 91.5q-142 129 -142 357zM420 1646q0 38 26.5 63.5t59.5 25.5t59.5 -25.5t26.5 -63.5t-26.5 -61.5 t-59.5 -23.5t-59.5 23.5t-26.5 61.5zM760 1646q0 38 25.5 63.5t59.5 25.5t60.5 -25.5t26.5 -63.5t-26.5 -61.5t-60.5 -23.5t-59.5 23.5t-25.5 61.5z" />
<glyph unicode="&#xdd;" horiz-adv-x="1306" d="M47 1434h156q106 -180 212.5 -355.5t211.5 -355.5q6 -14 11 -29.5t11 -29.5h2q6 14 12.5 29.5t12.5 29.5q106 180 210.5 355t211.5 356h155l-524 -887v-547h-156v549q-133 221 -263 441t-263 444zM586 1536l184 272h131l-221 -272h-94z" />
<glyph unicode="&#xde;" horiz-adv-x="1026" d="M205 0v1434h127v-338h194q162 0 298 -89q165 -107 165 -289.5t-110.5 -290.5t-321.5 -108h-225v-319h-127zM332 442h196q179 0 266 92q68 72 68 181q0 103 -95 181q-97 79 -237 79h-198v-533z" />
<glyph unicode="&#xdf;" horiz-adv-x="1173" d="M33 707v124h131v37q0 217 124 350q120 128 290 128q128 0 223 -95q92 -92 92 -223q0 -72 -33 -132t-86 -97q106 -51 175 -152.5t69 -210t-35 -187.5t-95 -139q-131 -128 -310 -128q-99 0 -189 45q14 35 53 112q61 -33 128.5 -33t125.5 25t101 68q94 94 94 219 q0 126 -92 216q-93 91 -221 91h-3l-2 61v64q80 0 136.5 48t56.5 128q0 76 -54 136q-52 59 -122.5 58t-123 -26t-91.5 -71q-84 -99 -84 -259v-864h-127v707h-131z" />
<glyph unicode="&#xe0;" horiz-adv-x="1128" d="M100 383q0 161 118 283q117 120 290 120q157 0 261 -108q26 -27 32 -47l8 137h104v-768h-112v131q-15 -49 -91 -95q-89 -52 -188.5 -52t-174.5 31.5t-129 86.5q-118 119 -118 281zM229 384q0 -58 21.5 -108.5t58.5 -87.5q81 -79 199 -79q119 0 198.5 79.5t79.5 196.5 t-80 197t-198 80q-117 0 -199 -80q-80 -79 -80 -198zM244 1253h131q47 -68 92 -136t92 -136h-94q-153 189 -221 272z" />
<glyph unicode="&#xe1;" horiz-adv-x="1128" d="M100 383q0 161 118 283q117 120 290 120q157 0 261 -108q26 -27 32 -47l8 137h104v-768h-112v131q-15 -49 -91 -95q-89 -52 -188.5 -52t-174.5 31.5t-129 86.5q-118 119 -118 281zM229 384q0 -58 21.5 -108.5t58.5 -87.5q81 -79 199 -79q119 0 198.5 79.5t79.5 196.5 t-80 197t-198 80q-117 0 -199 -80q-80 -79 -80 -198zM475 981l184 272h131l-221 -272h-94z" />
<glyph unicode="&#xe2;" horiz-adv-x="1128" d="M100 383q0 161 118 283q117 120 290 120q157 0 261 -108q26 -27 32 -47l8 137h104v-768h-112v131q-15 -49 -91 -95q-89 -52 -188.5 -52t-174.5 31.5t-129 86.5q-118 119 -118 281zM229 384q0 -58 21.5 -108.5t58.5 -87.5q81 -79 199 -79q119 0 198.5 79.5t79.5 196.5 t-80 197t-198 80q-117 0 -199 -80q-80 -79 -80 -198zM288 981q61 92 123 185.5t123 185.5q61 -92 122.5 -185.5t123.5 -185.5h-94q-98 123 -152 199l-151 -199h-95z" />
<glyph unicode="&#xe3;" horiz-adv-x="1128" d="M100 383q0 161 118 283q117 120 290 120q157 0 261 -108q26 -27 32 -47l8 137h104v-768h-112v131q-15 -49 -91 -95q-89 -52 -188.5 -52t-174.5 31.5t-129 86.5q-118 119 -118 281zM229 384q0 -58 21.5 -108.5t58.5 -87.5q81 -79 199 -79q119 0 198.5 79.5t79.5 196.5 t-80 197t-198 80q-117 0 -199 -80q-80 -79 -80 -198zM244 956q4 75 62 124q52 44 108.5 44t92.5 -19.5t71 -51.5q50 -56 108 -56q65 0 100 51q13 19 17 50l72 -6q-4 -75 -63 -124q-49 -42 -106.5 -42t-93.5 19t-71 50q-31 35 -54.5 45.5t-45 10.5t-41 -4.5t-36.5 -15.5 q-42 -26 -46 -81z" />
<glyph unicode="&#xe4;" horiz-adv-x="1128" d="M100 383q0 161 118 283q117 120 290 120q157 0 261 -108q26 -27 32 -47l8 137h104v-768h-112v131q-15 -49 -91 -95q-89 -52 -188.5 -52t-174.5 31.5t-129 86.5q-118 119 -118 281zM229 384q0 -58 21.5 -108.5t58.5 -87.5q81 -79 199 -79q119 0 198.5 79.5t79.5 196.5 t-80 197t-198 80q-117 0 -199 -80q-80 -79 -80 -198zM281 1052q0 38 26.5 63.5t59.5 25.5t59.5 -25.5t26.5 -63.5t-26.5 -61.5t-59.5 -23.5t-59.5 23.5t-26.5 61.5zM621 1052q0 38 25.5 63.5t59.5 25.5t60.5 -25.5t26.5 -63.5t-26.5 -61.5t-60.5 -23.5t-59.5 23.5 t-25.5 61.5z" />
<glyph unicode="&#xe5;" horiz-adv-x="1128" d="M100 383q0 161 118 283q117 120 290 120q157 0 261 -108q26 -27 32 -47l8 137h104v-768h-112v131q-15 -49 -91 -95q-89 -52 -188.5 -52t-174.5 31.5t-129 86.5q-118 119 -118 281zM229 384q0 -58 21.5 -108.5t58.5 -87.5q81 -79 199 -79q119 0 198.5 79.5t79.5 196.5 t-80 197t-198 80q-117 0 -199 -80q-80 -79 -80 -198zM348 1106q0 68 48 116t116 48t116 -48t48 -116t-48 -116t-116 -48t-116 48t-48 116zM436 1105q0 -32 22.5 -54.5t54.5 -22.5t54.5 22.5t22.5 54.5t-22.5 54.5t-54.5 22.5t-54.5 -22.5t-22.5 -54.5z" />
<glyph unicode="&#xe6;" horiz-adv-x="1288" d="M92 221q0 113 93 169q75 46 206 46h217v68q0 83 -26 111q-45 47 -164 47q-78 0 -174 -40q-25 -10 -39 -22q-5 7 -72 84q39 39 102 62q107 40 185 40q158 0 225 -41q86 41 197.5 41t207 -88t134.5 -225l-447 -170v-35q0 -87 -32 -135q55 -25 122 -24q106 0 185 77 q41 -52 80 -94q-115 -106 -265 -106q-102 0 -192 45q-78 -47 -217 -47q-161 0 -237 50q-89 58 -89 187zM221 215q0 -106 197 -106q84 0 119 15q71 31 71 99v82h-137q-107 0 -151 -9q-99 -20 -99 -81zM711 639q26 -41 26 -139v-64q72 29 141.5 54.5t141.5 54.5q-31 53 -82 85 t-111.5 32t-115.5 -23z" />
<glyph unicode="&#xe7;" horiz-adv-x="800" d="M74 385q0 167 118 283q120 118 287 118q144 0 258 -88l-80 -96q-77 60 -178 60q-118 0 -199 -80q-79 -80 -79 -197t79.5 -196.5t190.5 -79.5t186 59q37 -47 78 -96q-106 -84 -252 -88q0 -49 32 -74q13 -10 27.5 -18.5t43 -29t46 -60.5t17.5 -101.5t-40 -116.5 q-63 -86 -183 -76q-57 4 -105.5 38t-70.5 102l74 37q12 -35 41.5 -58.5t77.5 -23.5t79 34.5t31 84t-23.5 76t-51 46t-51.5 40t-24 57.5v53q-139 23 -235 134q-94 109 -94 257z" />
<glyph unicode="&#xe8;" horiz-adv-x="923" d="M74 385q0 167 118 283q120 118 287 118q124 0 223 -89q98 -89 134 -226l-596 -227q35 -61 97 -98t157 -37t172 75q27 -34 77 -92q-112 -108 -264 -108q-167 0 -287 118q-118 116 -118 283zM160 1253h131q47 -68 92 -136t92 -136h-94q-153 189 -221 272zM205 365 q117 45 233.5 89t233.5 89q-31 53 -81.5 86t-111.5 33q-102 0 -177 -62q-90 -73 -96 -194q-1 -21 -1 -41z" />
<glyph unicode="&#xe9;" horiz-adv-x="923" d="M74 385q0 167 118 283q120 118 287 118q124 0 223 -89q98 -89 134 -226l-596 -227q35 -61 97 -98t157 -37t172 75q27 -34 77 -92q-112 -108 -264 -108q-167 0 -287 118q-118 116 -118 283zM205 365q117 45 233.5 89t233.5 89q-31 53 -81.5 86t-111.5 33q-102 0 -177 -62 q-90 -73 -96 -194q-1 -21 -1 -41zM457 981l184 272h131l-221 -272h-94z" />
<glyph unicode="&#xea;" horiz-adv-x="923" d="M74 385q0 167 118 283q120 118 287 118q124 0 223 -89q98 -89 134 -226l-596 -227q35 -61 97 -98t157 -37t172 75q27 -34 77 -92q-112 -108 -264 -108q-167 0 -287 118q-118 116 -118 283zM205 365q117 45 233.5 89t233.5 89q-31 53 -81.5 86t-111.5 33q-102 0 -177 -62 q-90 -73 -96 -194q-1 -21 -1 -41zM229 981q61 92 123 185.5t123 185.5q61 -92 122.5 -185.5t123.5 -185.5h-94q-98 123 -152 199l-151 -199h-95z" />
<glyph unicode="&#xeb;" horiz-adv-x="923" d="M74 385q0 167 118 283q120 118 287 118q124 0 223 -89q98 -89 134 -226l-596 -227q35 -61 97 -98t157 -37t172 75q27 -34 77 -92q-112 -108 -264 -108q-167 0 -287 118q-118 116 -118 283zM205 365q117 45 233.5 89t233.5 89q-31 53 -81.5 86t-111.5 33q-102 0 -177 -62 q-90 -73 -96 -194q-1 -21 -1 -41zM215 1052q0 38 26.5 63.5t59.5 25.5t59.5 -25.5t26.5 -63.5t-26.5 -61.5t-59.5 -23.5t-59.5 23.5t-26.5 61.5zM555 1052q0 38 25.5 63.5t59.5 25.5t60.5 -25.5t26.5 -63.5t-26.5 -61.5t-60.5 -23.5t-59.5 23.5t-25.5 61.5z" />
<glyph unicode="&#xec;" horiz-adv-x="356" d="M-84 1253h131q47 -68 92 -136t92 -136h-94q-153 189 -221 272zM135 0v768h129v-768h-129z" />
<glyph unicode="&#xed;" horiz-adv-x="401" d="M131 0v768h129v-768h-129zM164 981l184 272h131l-221 -272h-94z" />
<glyph unicode="&#xee;" horiz-adv-x="489" d="M-8 981q61 92 123 185.5t123 185.5q61 -92 122.5 -185.5t122.5 -185.5h-94q-102 128 -151 199l-152 -199h-94zM174 0v768h127v-768h-127z" />
<glyph unicode="&#xef;" horiz-adv-x="555" d="M33 1052q0 38 26.5 63.5t59.5 25.5t59.5 -25.5t26.5 -63.5t-26.5 -61.5t-59.5 -23.5t-59.5 23.5t-26.5 61.5zM227 0v768h127v-768h-127zM373 1052q0 38 25.5 63.5t59.5 25.5t60.5 -25.5t26.5 -63.5t-26.5 -61.5t-60.5 -23.5t-59.5 23.5t-25.5 61.5z" />
<glyph unicode="&#xf0;" horiz-adv-x="1009" d="M106 381q-4 163 114 285q115 118 286 122q108 4 190 -65q-63 215 -219 416q-26 -28 -112 -123l-89 82q124 132 127 135q-97 110 -188 186q24 24 90 84q88 -66 189 -172l108 119l88 -78l-121 -133q235 -296 322 -627q29 -110 30 -204.5t-29 -167t-84 -128.5 q-117 -120 -286 -124q-167 -4 -290 112q-120 115 -126 281zM236 384q0 -58 22.5 -108.5t59.5 -87.5q82 -79 200 -75q118 0 199 83q76 77 76 197q-4 120 -83 197q-78 76 -200 76q-122 -4 -199 -83q-75 -77 -75 -199z" />
<glyph unicode="&#xf1;" horiz-adv-x="1071" d="M188 0v768h115v-45q2 -41 4 -77t4 -77q41 98 131 156.5t205 58.5t182.5 -63.5t71.5 -165.5v-555h-127v506q-4 59 -44 104t-109.5 47t-123 -18.5t-93.5 -54.5q-87 -77 -87 -189v-395h-129zM266 940q4 75 62 124q52 44 108.5 44t92.5 -19.5t71 -51.5q50 -56 108 -56 q65 0 100 51q13 19 17 50l72 -6q-4 -75 -63 -124q-49 -42 -106.5 -42t-93.5 19t-71 50q-31 35 -54.5 45.5t-45 10.5t-41 -4.5t-36.5 -15.5q-42 -26 -46 -81z" />
<glyph unicode="&#xf2;" d="M74 384q0 83 31.5 156.5t86.5 127.5q120 118 287 118q172 0 291 -118q119 -117 119 -283t-119 -283q-119 -118 -291 -118q-167 0 -287 118q-118 116 -118 282zM174 1253h131q47 -68 92 -136t92 -136h-94q-153 189 -221 272zM201 383q0 -116 81 -195t195 -79q113 0 196 79 q81 78 81 195q0 118 -81 197q-83 82 -196 82q-114 0 -195 -82q-81 -80 -81 -197z" />
<glyph unicode="&#xf3;" d="M74 384q0 83 31.5 156.5t86.5 127.5q120 118 287 118q172 0 291 -118q119 -117 119 -283t-119 -283q-119 -118 -291 -118q-167 0 -287 118q-118 116 -118 282zM201 383q0 -116 81 -195t195 -79q113 0 196 79q81 78 81 195q0 118 -81 197q-83 82 -196 82q-114 0 -195 -82 q-81 -80 -81 -197zM473 981l184 272h131l-221 -272h-94z" />
<glyph unicode="&#xf4;" d="M74 384q0 83 31.5 156.5t86.5 127.5q120 118 287 118q172 0 291 -118q119 -117 119 -283t-119 -283q-119 -118 -291 -118q-167 0 -287 118q-118 116 -118 282zM201 383q0 -116 81 -195t195 -79q113 0 196 79q81 78 81 195q0 118 -81 197q-83 82 -196 82q-114 0 -195 -82 q-81 -80 -81 -197zM229 981q61 92 123 185.5t123 185.5q61 -92 122.5 -185.5t123.5 -185.5h-94q-98 123 -152 199l-151 -199h-95z" />
<glyph unicode="&#xf5;" d="M74 384q0 83 31.5 156.5t86.5 127.5q120 118 287 118q172 0 291 -118q119 -117 119 -283t-119 -283q-119 -118 -291 -118q-167 0 -287 118q-118 116 -118 282zM172 956q4 75 62 124q52 44 108.5 44t92.5 -19.5t71 -51.5q50 -56 108 -56q65 0 100 51q13 19 17 50l72 -6 q-4 -75 -63 -124q-49 -42 -106.5 -42t-93.5 19t-71 50q-31 35 -54.5 45.5t-45 10.5t-41 -4.5t-36.5 -15.5q-42 -26 -46 -81zM201 383q0 -116 81 -195t195 -79q113 0 196 79q81 78 81 195q0 118 -81 197q-83 82 -196 82q-114 0 -195 -82q-81 -80 -81 -197z" />
<glyph unicode="&#xf6;" d="M74 384q0 83 31.5 156.5t86.5 127.5q120 118 287 118q172 0 291 -118q119 -117 119 -283t-119 -283q-119 -118 -291 -118q-167 0 -287 118q-118 116 -118 282zM201 383q0 -116 81 -195t195 -79q113 0 196 79q81 78 81 195q0 118 -81 197q-83 82 -196 82q-114 0 -195 -82 q-81 -80 -81 -197zM225 1052q0 38 26.5 63.5t59.5 25.5t59.5 -25.5t26.5 -63.5t-26.5 -61.5t-59.5 -23.5t-59.5 23.5t-26.5 61.5zM565 1052q0 38 25.5 63.5t59.5 25.5t60.5 -25.5t26.5 -63.5t-26.5 -61.5t-60.5 -23.5t-59.5 23.5t-25.5 61.5z" />
<glyph unicode="&#xf7;" horiz-adv-x="1026" d="M139 424v125h738v-125h-738zM428 231q0 39 25.5 63.5t59.5 24.5t60.5 -24.5t26.5 -63.5t-26.5 -62.5t-60.5 -23.5t-59.5 23.5t-25.5 62.5zM428 743q0 39 25.5 63.5t59.5 24.5t60.5 -24.5t26.5 -63.5t-26.5 -62.5t-60.5 -23.5t-59.5 23.5t-25.5 62.5z" />
<glyph unicode="&#xf8;" d="M74 385q0 167 118 283q120 118 287 118q119 0 215 -61q16 23 35 43t37 43l70 -63l-68 -80q119 -115 119 -283q0 -164 -118 -283q-116 -118 -290 -118q-131 0 -233 73l-84 -100l-72 59l86 101q-102 110 -102 268zM201 395.5q0 -106.5 57 -180.5q90 104 176 206.5 t176 207.5q-61 33 -125.5 33t-116 -22t-88.5 -58q-79 -80 -79 -186.5zM328 152q71 -43 140.5 -43t121 21.5t88.5 57.5q80 79 80 197q0 114 -74 186q-90 -104 -178 -208.5t-178 -210.5z" />
<glyph unicode="&#xf9;" horiz-adv-x="1083" d="M188 213v555h129v-506q4 -61 44 -105t109.5 -46t123 17t93.5 55q87 78 87 190v395h127v-780h-127v118l6 93q-41 -98 -132 -156.5t-205 -58.5t-182 63.5t-73 165.5zM289 1253h131q47 -68 92 -136t92 -136h-94q-153 189 -221 272z" />
<glyph unicode="&#xfa;" horiz-adv-x="1083" d="M188 213v555h129v-506q4 -61 44 -105t109.5 -46t123 17t93.5 55q87 78 87 190v395h127v-780h-127v118l6 93q-41 -98 -132 -156.5t-205 -58.5t-182 63.5t-73 165.5zM473 981l184 272h131l-221 -272h-94z" />
<glyph unicode="&#xfb;" horiz-adv-x="1083" d="M188 213v555h129v-506q4 -61 44 -105t109.5 -46t123 17t93.5 55q87 78 87 190v395h127v-780h-127v118l6 93q-41 -98 -132 -156.5t-205 -58.5t-182 63.5t-73 165.5zM299 981q61 92 123 185.5t123 185.5q61 -92 122.5 -185.5t123.5 -185.5h-94q-98 123 -152 199l-151 -199 h-95z" />
<glyph unicode="&#xfc;" horiz-adv-x="1083" d="M188 213v555h129v-506q4 -61 44 -105t109.5 -46t123 17t93.5 55q87 78 87 190v395h127v-780h-127v118l6 93q-41 -98 -132 -156.5t-205 -58.5t-182 63.5t-73 165.5zM281 1052q0 38 26.5 63.5t59.5 25.5t59.5 -25.5t26.5 -63.5t-26.5 -61.5t-59.5 -23.5t-59.5 23.5 t-26.5 61.5zM621 1052q0 38 25.5 63.5t59.5 25.5t60.5 -25.5t26.5 -63.5t-26.5 -61.5t-60.5 -23.5t-59.5 23.5t-25.5 61.5z" />
<glyph unicode="&#xfd;" horiz-adv-x="999" d="M66 768h129q82 -160 170 -323.5t153 -329.5q66 166 154 329.5t168 323.5h129l-641 -1280h-131l256 510q-98 193 -193.5 385t-193.5 385zM494 981l184 272h131l-221 -272h-94z" />
<glyph unicode="&#xfe;" horiz-adv-x="1140" d="M137 -512v2048h127v-823q-4 -23 -7 -42.5t-7 -41.5q14 47 96 97q91 56 187 56t170.5 -31.5t128.5 -86.5q118 -117 118 -281q0 -163 -118 -283q-116 -118 -289 -118q-110 0 -202 54q-77 46 -91 93l16 -63v-578h-129zM264 385q0 -116 80 -197q80 -82 199 -82q121 0 201 82 q77 79 77 196q0 58 -20.5 108.5t-56.5 87.5q-80 79 -201 79q-118 0 -199 -79q-80 -79 -80 -195z" />
<glyph unicode="&#xff;" horiz-adv-x="999" d="M66 768h129q82 -160 170 -323.5t153 -329.5q66 166 154 329.5t168 323.5h129l-641 -1280h-131l256 510q-98 193 -193.5 385t-193.5 385zM266 1052q0 38 26.5 63.5t59.5 25.5t59.5 -25.5t26.5 -63.5t-26.5 -61.5t-59.5 -23.5t-59.5 23.5t-26.5 61.5zM606 1052 q0 38 25.5 63.5t59.5 25.5t60.5 -25.5t26.5 -63.5t-26.5 -61.5t-60.5 -23.5t-59.5 23.5t-25.5 61.5z" />
<glyph unicode="&#x2000;" horiz-adv-x="970" />
<glyph unicode="&#x2001;" horiz-adv-x="1940" />
<glyph unicode="&#x2002;" horiz-adv-x="970" />
<glyph unicode="&#x2003;" horiz-adv-x="1940" />
<glyph unicode="&#x2004;" horiz-adv-x="646" />
<glyph unicode="&#x2005;" horiz-adv-x="485" />
<glyph unicode="&#x2006;" horiz-adv-x="323" />
<glyph unicode="&#x2007;" horiz-adv-x="323" />
<glyph unicode="&#x2008;" horiz-adv-x="242" />
<glyph unicode="&#x2009;" horiz-adv-x="388" />
<glyph unicode="&#x200a;" horiz-adv-x="107" />
<glyph unicode="&#x2010;" horiz-adv-x="614" d="M109 324v125h376v-125h-376z" />
<glyph unicode="&#x2011;" horiz-adv-x="614" d="M109 324v125h376v-125h-376z" />
<glyph unicode="&#x2012;" horiz-adv-x="614" d="M109 324v125h376v-125h-376z" />
<glyph unicode="&#x2013;" horiz-adv-x="1042" d="M205 358v125h616v-125h-616z" />
<glyph unicode="&#x2014;" horiz-adv-x="1433" d="M203 358v125h1028v-125h-1028z" />
<glyph unicode="&#x2018;" horiz-adv-x="335" d="M70 1456l86 -14q-28 -144 67 -234l-63 -45q-57 55 -82 132t-8 161z" />
<glyph unicode="&#x2019;" horiz-adv-x="335" d="M86 1208q96 91 68 234l86 14q16 -84 -8.5 -161t-81.5 -132q-16 10 -32 22.5t-32 22.5z" />
<glyph unicode="&#x201a;" horiz-adv-x="299" d="M39 -59q96 92 67 233l87 14q16 -84 -9 -160.5t-82 -131.5q-16 10 -31.5 22t-31.5 23z" />
<glyph unicode="&#x201c;" horiz-adv-x="509" d="M63 1456l87 -14q-28 -144 67 -234l-61 -45q-59 55 -84 132t-9 161zM276 1456l86 -14q-28 -143 68 -234l-61 -45q-59 55 -84 132t-9 161z" />
<glyph unicode="&#x201d;" horiz-adv-x="507" d="M43 1208q96 91 68 234l86 14q16 -84 -9 -161t-84 -132q-16 10 -30.5 22.5t-30.5 22.5zM256 1208q96 91 68 234l86 14q16 -84 -9 -161t-84 -132q-16 10 -30.5 22.5t-30.5 22.5z" />
<glyph unicode="&#x201e;" horiz-adv-x="632" d="M39 -59q96 92 67 233l87 14q16 -84 -9 -160.5t-82 -131.5q-16 10 -31.5 22t-31.5 23zM252 -59q96 92 67 233l87 14q16 -84 -9 -160.5t-82 -131.5q-16 10 -31.5 22t-31.5 23z" />
<glyph unicode="&#x2022;" horiz-adv-x="980" d="M268 614q0 93 64 159q64 65 157 65q94 0 159 -65t65 -159q0 -93 -65 -156q-66 -65 -159 -65q-92 0 -156.5 64.5t-64.5 156.5z" />
<glyph unicode="&#x202f;" horiz-adv-x="388" />
<glyph unicode="&#x2039;" horiz-adv-x="802" d="M240 489q88 84 175 165t175 165v-147q-82 -79 -180 -183q135 -141 180 -186v-145z" />
<glyph unicode="&#x203a;" horiz-adv-x="802" d="M239 158l350 331q-88 84 -175 165t-175 165v-147q82 -79 180 -183q-135 -141 -180 -186v-145z" />
<glyph unicode="&#x205f;" horiz-adv-x="485" />
<glyph unicode="&#xe000;" horiz-adv-x="768" d="M0 0v768h768v-768h-768z" />
</font>
</defs>
</svg>
