<?xml version="1.0" standalone="no"?>
<!DOCTYPE svg PUBLIC "-//W3C//DTD SVG 1.1//EN" "http://www.w3.org/Graphics/SVG/1.1/DTD/svg11.dtd" >
<svg xmlns="http://www.w3.org/2000/svg">
<metadata></metadata>
<defs>
<font id="JosefinSansLightItalic" horiz-adv-x="960" >
<font-face units-per-em="2048" ascent="1536" descent="-512" />
<missing-glyph horiz-adv-x="614" />
<glyph horiz-adv-x="0" />
<glyph horiz-adv-x="2048" />
<glyph unicode="&#xd;" horiz-adv-x="614" />
<glyph unicode=" "  horiz-adv-x="614" />
<glyph unicode="&#x09;" horiz-adv-x="614" />
<glyph unicode="&#xa0;" horiz-adv-x="614" />
<glyph unicode="!" horiz-adv-x="411" d="M53 114q2 24 21.5 39t40.5 15t34 -15.5t10 -39t-21.5 -39t-39 -15.5t-34 15.5t-11.5 39.5zM109 340l167 1196h58l-168 -1196h-57z" />
<glyph unicode="&#x22;" horiz-adv-x="616" d="M92 967l72 508h63q-54 -348 -80 -508h-55zM365 967l71 508h64l-80 -508h-55z" />
<glyph unicode="#" horiz-adv-x="1169" d="M27 446l14 56h231q52 207 82 317h-227q4 26 12 55h230l116 443h58l-117 -443h319l117 443h58l-117 -443h264l-12 -55h-267q-23 -80 -42 -158.5t-39 -158.5h262q-1 -4 -15 -56h-264l-115 -446h-57q54 210 115 446h-320q-101 -394 -114 -446h-58q54 210 115 446h-229z M330 502h319q52 207 82 317h-319q-23 -80 -42.5 -158.5t-39.5 -158.5z" />
<glyph unicode="$" horiz-adv-x="1161" d="M74 172l45 41q62 -72 112 -104q103 -65 201 -68l98 700q-4 2 -9 3t-9 6q-120 39 -170 79q-111 89 -100 230q9 142 106 251q111 123 281 130l18 125h58l-19 -125q148 -8 270 -121l-38 -45q-29 31 -89.5 66.5t-148.5 43.5l-86 -604q61 -23 129 -50.5t121 -71.5 q125 -104 100 -277q-23 -169 -158 -281q-130 -106 -305 -114l-16 -125h-57l16 125q-131 7 -234 76q-69 45 -116 110zM301.5 1083q-16.5 -119 39.5 -176t165 -94q14 -8 33 -12l84 583q-135 -7 -224 -99q-81 -83 -97.5 -202zM489 41q146 8 259 98q117 92 138 240 q11 78 -12.5 135t-67.5 96t-103.5 64.5t-116.5 46.5z" />
<glyph unicode="%" horiz-adv-x="1486" d="M252 797q12 96 92 161q82 68 174 68t152 -68q61 -67 49 -161q-16 -99 -94 -164q-81 -68 -172 -68q-94 0 -155 68q-58 64 -46 164zM310 795q-5 -37 4.5 -68t29.5 -55q44 -49 117 -49t132 49q54 46 69 123q8 72 -36 123t-116 51t-132 -51q-58 -48 -68 -123zM338 0 q395 536 756 1024h63q-395 -536 -756 -1024h-63zM795 231q16 96 93 162t173 66t154.5 -66t46.5 -162q-11 -93 -94 -163q-78 -68 -173 -68q-94 0 -155 68q-59 65 -45 163zM853 229q-5 -37 4 -68.5t29 -54.5q45 -51 118 -51q72 0 132 51q55 47 68 123q8 72 -36 123t-115 51 q-75 0 -133 -49q-57 -49 -67 -125z" />
<glyph unicode="&#x26;" horiz-adv-x="1433" d="M162 383q20 147 132 259q110 110 255 134q-29 59 -56.5 119.5t-56.5 121t-34 126t14 129.5q39 136 182 215q112 62 240 39q94 -17 186 -80l-31 -49q-95 61 -156 73q-115 24 -210 -28q-129 -76 -159 -187.5t19 -218.5q92 -193 181.5 -382t181.5 -382q49 76 68 168l16 115 q34 204 152 211q32 2 67 2h80l-6 -55h-113q-63 0 -91 -50.5t-44 -175.5l-16 -104q-11 -90 -76 -186q68 -138 98 -205l-49 -31q-23 45 -44.5 91t-43.5 91q-66 -72 -155 -114.5t-180 -42.5t-159.5 30.5t-114.5 85.5q-100 118 -77 281zM219 383q-20 -145 65 -243 q86 -99 230 -99q92 0 174 42t135 114l-248 526q-132 -12 -236 -109q-104 -98 -120 -231z" />
<glyph unicode="'" horiz-adv-x="307" d="M90 967l72 508h63q-54 -348 -80 -508h-55z" />
<glyph unicode="(" horiz-adv-x="819" d="M276 305q-10 139 13 293q37 284 181 551q129 236 286 381q10 -20 28 -47q-249 -249 -372 -609q-140 -408 -42 -796q54 -211 167 -365q-10 -12 -20.5 -23.5t-20.5 -23.5q-193 239 -220 639z" />
<glyph unicode=")" horiz-adv-x="819" d="M88 -289q250 250 373 609q139 407 41 796q-53 208 -166 365q10 12 20.5 23.5t20.5 23.5q119 -147 180 -381q67 -258 29 -551q-64 -429 -322 -767q-74 -97 -147 -165q-22 33 -29 47z" />
<glyph unicode="*" horiz-adv-x="686" d="M57 1063l222 117l-187 123q6 12 15.5 24t17.5 25q47 -31 96 -61.5t96 -61.5l35 246h64q-10 -61 -19.5 -123t-19.5 -123q117 59 229 121q15 -29 21 -50l-228 -122q189 -117 193 -119l-41 -55l-191 122l-36 -237h-56l33 237q-101 -57 -221 -118z" />
<glyph unicode="+" horiz-adv-x="1112" d="M172 446l8 56h340l47 340h58l-47 -340h340l-9 -56h-340l-49 -342h-57l49 342h-340z" />
<glyph unicode="," horiz-adv-x="409" d="M14 -246l217 422h72l-235 -422h-54z" />
<glyph unicode="-" horiz-adv-x="614" d="M104 362l7 56h376l-6 -56h-377z" />
<glyph unicode="." horiz-adv-x="333" d="M121 53q4 23 21.5 39.5t39.5 16.5q23 0 37 -16.5t10 -39.5t-21.5 -38t-39.5 -15q-23 0 -37 15t-10 38z" />
<glyph unicode="/" horiz-adv-x="684" d="M-74 -39l787 1546h57l-786 -1546h-58z" />
<glyph unicode="0" horiz-adv-x="1261" d="M72 652q18 127 66 246.5t130 219.5q187 230 457 230q143 0 237.5 -67t146.5 -167t65.5 -220t-5 -247.5t-81 -252t-151.5 -215.5t-197.5 -142t-219.5 -51t-202 53t-152.5 144t-86.5 216.5t-7 252.5zM132 669q-19 -138 5.5 -254t80.5 -199t138 -129t176 -46t189.5 44 t175.5 126q179 183 217 451q40 270 -70 449q-53 85 -137 133t-192 48q-218 0 -380 -175q-166 -179 -203 -448z" />
<glyph unicode="1" horiz-adv-x="520" d="M154 1276l8 55h270l-186 -1331h-58l179 1276h-213z" />
<glyph unicode="2" horiz-adv-x="1024" d="M12 0q384 325 519 465.5t207.5 249t86.5 210t-6 173t-61 114.5q-76 80 -183.5 80t-175 -34.5t-110.5 -85.5q-73 -85 -94 -218q-18 -141 51 -229q-1 -1 -41 -33q-88 101 -68 262q25 172 137 279q121 115 297 115q164 0 252 -116q86 -114 62 -288q-28 -202 -261 -452 q-102 -111 -223.5 -221t-238.5 -216h688l-8 -55h-830z" />
<glyph unicode="3" horiz-adv-x="1054" d="M100 121q10 10 23.5 22.5t23.5 22.5q39 -55 102.5 -91t141.5 -36t149.5 29.5t129.5 79.5q127 110 147 258q20 151 -75 257.5t-246 106.5q-64 0 -134 -45q123 139 242 275.5t242 273.5h-549l8 57h658q-115 -129 -228.5 -255t-228.5 -255q178 -4 284 -121q110 -121 84 -294 q-24 -173 -168 -300q-139 -122 -317 -122q-182 0 -289 137z" />
<glyph unicode="4" horiz-adv-x="1044" d="M33 375q223 244 443 486.5t444 486.5l-129 -918h198l-8 -55h-199l-53 -375h-57l53 375h-692zM158 430h575l105 750q-170 -188 -339 -375t-341 -375z" />
<glyph unicode="5" horiz-adv-x="1112" d="M152 100q38 32 49 39q87 -100 229 -100q154 0 278 109q126 111 146 258q20 146 -74 254q-91 104 -248 104q-147 0 -237 -86l92 653h588l-8 -55h-531l-69 -494q105 39 184.5 39t152 -32.5t122.5 -88.5q111 -124 85 -294q-24 -173 -167 -300q-140 -122 -318 -122 q-171 0 -274 116z" />
<glyph unicode="6" horiz-adv-x="1064" d="M66 383.5q22 160.5 103 289t194.5 240t247.5 206.5t261 179l31 -47q-268 -164 -424.5 -311t-222.5 -252q124 133 293 133q177 0 283 -123q109 -126 83 -297q-23 -168 -167 -295q-140 -122 -318 -122q-173 0 -280 120q-106 119 -84 279.5zM124 401q-11 -76 8.5 -141 t61.5 -114q90 -107 242 -107q153 0 276 107q126 108 146 255q20 149 -74 257q-93 106 -245 106q-150 0 -271 -106q-122 -107 -144 -257z" />
<glyph unicode="7" d="M94 0q190 319 376.5 636.5t377.5 637.5h-735l8 57h825l-784 -1331h-68z" />
<glyph unicode="8" horiz-adv-x="1044" d="M62 397q11 79 42 141t76 113q95 108 228 146q-72 31 -112 99.5t-29 143t42 128t77 92.5q102 88 224 88q123 0 202 -88q77 -87 58 -213q-12 -86 -68.5 -152t-135.5 -98q126 -37 194 -143q71 -111 49 -248q-24 -176 -167 -300q-141 -122 -316 -122t-280 122 q-50 58 -72.5 135t-11.5 156zM122 406q-11 -74 8.5 -140.5t59.5 -117.5q88 -109 240 -109t276 109q126 111 146 258q20 149 -73 254q-93 104 -247 104t-270 -104q-118 -107 -140 -254zM326 1042q-6 -49 7 -89t41 -69q62 -61 166.5 -61t181.5 61.5t91 155.5q12 105 -46 176 q-61 76 -161 76q-102 0 -185 -76q-83 -75 -95 -174z" />
<glyph unicode="9" horiz-adv-x="1075" d="M133 879q24 173 166 297q141 122 317 122q179 0 283 -122.5t82 -283t-103 -288t-196 -238t-249 -205.5t-259 -177q-21 34 -31 47q270 164 427 311t223 252q-124 -133 -295 -133q-179 0 -283 123q-106 124 -82 295zM190 879q-20 -151 72 -257q93 -106 246 -106 q152 0 274 106q122 108 142 257q20 152 -70 255q-93 107 -244 107q-155 0 -275 -107q-124 -109 -145 -255z" />
<glyph unicode=":" horiz-adv-x="358" d="M84 53q2 23 20.5 39.5t40.5 16.5q23 0 36.5 -16.5t8.5 -39.5q-4 -23 -21 -38t-40 -15t-36 15t-9 38zM156 565q4 23 21.5 39.5t39.5 16.5q23 0 36 -16.5t10 -39.5t-21.5 -38t-40.5 -15q-23 0 -36 15t-9 38z" />
<glyph unicode=";" horiz-adv-x="411" d="M-45 -246q105 210 215 422h72l-234 -422h-53zM223 565q4 23 21.5 39.5t39 16.5t36 -16.5t11.5 -39.5t-21.5 -38t-40.5 -15t-36 15t-10 38z" />
<glyph unicode="&#x3c;" horiz-adv-x="1392" d="M236 487q242 129 483.5 259.5t484.5 259.5l-10 -74q-209 -111 -417 -222.5t-419 -222.5l711 -444l-10 -74q-207 129 -412 259t-411 259z" />
<glyph unicode="=" horiz-adv-x="1449" d="M172 291l8 57h1037l-9 -57h-1036zM227 688l9 57h1036l-8 -57h-1037z" />
<glyph unicode="&#x3e;" horiz-adv-x="1331" d="M162 -31l10 74q211 111 419 222.5t419 221.5l-713 445l10 74q207 -129 412 -259.5t414 -259.5q-244 -129 -485.5 -259t-485.5 -259z" />
<glyph unicode="?" horiz-adv-x="925" d="M129 1219q58 119 165 196q116 84 259 84q170 0 269 -117q101 -120 77 -282q-30 -205 -250 -344q-41 -29 -77.5 -48.5t-66.5 -45.5q-64 -54 -81 -166l-23 -160h-57l29 199q13 103 107 171q42 31 93.5 59t114.5 77q131 101 154 258q20 146 -65 244q-86 100 -218.5 100 t-232 -65.5t-148.5 -176.5q-12 4 -24.5 8t-24.5 9zM288 95.5q3 23.5 21.5 39t37.5 15.5t34.5 -15.5t11.5 -39.5t-22.5 -39t-37.5 -15t-33.5 15.5t-11.5 39z" />
<glyph unicode="@" horiz-adv-x="2027" d="M180 387q25 170 110 319.5t212 261t285.5 176t328.5 64.5t310.5 -64.5t235.5 -176t139.5 -261t19.5 -321.5q-42 -217 -147 -311q-83 -74 -208 -74h-172l15 96q4 29 8 56.5t8 56.5q-78 -147 -259 -205q-58 -18 -132 -18t-142.5 31.5t-114.5 84.5q-101 118 -77 283t156 281 q132 118 301 118q184 0 275 -137q28 -41 40 -86q0 2 39 207h45l-100 -713h129q104 0 177 78t98.5 245t-14.5 306t-129 243.5t-220 165t-290 60.5t-306.5 -60.5t-265 -165t-197.5 -243.5t-102.5 -298t18.5 -298t130 -242.5t220 -164t289 -60.5q234 0 465 143l28 -43 q-232 -155 -501 -155q-170 0 -310.5 64.5t-235.5 176t-139 261t-20 319.5zM664 250q36 -126 158 -180q59 -27 130 -27q143 0 258 99q113 96 133 243q20 145 -64 244q-85 100 -230 100t-259 -100q-53 -47 -88 -109q-75 -135 -38 -270z" />
<glyph unicode="A" horiz-adv-x="1515" d="M16 0q211 377 423 749.5t423 749.5l424 -1499h-57l-180 631h-619q-239 -429 -354 -631h-60zM463 686h569q-32 117 -176 631l-12 55q-8 -22 -60 -120q-81 -148 -321 -566z" />
<glyph unicode="B" horiz-adv-x="1095" d="M59 0l203 1434h311q305 0 367 -196q12 -40 13 -89q0 -35 -7 -74q-16 -127 -94 -223t-213 -131q128 -26 201 -115q65 -78 64 -185q0 -25 -3 -52q-23 -174 -174 -276q-137 -93 -319 -93h-349zM123 55h289q166 0 284 78q129 86 148 236q3 26 3 49q0 103 -63 169 q-57 60 -170 88q-70 17 -149 17h-250zM221 748h287q232 0 338 193q33 60 43 138q4 28 4 54q1 45 -11 81q-18 58 -58 95q-75 69 -236 69h-277z" />
<glyph unicode="C" horiz-adv-x="1372" d="M125 715q20 152 97 286t190.5 233t255 157.5t269.5 58.5q222 0 384 -102q-27 -32 -39 -48q-141 94 -305 94q-1 0 -3 1q-162 -1 -291 -55q-130 -54 -234.5 -146t-174.5 -216t-90 -264q-7 -51 -7 -99q-1 -86 21 -164q34 -123 113.5 -214.5t193 -144.5t276 -53t333.5 94 l27 -47q-191 -102 -365 -102t-299 57t-210 156.5t-124 232.5q-25 86 -25 181q0 51 7 104z" />
<glyph unicode="D" horiz-adv-x="1335" d="M63 0l203 1434h291q147 0 271 -50.5t209 -143.5t124 -226q26 -88 25 -182q0 -48 -6 -98q-20 -146 -78 -274t-166 -230q-240 -230 -651 -230h-222zM129 57h188q354 0 577 207q192 179 228 453q7 56 7 108q0 225 -136 375q-161 178 -438 178h-240q-47 -332 -93 -660.5 t-93 -660.5z" />
<glyph unicode="E" horiz-adv-x="1230" d="M82 0l203 1434h839l-8 -56h-782l-90 -628h704l-8 -56h-702l-93 -639h813l-8 -55h-868z" />
<glyph unicode="F" horiz-adv-x="1202" d="M82 0l203 1434h839l-8 -56h-782l-90 -628h704l-8 -56h-702l-99 -694h-57z" />
<glyph unicode="G" horiz-adv-x="1388" d="M125 715q20 152 97 286t190.5 233t255 157.5t269.5 58.5q222 0 384 -102q-27 -32 -39 -48q-141 94 -305 94q-1 1 -3 1q-162 0 -291 -55q-130 -54 -234.5 -146t-175 -216t-89.5 -264q-8 -51 -8 -99q0 -85 22 -164q35 -123 114 -214.5t192.5 -144.5t269.5 -53t313 82 l56 389q1 7 1 12q0 37 -50 37h-267l7 55h266q61 0 86 -20q18 -14 18 -51q0 -12 -2 -27l-61 -430q-191 -102 -365 -102t-299 57t-210 156.5t-124 232.5q-25 86 -25 181q0 51 7 104z" />
<glyph unicode="H" horiz-adv-x="1433" d="M100 0l203 1434h57l-98 -684h916l96 684h63q-104 -732 -209 -1434h-57l98 694h-913l-98 -694h-58z" />
<glyph unicode="I" horiz-adv-x="487" d="M113 0l202 1434h58l-203 -1434h-57z" />
<glyph unicode="J" horiz-adv-x="618" d="M-84 -291l8 55q152 8 260 118q112 114 142 308l176 1244h57l-176 -1250q-30 -218 -167 -348q-129 -123 -300 -127z" />
<glyph unicode="K" horiz-adv-x="1228" d="M45 0l203 1434h57l-96 -670q-2 -16 -5 -29.5t-5 -29.5l41 40q205 174 408.5 344.5t410.5 344.5h78q-275 -229 -678 -570q141 -217 280.5 -432t280.5 -432h-74q-133 209 -266 413.5t-268 413.5q-55 -47 -110.5 -92t-111.5 -92q-23 -162 -44 -322.5t-44 -320.5h-57z" />
<glyph unicode="L" horiz-adv-x="1214" d="M82 0l203 1434h57l-197 -1379h813l-8 -55h-868z" />
<glyph unicode="M" horiz-adv-x="1918" d="M98 0l211 1499q154 -244 306.5 -486.5t306.5 -486.5q223 244 443 486.5t443 486.5l-211 -1499h-57l176 1249q4 23 7 43.5t8 42.5q-262 -295 -824 -911q-131 212 -456 733l-111 178q-4 -23 -4 -43t-4 -43l-176 -1249h-58z" />
<glyph unicode="N" horiz-adv-x="1665" d="M102 0l211 1499q244 -350 484.5 -691t365.5 -522q141 -204 150 -220l2 65l184 1303h57l-210 -1500q-682 962 -971 1373q-6 14 -14.5 26.5t-16.5 26.5l-2 -66l-182 -1294h-58z" />
<glyph unicode="O" horiz-adv-x="1720" d="M125 715q20 152 97 286t190.5 233t255 157.5t293.5 58.5t277.5 -58.5t211.5 -157.5q86 -100 124 -234q24 -87 25 -180q0 -52 -8 -105q-20 -152 -97 -285t-190.5 -232.5t-256 -156.5t-293.5 -57q-152 0 -277 57t-210 156.5t-123 232.5q-25 88 -26 183q0 50 7 102zM183 714 q-7 -50 -7 -97q0 -86 22 -166q34 -123 114 -215q171 -197 446 -197q139 0 271 53t237.5 145.5t177.5 214.5t91 262q7 49 7 96q0 87 -24 168q-36 124 -115.5 216t-195 146.5t-255.5 54.5q-139 0 -269 -54.5t-234.5 -146.5t-175.5 -216t-90 -264z" />
<glyph unicode="P" horiz-adv-x="931" d="M59 0l203 1434h297q148 0 261 -85q58 -44 92 -115q24 -50 25 -114q0 -27 -5 -55q-25 -174 -153 -276.5t-339 -102.5h-227l-96 -686h-58zM221 741h223q206 0 321 110q95 91 109 214q3 19 3 38q0 104 -82 181q-98 94 -258 94h-226z" />
<glyph unicode="Q" horiz-adv-x="1724" d="M125 715q20 152 97 286t190.5 233t255 157.5t293.5 58.5t277.5 -58.5t211.5 -157.5t124 -234q26 -90 26 -179q0 -43 -6 -86q-19 -131 -65 -233.5t-116 -187.5q-144 -174 -350 -259h481l-8 -55h-629q-78 -16 -153 -16q-152 0 -277 57t-210 156.5t-123 232.5 q-26 88 -26 183q0 50 7 102zM183 714q-7 -50 -7 -97q0 -87 22 -166q35 -123 114 -214.5t192.5 -144.5t253 -53t270.5 53t237.5 145.5t178.5 215t91 261.5q7 49 7 96q0 87 -24 168q-35 124 -115 216t-195.5 146.5t-255.5 54.5q-139 0 -269 -54.5t-234.5 -146.5t-175.5 -216 t-90 -264z" />
<glyph unicode="R" horiz-adv-x="1026" d="M59 0l203 1434h297q148 0 261 -85q58 -44 92 -115q24 -50 25 -114q0 -27 -5 -55q-20 -145 -113.5 -241.5t-249.5 -127.5q59 -174 115.5 -348t116.5 -348h-62q-151 446 -229 692q-43 -6 -86 -6h-211l-96 -686h-58zM221 741h223q206 0 321 110q95 91 109 214q3 19 3 38 q0 104 -82 181q-98 94 -258 94h-226z" />
<glyph unicode="S" horiz-adv-x="1122" d="M74 172l43 39q69 -80 121 -110q105 -63 217 -63q72 0 147 26q151 51 232 174q40 61 52 146q4 24 4 46q0 56 -22 102q-32 62 -89.5 103t-128 65.5t-125 42.5t-105.5 41t-93 58q-86 72 -86 189q0 13 1 28q14 153 116 260q117 123 301 123q170 0 297 -123l-36 -43 q-110 110 -273 110q-141 0 -241 -96q-88 -85 -105 -211q-3 -23 -3 -43q0 -85 50 -135q54 -54 180 -98q61 -23 139 -48.5t145 -71.5q135 -93 135 -252q0 -24 -3 -50q-24 -177 -168 -290q-137 -107 -321 -107q-138 0 -254 72q-79 50 -127 116z" />
<glyph unicode="T" horiz-adv-x="1132" d="M92 1378l8 56h1133l-8 -56h-539l-194 -1378h-58l197 1378h-539z" />
<glyph unicode="U" horiz-adv-x="1335" d="M164 463l135 971h57l-135 -965q-6 -44 -5 -83q0 -145 77 -236q96 -111 282 -111q185 0 313 111q134 118 163 319l135 965h57l-135 -971q-31 -227 -188 -357q-145 -122 -354 -122q-101 0 -183 30.5t-136 91.5q-90 101 -90 261q0 46 7 96z" />
<glyph unicode="V" horiz-adv-x="1478" d="M215 1434h59q132 -474 373 -1317q6 -40 10 -56q19 43 768 1373h60q-211 -377 -423 -750t-423 -750z" />
<glyph unicode="W" horiz-adv-x="2269" d="M215 1434h59q92 -330 183.5 -659t189.5 -658q6 -40 10 -56q104 215 228.5 423t240.5 419q-39 135 -74.5 265t-74.5 266h59q92 -330 183.5 -659t142.5 -500.5t52 -185t5 -28.5q6 14 13.5 27.5t13.5 28.5q186 330 371.5 658.5t371.5 658.5h58q-211 -377 -423 -750 t-423 -750l-242 854q-4 12 -6 25.5t-6 26.5q-129 -242 -508 -906z" />
<glyph unicode="X" horiz-adv-x="1433" d="M88 0q296 379 576 735q-88 176 -176.5 350.5t-176.5 348.5h68q118 -233 220.5 -433t106 -208.5t7.5 -16.5q6 8 11 16.5t70 90.5q248 316 431 551h67l-553 -707q92 -184 185.5 -363.5t185.5 -363.5h-70l-288 563q-16 29 -30.5 62.5t-31.5 62.5q-13 -24 -209 -273 t-325 -415h-68z" />
<glyph unicode="Y" horiz-adv-x="1306" d="M184 1434h70q90 -199 181 -395.5t179 -395.5l19 -55h2q8 14 14 27.5t15 27.5q147 199 291.5 395.5t291.5 395.5h70l-660 -895l-75 -539h-66l76 541q-102 223 -203.5 446t-204.5 447z" />
<glyph unicode="Z" horiz-adv-x="1433" d="M166 0l6 55q301 332 598 662t600 661h-848q-63 0 -93 20q-23 16 -23 55q0 12 2 26l4 26h59l-4 -24q-4 -23 8 -35t47 -12h930l-8 -56q-301 -332 -598 -661.5t-600 -661.5h1071l-6 -55h-1145z" />
<glyph unicode="[" horiz-adv-x="692" d="M41 -305l256 1833h346l-8 -55h-285l-241 -1723h286l-8 -55h-346z" />
<glyph unicode="\" horiz-adv-x="681" d="M137 1507h62q88 -389 175 -773t175 -773h-62q-88 389 -175 773t-175 773z" />
<glyph unicode="]" horiz-adv-x="700" d="M39 -305l8 55h285l241 1723h-286l8 55h346l-256 -1833h-346z" />
<glyph unicode="^" horiz-adv-x="962" d="M203 981q74 92 148.5 185.5t148.5 185.5q49 -92 97 -185.5t97 -185.5h-51q-100 186 -156 283l-233 -283h-51z" />
<glyph unicode="_" horiz-adv-x="1228" d="M201 0l6 55h819l-6 -55h-819z" />
<glyph unicode="`" horiz-adv-x="409" d="M-23 1253h58q37 -68 72.5 -136t72.5 -136h-49q-45 75 -154 272z" />
<glyph unicode="a" horiz-adv-x="1024" d="M154 385q24 174 158 289q127 110 296 110q183 0 278 -137q29 -41 42 -86q8 66 37 207h43l-107 -768h-51l12 102q9 60 17 107q-83 -149 -259 -205q-59 -18 -132.5 -18t-142.5 31.5t-115 84.5q-81 94 -81 221q0 30 5 62zM218 250q36 -127 156 -180q60 -27 132 -27 q144 0 258 99q115 100 135 243q4 26 4 51q0 109 -71 193q-84 100 -230 100q-145 0 -258 -100q-53 -47 -88 -109q-50 -90 -51 -181q1 -44 13 -89z" />
<glyph unicode="b" horiz-adv-x="1081" d="M168 0l215 1536h57l-123 -872q-4 -27 -9 -51.5t-9 -51.5q86 155 259 206q58 17 131 17t141.5 -31.5t114.5 -84.5q45 -54 67 -128q14 -47 14 -98q0 -29 -4 -58q-12 -83 -53 -156.5t-103 -127.5q-131 -114 -299 -114q-129 2 -213 66.5t-106 156.5q-4 -29 -7 -54.5t-8 -52.5 l-12 -102h-53zM279 385q-4 -27 -4 -53q0 -110 70 -190q86 -99 230 -99q145 0 257 99q53 46 88 108q50 90 50 181q0 45 -12 89q-37 129 -158 182q-59 27 -130 27q-145 0 -258 -100q-113 -99 -133 -244z" />
<glyph unicode="c" horiz-adv-x="788" d="M127 385q24 179 155 290q129 109 300 109q144 0 241 -88q-21 -22 -43 -43q-89 76 -207 76q-142 0 -255 -100q-112 -98 -134 -244q-4 -28 -4 -54q0 -110 69 -189q86 -99 219 -99t237 74l30 -43q-127 -88 -264 -88q-167 0 -267 116q-82 95 -82 221q0 30 5 62z" />
<glyph unicode="d" horiz-adv-x="1071" d="M164 386q12 85 53 157.5t103 126.5q128 114 298 114q122 0 210 -65q87 -64 108 -158q4 27 6 51.5t6 51.5l121 872h57l-215 -1536h-53l14 102q4 27 8.5 52.5t8.5 54.5q-83 -149 -259 -205q-59 -18 -132.5 -18t-142 31.5t-114.5 84.5q-45 54 -67 126q-14 47 -14 99 q0 29 4 59zM228 250q36 -126 157 -180q59 -27 131 -27q144 0 258 99q113 98 133 243q4 27 4 52q0 110 -70 192q-85 100 -231 100q-142 0 -256 -100q-53 -47 -88 -109q-50 -90 -50 -181q0 -44 12 -89z" />
<glyph unicode="e" horiz-adv-x="923" d="M127 385q24 181 151 290q126 109 304 109q123 0 205.5 -75.5t105.5 -194.5l-698 -266q25 -92 100.5 -148.5t197 -56.5t234.5 92q11 -19 29 -41q-129 -108 -285 -108q-167 0 -267 116q-82 95 -82 221q0 30 5 62zM182 301q502 189 643 244q-29 82 -94.5 133t-148.5 51 t-147 -23.5t-115 -66.5q-107 -91 -132 -236q-6 -44 -7 -83q1 -10 1 -19z" />
<glyph unicode="f" horiz-adv-x="579" d="M143 711l9 55h133l41 295q31 220 166 348q126 119 303 127l-9 -55q-139 0 -258 -113q-117 -112 -145 -303l-41 -299h260l-8 -55h-260l-98 -711h-58l98 711h-133z" />
<glyph unicode="g" horiz-adv-x="1060" d="M150 -389q10 10 23 19.5t26 19.5q41 -55 110.5 -80t139.5 -25t133 29t116 81q112 112 138 290l22 151q4 29 10 55.5t11 55.5q-82 -148 -261 -201q-59 -18 -131.5 -18t-141.5 30.5t-115 85.5q-81 95 -81 218q0 31 5 63q24 179 156 290q128 109 298 109q183 0 278 -137 q29 -41 42 -86q3 29 37 207h43l-113 -805q-28 -220 -161 -351q-123 -120 -290 -124q-211 10 -294 123zM218 250q36 -127 156 -180q60 -27 132 -27q144 0 258 99q115 100 135 243q4 26 4 51q0 109 -71 193q-84 100 -230 100q-145 0 -258 -100q-53 -47 -88 -109 q-50 -90 -50 -181q0 -44 12 -89z" />
<glyph unicode="h" horiz-adv-x="1005" d="M225 0l215 1536h58l-123 -877l-21 -92q55 98 152.5 156.5t211.5 58.5t170 -64q46 -52 46 -130q0 -17 -2 -35l-76 -553h-57l75 549q1 12 1 23q1 57 -33 100q-40 51 -118 53h-13q-69 1 -127 -19q-62 -22 -113 -61q-113 -87 -129 -211l-59 -434h-58z" />
<glyph unicode="i" horiz-adv-x="374" d="M164 0l106 768h58l-107 -768h-57zM285 1032q2 23 20.5 39t40.5 16q23 0 36 -16q10 -12 10 -29q0 -5 -1 -10q-4 -23 -21.5 -38t-39.5 -15q-23 0 -36 15q-10 11 -10 28q0 5 1 10z" />
<glyph unicode="j" horiz-adv-x="460" d="M53 -330q129 116 156 314l110 784h58l-109 -780q-31 -229 -178 -357zM334 1032q2 23 20.5 39t40.5 16q23 0 36 -16q10 -12 10 -29q0 -5 -1 -10q-4 -23 -21.5 -38t-39.5 -15q-23 0 -36 15q-10 11 -10 28q0 5 1 10z" />
<glyph unicode="k" horiz-adv-x="919" d="M172 0l215 1536h55l-163 -1161l499 411l31 -36l-330 -277q70 -119 138.5 -236.5t140.5 -236.5h-68q-66 111 -130 217.5t-130 216.5q-41 -33 -81 -66.5t-81 -66.5l-41 -301h-55z" />
<glyph unicode="l" horiz-adv-x="378" d="M164 0l215 1536h57l-215 -1536h-57z" />
<glyph unicode="m" horiz-adv-x="1630" d="M225 0l107 768h53l-12 -90q-8 -58 -19 -111q55 98 152.5 156.5t207.5 58.5t166 -56q54 -54 54 -142v-6q55 92 152.5 148t209.5 56q110 0 166 -64q45 -51 45 -128q0 -18 -2 -37l-75 -553h-58l76 549q1 12 1 23q0 57 -34 100q-41 51 -117 53h-13q-68 1 -124 -19 q-61 -22 -111 -59q-108 -79 -132 -203l-62 -444h-57l75 549q1 12 1 23q1 57 -33 100q-40 51 -118 53h-13q-69 1 -127 -19q-62 -22 -113 -61q-113 -87 -129 -211l-59 -434h-58z" />
<glyph unicode="n" horiz-adv-x="1013" d="M225 0l107 768h53l-12 -90q-8 -58 -19 -111q55 98 153.5 156.5t211.5 58.5t169 -64q46 -52 46 -130q0 -17 -2 -35l-76 -553h-57l75 549q1 12 1 23q1 57 -33 100q-40 51 -118 53h-13q-69 1 -127 -19q-62 -22 -113 -61q-113 -87 -129 -211l-59 -434h-58z" />
<glyph unicode="o" d="M127 389q12 88 52 162t101 126q126 109 302 109q166 0 269 -118q84 -95 84 -222q0 -30 -5 -61q-23 -183 -156 -293q-127 -106 -303 -106q-167 0 -267 116q-81 95 -81 225q0 30 4 62zM184 387q-4 -26 -3 -51q-1 -46 11 -86q18 -62 59 -108q86 -99 228 -99q145 0 256 94 q116 98 135 248q4 27 4 52q0 110 -70 192q-85 100 -231 100q-153 0 -259 -95q-110 -98 -130 -247z" />
<glyph unicode="p" horiz-adv-x="1075" d="M63 -512l181 1280h51q-6 -53 -14.5 -106.5t-14.5 -106.5q85 153 262 209q58 18 130.5 18t141 -31.5t115 -85t67.5 -127.5q13 -46 13 -98q0 -30 -4 -61q-12 -86 -53 -160t-102 -126q-129 -109 -301 -109q-183 0 -278 136q-28 40 -38 85q-4 -25 -5 -49.5t-5 -46.5l-86 -621 h-60zM248 383q-4 -28 -4 -54q0 -110 68 -190q85 -100 231 -100q145 0 258 100q53 47 88 109q50 90 50 179q0 46 -13 91q-35 126 -156 180q-59 27 -131 27q-144 0 -258 -99q-113 -98 -133 -243z" />
<glyph unicode="q" horiz-adv-x="1048" d="M160 383q24 179 156 290q128 109 300 109q117 0 210 -68q84 -60 110 -159q14 127 29 213h51l-180 -1280h-60l88 621q5 31 21 96q-49 -94 -150.5 -157.5t-208 -63.5t-175 31.5t-115.5 84.5q-81 94 -81 220q0 31 5 63zM224 248q37 -128 157 -182q59 -27 131 -27 q145 0 258 100q115 102 135 244q4 27 4 53q0 110 -70 190q-86 99 -231 99q-144 0 -258 -99q-53 -46 -88 -108q-50 -90 -50 -181q0 -44 12 -89z" />
<glyph unicode="r" horiz-adv-x="677" d="M225 0l107 768h53l-12 -90q-8 -58 -19 -111q59 100 157.5 156.5t203.5 58.5l-10 -55q-135 -4 -238 -86q-110 -87 -125 -207l-59 -434h-58z" />
<glyph unicode="s" horiz-adv-x="817" d="M178 80q10 10 21.5 19.5t23.5 19.5q25 -35 82 -57.5t96.5 -22.5t72 10t62.5 31q70 50 80 116q3 19 3 35q0 40 -17 63q-24 32 -65 51.5t-90.5 32.5t-90.5 34q-84 41 -84 130q0 13 2 27q15 95 92 156q68 53 152 53q43 0 100.5 -19.5t94.5 -68.5q-21 -20 -41 -41 q-25 35 -71 54.5t-81 19.5t-63.5 -8t-54.5 -25q-56 -36 -66 -100q-3 -18 -3 -34q1 -39 19 -60q26 -29 66.5 -47.5t89.5 -33t89 -37.5q39 -24 63 -62q19 -30 19 -69q0 -11 -1 -21q-6 -52 -25.5 -92t-53.5 -74q-78 -76 -198 -76q-155 0 -223 96z" />
<glyph unicode="t" horiz-adv-x="577" d="M182 702l8 56h181l71 510h56l-70 -510h248l-8 -56h-248l-98 -702h-56l96 702h-180z" />
<glyph unicode="u" horiz-adv-x="1083" d="M254 215l78 553h57l-78 -549q-1 -9 -1 -18q0 -60 36 -105q41 -51 117 -53h13q68 -1 126 19q64 22 114 61q113 88 128 211l61 434h58l-107 -772h-57l14 113l18 92q-55 -98 -153 -156.5t-211 -58.5t-168 64q-47 54 -47 135q0 14 2 30z" />
<glyph unicode="v" horiz-adv-x="1024" d="M217 768h59q63 -174 130 -351t126 -356q134 218 453 707h57q-181 -283 -526 -815q-76 205 -149.5 407.5t-149.5 407.5z" />
<glyph unicode="w" horiz-adv-x="1581" d="M221 768h60q61 -176 125.5 -353t123.5 -354q78 129 159 255t161 253q-18 49 -35.5 99.5t-36.5 99.5h60q61 -176 125.5 -353t123.5 -354l447 707h59q-131 -205 -261 -407.5t-261 -407.5q-49 141 -99 279.5t-100 279.5q-90 -141 -179 -279.5t-179 -279.5q-165 469 -293 815 z" />
<glyph unicode="x" horiz-adv-x="825" d="M84 0q309 361 334 389q-55 96 -112.5 189.5t-112.5 189.5h71q51 -86 102.5 -172t100.5 -172q27 31 295 342h69l-335 -391q57 -94 112.5 -187.5t112.5 -187.5h-70q-91 154 -205 342q-189 -219 -290 -342h-72z" />
<glyph unicode="y" horiz-adv-x="1001" d="M145 -512l326 506q-70 195 -139.5 387t-138.5 387h63q27 -74 59.5 -167t67.5 -190.5t67.5 -190.5t59.5 -167l457 715h63q-395 -621 -819 -1280h-66z" />
<glyph unicode="z" horiz-adv-x="923" d="M86 0l6 55q186 166 358.5 329t356.5 329h-451q-63 1 -93 21q-23 16 -23 54q0 12 2 25l4 27h59l-4 -25q-2 -23 9 -35t46 -12h537l-8 -55q-184 -166 -356.5 -329t-358.5 -329h659l-6 -55h-737z" />
<glyph unicode="{" horiz-adv-x="577" d="M55 575l11 72q90 4 146 99q37 62 54 178l51 362q29 228 151 239q34 3 71 3h88l-9 -55h-112q-63 0 -91 -50.5t-44 -177.5l-43 -297q-30 -227 -128 -300q-28 -21 -55 -36q56 -32 76 -82q35 -94 12 -254l-43 -299q-16 -125 -1.5 -175t77.5 -50h111l-6 -55h-88q-41 0 -76 3 t-57 30q-44 57 -15 268l43 301q6 41 6 89t-12 89q-28 94 -117 98z" />
<glyph unicode="|" horiz-adv-x="468" d="M63 -475l269 1909h57l-268 -1909h-58z" />
<glyph unicode="}" horiz-adv-x="655" d="M29 -303l6 55h112q63 0 91 50.5t45 174.5l53 361q14 117 74 194q33 43 98 80q-57 32 -75 80q-34 87 -11 256l41 297q16 127 2 177.5t-78 50.5h-111l7 55h88q37 0 70.5 -2t56.5 -24q51 -49 28 -216l-43 -303q-54 -330 115 -336l-10 -72q-107 -7 -162 -135 q-33 -77 -47 -200l-43 -301q-30 -233 -150 -240q-34 -2 -71 -2h-86z" />
<glyph unicode="~" horiz-adv-x="1001" d="M256 967q15 71 76 111q50 34 104 34t84.5 -20.5t59.5 -55.5q49 -59 104 -59q75 0 120 55q17 21 25 53q10 -2 19.5 -2t19.5 -2q-16 -78 -74.5 -111.5t-122 -33.5t-126.5 76q-46 59 -105 59q-73 0 -118 -55q-17 -21 -25 -53q-10 2 -20.5 2t-20.5 2z" />
<glyph unicode="&#xa1;" horiz-adv-x="409" d="M70 -430l168 1196h55l-168 -1196h-55zM247 992.5q3 23.5 21.5 39t39 15.5t33.5 -15.5t10 -39.5t-21.5 -39t-38.5 -15t-33.5 15.5t-10.5 39z" />
<glyph unicode="&#xa2;" horiz-adv-x="788" d="M74 385q20 149 138 267q113 111 269 128l17 117h57l-16 -113q143 -4 231 -88l-43 -43q-80 72 -197 74l-94 -684q115 4 215 74l31 -43q-115 -82 -254 -86l-18 -127h-58l19 131q-149 16 -235 128q-87 113 -62 265zM130 385q-9 -66 5.5 -123t48.5 -102q72 -97 195 -113 l94 674q-123 -11 -226 -110q-99 -95 -117 -226z" />
<glyph unicode="&#xa3;" horiz-adv-x="1175" d="M-35 0l6 55h88q68 0 99 59q23 47 49 228l39 279h-133l8 57h133l49 346q20 143 124.5 208.5t264.5 65.5q235 0 299 -186q-39 -20 -47 -25q-34 87 -87 119q-59 37 -158 37t-157.5 -17.5t-95.5 -47.5q-71 -55 -86 -156l-49 -344h260l-8 -57h-260l-43 -310l-10 -65 q-20 -145 -72 -191h475q125 0 177.5 21.5t62.5 85.5l16 112h58l-15 -98q-4 -35 -12 -66.5t-34 -55.5q-58 -54 -220 -54h-721z" />
<glyph unicode="&#xa4;" horiz-adv-x="1024" d="M176 479l88 78q-53 78 -41 182q17 103 86 174l-61 72l47 41l61 -72q90 68 193.5 68t165.5 -70l84 72l32 -39l-79 -72q54 -76 36 -174q-14 -102 -92 -180l68 -78l-47 -41l-68 78q-84 -61 -183 -61t-165 59l-90 -78zM287 651q24 -83 101 -121q38 -18 85 -18q93 0 170 68 q76 66 88 159q12 96 -43 160q-58 68 -149 68t-168 -68q-35 -31 -59 -72q-52 -85 -25 -176z" />
<glyph unicode="&#xa5;" horiz-adv-x="1306" d="M184 1434h70q90 -199 180 -395.5t180 -395.5l19 -55h2q8 14 14 27.5t15 27.5q147 199 291.5 395.5t291.5 395.5h70q-156 -211 -310.5 -420t-310.5 -420h275l-8 -55h-306l-39 -279h306l-9 -55h-305l-28 -205h-66l29 205h-312l9 55h311l39 279h-311l8 55h278 q-98 211 -192 420t-191 420z" />
<glyph unicode="&#xa6;" horiz-adv-x="440" d="M59 -477l101 717h57l-100 -717h-58zM227 717l101 717h57l-100 -717h-58z" />
<glyph unicode="&#xa7;" horiz-adv-x="1024" d="M283 704.5q0 47.5 17 92.5q37 97 126 149q53 29 110.5 29t104.5 -23q-34 70 -92 209q-61 140 -23 211q29 54 90.5 85.5t100.5 49.5q11 -27 20 -47q-29 -16 -53.5 -28.5t-52.5 -28.5q-57 -31 -59.5 -83t40.5 -155h2q35 -78 68 -154.5t60.5 -137t26.5 -106.5t-17 -91 q-34 -92 -127 -148q-53 -31 -110.5 -31.5t-104.5 23.5l92 -209q44 -101 40 -146q-7 -65 -40 -101t-80 -59t-86 -42q-10 30 -21 49q29 14 53.5 27.5t53.5 28.5q57 31 59 85t-44 156q-66 147 -134 305q-20 43 -20 90.5zM344 743q-6 -45 9 -93t62.5 -75.5t96.5 -24.5t84 22.5 t60 47.5q57 64 57 136q0 80 -55 128q-51 46 -116 42t-105 -32t-63.5 -67t-29.5 -84z" />
<glyph unicode="&#xa8;" horiz-adv-x="757" d="M154 1032q4 23 21.5 39t39.5 16q23 0 37 -16t10 -39t-21.5 -38t-39.5 -15q-23 0 -37 15t-10 38zM492 1032q4 23 21 39t40 16t37 -16t10 -39t-21.5 -38t-39.5 -15q-23 0 -37 15t-10 38z" />
<glyph unicode="&#xa9;" horiz-adv-x="1624" d="M291 762q32 224 206 376q171 148 394 148t353 -148q133 -153 99 -376q-32 -224 -204 -375q-168 -147 -394 -147q-224 0 -353 147q-134 152 -101 375zM332 760q-28 -207 94 -345.5t324 -138.5t363 138q160 138 190 346q28 209 -93 350q-119 139 -325 139q-205 0 -361 -139 q-165 -146 -192 -350zM500 768q15 134 129 236q108 96 248 96q90 0 161 -45l-16 -23q-61 43 -137 43t-134.5 -24.5t-105.5 -66.5q-105 -94 -121 -218q-16 -125 60 -215q74 -88 200 -88q86 0 162 41l12 -21q-84 -47 -164 -47t-137 26.5t-95 71.5q-84 101 -62 234z" />
<glyph unicode="&#xaa;" horiz-adv-x="1198" d="M197 730q17 125 114 208q92 79 214 79q132 0 200 -98q21 -30 30 -62q6 47 27 149h31l-77 -554h-37l9 74q6 43 12 77q-60 -108 -187 -148q-42 -13 -95 -13t-103 22.5t-83 61.5q-72 84 -55 204zM243 632q26 -91 113 -130q43 -19 95 -19q104 0 186 71q83 73 98 176 q14 101 -49 176q-60 72 -166 72q-104 0 -186 -72q-38 -34 -63 -79q-54 -97 -28 -195z" />
<glyph unicode="&#xab;" horiz-adv-x="1230" d="M240 489q98 84 197.5 165t197.5 165l-8 -67q-74 -66 -149 -131.5t-148 -131.5q22 -27 221 -266l-8 -65zM590 489q98 84 197.5 165t197.5 165l-8 -65q-74 -66 -148.5 -132.5t-148.5 -132.5q22 -27 221 -266l-8 -65z" />
<glyph unicode="&#xac;" horiz-adv-x="1144" d="M211 449l6 47h737l-26 -193h-58l21 146h-680z" />
<glyph unicode="&#xad;" horiz-adv-x="614" d="M104 362l7 56h376l-6 -56h-377z" />
<glyph unicode="&#xae;" horiz-adv-x="1640" d="M291 762q32 224 206 376q171 148 394 148t353 -148q133 -153 99 -376q-32 -224 -204 -375q-168 -147 -394 -147q-224 0 -353 147q-134 152 -101 375zM332 760q-28 -207 94 -345.5t324 -138.5t363 138q160 138 190 346q28 209 -93 350q-119 139 -325 139q-205 0 -361 -139 q-165 -146 -192 -350zM631 430l94 678h141q74 0 113 -30q76 -60 64 -137q-22 -152 -173 -181q29 -84 55.5 -166t55.5 -164h-31q-75 227 -106 328q-20 -4 -41 -4h-101l-45 -324h-26zM707 780h104q140 0 189 102q43 93 -21 155q-45 44 -123 44h-106z" />
<glyph unicode="&#xaf;" horiz-adv-x="817" d="M170 1001l6 46h471l-6 -46h-471z" />
<glyph unicode="&#xb0;" horiz-adv-x="577" d="M113 1146q10 71 65 119t126 48t112 -48t30.5 -119t-63.5 -118t-125 -47t-113.5 47t-31.5 118zM159 1146q-7 -52 23.5 -86t81.5 -34t92 34t47 86t-24.5 87t-81.5 35t-91 -35t-47 -87z" />
<glyph unicode="&#xb1;" horiz-adv-x="1073" d="M111 264l8 55h737l-8 -55h-737zM184 774l6 55h340l50 340h57l-49 -340h340l-6 -55h-340l-50 -342h-57l49 342h-340z" />
<glyph unicode="&#xb2;" horiz-adv-x="815" d="M83 379q190 161 257 230t102.5 122.5t42.5 104t-2.5 85.5t-30.5 57q-37 39 -90.5 39t-87 -17t-54.5 -42q-36 -42 -46 -108q-9 -69 25 -113q-1 0 -21 -16q-43 50 -33 129q12 85 68 138q60 57 147 57q81 0 124 -58q43 -56 31 -142q-14 -100 -129 -223q-51 -55 -111 -109 t-118 -107h341l-4 -27h-411z" />
<glyph unicode="&#xb3;" horiz-adv-x="858" d="M96 443q5 5 11.5 11t11.5 11q19 -27 50.5 -45t69.5 -18t73 14.5t64 39.5q62 54 72 127q10 74 -37 126.5t-121 52.5q-31 0 -65 -22q60 68 118.5 135.5t118.5 134.5h-269l4 28h322q-56 -63 -111.5 -125t-112.5 -126q87 -2 139 -59q54 -60 42 -145t-83 -148 q-68 -60 -155 -60q-89 0 -142 68z" />
<glyph unicode="&#xb4;" horiz-adv-x="468" d="M184 981q100 124 224 272h61q-147 -170 -233 -272h-52z" />
<glyph unicode="&#xb5;" horiz-adv-x="1116" d="M141 -412l166 1180h58l-78 -549q-8 -72 33.5 -123t118 -53t139.5 19.5t113 60.5q113 88 128 211l62 434h57l-109 -772h-57l16 113l19 92q-55 -98 -153.5 -156.5t-221 -58.5t-166.5 94l-67 -492h-58z" />
<glyph unicode="&#xb6;" horiz-adv-x="1026" d="M137 1200q20 140 131 238t250 98h391l-215 -1536h-57l207 1481h-277l-207 -1481h-57l121 866q-139 0 -223 97t-64 237z" />
<glyph unicode="&#xb7;" horiz-adv-x="335" d="M121 573q4 23 21.5 39.5t39.5 16.5q23 0 37 -16.5t10 -39.5t-21.5 -38t-39.5 -15q-23 0 -37 15t-10 38z" />
<glyph unicode="&#xb8;" horiz-adv-x="925" d="M231 -342q12 4 23.5 8t24.5 8q6 -41 36.5 -67.5t84.5 -26.5t96.5 41t50.5 97t-13.5 86t-49 51.5t-50 43t-16.5 60.5l6 41h43q-13 -76 41 -108q14 -9 41 -28.5t40 -58t9 -71.5q-14 -102 -73.5 -151.5t-126.5 -49.5q-142 0 -167 125z" />
<glyph unicode="&#xb9;" horiz-adv-x="520" d="M120 965l3 25h124l-85 -612h-27l82 587h-97z" />
<glyph unicode="&#xba;" d="M188 733q8 63 37 116.5t73 90.5q91 79 218 79q119 0 193.5 -85t57.5 -204q-17 -132 -113 -212q-91 -76 -218 -76q-121 0 -193 84t-55 207zM229 731q-8 -53 5.5 -98t42.5 -79q62 -71 164 -71q105 0 185 68q84 70 97 179q15 103 -47 176q-61 72 -167 72q-110 0 -187 -69 q-79 -70 -93 -178z" />
<glyph unicode="&#xbb;" horiz-adv-x="1230" d="M193 158l8 65q74 66 148.5 132.5t150.5 133.5l-224 265l9 65l305 -330zM543 158l8 65q74 66 148.5 132.5t150.5 133.5q-109 126 -223 263l8 67l305 -330z" />
<glyph unicode="&#xbc;" horiz-adv-x="1982" d="M270 1245l6 39h191l-132 -944h-41l127 905h-151zM479 -39l787 1544h57l-786 -1544h-58zM746 279q165 182 328.5 362.5t330.5 362.5l-96 -684h147l-6 -41h-148l-39 -279h-43l40 279h-514zM838 320h428l78 559q-127 -140 -252.5 -279.5t-253.5 -279.5z" />
<glyph unicode="&#xbd;" horiz-adv-x="2189" d="M250 1246l6 39h192l-132 -945h-42l128 906h-152zM479 -39l787 1544h57l-786 -1544h-58zM796 0q272 230 367.5 329.5t146.5 176t61 148.5t-4 122.5t-43 80.5q-54 57 -130 57t-123.5 -24.5t-78.5 -60.5q-51 -60 -66 -154q-13 -100 36 -162q-1 -1 -29 -24q-62 72 -48 186 q18 121 97 197q85 81 210 81q116 0 178 -82q61 -80 44 -203q-20 -143 -185 -320q-72 -79 -158 -156.5t-168 -152.5h486l-6 -39h-587z" />
<glyph unicode="&#xbe;" horiz-adv-x="2613" d="M210 419q8 8 18.5 17.5t17.5 17.5q30 -42 79 -70t109.5 -28t115.5 23t100 61q98 85 113 200q15 116 -58 198.5t-190 82.5q-49 0 -103 -35q95 107 186.5 212.5t186.5 211.5h-423l6 44h508q-89 -100 -176.5 -197t-176.5 -197q137 -3 219 -93q85 -94 65 -227 q-19 -134 -130 -232q-107 -94 -244 -94q-140 0 -223 105zM827 -39l787 1546h57l-786 -1546h-58zM1050 279q166 182 329.5 362.5t330.5 362.5l-96 -684h147l-5 -41h-149l-39 -279h-43l40 279h-515zM1143 320h428l78 559q-127 -140 -252.5 -279.5t-253.5 -279.5z" />
<glyph unicode="&#xbf;" horiz-adv-x="856" d="M29 4q30 205 250 344q41 29 77.5 48.5t66.5 45.5q64 54 81 166l23 160h57l-29 -199q-13 -103 -107 -171q-42 -31 -93.5 -59t-114.5 -77q-131 -101 -154 -258q-20 -146 65 -244q86 -100 218.5 -100t232 65.5t148.5 176.5q12 -4 24.5 -8t24.5 -9q-58 -119 -165 -196 q-116 -84 -259 -84q-170 0 -269 117q-101 120 -77 282zM535 1009q4 24 22.5 39t37.5 15t33.5 -15.5t11.5 -39t-21.5 -39t-37.5 -15.5t-34.5 15.5t-11.5 39.5z" />
<glyph unicode="&#xc0;" horiz-adv-x="1515" d="M16 0q211 377 423 749.5t423 749.5l424 -1499h-57l-180 631h-619q-239 -429 -354 -631h-60zM463 686h569q-32 117 -176 631l-12 55q-8 -22 -60 -120q-81 -148 -321 -566zM688 1808h58q37 -68 72.5 -136t72.5 -136h-49q-45 75 -154 272z" />
<glyph unicode="&#xc1;" horiz-adv-x="1515" d="M16 0q211 377 423 749.5t423 749.5l424 -1499h-57l-180 631h-619q-239 -429 -354 -631h-60zM463 686h569q-32 117 -176 631l-12 55q-8 -22 -60 -120q-81 -148 -321 -566zM837 1536q100 124 224 272h61q-147 -170 -233 -272h-52z" />
<glyph unicode="&#xc2;" horiz-adv-x="1515" d="M16 0q211 377 423 749.5t423 749.5l424 -1499h-57l-180 631h-619q-239 -429 -354 -631h-60zM463 686h569q-32 117 -176 631l-12 55q-8 -22 -60 -120q-81 -148 -321 -566zM621 1536q74 92 148.5 185.5t148.5 185.5q49 -92 97 -185.5t97 -185.5h-51q-100 186 -156 283 l-233 -283h-51z" />
<glyph unicode="&#xc3;" horiz-adv-x="1515" d="M16 0q211 377 423 749.5t423 749.5l424 -1499h-57l-180 631h-619q-239 -429 -354 -631h-60zM463 686h569q-32 117 -176 631l-12 55q-8 -22 -60 -120q-81 -148 -321 -566zM573 1563q15 71 76 111q50 34 104 34t84.5 -20.5t59.5 -55.5q49 -59 104 -59q75 0 120 55 q17 21 25 53q10 -2 19.5 -2t19.5 -2q-16 -78 -74.5 -111.5t-122 -33.5t-126.5 76q-46 59 -105 59q-73 0 -118 -55q-17 -21 -25 -53q-10 2 -20.5 2t-20.5 2z" />
<glyph unicode="&#xc4;" horiz-adv-x="1515" d="M16 0q211 377 423 749.5t423 749.5l424 -1499h-57l-180 631h-619q-239 -429 -354 -631h-60zM463 686h569q-32 117 -176 631l-12 55q-8 -22 -60 -120q-81 -148 -321 -566zM660 1626q4 23 21.5 39t39.5 16q23 0 37 -16t10 -39t-21.5 -38t-39.5 -15q-23 0 -37 15t-10 38z M998 1626q4 23 21 39t40 16t37 -16t10 -39t-21.5 -38t-39.5 -15q-23 0 -37 15t-10 38z" />
<glyph unicode="&#xc5;" horiz-adv-x="1515" d="M16 0q211 377 423 749.5t423 749.5l424 -1499h-57l-180 631h-619q-239 -429 -354 -631h-60zM463 686h569q-32 117 -176 631l-12 55q-8 -22 -60 -120q-81 -148 -321 -566zM762 1710q8 59 53 99t105 40q59 0 94 -40t25.5 -99t-54.5 -99t-104 -40t-94 40t-25 99zM807 1709 q-4 -38 19.5 -65.5t61.5 -27.5t69.5 27.5t36.5 65.5t-19.5 65.5t-62.5 27.5t-69.5 -27.5t-35.5 -65.5z" />
<glyph unicode="&#xc6;" horiz-adv-x="1617" d="M20 0l809 1434h674l-8 -56h-610l-90 -628h532l-8 -56h-531l-92 -639h641l-8 -55h-696l88 627h-287l-354 -627h-60zM465 682h264l88 633q-80 -162 -172 -317.5t-180 -315.5z" />
<glyph unicode="&#xc7;" horiz-adv-x="1372" d="M156 715q20 152 97 286t190.5 233t255 157.5t269.5 58.5q222 0 384 -102q-27 -32 -39 -48q-137 95 -328 95q-139 0 -270 -54.5t-235.5 -146.5t-175.5 -216t-90 -264t15.5 -263t113.5 -214.5t192.5 -144.5t275 -53t336.5 94l24 -47q-179 -98 -380 -102q-5 -62 43 -92 q14 -9 40.5 -28.5t41 -58t10.5 -71.5q-16 -102 -74.5 -151.5t-125.5 -49.5q-144 0 -167 125q10 4 22.5 8t22.5 8q6 -41 37 -67.5t85 -26.5t96 41t51 97t-12 86t-49 51.5t-51.5 43t-17.5 60.5l5 27q-145 6 -263 66.5t-198 158.5q-173 211 -131 504z" />
<glyph unicode="&#xc8;" horiz-adv-x="1230" d="M82 0l203 1434h839l-8 -56h-782l-90 -628h704l-8 -56h-702l-93 -639h813l-8 -55h-868zM518 1808h58q37 -68 72.5 -136t72.5 -136h-49q-45 75 -154 272z" />
<glyph unicode="&#xc9;" horiz-adv-x="1230" d="M82 0l203 1434h839l-8 -56h-782l-90 -628h704l-8 -56h-702l-93 -639h813l-8 -55h-868zM647 1536q100 124 224 272h61q-147 -170 -233 -272h-52z" />
<glyph unicode="&#xca;" horiz-adv-x="1230" d="M82 0l203 1434h839l-8 -56h-782l-90 -628h704l-8 -56h-702l-93 -639h813l-8 -55h-868zM498 1536q74 92 148.5 185.5t148.5 185.5q49 -92 97 -185.5t97 -185.5h-51q-100 186 -156 283l-233 -283h-51z" />
<glyph unicode="&#xcb;" horiz-adv-x="1230" d="M82 0l203 1434h839l-8 -56h-782l-90 -628h704l-8 -56h-702l-93 -639h813l-8 -55h-868zM510 1626q4 23 21.5 39t39.5 16q23 0 37 -16t10 -39t-21.5 -38t-39.5 -15q-23 0 -37 15t-10 38zM848 1626q4 23 21 39t40 16t37 -16t10 -39t-21.5 -38t-39.5 -15q-23 0 -37 15t-10 38 z" />
<glyph unicode="&#xcc;" horiz-adv-x="483" d="M113 0l202 1434h58l-203 -1434h-57zM165 1808h58q37 -68 72.5 -136t72.5 -136h-49q-45 75 -154 272z" />
<glyph unicode="&#xcd;" horiz-adv-x="483" d="M113 0l202 1434h58l-203 -1434h-57zM319 1536q100 124 224 272h61q-147 -170 -233 -272h-52z" />
<glyph unicode="&#xce;" horiz-adv-x="503" d="M113 0l202 1434h58l-203 -1434h-57zM119 1536q74 92 148.5 185.5t148.5 185.5q49 -92 97 -185.5t97 -185.5h-51q-100 186 -156 283l-233 -283h-51z" />
<glyph unicode="&#xcf;" horiz-adv-x="483" d="M113 0l202 1434h58l-203 -1434h-57zM127 1626q4 23 21.5 39t39.5 16q23 0 37 -16t10 -39t-21.5 -38t-39.5 -15q-23 0 -37 15t-10 38zM465 1626q4 23 21 39t40 16t37 -16t10 -39t-21.5 -38t-39.5 -15q-23 0 -37 15t-10 38z" />
<glyph unicode="&#xd0;" horiz-adv-x="1323" d="M41 694l8 56h121l96 684h287q307 0 491 -194q190 -199 146 -523q-42 -297 -244 -487q-246 -230 -667 -230h-216l99 694h-121zM127 55h195q320 0 542 175q226 179 271 487q40 302 -131 483q-169 178 -494 178h-195l-90 -628h443l-9 -56h-440z" />
<glyph unicode="&#xd1;" horiz-adv-x="1665" d="M102 0l211 1499q244 -350 484.5 -691t365.5 -522q141 -204 150 -220l2 65l184 1303h57l-210 -1500q-682 962 -971 1373q-6 14 -14.5 26.5t-16.5 26.5l-2 -66l-182 -1294h-58zM674 1567q15 71 76 111q50 34 104 34t84.5 -20.5t59.5 -55.5q49 -59 104 -59q75 0 120 55 q17 21 25 53q10 -2 19.5 -2t19.5 -2q-16 -78 -74.5 -111.5t-122 -33.5t-126.5 76q-46 59 -105 59q-73 0 -118 -55q-17 -21 -25 -53q-10 2 -20.5 2t-20.5 2z" />
<glyph unicode="&#xd2;" horiz-adv-x="1718" d="M125 715q20 152 97 286t190.5 233t255 157.5t293.5 58.5t277.5 -58.5t211.5 -157.5t124 -233.5t17 -285.5q-20 -152 -97 -285t-190.5 -232.5t-256 -156.5t-293.5 -57q-152 0 -277 57t-210 156.5t-123.5 232.5t-18.5 285zM183 714q-19 -140 15.5 -263t113.5 -215 q171 -197 446 -197q139 0 271 53t237.5 145.5t177.5 215t91 262t-16.5 263.5t-115.5 216t-195.5 146.5t-255.5 54.5q-139 0 -269 -54.5t-234.5 -146.5t-175.5 -216t-90 -264zM776 1808h58q37 -68 72.5 -136t72.5 -136h-49q-45 75 -154 272z" />
<glyph unicode="&#xd3;" horiz-adv-x="1720" d="M125 715q20 152 97 286t190.5 233t255 157.5t293.5 58.5t277.5 -58.5t211.5 -157.5t124 -233.5t17 -285.5q-20 -152 -97 -285t-190.5 -232.5t-256 -156.5t-293.5 -57q-152 0 -277 57t-210 156.5t-123.5 232.5t-18.5 285zM183 714q-19 -140 15.5 -263t113.5 -215 q171 -197 446 -197q139 0 271 53t237.5 145.5t177.5 215t91 262t-16.5 263.5t-115.5 216t-195.5 146.5t-255.5 54.5q-139 0 -269 -54.5t-234.5 -146.5t-175.5 -216t-90 -264zM958 1536q100 124 224 272h61q-147 -170 -233 -272h-52z" />
<glyph unicode="&#xd4;" horiz-adv-x="1718" d="M125 715q20 152 97 286t190.5 233t255 157.5t293.5 58.5t277.5 -58.5t211.5 -157.5t124 -233.5t17 -285.5q-20 -152 -97 -285t-190.5 -232.5t-256 -156.5t-293.5 -57q-152 0 -277 57t-210 156.5t-123.5 232.5t-18.5 285zM183 714q-19 -140 15.5 -263t113.5 -215 q171 -197 446 -197q139 0 271 53t237.5 145.5t177.5 215t91 262t-16.5 263.5t-115.5 216t-195.5 146.5t-255.5 54.5q-139 0 -269 -54.5t-234.5 -146.5t-175.5 -216t-90 -264zM733 1536q74 92 148.5 185.5t148.5 185.5q49 -92 97 -185.5t97 -185.5h-51q-100 186 -156 283 l-233 -283h-51z" />
<glyph unicode="&#xd5;" horiz-adv-x="1718" d="M125 715q20 152 97 286t190.5 233t255 157.5t293.5 58.5t277.5 -58.5t211.5 -157.5t124 -233.5t17 -285.5q-20 -152 -97 -285t-190.5 -232.5t-256 -156.5t-293.5 -57q-152 0 -277 57t-210 156.5t-123.5 232.5t-18.5 285zM183 714q-19 -140 15.5 -263t113.5 -215 q171 -197 446 -197q139 0 271 53t237.5 145.5t177.5 215t91 262t-16.5 263.5t-115.5 216t-195.5 146.5t-255.5 54.5q-139 0 -269 -54.5t-234.5 -146.5t-175.5 -216t-90 -264zM659 1637q15 71 76 111q50 34 104 34t84.5 -20.5t59.5 -55.5q49 -59 104 -59q75 0 120 55 q17 21 25 53q10 -2 19.5 -2t19.5 -2q-16 -78 -74.5 -111.5t-122 -33.5t-126.5 76q-46 59 -105 59q-73 0 -118 -55q-17 -21 -25 -53q-10 2 -20.5 2t-20.5 2z" />
<glyph unicode="&#xd6;" horiz-adv-x="1718" d="M125 715q20 152 97 286t190.5 233t255 157.5t293.5 58.5t277.5 -58.5t211.5 -157.5t124 -233.5t17 -285.5q-20 -152 -97 -285t-190.5 -232.5t-256 -156.5t-293.5 -57q-152 0 -277 57t-210 156.5t-123.5 232.5t-18.5 285zM183 714q-19 -140 15.5 -263t113.5 -215 q171 -197 446 -197q139 0 271 53t237.5 145.5t177.5 215t91 262t-16.5 263.5t-115.5 216t-195.5 146.5t-255.5 54.5q-139 0 -269 -54.5t-234.5 -146.5t-175.5 -216t-90 -264zM742 1626q4 23 21.5 39t39.5 16q23 0 37 -16t10 -39t-21.5 -38t-39.5 -15q-23 0 -37 15t-10 38z M1080 1626q4 23 21 39t40 16t37 -16t10 -39t-21.5 -38t-39.5 -15q-23 0 -37 15t-10 38z" />
<glyph unicode="&#xd7;" horiz-adv-x="1024" d="M223 41q37 31 275 242l-205 237l45 41l205 -239q70 61 138.5 120.5t137.5 120.5q14 -23 35 -41q-61 -51 -274 -239l204 -242l-45 -41l-209 242l-272 -242q-20 18 -35 41z" />
<glyph unicode="&#xd8;" horiz-adv-x="1720" d="M117 14l166 168q-94 98 -137.5 235.5t-22 293.5t98.5 290t190.5 233t255 157.5t293.5 58.5q248 0 419 -150q39 39 76 77t76 77q14 -18 33 -33l-150 -151q104 -102 151.5 -245.5t26 -302.5t-98.5 -292t-190.5 -232.5t-256 -156.5t-293.5 -57q-257 0 -439 163l-163 -167z M182 710q-20 -144 18 -269.5t124 -217.5l1013 1034q-159 138 -385 138q-139 0 -269 -54.5t-234.5 -146.5t-175.5 -216t-91 -268zM358 190q159 -151 398 -151q281 0 510 199q106 92 178 214.5t92.5 269.5t-25 277.5t-139.5 225.5q-582 -591 -1014 -1035z" />
<glyph unicode="&#xd9;" horiz-adv-x="1335" d="M168 463l135 971h57l-135 -965q-27 -203 72 -319q96 -111 282 -111q185 0 313 111q134 118 163 319l135 965h57l-135 -971q-31 -227 -188 -357q-145 -122 -354 -122q-101 0 -183 30.5t-136 91.5q-116 130 -83 357zM581 1808h58q37 -68 72.5 -136t72.5 -136h-49 q-45 75 -154 272z" />
<glyph unicode="&#xda;" horiz-adv-x="1335" d="M168 463l135 971h57l-135 -965q-27 -203 72 -319q96 -111 282 -111q185 0 313 111q134 118 163 319l135 965h57l-135 -971q-31 -227 -188 -357q-145 -122 -354 -122q-101 0 -183 30.5t-136 91.5q-116 130 -83 357zM745 1536q100 124 224 272h61q-147 -170 -233 -272h-52z " />
<glyph unicode="&#xdb;" horiz-adv-x="1335" d="M168 463l135 971h57l-135 -965q-27 -203 72 -319q96 -111 282 -111q185 0 313 111q134 118 163 319l135 965h57l-135 -971q-31 -227 -188 -357q-145 -122 -354 -122q-101 0 -183 30.5t-136 91.5q-116 130 -83 357zM545 1538q74 92 148.5 185.5t148.5 185.5 q49 -92 97 -185.5t97 -185.5h-51q-100 186 -156 283l-233 -283h-51z" />
<glyph unicode="&#xdc;" horiz-adv-x="1335" d="M168 463l135 971h57l-135 -965q-27 -203 72 -319q96 -111 282 -111q185 0 313 111q134 118 163 319l135 965h57l-135 -971q-31 -227 -188 -357q-145 -122 -354 -122q-101 0 -183 30.5t-136 91.5q-116 130 -83 357zM588 1626q4 23 21.5 39t39.5 16q23 0 37 -16t10 -39 t-21.5 -38t-39.5 -15q-23 0 -37 15t-10 38zM926 1626q4 23 21 39t40 16t37 -16t10 -39t-21.5 -38t-39.5 -15q-23 0 -37 15t-10 38z" />
<glyph unicode="&#xdd;" horiz-adv-x="1306" d="M184 1434h70q90 -199 181 -395.5t179 -395.5l19 -55h2q8 14 14 27.5t15 27.5q147 199 291.5 395.5t291.5 395.5h70l-660 -895l-75 -539h-66l76 541q-102 223 -203.5 446t-204.5 447zM735 1536q100 124 224 272h61q-147 -170 -233 -272h-52z" />
<glyph unicode="&#xde;" horiz-adv-x="1026" d="M102 0l203 1434h57l-47 -338h240q150 0 260 -85q57 -44 91 -115t20 -169q-23 -174 -151 -276.5t-339 -102.5h-227l-49 -348h-58zM217 403h223q206 0 321 110q93 89 107 214q17 130 -78 219q-99 94 -258 94h-225z" />
<glyph unicode="&#xdf;" horiz-adv-x="1173" d="M66 743l6 56h133l10 71q27 215 163 350q127 124 292 128q121 -4 196 -90q74 -87 58 -211q-12 -86 -68.5 -152t-136.5 -98q128 -38 195 -143q69 -111 49 -248q-24 -175 -167 -300q-142 -122 -317 -122q-113 0 -203 55q10 17 31 49q76 -51 164 -51t159.5 29.5t129.5 79.5 q125 111 145 260q19 144 -74 252q-93 106 -243 106q2 6 2 13t2 16l4 28q98 0 178 61q80 62 92 158q13 103 -42 174q-58 76 -160 76q-139 0 -248 -112q-114 -116 -144 -301l-122 -877h-58l105 743h-131z" />
<glyph unicode="&#xe0;" horiz-adv-x="1128" d="M154 385q24 174 158 289q127 110 296 110q183 0 278 -137q29 -41 42 -86q8 66 37 207h43l-107 -768h-51l12 102q9 60 17 107q-83 -149 -259 -205q-59 -18 -132.5 -18t-142.5 31.5t-115 84.5q-100 117 -76 283zM218 250q36 -127 156 -180q60 -27 132 -27q144 0 258 99 q115 100 135 243q20 141 -67 244q-84 100 -230 100q-145 0 -258 -100q-53 -47 -88 -109q-75 -135 -38 -270zM454 1253h58q37 -68 72.5 -136t72.5 -136h-49q-45 75 -154 272z" />
<glyph unicode="&#xe1;" horiz-adv-x="1128" d="M154 385q24 174 158 289q127 110 296 110q183 0 278 -137q29 -41 42 -86q8 66 37 207h43l-107 -768h-51l12 102q9 60 17 107q-83 -149 -259 -205q-59 -18 -132.5 -18t-142.5 31.5t-115 84.5q-100 117 -76 283zM218 250q36 -127 156 -180q60 -27 132 -27q144 0 258 99 q115 100 135 243q20 141 -67 244q-84 100 -230 100q-145 0 -258 -100q-53 -47 -88 -109q-75 -135 -38 -270zM612 981q100 124 224 272h61q-147 -170 -233 -272h-52z" />
<glyph unicode="&#xe2;" horiz-adv-x="1128" d="M154 385q24 174 158 289q127 110 296 110q183 0 278 -137q29 -41 42 -86q8 66 37 207h43l-107 -768h-51l12 102q9 60 17 107q-83 -149 -259 -205q-59 -18 -132.5 -18t-142.5 31.5t-115 84.5q-100 117 -76 283zM218 250q36 -127 156 -180q60 -27 132 -27q144 0 258 99 q115 100 135 243q20 141 -67 244q-84 100 -230 100q-145 0 -258 -100q-53 -47 -88 -109q-75 -135 -38 -270zM420 981q74 92 148.5 185.5t148.5 185.5q49 -92 97 -185.5t97 -185.5h-51q-100 186 -156 283l-233 -283h-51z" />
<glyph unicode="&#xe3;" horiz-adv-x="1128" d="M154 385q24 174 158 289q127 110 296 110q183 0 278 -137q29 -41 42 -86q8 66 37 207h43l-107 -768h-51l12 102q9 60 17 107q-83 -149 -259 -205q-59 -18 -132.5 -18t-142.5 31.5t-115 84.5q-100 117 -76 283zM218 250q36 -127 156 -180q60 -27 132 -27q144 0 258 99 q115 100 135 243q20 141 -67 244q-84 100 -230 100q-145 0 -258 -100q-53 -47 -88 -109q-75 -135 -38 -270zM360 967q15 71 76 111q50 34 104 34t84.5 -20.5t59.5 -55.5q49 -59 104 -59q75 0 120 55q17 21 25 53q10 -2 19.5 -2t19.5 -2q-16 -78 -74.5 -111.5t-122 -33.5 t-126.5 76q-46 59 -105 59q-73 0 -118 -55q-17 -21 -25 -53q-10 2 -20.5 2t-20.5 2z" />
<glyph unicode="&#xe4;" horiz-adv-x="1128" d="M154 385q24 174 158 289q127 110 296 110q183 0 278 -137q29 -41 42 -86q8 66 37 207h43l-107 -768h-51l12 102q9 60 17 107q-83 -149 -259 -205q-59 -18 -132.5 -18t-142.5 31.5t-115 84.5q-100 117 -76 283zM218 250q36 -127 156 -180q60 -27 132 -27q144 0 258 99 q115 100 135 243q20 141 -67 244q-84 100 -230 100q-145 0 -258 -100q-53 -47 -88 -109q-75 -135 -38 -270zM443 1032q4 23 21.5 39t39.5 16q23 0 37 -16t10 -39t-21.5 -38t-39.5 -15q-23 0 -37 15t-10 38zM781 1032q4 23 21 39t40 16t37 -16t10 -39t-21.5 -38t-39.5 -15 q-23 0 -37 15t-10 38z" />
<glyph unicode="&#xe5;" horiz-adv-x="1128" d="M154 385q24 174 158 289q127 110 296 110q183 0 278 -137q29 -41 42 -86q8 66 37 207h43l-107 -768h-51l12 102q9 60 17 107q-83 -149 -259 -205q-59 -18 -132.5 -18t-142.5 31.5t-115 84.5q-100 117 -76 283zM218 250q36 -127 156 -180q60 -27 132 -27q144 0 258 99 q115 100 135 243q20 141 -67 244q-84 100 -230 100q-145 0 -258 -100q-53 -47 -88 -109q-75 -135 -38 -270zM526 1106q10 59 55.5 99t104.5 40t93 -40t26 -99t-53 -99t-105 -40q-59 0 -94 40t-27 99zM572 1105q-5 -38 19.5 -65.5t62.5 -27.5t70 27.5t37 65.5t-19.5 66.5 t-62.5 28.5t-70 -28.5t-37 -66.5z" />
<glyph unicode="&#xe6;" horiz-adv-x="1288" d="M72 207q21 153 219 191q55 10 115 10h276l14 94q17 123 -22 170q-50 57 -209 57q-127 0 -232 -70l-32 43q118 82 271 82t216 -36q80 37 187.5 36.5t191.5 -75t107 -195.5q-201 -74 -443 -168l-12 -80q-10 -70 -30.5 -116t-65.5 -80q70 -27 135 -27q134 0 248 94 q26 -39 30 -43q-132 -106 -286 -106q-100 0 -172 39q-80 -43 -184 -43t-162 10t-97 36q-83 57 -63 177zM129 207q-14 -94 72 -137q61 -31 140 -31t126 8t86 27q87 44 102 147l19 127h-231.5t-154.5 -11q-145 -27 -159 -130zM721 702q52 -52 31 -204l-13 -90l367 137 q-29 82 -94.5 133t-145.5 51t-145 -27z" />
<glyph unicode="&#xe7;" horiz-adv-x="788" d="M104 385q25 168 156 283q134 116 301 116q143 0 240 -88l-43 -43q-89 76 -205 76q-145 0 -258 -100t-133 -244q-20 -146 64 -243q86 -99 219 -99t237 74q21 -26 31 -43q-109 -80 -250 -88q-6 -53 20.5 -74t59.5 -44.5t46 -62t7 -71.5q-12 -98 -68 -146q-84 -74 -194 -47 q-81 25 -103 117q15 6 45 16q6 -41 37 -67.5t85 -26.5t97.5 41t51.5 97t-13.5 86t-49 51.5t-50 43t-18.5 60.5l4 31q-154 8 -246 122q-90 113 -70 273z" />
<glyph unicode="&#xe8;" horiz-adv-x="923" d="M127 385q24 181 151 290q126 109 304 109q123 0 205.5 -75.5t105.5 -194.5l-698 -266q25 -92 100.5 -148.5t197 -56.5t234.5 92q11 -19 29 -41q-129 -108 -285 -108q-167 0 -267 116q-101 118 -77 283zM182 301q502 189 643 244q-29 82 -94.5 133t-148.5 51t-147 -23.5 t-115 -66.5q-107 -91 -132 -236q-8 -55 -6 -102zM405 1253h58q37 -68 72.5 -136t72.5 -136h-49q-45 75 -154 272z" />
<glyph unicode="&#xe9;" horiz-adv-x="923" d="M127 385q24 181 151 290q126 109 304 109q123 0 205.5 -75.5t105.5 -194.5l-698 -266q25 -92 100.5 -148.5t197 -56.5t234.5 92q11 -19 29 -41q-129 -108 -285 -108q-167 0 -267 116q-101 118 -77 283zM182 301q502 189 643 244q-29 82 -94.5 133t-148.5 51t-147 -23.5 t-115 -66.5q-107 -91 -132 -236q-8 -55 -6 -102zM590 981q100 124 224 272h61q-147 -170 -233 -272h-52z" />
<glyph unicode="&#xea;" horiz-adv-x="923" d="M127 385q24 181 151 290q126 109 304 109q123 0 205.5 -75.5t105.5 -194.5l-698 -266q25 -92 100.5 -148.5t197 -56.5t234.5 92q11 -19 29 -41q-129 -108 -285 -108q-167 0 -267 116q-101 118 -77 283zM182 301q502 189 643 244q-29 82 -94.5 133t-148.5 51t-147 -23.5 t-115 -66.5q-107 -91 -132 -236q-8 -55 -6 -102zM367 981q74 92 148.5 185.5t148.5 185.5q49 -92 97 -185.5t97 -185.5h-51q-100 186 -156 283l-233 -283h-51z" />
<glyph unicode="&#xeb;" horiz-adv-x="923" d="M127 385q24 181 151 290q126 109 304 109q123 0 205.5 -75.5t105.5 -194.5l-698 -266q25 -92 100.5 -148.5t197 -56.5t234.5 92q11 -19 29 -41q-129 -108 -285 -108q-167 0 -267 116q-101 118 -77 283zM182 301q502 189 643 244q-29 82 -94.5 133t-148.5 51t-147 -23.5 t-115 -66.5q-107 -91 -132 -236q-8 -55 -6 -102zM379 1032q4 23 21.5 39t39.5 16q23 0 37 -16t10 -39t-21.5 -38t-39.5 -15q-23 0 -37 15t-10 38zM717 1032q4 23 21 39t40 16t37 -16t10 -39t-21.5 -38t-39.5 -15q-23 0 -37 15t-10 38z" />
<glyph unicode="&#xec;" horiz-adv-x="356" d="M123 1253h57q37 -68 73 -136t73 -136h-50q-41 68 -78.5 136.5t-74.5 135.5zM164 0l106 768h58l-107 -768h-57z" />
<glyph unicode="&#xed;" horiz-adv-x="407" d="M154 0l106 768h57l-106 -768h-57zM287 981q19 23 223 272h61q-147 -170 -233 -272h-51z" />
<glyph unicode="&#xee;" horiz-adv-x="489" d="M117 981q74 92 148.5 185.5t148.5 185.5q49 -92 97 -185.5t97 -185.5h-51q-100 186 -156 283l-233 -283h-51zM209 0l106 768h58l-107 -768h-57z" />
<glyph unicode="&#xef;" horiz-adv-x="555" d="M197 1032q4 23 21.5 39t39.5 16q23 0 37 -16t10 -39t-21.5 -38t-39.5 -15q-23 0 -37 15t-10 38zM268 0l107 768h57l-106 -768h-58zM535 1032q4 23 21 39t40 16t37 -16t10 -39t-21.5 -38t-39.5 -15q-23 0 -37 15t-10 38z" />
<glyph unicode="&#xf0;" horiz-adv-x="1009" d="M57 383q24 166 156 283q134 120 299 120q92 0 161.5 -40.5t110.5 -106.5q-10 109 -65 264.5t-178 329.5l-164 -154l-17 17q-8 8 -16 18q84 76 170 158q-76 102 -166 182l41 37q84 -74 168 -178l154 145q10 -8 17 -16t15 -17q-5 -5 -159 -151q139 -197 219 -430 q82 -242 55 -455q-24 -167 -156 -283q-132 -118 -299 -118q-168 0 -266 114q-100 115 -80 281zM121 250q37 -127 157 -180q60 -27 132 -27q140 0 258 101q113 97 133 243q17 149 -67 245q-84 97 -230 97q-145 0 -258 -100q-53 -47 -88 -109q-76 -135 -37 -270z" />
<glyph unicode="&#xf1;" horiz-adv-x="1071" d="M225 0l107 768h53l-12 -90q-8 -58 -19 -111q55 98 153.5 156.5t211.5 58.5t169 -63.5t44 -165.5l-76 -553h-57l75 549q8 72 -32.5 123t-117.5 53t-139.5 -19.5t-113.5 -60.5q-113 -87 -129 -211l-59 -434h-58zM397 947q15 71 76 111q50 34 104 34t84.5 -20.5t59.5 -55.5 q49 -59 104 -59q75 0 120 55q17 21 25 53q10 -2 19.5 -2t19.5 -2q-16 -78 -74.5 -111.5t-122 -33.5t-126.5 76q-46 59 -105 59q-73 0 -118 -55q-17 -21 -25 -53q-10 2 -20.5 2t-20.5 2z" />
<glyph unicode="&#xf2;" d="M127 389q12 88 52 162t101 126q126 109 302 109q166 0 269 -117.5t79 -283.5q-23 -183 -156 -293q-127 -106 -303 -106q-167 0 -267 116.5t-77 286.5zM184 387q-10 -74 8.5 -136.5t58.5 -108.5q86 -99 228 -99q145 0 256 94q116 98 135 248q20 143 -66 244 q-85 100 -231 100q-153 0 -259 -95q-110 -98 -130 -247zM413 1253h58q37 -68 72.5 -136t72.5 -136h-49q-45 75 -154 272z" />
<glyph unicode="&#xf3;" d="M127 389q12 88 52 162t101 126q126 109 302 109q166 0 269 -117.5t79 -283.5q-23 -183 -156 -293q-127 -106 -303 -106q-167 0 -267 116.5t-77 286.5zM184 387q-10 -74 8.5 -136.5t58.5 -108.5q86 -99 228 -99q145 0 256 94q116 98 135 248q20 143 -66 244 q-85 100 -231 100q-153 0 -259 -95q-110 -98 -130 -247zM604 981q100 124 224 272h61q-147 -170 -233 -272h-52z" />
<glyph unicode="&#xf4;" d="M127 389q12 88 52 162t101 126q126 109 302 109q166 0 269 -117.5t79 -283.5q-23 -183 -156 -293q-127 -106 -303 -106q-167 0 -267 116.5t-77 286.5zM184 387q-10 -74 8.5 -136.5t58.5 -108.5q86 -99 228 -99q145 0 256 94q116 98 135 248q20 143 -66 244 q-85 100 -231 100q-153 0 -259 -95q-110 -98 -130 -247zM357 981q74 92 148.5 185.5t148.5 185.5q49 -92 97 -185.5t97 -185.5h-51q-100 186 -156 283l-233 -283h-51z" />
<glyph unicode="&#xf5;" d="M127 389q12 88 52 162t101 126q126 109 302 109q166 0 269 -117.5t79 -283.5q-23 -183 -156 -293q-127 -106 -303 -106q-167 0 -267 116.5t-77 286.5zM184 387q-10 -74 8.5 -136.5t58.5 -108.5q86 -99 228 -99q145 0 256 94q116 98 135 248q20 143 -66 244 q-85 100 -231 100q-153 0 -259 -95q-110 -98 -130 -247zM299 967q15 71 76 111q50 34 104 34t84.5 -20.5t59.5 -55.5q49 -59 104 -59q75 0 120 55q17 21 25 53q10 -2 19.5 -2t19.5 -2q-16 -78 -74.5 -111.5t-122 -33.5t-126.5 76q-46 59 -105 59q-73 0 -118 -55 q-17 -21 -25 -53q-10 2 -20.5 2t-20.5 2z" />
<glyph unicode="&#xf6;" d="M127 389q12 88 52 162t101 126q126 109 302 109q166 0 269 -117.5t79 -283.5q-23 -183 -156 -293q-127 -106 -303 -106q-167 0 -267 116.5t-77 286.5zM184 387q-10 -74 8.5 -136.5t58.5 -108.5q86 -99 228 -99q145 0 256 94q116 98 135 248q20 143 -66 244 q-85 100 -231 100q-153 0 -259 -95q-110 -98 -130 -247zM379 1032q4 23 21.5 39t39.5 16q23 0 37 -16t10 -39t-21.5 -38t-39.5 -15q-23 0 -37 15t-10 38zM717 1032q4 23 21 39t40 16t37 -16t10 -39t-21.5 -38t-39.5 -15q-23 0 -37 15t-10 38z" />
<glyph unicode="&#xf7;" horiz-adv-x="1026" d="M135 428l6 57h738l-7 -57h-737zM424 199q2 23 20.5 39t40.5 16q23 0 36.5 -16.5t8.5 -38.5q-4 -23 -21 -38.5t-40 -15.5t-36 15.5t-9 38.5zM496 711q4 23 21.5 39t39.5 16q23 0 36 -16.5t10 -39t-21.5 -38t-40.5 -15.5q-23 0 -36 15.5t-9 38.5z" />
<glyph unicode="&#xf8;" horiz-adv-x="958" d="M53 4q23 27 97 98q-100 113 -76 283q25 169 156 283q133 116 282 116t236 -71l77 80l29 -31l-76 -76q55 -53 82 -132t14.5 -166t-54.5 -159.5t-104 -126.5q-133 -116 -285 -116t-253 88q-24 -24 -96 -99zM131 385q-19 -136 59 -240l512 525q-71 59 -162.5 59t-157 -26.5 t-118.5 -73.5q-113 -100 -133 -244zM219 117q84 -74 216.5 -74t247 99.5t134.5 248t-82 250.5z" />
<glyph unicode="&#xf9;" horiz-adv-x="1083" d="M254 215l78 553h57l-78 -549q-6 -72 35 -123t117 -53t139.5 19.5t113.5 60.5q113 88 128 211l61 434h58l-107 -772h-57l14 113l18 92q-55 -98 -153 -156.5t-211 -58.5t-168 63.5t-45 165.5zM491 1253h58q37 -68 72.5 -136t72.5 -136h-49q-45 75 -154 272z" />
<glyph unicode="&#xfa;" horiz-adv-x="1083" d="M254 215l78 553h57l-78 -549q-6 -72 35 -123t117 -53t139.5 19.5t113.5 60.5q113 88 128 211l61 434h58l-107 -772h-57l14 113l18 92q-55 -98 -153 -156.5t-211 -58.5t-168 63.5t-45 165.5zM602 981q100 124 224 272h61q-147 -170 -233 -272h-52z" />
<glyph unicode="&#xfb;" horiz-adv-x="1083" d="M254 215l78 553h57l-78 -549q-6 -72 35 -123t117 -53t139.5 19.5t113.5 60.5q113 88 128 211l61 434h58l-107 -772h-57l14 113l18 92q-55 -98 -153 -156.5t-211 -58.5t-168 63.5t-45 165.5zM420 981q74 92 148.5 185.5t148.5 185.5q49 -92 97 -185.5t97 -185.5h-51 q-100 186 -156 283l-233 -283h-51z" />
<glyph unicode="&#xfc;" horiz-adv-x="1083" d="M254 215l78 553h57l-78 -549q-6 -72 35 -123t117 -53t139.5 19.5t113.5 60.5q113 88 128 211l61 434h58l-107 -772h-57l14 113l18 92q-55 -98 -153 -156.5t-211 -58.5t-168 63.5t-45 165.5zM445 1032q4 23 21.5 39t39.5 16q23 0 37 -16t10 -39t-21.5 -38t-39.5 -15 q-23 0 -37 15t-10 38zM783 1032q4 23 21 39t40 16t37 -16t10 -39t-21.5 -38t-39.5 -15q-23 0 -37 15t-10 38z" />
<glyph unicode="&#xfd;" horiz-adv-x="999" d="M145 -512l326 506q-70 195 -139.5 387t-138.5 387h63q27 -74 59.5 -167t67.5 -190.5t67.5 -190.5t59.5 -167l457 715h63q-395 -621 -819 -1280h-66zM604 981q100 124 224 272h61q-147 -170 -233 -272h-52z" />
<glyph unicode="&#xfe;" horiz-adv-x="1140" d="M-6 -512l287 2048h57l-123 -862q-4 -29 -11 -59.5t-11 -59.5q83 150 263 207q58 18 130.5 18t141.5 -31.5t115 -85t67.5 -126t9.5 -155.5t-53.5 -155.5t-102.5 -126.5q-134 -116 -301 -116q-188 0 -279 136q-26 40 -37 85q-4 -25 -5 -49.5t-5 -46.5l-86 -621h-57z M176 383q-20 -144 65 -244t230 -100t258 100q53 47 88 109q75 134 38 270q-34 126 -157 180q-59 27 -131 27q-144 0 -258 -99q-113 -98 -133 -243z" />
<glyph unicode="&#xff;" horiz-adv-x="999" d="M145 -512l326 506q-70 195 -139.5 387t-138.5 387h63q27 -74 59.5 -167t67.5 -190.5t67.5 -190.5t59.5 -167l457 715h63q-395 -621 -819 -1280h-66zM416 1032q4 23 21.5 39t39.5 16q23 0 37 -16t10 -39t-21.5 -38t-39.5 -15q-23 0 -37 15t-10 38zM754 1032q4 23 21 39 t40 16t37 -16t10 -39t-21.5 -38t-39.5 -15q-23 0 -37 15t-10 38z" />
<glyph unicode="&#x2000;" horiz-adv-x="954" />
<glyph unicode="&#x2001;" horiz-adv-x="1909" />
<glyph unicode="&#x2002;" horiz-adv-x="954" />
<glyph unicode="&#x2003;" horiz-adv-x="1909" />
<glyph unicode="&#x2004;" horiz-adv-x="636" />
<glyph unicode="&#x2005;" horiz-adv-x="477" />
<glyph unicode="&#x2006;" horiz-adv-x="318" />
<glyph unicode="&#x2007;" horiz-adv-x="318" />
<glyph unicode="&#x2008;" horiz-adv-x="238" />
<glyph unicode="&#x2009;" horiz-adv-x="381" />
<glyph unicode="&#x200a;" horiz-adv-x="106" />
<glyph unicode="&#x2010;" horiz-adv-x="614" d="M104 362l7 56h376l-6 -56h-377z" />
<glyph unicode="&#x2011;" horiz-adv-x="614" d="M104 362l7 56h376l-6 -56h-377z" />
<glyph unicode="&#x2012;" horiz-adv-x="614" d="M104 362l7 56h376l-6 -56h-377z" />
<glyph unicode="&#x2013;" horiz-adv-x="1042" d="M201 365l6 55h616l-6 -55h-616z" />
<glyph unicode="&#x2014;" horiz-adv-x="1433" d="M199 365l6 55h1028l-6 -55h-1028z" />
<glyph unicode="&#x2018;" horiz-adv-x="335" d="M83.5 1298q-15.5 76 12.5 158l51 -14q-46 -144 35 -234q-18 -22 -30 -39q-53 53 -68.5 129z" />
<glyph unicode="&#x2019;" horiz-adv-x="335" d="M94 1208q109 91 101 234q14 4 28.5 7t26.5 7q6 -82 -29.5 -158t-103.5 -129q-10 20 -23 39z" />
<glyph unicode="&#x201a;" horiz-adv-x="299" d="M25 -59q108 90 100 233q14 4 27.5 7t27.5 7q4 -82 -31.5 -157.5t-101.5 -128.5q-12 18 -22 39z" />
<glyph unicode="&#x201c;" horiz-adv-x="509" d="M68.5 1298q-15.5 76 13.5 158l51 -14q-46 -144 35 -234l-33 -39q-51 53 -66.5 129zM281.5 1298q-15.5 76 13.5 158l51 -14q-46 -144 35 -234l-33 -39q-51 53 -66.5 129z" />
<glyph unicode="&#x201d;" horiz-adv-x="507" d="M61 1208q109 95 101 234q14 4 27.5 7t25.5 7q6 -82 -29.5 -158t-103.5 -129zM274 1208q109 95 101 234q14 4 27.5 7t25.5 7q6 -82 -29.5 -158t-103.5 -129z" />
<glyph unicode="&#x201e;" horiz-adv-x="522" d="M25 -59q108 90 100 233q14 4 27.5 7t27.5 7q4 -82 -31.5 -157.5t-101.5 -128.5q-12 18 -22 39zM238 -59q108 90 100 233q14 4 27.5 7t27.5 7q4 -82 -31.5 -157.5t-101.5 -128.5q-12 18 -22 39z" />
<glyph unicode="&#x2022;" horiz-adv-x="980" d="M333 631.5q7 50.5 60 96.5t119 46t105.5 -46t29.5 -113t-62.5 -112.5t-102.5 -45.5t-76.5 12t-45 33.5t-26.5 50t-1 79z" />
<glyph unicode="&#x202f;" horiz-adv-x="381" />
<glyph unicode="&#x2039;" horiz-adv-x="802" d="M240 489q98 84 197.5 165t197.5 165l-8 -67q-74 -66 -149 -131.5t-148 -131.5q22 -27 221 -266l-8 -65z" />
<glyph unicode="&#x203a;" horiz-adv-x="802" d="M193 158l8 65q74 66 148.5 132.5t150.5 133.5q-48 56 -224 263l9 67l305 -330z" />
<glyph unicode="&#x205f;" horiz-adv-x="477" />
<glyph unicode="&#xe000;" horiz-adv-x="768" d="M0 0v768h768v-768h-768z" />
</font>
</defs>
</svg>
