<?xml version="1.0" standalone="no"?>
<!DOCTYPE svg PUBLIC "-//W3C//DTD SVG 1.1//EN" "http://www.w3.org/Graphics/SVG/1.1/DTD/svg11.dtd" >
<svg xmlns="http://www.w3.org/2000/svg">
<metadata></metadata>
<defs>
<font id="JosefinSansBold" horiz-adv-x="614" >
<font-face units-per-em="2048" ascent="1536" descent="-512" />
<missing-glyph horiz-adv-x="500" />
<glyph horiz-adv-x="0" />
<glyph horiz-adv-x="2048" />
<glyph unicode="&#xd;" />
<glyph unicode=" " />
<glyph unicode="!" horiz-adv-x="411" d="M98 109q0 47 33 76.5t73 29.5t72.5 -29.5t32.5 -76.5t-32.5 -78t-72.5 -31t-73 30.5t-33 78.5zM119 340v1196h170v-1196h-170z" />
<glyph unicode="&#x22;" horiz-adv-x="686" d="M129 967v508h170l-8 -508h-162zM401 967v508h170l-8 -508h-162z" />
<glyph unicode="#" horiz-adv-x="1169" d="M51 385l21 166h188l25 209h-187l17 166h188l49 391h172q-12 -98 -24.5 -195.5t-24.5 -195.5h205l49 391h172q-12 -98 -24.5 -195.5t-24.5 -195.5h209q-13 -133 -17 -166h-210l-25 -209h209l-21 -166h-209l-45 -385h-172q10 98 22.5 192.5t22.5 192.5h-204l-45 -385h-172 q10 98 22 192.5t23 192.5h-189zM432 551h205l25 209h-205z" />
<glyph unicode="$" horiz-adv-x="1161" d="M94 217l107 107q47 -49 114.5 -101.5t159.5 -70.5v528q-37 15 -65.5 29t-74.5 39.5t-86 67.5q-94 98 -97 243q-4 136 68 237q82 116 255 140v129h172v-131q138 -28 273 -142l-97 -123q-86 74 -176 99v-467q344 -141 344 -418q0 -156 -99 -266q-91 -101 -245 -127v-129 h-172v131q-179 27 -319 154q-39 36 -62 71zM322 1057q0 -123 104 -172q17 -11 49 -21v406q-78 -23 -115.5 -82t-37.5 -131zM647 160q74 23 124 78t50 148t-52 145.5t-122 84.5v-456z" />
<glyph unicode="%" horiz-adv-x="1486" d="M184 797q0 107 77 182q78 76 185 76q106 0 184 -76q79 -77 79 -182q0 -109 -79 -185q-79 -75 -184 -75q-106 0 -185 75q-77 74 -77 185zM356 0l611 1024h186q-423 -708 -610 -1024h-187zM356 797q0 -41 25 -68t65 -27q41 0 66 27t25 68t-25 66.5t-66 25.5t-65.5 -25.5 t-24.5 -66.5zM807 227q0 109 77 183q79 75 185 75t183 -75q79 -77 79 -183q0 -107 -79 -184q-77 -76 -183 -76q-107 0 -185 76q-77 75 -77 184zM979 227q0 -41 24.5 -67.5t65.5 -26.5t65.5 26.5t24.5 67.5t-24.5 66.5t-65.5 25.5t-65.5 -25.5t-24.5 -66.5z" />
<glyph unicode="&#x26;" horiz-adv-x="1433" d="M215 385q0 148 94 257q98 113 236 136q-35 59 -72 118.5t-73 120t-51 126t-5 127.5q22 137 154 217q181 111 432 -43q-16 -35 -33.5 -66.5t-34.5 -66.5q-98 59 -188 59q-35 0 -62 -18q-84 -53 -93 -135t40 -162q78 -125 152.5 -248t152.5 -248q8 135 58 175q45 37 133 35 q39 -1 80 -1h96v-166h-90q-64 0 -85 -36q-20 -35 -20 -169v-14q0 -41 -10 -86l154 -248q-102 -67 -133 -88q-27 41 -51.5 84t-51.5 84q-123 -147 -319 -147q-174 0 -291 118q-119 121 -119 285zM385 390.5q0 -105.5 66.5 -174.5t158.5 -69q176 0 236 142l-203 332 q-115 0 -186.5 -62.5t-71.5 -168z" />
<glyph unicode="'" horiz-adv-x="333" d="M86 967v508h172l-8 -508h-164z" />
<glyph unicode="(" horiz-adv-x="868" d="M236 596q0 288 104 551q92 234 233 381q37 -12 75 -23.5t75 -23.5q-216 -249 -289 -609q-26 -131 -26 -276q0 -400 200 -725q56 -92 115 -160l-150 -47q-139 143 -233 381q-104 263 -104 551z" />
<glyph unicode=")" horiz-adv-x="819" d="M152 -299q216 249 288 608q27 131 27 277q0 400 -199 725q-57 92 -116 159q13 4 149 52q229 -247 309 -639q29 -139 29 -293q0 -289 -105 -551q-92 -231 -233 -381q-37 10 -75 21.5t-74 21.5z" />
<glyph unicode="*" horiz-adv-x="686" d="M51 1110q33 16 63.5 34.5t63.5 35.5l-125 75l80 142q33 -18 64.5 -38t64.5 -38v154h172q0 -39 -1 -77t-1 -77q47 26 131 74l82 -142q-35 -18 -66.5 -37.5t-66.5 -37.5l129 -74l-86 -150q-33 18 -63.5 38t-63.5 38l-2 -141h-164v143l-125 -71q-23 37 -43 74.5t-43 74.5z " />
<glyph unicode="+" horiz-adv-x="1112" d="M176 389v166h283v287h172v-287h282v-166h-282v-285h-172v285h-283z" />
<glyph unicode="," horiz-adv-x="409" d="M4 -246l158 422h172l-176 -422h-154z" />
<glyph unicode="-" d="M109 301v166h376v-166h-376z" />
<glyph unicode="." horiz-adv-x="333" d="M68 106q0 47 32.5 78t72.5 31t73 -30.5t33 -78.5q0 -47 -33 -76.5t-73 -29.5t-72.5 29.5t-32.5 76.5z" />
<glyph unicode="/" horiz-adv-x="778" d="M35 -39l569 1546h172l-569 -1546h-172z" />
<glyph unicode="0" horiz-adv-x="1261" d="M76 670q0 303 162 495q155 183 391 183q233 0 389 -188t156 -498q0 -295 -174 -495q-78 -89 -176.5 -136t-202.5 -47t-203 49t-176 139q-166 196 -166 498zM248 650.5q0 -91.5 28.5 -185.5t79.5 -164q112 -151 265 -151q158 0 267 147q113 152 113 367q0 190 -80 332 q-44 79 -116 132.5t-176 53.5t-177 -52.5t-118 -130t-65.5 -167.5t-20.5 -181.5z" />
<glyph unicode="1" horiz-adv-x="559" d="M70 1165v166h311v-1331h-172v1165h-139z" />
<glyph unicode="2" horiz-adv-x="1062" d="M90 931q0 83 27.5 158.5t82.5 132.5q118 126 318 126q184 0 306 -128q116 -123 116 -298q0 -257 -264 -573q-76 -91 -158 -183h498v-166h-907q127 127 245.5 247t210.5 231q203 247 203 419q0 137 -87 217q-74 68 -157.5 68t-132.5 -27t-77 -65q-52 -70 -52 -158 q0 -129 80 -213q-24 -24 -102 -105q-65 43 -110 143q-40 91 -40 174z" />
<glyph unicode="3" horiz-adv-x="1054" d="M121 129l125 117q79 -96 203 -96q111 0 195 82q83 82 83 196q0 115 -83 194q-83 80 -195 80q-75 1 -134 -34q72 125 142.5 247.5t142.5 247.5h-389v168h674q-74 -123 -146.5 -243.5t-146.5 -243.5q135 -50 219 -158q86 -111 86 -258q0 -183 -133 -314 q-132 -130 -315 -130q-194 0 -328 145z" />
<glyph unicode="4" horiz-adv-x="1083" d="M76 375q188 244 374.5 486.5t374.5 486.5v-807h199v-166h-199v-375h-172v375h-577zM420 541h233v305q-59 -78 -116.5 -153t-116.5 -152z" />
<glyph unicode="5" horiz-adv-x="1112" d="M211 109q34 32 125 114q73 -73 182 -73q112 0 196 82q83 82 83 196q0 115 -83 194q-83 80 -196 80q-161 0 -225 -104v733h588v-166h-416v-301q24 4 84.5 4t141.5 -33.5t143 -94.5q133 -131 133 -312q0 -183 -133 -314q-132 -130 -316 -130t-307 125z" />
<glyph unicode="6" horiz-adv-x="1064" d="M98 403q0 368 443 721q121 97 235 181q27 -33 53.5 -66t53.5 -65q-229 -151 -383 -308l43 2q186 0 315 -128q133 -130 133 -312q0 -184 -133 -314q-131 -130 -315 -130q-176 0 -307 122q-130 121 -138 297zM274 428q0 -116 78 -196q81 -82 191 -82q111 0 195 82 q83 82 83 196q0 115 -83 194q-83 80 -195 80q-110 0 -191 -80q-78 -76 -78 -194z" />
<glyph unicode="7" horiz-adv-x="960" d="M29 1163v168h845l-598 -1331h-194q133 293 263 581.5t263 581.5h-579z" />
<glyph unicode="8" horiz-adv-x="1044" d="M74 428q0 119 57 216t152 157q-88 88 -88 219q0 134 95 231t228 97q135 0 232 -97q96 -96 96 -228t-90 -222q94 -59 152.5 -156.5t58.5 -203t-36 -186.5t-97 -141q-132 -130 -316 -130q-185 0 -314.5 129.5t-129.5 314.5zM250 428q0 -116 78 -196q81 -82 190 -82 q112 0 196 82q83 82 83 196q0 110 -79 190q-78 80 -190 84q-117 0 -198 -80q-80 -78 -80 -194zM369 1020q0 -66 45 -109t109.5 -43t108.5 43t44 109t-44 114t-108.5 48t-109.5 -48t-45 -114z" />
<glyph unicode="9" horiz-adv-x="1075" d="M53 858q0 183 133 314t316 131q182 0 314 -133q130 -129 130 -336q0 -115 -64.5 -240t-165.5 -234q-154 -169 -448 -378q-75 92 -106 131q225 149 383 307q-10 -2 -21 -2h-22q-186 0 -316 128q-133 131 -133 312zM223 858q0 -115 83 -194q83 -80 196 -80q109 0 190 80 q78 76 78 194q0 116 -78 196q-81 83 -190 83q-113 0 -196 -83t-83 -196z" />
<glyph unicode=":" horiz-adv-x="358" d="M68 106q0 47 32.5 78t72.5 31t73 -30.5t33 -78.5q0 -47 -33 -76.5t-73 -29.5t-72.5 29.5t-32.5 76.5zM68 618q0 47 32.5 78t72.5 31t73 -30.5t33 -78.5q0 -47 -33 -76.5t-73 -29.5t-72.5 29.5t-32.5 76.5z" />
<glyph unicode=";" horiz-adv-x="411" d="M-25 -246l158 422h172l-176 -422h-154zM131 618q0 47 33 78t73 31t72.5 -30.5t32.5 -78.5q0 -47 -33 -76.5t-72.5 -29.5t-72.5 29.5t-33 76.5z" />
<glyph unicode="&#x3c;" horiz-adv-x="1392" d="M238 487q225 129 447 258t448 259v-232q-123 -72 -247 -142.5t-247 -142.5l494 -284v-232q-225 129 -447.5 258t-447.5 258z" />
<glyph unicode="=" horiz-adv-x="1449" d="M205 229v166h1036v-166h-1036zM205 627v166h1036v-166h-1036z" />
<glyph unicode="&#x3e;" horiz-adv-x="1331" d="M238 -29v232q123 72 246.5 142.5t246.5 141.5l-493 285v232q225 -129 447 -258.5t448 -258.5q-225 -129 -447.5 -258t-447.5 -258z" />
<glyph unicode="?" horiz-adv-x="925" d="M84 1186q63 203 234 280q71 33 165.5 33t168 -31.5t128.5 -85.5q115 -116 115 -282q0 -115 -54.5 -200t-146.5 -155q-29 -20 -61.5 -41.5t-60.5 -49.5q-66 -63 -66 -158v-160h-172v199q0 110 76 179q34 31 77 59t104 74q130 98 130 253q0 100 -62.5 166.5t-171 66.5 t-166 -51.5t-88.5 -151.5zM311 106q0 47 33 78t73 31t72.5 -30.5t32.5 -78.5q0 -47 -32.5 -76.5t-72.5 -29.5t-73 29.5t-33 76.5z" />
<glyph unicode="@" horiz-adv-x="2027" d="M133 387q0 178 68.5 336t186.5 274.5t275.5 184t336.5 67.5t337 -67.5t275 -184t184.5 -274.5t67.5 -338q-14 -192 -150 -300q-106 -85 -244 -85h-217v82q-2 -6 -20.5 -22.5t-52.5 -33.5q-90 -44 -181.5 -44t-167 31.5t-131.5 86.5q-118 119 -118 283q0 162 118.5 280.5 t292.5 118.5q96 0 181 -48q60 -34 79 -62l9 96h141v-602h67q208 0 222 219q0 145 -54.5 272t-148.5 223q-200 203 -488 203q-290 0 -492 -203q-95 -96 -149.5 -223t-54.5 -272t54.5 -271t149.5 -220q204 -203 492 -203q233 0 429 135l102 -121q-149 -132 -392 -169 q-71 -11 -139 -11q-180 0 -337.5 67.5t-275.5 184.5t-186.5 274.5t-68.5 335.5zM754 386q0 -101 66.5 -170t172.5 -69t173 69t67 170t-66.5 168t-173.5 67q-106 0 -172.5 -67t-66.5 -168z" />
<glyph unicode="A" horiz-adv-x="1515" d="M125 0q160 377 317.5 749.5t317.5 749.5q160 -377 317.5 -749.5t317.5 -749.5h-170l-240 567h-450l-240 -567h-170zM604 729h311l-137 326l-18 67q-29 -102 -72 -198.5t-84 -194.5z" />
<glyph unicode="B" horiz-adv-x="1095" d="M119 0v1434h375q323 0 416 -196q32 -69 32 -179.5t-60.5 -206.5t-183.5 -131q197 -42 270 -219q25 -60 25 -142.5t-39 -151.5t-104 -115q-130 -93 -320 -93h-411zM289 162h227q208 0 282 131q25 43 25 104t-28.5 108.5t-74.5 76.5q-91 59 -233 59h-198v-479zM289 803h221 q121 0 191.5 67.5t70.5 178.5q0 223 -266 223h-217v-469z" />
<glyph unicode="C" horiz-adv-x="1372" d="M127 715q0 152 57.5 286t156.5 233t232.5 157.5t260.5 58.5q224 0 399 -102l-94 -138q-133 78 -265.5 78t-233.5 -45t-178 -124q-165 -169 -165 -404q0 -117 44 -221.5t121 -181.5q169 -167 396 -167q152 0 281 76l92 -135q-178 -102 -351.5 -102t-306.5 57t-232 156.5 t-156.5 232.5t-57.5 285z" />
<glyph unicode="D" horiz-adv-x="1335" d="M123 0v1434h334q303 0 507 -195q214 -204 214 -524q0 -121 -42 -248t-136.5 -230.5t-245 -170t-367.5 -66.5h-264zM293 164h143q247 0 407 150q165 156 165 403q0 249 -165 405q-160 150 -407 150h-143v-1108z" />
<glyph unicode="E" horiz-adv-x="1230" d="M141 0v1434h883v-162h-713v-469h633v-162h-633v-479h742v-162h-912z" />
<glyph unicode="F" horiz-adv-x="1202" d="M141 0v1434h883v-162h-713v-469h633v-162h-633v-641h-170z" />
<glyph unicode="G" horiz-adv-x="1417" d="M127 715q0 152 57.5 286t156.5 233t232.5 157.5t260.5 58.5q224 0 399 -102l-94 -138q-133 78 -265.5 78t-233.5 -45t-178 -124q-165 -169 -165 -404q0 -117 44 -221.5t121 -181.5q169 -167 396 -167q106 0 203 37v209q0 35 -7 48.5t-40 13.5h-164v161h283 q59 0 78.5 -29.5t19.5 -92.5v-406q-178 -102 -351.5 -102t-306.5 57t-232 156.5t-156.5 232.5t-57.5 285z" />
<glyph unicode="H" horiz-adv-x="1433" d="M160 0v1434h170v-631h774v631h170v-1434h-170v641h-774v-641h-170z" />
<glyph unicode="I" horiz-adv-x="569" d="M203 0v1434h170v-1434h-170z" />
<glyph unicode="J" horiz-adv-x="700" d="M35 -133q141 8 232 90t91 233v1244h170v-1250q0 -221 -140 -350q-135 -125 -353 -129v162z" />
<glyph unicode="K" horiz-adv-x="1228" d="M104 0v1434h170v-562q-2 -16 -3 -32.5t-3 -32.5q10 12 19.5 23.5t19.5 23.5q154 145 304.5 289.5t303.5 290.5h209l-610 -582q170 -215 338 -426t338 -426h-203l-586 743l-127 -120v-623h-170z" />
<glyph unicode="L" horiz-adv-x="1214" d="M141 0v1434h170v-1272h742v-162h-912z" />
<glyph unicode="M" horiz-adv-x="1918" d="M205 0v1499q188 -244 374.5 -486.5t374.5 -486.5q188 244 375 486.5t375 486.5v-1499h-170v963q2 16 3 32.5t3 32.5q-135 -201 -286.5 -390t-299.5 -382q-137 180 -274 358.5t-274 358.5l-37 55l6 -65v-963h-170z" />
<glyph unicode="N" horiz-adv-x="1665" d="M205 0v1499q264 -287 524 -568.5t524 -568.5q10 -14 19.5 -26t19.5 -27l-6 66v1059h170v-1500q-264 281 -524 557.5t-524 557.5q-10 14 -19.5 26t-19.5 27l6 -66v-1036h-170z" />
<glyph unicode="O" horiz-adv-x="1720" d="M127 714q0 151 57.5 285t156.5 234t232.5 158.5t284 58.5t284.5 -58.5t234.5 -158.5t158.5 -234.5t58 -285t-58 -283.5t-158.5 -232.5t-234.5 -156.5t-285 -57t-284 57t-232 156.5t-156.5 232.5t-57.5 284zM297 715q0 -239 165 -403q169 -167 398 -167q231 0 398 167 q165 165 165 403q0 235 -165 403q-164 168 -398 168q-232 0 -398 -168q-165 -167 -165 -403z" />
<glyph unicode="P" horiz-adv-x="1001" d="M119 0v1434h338q172 0 313 -90q172 -111 172 -298.5t-110.5 -297t-319.5 -109.5h-223v-639h-170zM289 803h178q161 0 241 82q64 64 64 159q0 93 -87 161.5t-216 68.5h-180v-471z" />
<glyph unicode="Q" horiz-adv-x="1724" d="M127 715q0 152 57.5 286t156.5 233t232.5 157.5t284.5 58.5q152 0 286 -58.5t233.5 -157.5t157.5 -233.5t58 -293t-69.5 -302t-186.5 -243.5h301v-162h-628q-78 -16 -152 -16q-152 0 -285 57t-232 156.5t-156.5 232.5t-57.5 285zM297 715q0 -117 44 -221.5t121 -181.5 q169 -167 396 -167q231 0 398 167q77 77 122 181.5t45 221.5q0 232 -167 404q-163 169 -398 169q-231 0 -396 -169t-165 -404z" />
<glyph unicode="R" horiz-adv-x="1062" d="M119 0v1434h338q172 0 313 -90q172 -111 172 -300q0 -154 -77 -257t-224 -136l307 -651h-184l-301 639h-174v-639h-170zM289 803h178q161 0 241 82q64 64 64 159q0 93 -87 161.5t-216 68.5h-180v-471z" />
<glyph unicode="S" horiz-adv-x="1153" d="M94 217l107 107q167 -179 348 -179q112 0 189 61q83 66 83 179q0 137 -138 218q-58 34 -121.5 54.5t-105.5 36.5t-93.5 41t-97.5 67q-110 100 -113 257v16q0 144 86 242q107 125 315 125q82 0 170 -29t197 -121q-25 -31 -48.5 -61.5t-48.5 -61.5q-70 70 -179 99 q-42 12 -89 12q-119 0 -176 -67.5t-57 -159.5q0 -126 142 -185q40 -16 95.5 -35.5t133 -53.5t143.5 -86q155 -121 155 -310q0 -180 -125 -292q-121 -107 -301 -107q-146 0 -287 76q-126 70 -184 157z" />
<glyph unicode="T" horiz-adv-x="1132" d="M0 1272v162h1133v-162h-480v-1272h-170v1272h-483z" />
<glyph unicode="U" horiz-adv-x="1335" d="M156 463v971h170v-965q0 -154 97 -240q94 -84 249 -84q153 0 248 84q100 88 100 240v965h170v-971q0 -227 -150 -357q-139 -122 -368 -122q-228 0 -369 122q-147 127 -147 357z" />
<glyph unicode="V" horiz-adv-x="1478" d="M111 1434h170q113 -266 223 -527.5t223 -527.5l18 -68l19 68q113 266 223 527.5t223 527.5h170q-160 -377 -317.5 -750t-317.5 -750q-220 518 -634 1500z" />
<glyph unicode="W" horiz-adv-x="2269" d="M111 1434h170q113 -266 223 -527.5t223 -527.5l18 -68q51 186 219 547q42 90 78 178q-41 100 -84 198.5t-84 199.5h170q113 -266 223.5 -527.5t223.5 -527.5l18 -68l19 68q113 266 223 527.5t223 527.5h170q-160 -377 -317.5 -750t-317.5 -750l-362 854q-4 18 -10.5 36 t-10.5 36q-52 -205 -172 -467q-53 -117 -107 -232.5t-102 -226.5q-220 518 -634 1500z" />
<glyph unicode="X" horiz-adv-x="1433" d="M190 0l478 731q-115 176 -228.5 351t-228.5 352h209q84 -129 167 -257t167 -257q6 -14 13 -27.5t13 -28.5q6 14 13.5 27.5t13.5 28.5q84 129 167 257t167 257h209l-465 -715q117 -180 234.5 -359.5t234.5 -359.5h-211l-344 528q-8 14 -14.5 28.5t-14.5 29.5 q-6 -14 -13 -28.5t-14 -29.5q-86 -133 -171 -264t-171 -264h-211z" />
<glyph unicode="Y" horiz-adv-x="1306" d="M25 1434h208q98 -166 196.5 -331t197.5 -331q6 -16 11 -31.5t11 -31.5h2q6 16 12.5 31.5t12.5 31.5q98 166 195.5 331t195.5 331h209l-520 -883v-551h-209v553q-131 221 -261 440t-261 441z" />
<glyph unicode="Z" horiz-adv-x="1433" d="M166 0v164q221 279 438 554t438 554h-692q-63 0 -107 37t-44 96v100h170v-24q0 -33 13 -40t48 -7h821v-162q-221 -279 -438 -554.5t-438 -553.5h936v-164h-1145z" />
<glyph unicode="[" horiz-adv-x="692" d="M170 -305v1833h393v-166h-223v-1501h223v-166h-393z" />
<glyph unicode="\" horiz-adv-x="788" d="M0 1507h193q143 -389 284 -773t285 -773h-193q-143 389 -284.5 773t-284.5 773z" />
<glyph unicode="]" horiz-adv-x="700" d="M121 -139h223v1501h-223v166h393v-1833h-393v166z" />
<glyph unicode="^" horiz-adv-x="962" d="M229 981q61 92 123 185.5t123 185.5q61 -92 122.5 -185.5t123.5 -185.5h-121q-57 68 -125 147l-125 -147h-121z" />
<glyph unicode="_" horiz-adv-x="1228" d="M205 0v166h819v-166h-819z" />
<glyph unicode="`" horiz-adv-x="409" d="M-104 1253h172q47 -68 92 -136t92 -136h-121q-59 68 -117.5 136.5t-117.5 135.5z" />
<glyph unicode="a" horiz-adv-x="1044" d="M100 383q0 162 119 283q119 120 293 120q93 0 184 -52q35 -19 55.5 -37.5t20.5 -24.5l8 96h142v-768h-150v84q0 -6 -18.5 -22.5t-51.5 -33.5q-84 -46 -180 -46t-172 31.5t-131 86.5q-119 121 -119 283zM272 386q0 -101 67 -170t173 -69t173 69t67 170t-67 168t-173 67 t-173 -67t-67 -168z" />
<glyph unicode="b" horiz-adv-x="1091" d="M168 0v1536h170v-795q-4 -16 -10 -32.5t-11 -32.5q0 6 20.5 23.5t55.5 36.5q89 50 180 50t166.5 -31.5t130.5 -86.5q119 -119 119 -283q0 -166 -118.5 -284.5t-292.5 -118.5q-105 0 -191 46q-33 17 -51.5 33.5t-18.5 22.5v-84h-149zM338 386q0 -101 66.5 -170t173.5 -69 q106 0 172.5 69t66.5 170t-66.5 168t-172.5 67t-173 -67t-67 -168z" />
<glyph unicode="c" horiz-adv-x="808" d="M74 385q0 167 118 283q120 118 291 118q146 0 260 -88l-106 -127q-66 49 -163 49q-1 0 -1 1q-97 0 -163 -67t-66 -168t66 -170t164 -69l2 1q98 0 161 51l102 -129q-114 -88 -256 -88q-172 0 -290.5 118.5t-118.5 284.5z" />
<glyph unicode="d" horiz-adv-x="1081" d="M100 385q0 162 119 283q117 118 293 118q97 0 184 -50q35 -19 55.5 -36.5t20.5 -23.5l-20 65v795h170v-1536h-150v84q0 -6 -18.5 -22.5t-51.5 -33.5q-84 -46 -180 -46t-172 31.5t-131 86.5q-119 121 -119 285zM272 386q0 -101 67 -170t173 -69t173 69t67 170t-67 168 t-173 67t-173 -67t-67 -168z" />
<glyph unicode="e" horiz-adv-x="923" d="M74 385q0 167 118 283q120 118 291 118q194 0 308 -204q35 -62 53 -136q-139 -51 -277.5 -102t-277.5 -102q68 -95 194 -95q94 0 156 66l104 -123q-108 -108 -260 -108q-172 0 -290.5 118.5t-118.5 284.5zM244 401q96 35 191 71t192 71q-65 78 -145.5 78t-139.5 -41 t-76.5 -89.5t-21.5 -89.5z" />
<glyph unicode="f" horiz-adv-x="671" d="M45 621v165h131v273q0 221 142 351q130 120 352 128v-162q-141 -8 -232.5 -90t-91.5 -233v-267h240v-165h-240v-621h-170v621h-131z" />
<glyph unicode="g" horiz-adv-x="1060" d="M100 383q0 162 119 283q119 120 293 120q93 0 184 -52q35 -19 55.5 -37.5t20.5 -24.5l8 96h142v-891q0 -162 -119 -275.5t-289 -113.5q-149 0 -326 123l113 139q114 -86 209 -86q102 0 174 68q68 65 68 172v137q4 10 9 19.5t9 19.5q-39 -52 -158 -84q-45 -12 -115.5 -12 t-146.5 31.5t-131 86.5q-119 117 -119 281zM272 386q0 -101 67 -170t173 -69t173 69t67 170t-67 168t-173 67t-173 -67t-67 -168z" />
<glyph unicode="h" horiz-adv-x="1075" d="M168 0v1536h170v-872l-6 -93q91 203 334 215q121 0 190.5 -63.5t73.5 -165.5v-557h-170v479q-4 55 -40 95t-102 42h-12q-57 0 -101 -16q-48 -18 -85 -51q-82 -73 -82 -176v-373h-170z" />
<glyph unicode="i" horiz-adv-x="409" d="M100 1065q0 47 33 78t73 31t72.5 -31t32.5 -78t-32.5 -77t-72.5 -30t-73 30t-33 77zM119 0v768h170v-768h-170z" />
<glyph unicode="j" horiz-adv-x="460" d="M43 -244q111 86 111 250v764l170 -2v-768q0 -247 -164 -371zM139 1065q0 47 33 78t73 31t72.5 -31t32.5 -78t-32.5 -77t-72.5 -30t-73 30t-33 77z" />
<glyph unicode="k" horiz-adv-x="919" d="M119 0v1536h170v-1104l381 354l100 -100l-262 -248q80 -111 160 -219t159 -219h-196q-59 82 -120.5 164t-121.5 164q-22 -20 -100 -95v-233h-170z" />
<glyph unicode="l" horiz-adv-x="397" d="M119 0v1536h170v-1536h-170z" />
<glyph unicode="m" horiz-adv-x="1630" d="M168 0v768h149v-18q4 -49 7.5 -89t7.5 -90q43 98 130 154.5t202 58.5h8q109 0 175 -54q68 -56 81 -148q45 94 131 147t198 57q121 0 191 -63.5t74 -165.5v-557h-170v479q-4 55 -40 95t-102 42h-12q-57 0 -101 -16q-48 -18 -85 -51q-82 -73 -82 -176v-373h-170v479 q-4 55 -40 95t-102 42h-12q-57 0 -101 -16q-48 -18 -85 -51q-82 -73 -82 -176v-373h-170z" />
<glyph unicode="n" horiz-adv-x="1013" d="M168 0v768h149v-18q4 -49 7.5 -89t7.5 -90q41 98 132 156.5t207 58.5t185.5 -63.5t73.5 -165.5v-557h-170v479q-4 55 -40 95t-102 42h-12q-57 0 -101 -16q-48 -18 -85 -51q-82 -73 -82 -176v-373h-170z" />
<glyph unicode="o" horiz-adv-x="972" d="M74 384q0 83 31.5 156.5t86.5 127.5q120 118 291 118q174 0 293 -118q119 -117 119 -283q0 -164 -119 -285q-117 -118 -293 -118q-172 0 -290.5 118.5t-118.5 283.5zM244 383q0 -97 68 -167q68 -69 167 -69q97 0 168 69q70 68 70 167q0 98 -70 168t-168 70 q-100 0 -167 -70q-68 -72 -68 -168z" />
<glyph unicode="p" horiz-adv-x="1075" d="M137 -512v1280h142q0 -25 3 -48.5t5 -47.5q0 6 20.5 24.5t54.5 37.5q92 52 181.5 52t165 -31.5t131.5 -86.5q118 -119 118 -283q0 -166 -118.5 -284.5t-292.5 -118.5q-106 0 -191 46q-32 17 -50.5 33.5t-18.5 22.5l20 -45v-551h-170zM307 386q0 -101 66.5 -170t173.5 -69 q106 0 172.5 69t66.5 170t-66.5 168t-172.5 67t-173 -67t-67 -168z" />
<glyph unicode="q" horiz-adv-x="1048" d="M100 385q0 162 119 283q117 118 293 118q93 0 184 -52q35 -19 55.5 -37.5t20.5 -24.5l8 96h142v-1280h-170v551q4 10 10 22.5t10 22.5q0 -6 -18.5 -22.5t-51.5 -33.5q-84 -46 -180 -46t-172 31.5t-131 86.5q-119 121 -119 285zM272 386q0 -101 67 -170t173 -69t173 69 t67 170t-67 168t-173 67t-173 -67t-67 -168z" />
<glyph unicode="r" horiz-adv-x="677" d="M168 0v768h149v-18q4 -49 7.5 -89t7.5 -90q47 96 142 159q84 56 153 56l-13 -168q-125 0 -200.5 -69.5t-75.5 -175.5v-373h-170z" />
<glyph unicode="s" horiz-adv-x="724" d="M117 80l102 125q45 -29 76 -42t56.5 -13t38.5 1t30 8q42 17 44 59q0 4 1 9q-1 35 -21 53q-22 20 -58 33t-79 26t-81 37q-87 53 -87 181q0 114 86 177q69 52 158 52q91 0 171 -44q29 -17 52 -42q-23 -33 -47 -63.5t-47 -63.5q-48 48 -106 48q-96 0 -96 -61q0 -5 1 -11 q4 -25 31 -40t62.5 -29.5t76.5 -33t76 -46.5q80 -62 80 -175q0 -79 -40 -133.5t-91 -81t-130 -26.5t-148.5 25.5t-110.5 70.5z" />
<glyph unicode="t" d="M49 621v165h172v482h170v-482h201v-165h-201v-621h-170v621h-172z" />
<glyph unicode="u" horiz-adv-x="1083" d="M168 211v557h170v-479q4 -55 40 -95t102 -42h12q57 0 101 16q48 18 85 51q82 73 82 176v373h170v-786h-170v122l6 93q-41 -98 -132 -156.5t-207 -58.5t-185.5 63.5t-73.5 165.5z" />
<glyph unicode="v" horiz-adv-x="1024" d="M111 768h170q33 -61 71.5 -127t76.5 -131q79 -136 124 -264q32 104 97 217q127 219 175 305h170q-111 -205 -221 -407.5t-221 -407.5q-111 205 -221.5 407.5t-220.5 407.5z" />
<glyph unicode="w" horiz-adv-x="1581" d="M111 768h170q59 -129 127.5 -259t113.5 -263q37 111 91.5 216.5t101.5 209.5q-12 25 -23.5 48t-23.5 48h170q59 -129 127.5 -259t113.5 -263q45 133 114 263t128 259h170q-104 -205 -205.5 -407.5t-206.5 -407.5q-70 139 -139.5 275.5t-138.5 275.5 q-70 -139 -139.5 -275.5t-139.5 -275.5q-104 205 -205.5 407.5t-205.5 407.5z" />
<glyph unicode="x" horiz-adv-x="972" d="M43 0l303 414q-66 90 -130 177t-130 177h209q51 -68 101 -136.5t102 -135.5l198 272h209q-141 -193 -301 -414q66 -90 132.5 -177t131.5 -177h-217q-51 68 -100 136.5t-100 135.5l-199 -272h-209z" />
<glyph unicode="y" horiz-adv-x="1024" d="M53 768h170q76 -150 163 -304.5t140 -311.5q49 140 115 264.5t108 201t78 150.5h170l-645 -1280h-170q1 2 258 512z" />
<glyph unicode="z" horiz-adv-x="923" d="M86 0v166q149 135 272 259t189 181h-285q-63 0 -107 37t-44 96v101h170v-25q0 -33 13 -40t48 -7h444v-166q-66 -57 -121 -111.5t-109 -107.5q-116 -114 -230 -217h508v-166h-748z" />
<glyph unicode="{" horiz-adv-x="655" d="M61 524v166q88 4 131 98q31 67 31 179v319q0 170 72 216q33 22 77 24t93 2h129v-166h-90q-64 0 -84 -40q-23 -46 -23 -171v-264q0 -195 -133 -277q86 -52 120 -168q13 -45 13 -106v-264q0 -129 17.5 -162t38 -41t51.5 -8h90v-166h-129q-47 0 -91 2t-78 23q-73 47 -73 217 v311q0 177 -81 246q-32 28 -81 30z" />
<glyph unicode="|" horiz-adv-x="555" d="M186 -475v1909h172v-1909h-172z" />
<glyph unicode="}" horiz-adv-x="655" d="M61 -139h91q62 0 84 39q22 40 22 172v264q0 185 133 274q-86 51 -119 167q-14 46 -14 110v264q0 128 -17.5 161.5t-38 41.5t-50.5 8h-91v166h129q47 0 91.5 -2t78.5 -24q72 -46 72 -216v-319q0 -176 81 -247q32 -28 81 -30v-166q-128 -5 -155 -187q-7 -48 -7 -89v-311 q0 -169 -72 -217q-32 -21 -76 -23t-94 -2h-129v166z" />
<glyph unicode="~" horiz-adv-x="1001" d="M248 950q4 78 66 132q53 48 110 48q92 0 168 -67q50 -53 106 -53q96 0 109 94l92 -6q-4 -79 -65 -132q-55 -46 -112 -46q-89 0 -167 65q-50 53 -106 53q-29 0 -66 -18.5t-43 -75.5z" />
<glyph unicode="&#xa0;" />
<glyph unicode="&#xa1;" horiz-adv-x="409" d="M98 997q0 -47 33 -76.5t73 -29.5t72.5 29.5t32.5 76.5t-32.5 78t-72.5 31t-73 -30.5t-33 -78.5zM119 -430h170v1196h-170v-1196z" />
<glyph unicode="&#xa2;" horiz-adv-x="788" d="M74 385q0 133 82 241q81 107 211 144v127h172v-115q127 -19 204 -84l-106 -127q-41 29 -98 43v-462q54 12 98 47l102 -129q-86 -72 -200 -84v-125h-172v139q-130 37 -211 142q-82 107 -82 243zM244 385q0 -145 123 -211v418q-57 -29 -90 -83t-33 -124z" />
<glyph unicode="&#xa3;" horiz-adv-x="1175" d="M59 0v166h91q65 0 86 36q20 37 20 169v188h-133v166h133v299q0 274 453 274q137 0 219 -61t123 -143l-129 -76q-10 14 -23.5 33.5t-36.5 38.5q-52 43 -172 43t-191 -29t-71 -125v-254h240v-166h-240v-225q0 -59 -5 -99t-38 -69h352q129 0 162 17.5t41 38t8 50.5v90l172 3 v-191q0 -88 -42 -124q-59 -50 -199 -50h-820z" />
<glyph unicode="&#xa4;" horiz-adv-x="1024" d="M174 522l49 49q-45 78 -45 165.5t43 162.5l-47 49l121 121l49 -49q93 43 162 43q84 0 164 -43l49 49l121 -121l-45 -45q45 -78 45 -166t-47 -164l49 -49l-121 -121l-53 52q-72 -41 -160 -41t-162 39l-51 -52zM350 737.5q0 -66.5 46 -112t112 -45.5q68 0 114 46t46 111.5 t-47.5 112.5t-112.5 47t-111.5 -46.5t-46.5 -113z" />
<glyph unicode="&#xa5;" horiz-adv-x="1306" d="M25 1434h208q98 -166 196.5 -331t197.5 -331q6 -16 11 -31.5t11 -31.5h2q6 16 12.5 31.5t12.5 31.5q98 166 195.5 331t195.5 331h209q-230 -388 -430 -729h143v-166h-233v-168h233v-166h-233v-205h-209v205h-240v166h240v168h-240v166h150q-109 184 -216.5 364 t-215.5 365z" />
<glyph unicode="&#xa6;" horiz-adv-x="440" d="M141 240h172v-717h-172v717zM141 717v717h172v-717h-172z" />
<glyph unicode="&#xa7;" horiz-adv-x="1024" d="M245 786q19 115 103 183q59 47 144 55q-23 35 -41.5 69.5t-49 87t-43 100.5t-4.5 84q13 60 90 105q37 23 76 45.5t76 45.5q23 -35 43 -72t43 -72q-20 -10 -39.5 -22.5t-42.5 -25.5t-36 -27.5t-14 -35.5q-2 -39 44 -118h2q47 -78 91 -152.5t82 -137t47 -116t-1 -105.5 q-22 -115 -108 -179q-59 -47 -144 -60q23 -35 43.5 -71.5t51 -88t44 -100.5t4.5 -85q-14 -61 -90 -107q-37 -23 -74.5 -44.5t-74.5 -43.5l-86 143q45 27 75 44t43 33.5t11 39.5q-4 45 -63.5 140t-91 148.5t-47.5 81.5q-25 40 -25 50q-57 93 -38 208zM397 737q0 -55 38 -93 t92 -38t93 38t39 92t-37.5 93t-92 39t-93.5 -38t-39 -93z" />
<glyph unicode="&#xa8;" horiz-adv-x="757" d="M100 1065q0 47 33 78t73 31t72.5 -31t32.5 -78t-32.5 -77t-72.5 -30t-73 30t-33 77zM440 1065q0 47 33 78t73 31t72.5 -31t32.5 -78t-32.5 -77t-72.5 -30t-73 30t-33 77z" />
<glyph unicode="&#xa9;" horiz-adv-x="1624" d="M281 762q0 228 159 385q152 151 379 151t380 -151q159 -157 159 -385q0 -224 -159 -381q-156 -154 -380 -154t-379 154q-159 157 -159 381zM362 762q0 -196 131.5 -327.5t325.5 -131.5t325.5 131.5t131.5 327.5q0 198 -131.5 329.5t-325.5 131.5t-325.5 -131.5 t-131.5 -329.5zM502 768q0 138 96 236q95 96 233 96q92 0 170 -45l-43 -64q-59 37 -119.5 37t-105.5 -20.5t-80 -56.5q-73 -75 -73 -183q0 -109 73 -182q76 -76 162 -76t143 35l43 -62q-76 -47 -157 -47t-141 26.5t-105 71.5q-96 98 -96 234z" />
<glyph unicode="&#xaa;" horiz-adv-x="1198" d="M158 728q0 117 86 204t211 87q67 0 133 -38q25 -13 40 -26.5t15 -17.5l6 69h102v-554h-108v61q0 -5 -13.5 -17t-37.5 -24q-60 -33 -129.5 -33t-124 22.5t-94.5 62.5q-86 87 -86 204zM282 730.5q0 -72.5 48.5 -122.5t124.5 -50q77 0 125 50t48 122.5t-48 121t-125 48.5 q-76 0 -124.5 -48.5t-48.5 -121z" />
<glyph unicode="&#xab;" horiz-adv-x="1230" d="M240 489q88 84 175 165t175 165v-194l-133 -136l133 -137v-194zM590 489q88 84 175 165t175 165v-192l-133 -138l133 -137v-194z" />
<glyph unicode="&#xac;" horiz-adv-x="1144" d="M205 385v123h737v-205h-172v82h-565z" />
<glyph unicode="&#xad;" d="M109 301v166h376v-166h-376z" />
<glyph unicode="&#xae;" horiz-adv-x="1640" d="M281 762q0 228 159 385q152 151 379 151t380 -151q159 -157 159 -385q0 -224 -159 -381q-156 -154 -380 -154t-379 154q-159 157 -159 381zM362 762q0 -196 131.5 -327.5t325.5 -131.5t325.5 131.5t131.5 327.5q0 198 -131.5 329.5t-325.5 131.5t-325.5 -131.5 t-131.5 -329.5zM655 430v678h162q81 0 131.5 -33t74.5 -67.5t24 -95t-37 -109.5t-107 -66q37 -78 74 -153.5t72 -153.5h-86l-144 303h-82v-303h-82zM737 809h84q76 0 116 39q30 29 30 74t-42 77.5t-102 32.5h-86v-223z" />
<glyph unicode="&#xaf;" horiz-adv-x="817" d="M174 979v108h471v-108h-471z" />
<glyph unicode="&#xb0;" horiz-adv-x="577" d="M74 1147q0 86 60 145q62 60 149 60q82 0 144 -60q60 -59 60 -145q0 -88 -60 -147q-60 -58 -144 -58q-89 0 -149 58q-60 59 -60 147zM184 1145q0 -41 29 -69.5t70 -28.5t70.5 28.5t29.5 69.5t-29.5 70.5t-70.5 29.5t-70 -29.5t-29 -70.5z" />
<glyph unicode="&#xb1;" horiz-adv-x="1073" d="M176 205v166h737v-166h-737zM176 717v166h283v286h172v-286h282v-166h-282v-285h-172v285h-283z" />
<glyph unicode="&#xb2;" horiz-adv-x="815" d="M123 839q0 41 14 78t41 66q58 62 157 62q90 0 151 -63q57 -61 57 -148q0 -127 -130 -283q-38 -45 -78 -90h245v-82h-447q62 63 120.5 122t104.5 114q100 122 100 207q0 68 -43 107q-37 34 -78 34t-65 -13.5t-38 -32.5q-26 -34 -26 -78q0 -63 40 -105q-12 -12 -51 -52 q-32 21 -54 71q-20 45 -20 86z" />
<glyph unicode="&#xb3;" horiz-adv-x="858" d="M109 447l61 57q39 -47 101 -47q54 0 96 40q41 41 41 97t-41 95q-41 40 -96 40q-37 0 -67 -17q36 61 71 121.5t70 122.5h-192v82h333q-37 -60 -72.5 -119.5t-72.5 -119.5q67 -25 108 -78q43 -55 43 -127q0 -90 -66 -155q-65 -64 -155 -64q-96 0 -162 72z" />
<glyph unicode="&#xb4;" horiz-adv-x="561" d="M205 981l184 272h172l-235 -272h-121z" />
<glyph unicode="&#xb5;" horiz-adv-x="1116" d="M168 -412v1180h170v-479q4 -55 40 -95t101.5 -42t113.5 16t85 51q82 73 82 176v373h170v-786h-170v122l6 93q-43 -98 -130 -154.5t-204 -60.5q-51 0 -94 12v-406h-170z" />
<glyph unicode="&#xb6;" horiz-adv-x="1120" d="M78 1200q0 142 96 238q98 98 238 98h503v-1536h-170v1370h-163v-1370h-170v866q-141 0 -238 97q-96 96 -96 237z" />
<glyph unicode="&#xb7;" horiz-adv-x="344" d="M70 577q0 47 32.5 78t72.5 31t73 -30.5t33 -78.5q0 -47 -33 -76.5t-73 -29.5t-72.5 29.5t-32.5 76.5z" />
<glyph unicode="&#xb8;" horiz-adv-x="925" d="M217 -358q23 12 47.5 24t46.5 25q10 -33 37 -54.5t72 -21.5t71.5 33t26.5 78t-22.5 68.5t-48 42t-48 39t-22.5 54.5v70h104v-14q0 -65 59 -94q15 -7 27 -17q78 -60 78 -166q0 -146 -122 -203q-40 -18 -101.5 -18t-119.5 38t-85 116z" />
<glyph unicode="&#xb9;" horiz-adv-x="559" d="M72 914v76h143v-612h-79v536h-64z" />
<glyph unicode="&#xba;" horiz-adv-x="960" d="M149 729q0 60 23 113t62 92q87 85 210 85q126 0 212 -85t86 -204t-86 -206q-85 -85 -212 -85q-124 0 -209.5 85.5t-85.5 204.5zM272 728q0 -70 49 -120t120 -50q70 0 122 50q50 49 50 120t-50.5 121.5t-121.5 50.5q-72 0 -120 -51q-49 -52 -49 -121z" />
<glyph unicode="&#xbb;" horiz-adv-x="1230" d="M240 158l350 331q-88 84 -175 165t-175 165v-192l133 -138l-133 -137v-194zM590 158l350 331q-88 84 -175 165t-175 165v-194l133 -136l-133 -137v-194z" />
<glyph unicode="&#xbc;" horiz-adv-x="1982" d="M191 1167v118h220v-945h-122v827h-98zM524 -39l569 1546h172l-569 -1546h-172zM777 279q140 182 278.5 362.5t278.5 362.5v-601h148v-124h-148v-279h-128v279h-429zM1033 403h173v227q-44 -58 -86.5 -114t-86.5 -113z" />
<glyph unicode="&#xbd;" horiz-adv-x="2189" d="M191 1167v118h220v-945h-122v827h-98zM524 -39l569 1546h172l-569 -1546h-172zM804 661q0 59 19.5 112.5t58.5 93.5q83 90 225 90q130 0 217 -91q82 -87 82 -212q0 -182 -187 -406q-54 -65 -112 -130h353v-118h-643q90 90 174 175t149 164q144 176 144 298q0 97 -62 154 q-52 48 -111 48t-94 -19t-55 -46q-36 -50 -36 -113q0 -91 56 -151q-17 -17 -72 -74q-46 30 -78 101q-28 65 -28 124z" />
<glyph unicode="&#xbe;" horiz-adv-x="2613" d="M241 425l96 90q61 -74 157 -74q86 0 151 63q64 64 64 152q0 89 -64 150q-64 62 -151 62q-58 1 -103 -26q55 96 109.5 191t110.5 192h-301v130h521q-57 -96 -113 -189t-113 -188q104 -39 169 -122q66 -86 66 -200q0 -141 -102 -243q-102 -100 -244 -100q-150 0 -253 112z M914 -39l569 1546h172l-569 -1546h-172zM1080 279q140 182 278.5 362.5t278.5 362.5v-601h148v-124h-148v-279h-128v279h-429zM1336 403h173v227q-44 -58 -86.5 -114t-86.5 -113z" />
<glyph unicode="&#xbf;" horiz-adv-x="925" d="M63 4q0 115 54.5 200t146.5 155q29 20 61.5 41.5t60.5 49.5q66 63 66 158v160h172v-199q0 -110 -76 -179q-34 -31 -77 -59t-104 -74q-130 -98 -130 -253q0 -100 62.5 -166.5t171 -66.5t166 51.5t88.5 151.5l149 -56q-63 -203 -234 -280q-71 -33 -165.5 -33t-168 31.5 t-128.5 85.5q-115 116 -115 282zM436 998q0 47 32.5 76.5t72.5 29.5t73 -29.5t33 -76.5t-33 -78t-73 -31t-72.5 30.5t-32.5 78.5z" />
<glyph unicode="&#xc0;" horiz-adv-x="1515" d="M125 0q160 377 317.5 749.5t317.5 749.5q160 -377 317.5 -749.5t317.5 -749.5h-170l-240 567h-450l-240 -567h-170zM441 1808h172q47 -68 92 -136t92 -136h-121q-59 68 -117.5 136.5t-117.5 135.5zM604 729h311l-137 326l-18 67q-29 -102 -72 -198.5t-84 -194.5z" />
<glyph unicode="&#xc1;" horiz-adv-x="1515" d="M125 0q160 377 317.5 749.5t317.5 749.5q160 -377 317.5 -749.5t317.5 -749.5h-170l-240 567h-450l-240 -567h-170zM604 729h311l-137 326l-18 67q-29 -102 -72 -198.5t-84 -194.5zM701 1536l184 272h172l-235 -272h-121z" />
<glyph unicode="&#xc2;" horiz-adv-x="1515" d="M125 0q160 377 317.5 749.5t317.5 749.5q160 -377 317.5 -749.5t317.5 -749.5h-170l-240 567h-450l-240 -567h-170zM514 1536q61 92 123 185.5t123 185.5q61 -92 122.5 -185.5t123.5 -185.5h-121q-57 68 -125 147l-125 -147h-121zM604 729h311l-137 326l-18 67 q-29 -102 -72 -198.5t-84 -194.5z" />
<glyph unicode="&#xc3;" horiz-adv-x="1515" d="M125 0q160 377 317.5 749.5t317.5 749.5q160 -377 317.5 -749.5t317.5 -749.5h-170l-240 567h-450l-240 -567h-170zM434 1573q4 78 66 132q53 48 110 48q92 0 168 -67q50 -53 106 -53q96 0 109 94l92 -6q-4 -79 -65 -132q-55 -46 -112 -46q-89 0 -167 65q-50 53 -106 53 q-29 0 -66 -18.5t-43 -75.5zM604 729h311l-137 326l-18 67q-29 -102 -72 -198.5t-84 -194.5z" />
<glyph unicode="&#xc4;" horiz-adv-x="1515" d="M125 0q160 377 317.5 749.5t317.5 749.5q160 -377 317.5 -749.5t317.5 -749.5h-170l-240 567h-450l-240 -567h-170zM485 1659q0 47 33 78t73 31t72.5 -31t32.5 -78t-32.5 -77t-72.5 -30t-73 30t-33 77zM604 729h311l-137 326l-18 67q-29 -102 -72 -198.5t-84 -194.5z M825 1659q0 47 33 78t73 31t72.5 -31t32.5 -78t-32.5 -77t-72.5 -30t-73 30t-33 77z" />
<glyph unicode="&#xc5;" horiz-adv-x="1515" d="M125 0q160 377 317.5 749.5t317.5 749.5q160 -377 317.5 -749.5t317.5 -749.5h-170l-240 567h-450l-240 -567h-170zM582 1716q0 73 52.5 125.5t125.5 52.5q72 0 124 -52q54 -54 54 -126q0 -71 -53.5 -124.5t-124.5 -53.5q-72 0 -126 54q-52 52 -52 124zM604 729h311 l-137 326l-18 67q-29 -102 -72 -198.5t-84 -194.5zM694 1714q0 -29 18.5 -47t47.5 -18t48 18.5t19 46.5q0 29 -19.5 48.5t-47.5 19.5q-29 0 -47.5 -19.5t-18.5 -48.5z" />
<glyph unicode="&#xc6;" horiz-adv-x="1638" d="M123 0l606 1434h717v-162h-518v-469h438v-162h-438v-479h547v-162h-717v541h-236l-229 -541h-170zM590 702h168v420q-29 -106 -77 -210.5t-91 -209.5z" />
<glyph unicode="&#xc7;" horiz-adv-x="1372" d="M127 715q0 152 57.5 286t156.5 233t232.5 157.5t260.5 58.5q224 0 399 -102l-94 -138q-133 78 -265.5 78t-233.5 -45t-178 -124q-165 -169 -165 -404q0 -117 44 -221.5t121 -181.5q169 -167 396 -167q152 0 281 76l92 -135q-163 -94 -344 -102q0 -65 59 -94 q105 -51 105 -181q0 -146 -122 -203q-40 -18 -101.5 -18t-120 38t-84.5 116q23 12 47 24t47 25q10 -33 36.5 -54.5t71.5 -21.5t72 33t27 78t-22.5 68.5t-48.5 42t-48.5 39t-22.5 54.5v58q-275 28 -466 234q-189 205 -189 493z" />
<glyph unicode="&#xc8;" horiz-adv-x="1230" d="M141 0v1434h883v-162h-713v-469h633v-162h-633v-479h742v-162h-912zM297 1808h172q47 -68 92 -136t92 -136h-121q-59 68 -117.5 136.5t-117.5 135.5z" />
<glyph unicode="&#xc9;" horiz-adv-x="1230" d="M141 0v1434h883v-162h-713v-469h633v-162h-633v-479h742v-162h-912zM539 1536l184 272h172l-235 -272h-121z" />
<glyph unicode="&#xca;" horiz-adv-x="1230" d="M141 0v1434h883v-162h-713v-469h633v-162h-633v-479h742v-162h-912zM368 1536q61 92 123 185.5t123 185.5q61 -92 122.5 -185.5t123.5 -185.5h-121q-57 68 -125 147l-125 -147h-121z" />
<glyph unicode="&#xcb;" horiz-adv-x="1230" d="M141 0v1434h883v-162h-713v-469h633v-162h-633v-479h742v-162h-912zM319 1659q0 47 33 78t73 31t72.5 -31t32.5 -78t-32.5 -77t-72.5 -30t-73 30t-33 77zM659 1659q0 47 33 78t73 31t72.5 -31t32.5 -78t-32.5 -77t-72.5 -30t-73 30t-33 77z" />
<glyph unicode="&#xcc;" horiz-adv-x="483" d="M-30 1808h172q47 -68 92 -136t92 -136h-121q-59 68 -117.5 136.5t-117.5 135.5zM203 0v1434h170v-1434h-170z" />
<glyph unicode="&#xcd;" horiz-adv-x="483" d="M203 0v1434h170v-1434h-170zM252 1536l184 272h172l-235 -272h-121z" />
<glyph unicode="&#xce;" horiz-adv-x="585" d="M43 1536q61 92 123 185.5t123 185.5q61 -92 122.5 -185.5t123.5 -185.5h-121q-57 68 -125 147l-125 -147h-121zM203 0v1434h170v-1434h-170z" />
<glyph unicode="&#xcf;" horiz-adv-x="483" d="M8 1659q0 47 33 78t73 31t72.5 -31t32.5 -78t-32.5 -77t-72.5 -30t-73 30t-33 77zM203 0v1434h170v-1434h-170zM348 1659q0 47 33 78t73 31t72.5 -31t32.5 -78t-32.5 -77t-72.5 -30t-73 30t-33 77z" />
<glyph unicode="&#xd0;" horiz-adv-x="1323" d="M45 633v166h78v635h311q162 0 308.5 -50.5t255 -143.5t173 -226t64.5 -275.5t-47 -269.5t-151.5 -231.5t-272.5 -171t-410 -66.5h-231v633h-78zM293 162h153q270 0 442 150q177 155 177 405q0 252 -177 407q-172 150 -442 150h-153v-475h371v-166h-371v-471z" />
<glyph unicode="&#xd1;" horiz-adv-x="1665" d="M205 0v1499q264 -287 524 -568.5t524 -568.5q10 -14 19.5 -26t19.5 -27l-6 66v1059h170v-1500q-264 281 -524 557.5t-524 557.5q-10 14 -19.5 26t-19.5 27l6 -66v-1036h-170zM516 1548q4 78 66 132q53 48 110 48q92 0 168 -67q50 -53 106 -53q96 0 109 94l92 -6 q-4 -79 -65 -132q-55 -46 -112 -46q-89 0 -167 65q-50 53 -106 53q-29 0 -66 -18.5t-43 -75.5z" />
<glyph unicode="&#xd2;" horiz-adv-x="1718" d="M123 714q0 151 57.5 285t156.5 234t232.5 158.5t284 58.5t284.5 -58.5t234.5 -158.5t158.5 -234.5t58 -285t-58 -283.5t-158.5 -232.5t-234.5 -156.5t-285 -57t-284 57t-232 156.5t-156.5 232.5t-57.5 284zM293 715q0 -239 165 -403q169 -167 398 -167q231 0 398 167 q165 165 165 403q0 235 -165 403q-164 168 -398 168q-232 0 -398 -168q-165 -167 -165 -403zM533 1808h172q47 -68 92 -136t92 -136h-121q-59 68 -117.5 136.5t-117.5 135.5z" />
<glyph unicode="&#xd3;" horiz-adv-x="1720" d="M123 714q0 151 57.5 285t156.5 234t232.5 158.5t284 58.5t284.5 -58.5t234.5 -158.5t158.5 -234.5t58 -285t-58 -283.5t-158.5 -232.5t-234.5 -156.5t-285 -57t-284 57t-232 156.5t-156.5 232.5t-57.5 284zM293 715q0 -239 165 -403q169 -167 398 -167q231 0 398 167 q165 165 165 403q0 235 -165 403q-164 168 -398 168q-232 0 -398 -168q-165 -167 -165 -403zM819 1536l184 272h172l-235 -272h-121z" />
<glyph unicode="&#xd4;" horiz-adv-x="1718" d="M123 714q0 151 57.5 285t156.5 234t232.5 158.5t284 58.5t284.5 -58.5t234.5 -158.5t158.5 -234.5t58 -285t-58 -283.5t-158.5 -232.5t-234.5 -156.5t-285 -57t-284 57t-232 156.5t-156.5 232.5t-57.5 284zM293 715q0 -239 165 -403q169 -167 398 -167q231 0 398 167 q165 165 165 403q0 235 -165 403q-164 168 -398 168q-232 0 -398 -168q-165 -167 -165 -403zM608 1536q61 92 123 185.5t123 185.5q61 -92 122.5 -185.5t123.5 -185.5h-121q-57 68 -125 147l-125 -147h-121z" />
<glyph unicode="&#xd5;" horiz-adv-x="1718" d="M123 714q0 151 57.5 285t156.5 234t232.5 158.5t284 58.5t284.5 -58.5t234.5 -158.5t158.5 -234.5t58 -285t-58 -283.5t-158.5 -232.5t-234.5 -156.5t-285 -57t-284 57t-232 156.5t-156.5 232.5t-57.5 284zM293 715q0 -239 165 -403q169 -167 398 -167q231 0 398 167 q165 165 165 403q0 235 -165 403q-164 168 -398 168q-232 0 -398 -168q-165 -167 -165 -403zM537 1620q4 78 66 132q53 48 110 48q92 0 168 -67q50 -53 106 -53q96 0 109 94l92 -6q-4 -79 -65 -132q-55 -46 -112 -46q-89 0 -167 65q-50 53 -106 53q-29 0 -66 -18.5 t-43 -75.5z" />
<glyph unicode="&#xd6;" horiz-adv-x="1718" d="M123 714q0 151 57.5 285t156.5 234t232.5 158.5t284 58.5t284.5 -58.5t234.5 -158.5t158.5 -234.5t58 -285t-58 -283.5t-158.5 -232.5t-234.5 -156.5t-285 -57t-284 57t-232 156.5t-156.5 232.5t-57.5 284zM293 715q0 -239 165 -403q169 -167 398 -167q231 0 398 167 q165 165 165 403q0 235 -165 403q-164 168 -398 168q-232 0 -398 -168q-165 -167 -165 -403zM581 1659q0 47 33 78t73 31t72.5 -31t32.5 -78t-32.5 -77t-72.5 -30t-73 30t-33 77zM921 1659q0 47 33 78t73 31t72.5 -31t32.5 -78t-32.5 -77t-72.5 -30t-73 30t-33 77z" />
<glyph unicode="&#xd7;" horiz-adv-x="1024" d="M223 522l121 121l203 -203l201 201q32 -32 116 -119l-198 -198l200 -203l-121 -121l-202 201l-199 -199l-119 117l201 200z" />
<glyph unicode="&#xd8;" horiz-adv-x="1720" d="M127 717.5q0 149.5 57.5 283.5t156.5 233t232.5 157.5t284.5 58.5q225 0 418 -131l131 154l119 -105l-131 -151q92 -98 145 -227.5t53 -278t-58 -281.5t-157.5 -232.5t-233.5 -156.5t-286 -57q-227 0 -412 125l-122 -144l-119 105l121 141q-92 98 -145.5 227.5t-53.5 279 zM297 715q0 -212 139 -375q184 215 365.5 426t365.5 426q-145 96 -309 96q-231 0 -396 -169t-165 -404zM555 236q140 -91 303 -91q231 0 398 167q77 77 122 181.5t45 216.5q0 219 -139 377q-184 -215 -364.5 -425.5t-364.5 -425.5z" />
<glyph unicode="&#xd9;" horiz-adv-x="1335" d="M156 463v971h170v-965q0 -154 97 -240q94 -84 249 -84q153 0 248 84q100 88 100 240v965h170v-971q0 -227 -150 -357q-139 -122 -368 -122q-228 0 -369 122q-147 127 -147 357zM381 1808h172q47 -68 92 -136t92 -136h-121q-59 68 -117.5 136.5t-117.5 135.5z" />
<glyph unicode="&#xda;" horiz-adv-x="1335" d="M156 463v971h170v-965q0 -154 97 -240q94 -84 249 -84q153 0 248 84q100 88 100 240v965h170v-971q0 -227 -150 -357q-139 -122 -368 -122q-228 0 -369 122q-147 127 -147 357zM615 1536l184 272h172l-235 -272h-121z" />
<glyph unicode="&#xdb;" horiz-adv-x="1335" d="M156 463v971h170v-965q0 -154 97 -240q94 -84 249 -84q153 0 248 84q100 88 100 240v965h170v-971q0 -227 -150 -357q-139 -122 -368 -122q-228 0 -369 122q-147 127 -147 357zM422 1538q61 92 123 185.5t123 185.5q61 -92 122.5 -185.5t123.5 -185.5h-121 q-57 68 -125 147l-125 -147h-121z" />
<glyph unicode="&#xdc;" horiz-adv-x="1335" d="M156 463v971h170v-965q0 -154 97 -240q94 -84 249 -84q153 0 248 84q100 88 100 240v965h170v-971q0 -227 -150 -357q-139 -122 -368 -122q-228 0 -369 122q-147 127 -147 357zM401 1659q0 47 33 78t73 31t72.5 -31t32.5 -78t-32.5 -77t-72.5 -30t-73 30t-33 77z M741 1659q0 47 33 78t73 31t72.5 -31t32.5 -78t-32.5 -77t-72.5 -30t-73 30t-33 77z" />
<glyph unicode="&#xdd;" horiz-adv-x="1306" d="M25 1434h208q98 -166 196.5 -331t197.5 -331q6 -16 11 -31.5t11 -31.5h2q6 16 12.5 31.5t12.5 31.5q98 166 195.5 331t195.5 331h209l-520 -883v-551h-209v553q-131 221 -261 440t-261 441zM570 1536l184 272h172l-235 -272h-121z" />
<glyph unicode="&#xde;" horiz-adv-x="1026" d="M205 0v1434h170v-338h168q172 0 313 -90q172 -111 172 -298t-110.5 -297t-319.5 -110h-223v-301h-170zM375 465h178q161 0 241 82q64 64 64 160q0 92 -87 160.5t-216 68.5h-180v-471z" />
<glyph unicode="&#xdf;" horiz-adv-x="1173" d="M18 684v166h132v16q0 214 130 352q123 128 300 128q134 0 231 -97q96 -96 96 -228t-90 -222q94 -59 152.5 -156.5t58.5 -203t-36 -186.5t-97 -141q-131 -130 -315 -130q-97 -1 -177 36l70 152q51 -23 107.5 -23t106.5 23t88 60q83 82 83 196q0 116 -84 194 q-85 80 -196 80h-3l-2 82v84q70 0 117 40t47 112q0 66 -45 114q-43 48 -110 48q-117 -6 -190 -89t-73 -235v-856h-169v684h-132z" />
<glyph unicode="&#xe0;" horiz-adv-x="1128" d="M100 383q0 162 119 283q119 120 293 120q93 0 184 -52q35 -19 55.5 -37.5t20.5 -24.5l8 96h142v-768h-150v84q0 -6 -18.5 -22.5t-51.5 -33.5q-84 -46 -180 -46t-172 31.5t-131 86.5q-119 121 -119 283zM213 1253h172q47 -68 92 -136t92 -136h-121q-59 68 -117.5 136.5 t-117.5 135.5zM272 386q0 -101 67 -170t173 -69t173 69t67 170t-67 168t-173 67t-173 -67t-67 -168z" />
<glyph unicode="&#xe1;" horiz-adv-x="1128" d="M100 383q0 162 119 283q119 120 293 120q93 0 184 -52q35 -19 55.5 -37.5t20.5 -24.5l8 96h142v-768h-150v84q0 -6 -18.5 -22.5t-51.5 -33.5q-84 -46 -180 -46t-172 31.5t-131 86.5q-119 121 -119 283zM272 386q0 -101 67 -170t173 -69t173 69t67 170t-67 168t-173 67 t-173 -67t-67 -168zM475 981l184 272h172l-235 -272h-121z" />
<glyph unicode="&#xe2;" horiz-adv-x="1128" d="M100 383q0 162 119 283q119 120 293 120q93 0 184 -52q35 -19 55.5 -37.5t20.5 -24.5l8 96h142v-768h-150v84q0 -6 -18.5 -22.5t-51.5 -33.5q-84 -46 -180 -46t-172 31.5t-131 86.5q-119 121 -119 283zM272 386q0 -101 67 -170t173 -69t173 69t67 170t-67 168t-173 67 t-173 -67t-67 -168zM288 981q61 92 123 185.5t123 185.5q61 -92 122.5 -185.5t123.5 -185.5h-121q-57 68 -125 147l-125 -147h-121z" />
<glyph unicode="&#xe3;" horiz-adv-x="1128" d="M100 383q0 162 119 283q119 120 293 120q93 0 184 -52q35 -19 55.5 -37.5t20.5 -24.5l8 96h142v-768h-150v84q0 -6 -18.5 -22.5t-51.5 -33.5q-84 -46 -180 -46t-172 31.5t-131 86.5q-119 121 -119 283zM238 950q4 78 66 132q53 48 110 48q92 0 168 -67q50 -53 106 -53 q96 0 109 94l92 -6q-4 -79 -65 -132q-55 -46 -112 -46q-89 0 -167 65q-50 53 -106 53q-29 0 -66 -18.5t-43 -75.5zM272 386q0 -101 67 -170t173 -69t173 69t67 170t-67 168t-173 67t-173 -67t-67 -168z" />
<glyph unicode="&#xe4;" horiz-adv-x="1128" d="M100 383q0 162 119 283q119 120 293 120q93 0 184 -52q35 -19 55.5 -37.5t20.5 -24.5l8 96h142v-768h-150v84q0 -6 -18.5 -22.5t-51.5 -33.5q-84 -46 -180 -46t-172 31.5t-131 86.5q-119 121 -119 283zM260 1065q0 47 33 78t73 31t72.5 -31t32.5 -78t-32.5 -77t-72.5 -30 t-73 30t-33 77zM272 386q0 -101 67 -170t173 -69t173 69t67 170t-67 168t-173 67t-173 -67t-67 -168zM600 1065q0 47 33 78t73 31t72.5 -31t32.5 -78t-32.5 -77t-72.5 -30t-73 30t-33 77z" />
<glyph unicode="&#xe5;" horiz-adv-x="1128" d="M100 383q0 162 119 283q119 120 293 120q93 0 184 -52q35 -19 55.5 -37.5t20.5 -24.5l8 96h142v-768h-150v84q0 -6 -18.5 -22.5t-51.5 -33.5q-84 -46 -180 -46t-172 31.5t-131 86.5q-119 121 -119 283zM272 386q0 -101 67 -170t173 -69t173 69t67 170t-67 168t-173 67 t-173 -67t-67 -168zM334 1106q0 73 53 124q55 54 125 54t125 -54q53 -51 53 -124q0 -72 -53 -125t-125 -53t-125 53t-53 125zM446 1104q0 -29 18.5 -47.5t47.5 -18.5t48.5 18.5t19.5 47.5t-19.5 48t-48.5 19t-47.5 -19t-18.5 -48z" />
<glyph unicode="&#xe6;" horiz-adv-x="1288" d="M88 229q0 174 186 215q54 11 109 11h182v49q0 64 -21 84q-36 35 -126 35q-78 0 -170 -37q-25 -11 -39 -21l-90 109q75 75 219 105q43 9 82 9q160 0 229 -45q90 45 172 45t140.5 -25.5t104.5 -70.5q98 -96 134 -243l-463 -173v-8q0 -49 -10 -96q46 -22 126.5 -22t141.5 65 l105 -123q-108 -108 -260 -108q-109 0 -201 51q-76 -51 -223 -51q-162 0 -238 50q-90 60 -90 195zM260 221q0 -71 154 -71q107 0 136 30q15 15 15 45v54h-114q-191 0 -191 -58zM731 600q6 -43 6 -100v-45q61 23 123 45t123 45q-65 78 -133.5 78t-118.5 -23z" />
<glyph unicode="&#xe7;" horiz-adv-x="808" d="M74 385q0 167 118 283q120 118 291 118q146 0 260 -88l-106 -127q-66 49 -163 49.5t-163.5 -66.5t-66.5 -168t66.5 -170t165 -68.5t161.5 51.5l102 -129q-114 -88 -258 -88q0 -61 59 -92q105 -54 105 -181q0 -70 -35 -128q-56 -93 -180 -93q-70 0 -128 38t-85 116 q23 12 47.5 24t46.5 25q10 -33 37 -54.5t72 -21.5t71.5 33t26.5 78t-22.5 68.5t-48 42t-48 39t-22.5 54.5v66q-133 32 -218 141q-85 108 -85 248z" />
<glyph unicode="&#xe8;" horiz-adv-x="923" d="M74 385q0 167 118 283q120 118 291 118q194 0 308 -204q35 -62 53 -136q-139 -51 -277.5 -102t-277.5 -102q68 -95 194 -95q94 0 156 66l104 -123q-108 -108 -260 -108q-172 0 -290.5 118.5t-118.5 284.5zM119 1253h172q47 -68 92 -136t92 -136h-121q-59 68 -117.5 136.5 t-117.5 135.5zM244 401q96 35 191 71t192 71q-65 78 -145.5 78t-139.5 -41t-76.5 -89.5t-21.5 -89.5z" />
<glyph unicode="&#xe9;" horiz-adv-x="923" d="M74 385q0 167 118 283q120 118 291 118q194 0 308 -204q35 -62 53 -136q-139 -51 -277.5 -102t-277.5 -102q68 -95 194 -95q94 0 156 66l104 -123q-108 -108 -260 -108q-172 0 -290.5 118.5t-118.5 284.5zM244 401q96 35 191 71t192 71q-65 78 -145.5 78t-139.5 -41 t-76.5 -89.5t-21.5 -89.5zM449 981l184 272h172l-235 -272h-121z" />
<glyph unicode="&#xea;" horiz-adv-x="923" d="M74 385q0 167 118 283q120 118 291 118q194 0 308 -204q35 -62 53 -136q-139 -51 -277.5 -102t-277.5 -102q68 -95 194 -95q94 0 156 66l104 -123q-108 -108 -260 -108q-172 0 -290.5 118.5t-118.5 284.5zM229 981q61 92 123 185.5t123 185.5q61 -92 122.5 -185.5 t123.5 -185.5h-121q-57 68 -125 147l-125 -147h-121zM244 401q96 35 191 71t192 71q-65 78 -145.5 78t-139.5 -41t-76.5 -89.5t-21.5 -89.5z" />
<glyph unicode="&#xeb;" horiz-adv-x="923" d="M74 385q0 167 118 283q120 118 291 118q194 0 308 -204q35 -62 53 -136q-139 -51 -277.5 -102t-277.5 -102q68 -95 194 -95q94 0 156 66l104 -123q-108 -108 -260 -108q-172 0 -290.5 118.5t-118.5 284.5zM194 1065q0 47 33 78t73 31t72.5 -31t32.5 -78t-32.5 -77 t-72.5 -30t-73 30t-33 77zM244 401q96 35 191 71t192 71q-65 78 -145.5 78t-139.5 -41t-76.5 -89.5t-21.5 -89.5zM534 1065q0 47 33 78t73 31t72.5 -31t32.5 -78t-32.5 -77t-72.5 -30t-73 30t-33 77z" />
<glyph unicode="&#xec;" horiz-adv-x="356" d="M-117 1253h172q47 -68 92.5 -136t92.5 -136h-121q-59 68 -117.5 136.5t-118.5 135.5zM119 0v768h170v-768h-170z" />
<glyph unicode="&#xed;" horiz-adv-x="397" d="M119 0v768h170v-768h-170zM168 981l184 272h172l-235 -272h-121z" />
<glyph unicode="&#xee;" horiz-adv-x="489" d="M-8 981q61 92 123 185.5t123 185.5q61 -92 122.5 -185.5t122.5 -185.5h-121q-31 37 -62.5 74t-61.5 73l-125 -147h-121zM154 0v768h170v-768h-170z" />
<glyph unicode="&#xef;" horiz-adv-x="555" d="M12 1065q0 47 33 78t73 31t72.5 -31t32.5 -78t-32.5 -77t-72.5 -30t-73 30t-33 77zM203 0v768h170v-768h-170zM352 1065q0 47 33 78t73 31t72.5 -31t32.5 -78t-32.5 -77t-72.5 -30t-73 30t-33 77z" />
<glyph unicode="&#xf0;" horiz-adv-x="1009" d="M106 379q-4 167 112 287q116 119 288 125q66 2 131 -17q-51 155 -156 307l-94 -102l-119 108l115 123q-90 104 -188 189l124 112q92 -72 185 -170l92 103l119 -105l-111 -120q219 -291 297 -607q27 -108 28 -200.5t-29 -166t-83 -129.5q-116 -124 -287 -128t-294 110 q-124 115 -130 281zM277 386q2 -101 71.5 -168.5t175.5 -63.5q105 4 170 74q64 67 64 169q-4 103 -73 168.5t-175.5 61.5t-170.5 -72t-62 -169z" />
<glyph unicode="&#xf1;" horiz-adv-x="1071" d="M168 0v768h149v-18q4 -49 7.5 -89t7.5 -90q41 98 132 156.5t207 58.5t185.5 -63.5t73.5 -165.5v-557h-170v479q-4 55 -40 95t-101.5 42t-113.5 -16t-85 -51q-82 -73 -82 -176v-373h-170zM260 938q4 78 66 132q53 48 110 48q92 0 168 -67q50 -53 106 -53q96 0 109 94 l92 -6q-4 -79 -65 -132q-55 -46 -112 -46q-89 0 -167 65q-50 53 -106 53q-29 0 -66 -18.5t-43 -75.5z" />
<glyph unicode="&#xf2;" horiz-adv-x="960" d="M74 384q0 83 31.5 156.5t86.5 127.5q120 118 291 118q174 0 293 -118q119 -117 119 -283q0 -164 -119 -285q-117 -118 -293 -118q-172 0 -290.5 118.5t-118.5 283.5zM142 1253h172q47 -68 92 -136t92 -136h-121q-59 68 -117.5 136.5t-117.5 135.5zM244 383q0 -97 68 -167 q68 -69 167 -69q97 0 168 69q70 68 70 167q0 98 -70 168t-168 70q-100 0 -167 -70q-68 -72 -68 -168z" />
<glyph unicode="&#xf3;" horiz-adv-x="960" d="M74 384q0 83 31.5 156.5t86.5 127.5q120 118 291 118q174 0 293 -118q119 -117 119 -283q0 -164 -119 -285q-117 -118 -293 -118q-172 0 -290.5 118.5t-118.5 283.5zM244 383q0 -97 68 -167q68 -69 167 -69q97 0 168 69q70 68 70 167q0 98 -70 168t-168 70 q-100 0 -167 -70q-68 -72 -68 -168zM473 981l184 272h172l-235 -272h-121z" />
<glyph unicode="&#xf4;" horiz-adv-x="960" d="M74 384q0 83 31.5 156.5t86.5 127.5q120 118 291 118q174 0 293 -118q119 -117 119 -283q0 -164 -119 -285q-117 -118 -293 -118q-172 0 -290.5 118.5t-118.5 283.5zM229 981q61 92 123 185.5t123 185.5q61 -92 122.5 -185.5t123.5 -185.5h-121q-57 68 -125 147 l-125 -147h-121zM244 383q0 -97 68 -167q68 -69 167 -69q97 0 168 69q70 68 70 167q0 98 -70 168t-168 70q-100 0 -167 -70q-68 -72 -68 -168z" />
<glyph unicode="&#xf5;" horiz-adv-x="960" d="M74 384q0 83 31.5 156.5t86.5 127.5q120 118 291 118q174 0 293 -118q119 -117 119 -283q0 -164 -119 -285q-117 -118 -293 -118q-172 0 -290.5 118.5t-118.5 283.5zM166 950q4 78 66 132q53 48 110 48q92 0 168 -67q50 -53 106 -53q96 0 109 94l92 -6q-4 -79 -65 -132 q-55 -46 -112 -46q-89 0 -167 65q-50 53 -106 53q-29 0 -66 -18.5t-43 -75.5zM244 383q0 -97 68 -167q68 -69 167 -69q97 0 168 69q70 68 70 167q0 98 -70 168t-168 70q-100 0 -167 -70q-68 -72 -68 -168z" />
<glyph unicode="&#xf6;" horiz-adv-x="960" d="M74 384q0 83 31.5 156.5t86.5 127.5q120 118 291 118q174 0 293 -118q119 -117 119 -283q0 -164 -119 -285q-117 -118 -293 -118q-172 0 -290.5 118.5t-118.5 283.5zM206 1065q0 47 33 78t73 31t72.5 -31t32.5 -78t-32.5 -77t-72.5 -30t-73 30t-33 77zM244 383 q0 -97 68 -167q68 -69 167 -69q97 0 168 69q70 68 70 167q0 98 -70 168t-168 70q-100 0 -167 -70q-68 -72 -68 -168zM546 1065q0 47 33 78t73 31t72.5 -31t32.5 -78t-32.5 -77t-72.5 -30t-73 30t-33 77z" />
<glyph unicode="&#xf7;" horiz-adv-x="1026" d="M139 422v166h738v-166h-738zM408 252q0 47 32.5 77.5t72.5 30.5t72.5 -30.5t32.5 -77.5t-32.5 -77t-72.5 -30t-72.5 30t-32.5 77zM408 764q0 47 32.5 77.5t72.5 30.5t72.5 -30.5t32.5 -77.5t-32.5 -77t-72.5 -30t-72.5 30t-32.5 77z" />
<glyph unicode="&#xf8;" horiz-adv-x="960" d="M74 385q0 167 118 283q120 118 291 118q115 0 205 -53l76 88q68 -60 92 -82l-70 -82q109 -113 109 -272q0 -164 -119 -285q-117 -118 -293 -118q-124 0 -223 65l-86 -100l-94 78l88 102q-94 111 -94 258zM244 400q0 -87 35 -144q76 88 149.5 174t149.5 174q-45 16 -95 17 q-106 0 -172.5 -67t-66.5 -154zM369 174q53 -27 114 -27q106 0 173 69t67 169q0 85 -47 145z" />
<glyph unicode="&#xf9;" horiz-adv-x="1083" d="M168 211v557h170v-479q4 -55 40 -95t101.5 -42t113.5 16t85 51q82 73 82 176v373h170v-786h-170v122l6 93q-41 -98 -132 -156.5t-207 -58.5t-185.5 63.5t-73.5 165.5zM258 1253h172q47 -68 92 -136t92 -136h-121q-59 68 -117.5 136.5t-117.5 135.5z" />
<glyph unicode="&#xfa;" horiz-adv-x="1083" d="M168 211v557h170v-479q4 -55 40 -95t101.5 -42t113.5 16t85 51q82 73 82 176v373h170v-786h-170v122l6 93q-41 -98 -132 -156.5t-207 -58.5t-185.5 63.5t-73.5 165.5zM473 981l184 272h172l-235 -272h-121z" />
<glyph unicode="&#xfb;" horiz-adv-x="1083" d="M168 211v557h170v-479q4 -55 40 -95t101.5 -42t113.5 16t85 51q82 73 82 176v373h170v-786h-170v122l6 93q-41 -98 -132 -156.5t-207 -58.5t-185.5 63.5t-73.5 165.5zM299 981q61 92 123 185.5t123 185.5q61 -92 122.5 -185.5t123.5 -185.5h-121q-57 68 -125 147 l-125 -147h-121z" />
<glyph unicode="&#xfc;" horiz-adv-x="1083" d="M168 211v557h170v-479q4 -55 40 -95t101.5 -42t113.5 16t85 51q82 73 82 176v373h170v-786h-170v122l6 93q-41 -98 -132 -156.5t-207 -58.5t-185.5 63.5t-73.5 165.5zM262 1065q0 47 33 78t73 31t72.5 -31t32.5 -78t-32.5 -77t-72.5 -30t-73 30t-33 77zM602 1065 q0 47 33 78t73 31t72.5 -31t32.5 -78t-32.5 -77t-72.5 -30t-73 30t-33 77z" />
<glyph unicode="&#xfd;" horiz-adv-x="999" d="M53 768h170q76 -150 163 -304.5t140 -311.5q49 140 115 264.5t108 201t78 150.5h170l-645 -1280h-170q1 2 258 512zM494 981l184 272h172l-235 -272h-121z" />
<glyph unicode="&#xfe;" horiz-adv-x="1140" d="M137 -512v2048h170v-799q-4 -16 -10 -32.5t-10 -32.5q0 6 20.5 23.5t54.5 36.5q88 50 179.5 50t167 -31.5t131.5 -86.5q118 -119 118 -281q0 -164 -118.5 -282.5t-292.5 -118.5q-106 0 -191 46q-32 17 -50.5 33.5t-18.5 22.5l20 -45v-551h-170zM307 386q0 -101 66.5 -170 t173.5 -69q106 0 172.5 69t66.5 170t-66.5 168t-172.5 67t-173 -67t-67 -168z" />
<glyph unicode="&#xff;" horiz-adv-x="999" d="M53 768h170q76 -150 163 -304.5t140 -311.5q49 140 115 264.5t108 201t78 150.5h170l-645 -1280h-170q1 2 258 512zM245 1065q0 47 33 78t73 31t72.5 -31t32.5 -78t-32.5 -77t-72.5 -30t-73 30t-33 77zM585 1065q0 47 33 78t73 31t72.5 -31t32.5 -78t-32.5 -77t-72.5 -30 t-73 30t-33 77z" />
<glyph unicode="&#x2000;" horiz-adv-x="954" />
<glyph unicode="&#x2001;" horiz-adv-x="1909" />
<glyph unicode="&#x2002;" horiz-adv-x="954" />
<glyph unicode="&#x2003;" horiz-adv-x="1909" />
<glyph unicode="&#x2004;" horiz-adv-x="636" />
<glyph unicode="&#x2005;" horiz-adv-x="477" />
<glyph unicode="&#x2006;" horiz-adv-x="318" />
<glyph unicode="&#x2007;" horiz-adv-x="318" />
<glyph unicode="&#x2008;" horiz-adv-x="238" />
<glyph unicode="&#x2009;" horiz-adv-x="381" />
<glyph unicode="&#x200a;" horiz-adv-x="106" />
<glyph unicode="&#x2010;" d="M109 301v166h376v-166h-376z" />
<glyph unicode="&#x2011;" d="M109 301v166h376v-166h-376z" />
<glyph unicode="&#x2012;" d="M109 301v166h376v-166h-376z" />
<glyph unicode="&#x2013;" horiz-adv-x="1042" d="M205 356v166h616v-166h-616z" />
<glyph unicode="&#x2014;" horiz-adv-x="1433" d="M203 356v166h1028v-166h-1028z" />
<glyph unicode="&#x2018;" horiz-adv-x="335" d="M63 1456l107 -14q-28 -143 68 -234l-84 -49q-123 123 -91 297z" />
<glyph unicode="&#x2019;" horiz-adv-x="335" d="M72 1208q97 92 67 234l107 14q32 -175 -90 -297q-23 12 -42.5 24.5t-41.5 24.5z" />
<glyph unicode="&#x201a;" horiz-adv-x="299" d="M39 -59q96 92 67 233l107 14q32 -175 -90 -297q-23 12 -42.5 24.5t-41.5 25.5z" />
<glyph unicode="&#x201c;" horiz-adv-x="509" d="M63 1456l107 -14q-28 -143 68 -234l-84 -49q-123 123 -91 297zM276 1456l107 -14q-28 -143 68 -234l-84 -49q-123 123 -91 297z" />
<glyph unicode="&#x201d;" horiz-adv-x="507" d="M23 1208q95 90 67 234l107 14q32 -174 -91 -297q-23 12 -42 24.5t-41 24.5zM236 1208q95 90 67 234l107 14q32 -174 -91 -297q-23 12 -42 24.5t-41 24.5z" />
<glyph unicode="&#x201e;" horiz-adv-x="698" d="M39 -59q96 92 67 233l107 14q32 -175 -90 -297q-23 12 -42.5 24.5t-41.5 25.5zM252 -59q96 92 67 233l107 14q32 -175 -90 -297q-23 12 -42.5 24.5t-41.5 25.5z" />
<glyph unicode="&#x2022;" horiz-adv-x="980" d="M231 614q0 108 76 186q75 77 182 77q109 0 186 -77t77 -186t-77 -184q-76 -74 -186 -74q-108 0 -182 74q-76 76 -76 184z" />
<glyph unicode="&#x202f;" horiz-adv-x="381" />
<glyph unicode="&#x2039;" horiz-adv-x="802" d="M240 489q88 84 175 165t175 165v-194l-133 -136l133 -137v-194z" />
<glyph unicode="&#x203a;" horiz-adv-x="802" d="M239 158l350 331q-88 84 -175 165t-175 165v-194l133 -136l-133 -137v-194z" />
<glyph unicode="&#x205f;" horiz-adv-x="477" />
<glyph unicode="&#xe000;" horiz-adv-x="768" d="M0 0v768h768v-768h-768z" />
</font>
</defs>
</svg>
